<mxfile host="app.diagrams.net" modified="2024-03-30T16:33:16.304Z" agent="Mozilla/5.0 (Windows NT 10.0; Win64; x64) AppleWebKit/537.36 (KHTML, like Gecko) Chrome/123.0.0.0 Safari/537.36" etag="DiwHc1yKFrlZKiC-gmQK" version="24.2.1" type="device">
  <diagram name="Page-1" id="ocF6Hfdm_GfvYNsKO88P">
    <mxGraphModel dx="1050" dy="522" grid="1" gridSize="10" guides="1" tooltips="1" connect="1" arrows="1" fold="1" page="1" pageScale="1" pageWidth="850" pageHeight="1100" math="0" shadow="0">
      <root>
        <mxCell id="0" />
        <mxCell id="1" parent="0" />
        <mxCell id="TX5If2MqFz6uqhYADykB-37" value="" style="rounded=0;whiteSpace=wrap;html=1;" vertex="1" parent="1">
          <mxGeometry x="160" y="600" width="540" height="110" as="geometry" />
        </mxCell>
        <mxCell id="TX5If2MqFz6uqhYADykB-11" style="edgeStyle=orthogonalEdgeStyle;rounded=0;orthogonalLoop=1;jettySize=auto;html=1;" edge="1" parent="1" source="TX5If2MqFz6uqhYADykB-1">
          <mxGeometry relative="1" as="geometry">
            <mxPoint x="250" y="160" as="targetPoint" />
          </mxGeometry>
        </mxCell>
        <mxCell id="TX5If2MqFz6uqhYADykB-1" value="" style="shape=image;verticalLabelPosition=bottom;labelBackgroundColor=default;verticalAlign=top;aspect=fixed;imageAspect=0;image=data:image/png,iVBORw0KGgoAAAANSUhEUgAAAJgAAACOCAYAAADNTcGnAAAAAXNSR0IArs4c6QAAAARnQU1BAACxjwv8YQUAAAAJcEhZcwAAEnQAABJ0Ad5mH3gAAABhaVRYdFNuaXBNZXRhZGF0YQAAAAAAeyJjbGlwUG9pbnRzIjpbeyJ4IjowLCJ5IjowfSx7IngiOjE1MiwieSI6MH0seyJ4IjoxNTIsInkiOjE0M30seyJ4IjowLCJ5IjoxNDN9XX0VbJQVAAATFElEQVR4Xu2da2wc13XH/7Ozs7tckiJFURRfkmxFb9myJFu1IstWnViWGyexnbpF3TRtgTRoPhQo0A8NUBQt2iAf2qQf/KFG6tZtEaNoEASpGrtRXdlJ5UiWrYf1smtbsiWKJkWRovhacp8zuz3nzixN0uRqHzOzM7v3J4x25u6D8/jPOeee+xglR0AicYiA9SqROIIUmMRRpMAkjiIFJnEUKTCJo0iBSRxFCkziKFJgEkeRApM4ihSYxFGkwCSOIgUmcRQpMImjSIFJHEUKTOIoUmASR5ECkziKFJjEUaTAJI4iBSZxFCkwiaNIgUkcRQpM4ihSYBJHkQKTOIoUmMRRpMAkjiIFJnEUOfkJMf8U0PrCM6LM/jeLoszflixO3QmMD1cs2SwtBrJZc9t613othCksFlggEBCLwgsLToruU9SBwHIkoiyyBolJ101xiWLzsCs5/FkrRq+8xkJTg0ESnSrWJbUqMDokFpWuZ0xRWWWuwYKjJUhiU4OaKcS8GOuM2hEYi4oWg0RlZDIVWSa7YYsW1DQEgmTZlPqybL4XmBlLZUlYOgzDdIFeRVg1LYSAarrQWRdbw/hWYEJUHFeRqAzd4BLzDR/AwmLXyUITYqthoflOYLy7bK1MYelWqT9hd8mVAtUSGhVY79QOvhEY72a+Juh1V1gqIt2hcoWAaqAstBrCFwLjXdQzaWGx2DXWKiw0lWI0rn3WijXzvMDYamXSKZF2IKVZpbWLiM+41hkO10QuzdMC0zMZIa56ENZCWGihSIPvXaYnBcZuUCdh6T4P4iuGRKaF2GVqYt2PeE5gwiWm2CVy6kFipjSCIn/mR5fpHYHRbnBeS0+npbgWIS8yv7lMb9wSs+KSlmspOJksbj46T37CEwL7RFy1m4KoHL4JdfM8+UhkVRcY57akuIqHb8bZtI0PqKrAWFx+OlleQVSEkklfnLeqCUykIqi2WMuZeSfhWFWcP+9lmeZRFYHxSUnzHZiT4qoEEZORyLyM6wJjcck8l32YgX/a2vIe7gqM0xHc45ROisQe+IblruFe7brkqsBEOiKTEUKT2IfofJnxZoLatUw+13g4XijXevFJzGVrX5iKWl5Xah7XpIY0s0nJQ+2WrghMmHGKE9iUl2q9+Lv9V6/grTeOYWZ62iqtXZa3teGRX3scTc3LrJLi4bZKLRQWzUpewRWBcS9UEdiXUWtMJhI4fvQXOPa/r/ki71Mp3H3615/5Grbevb0sS8Tf1yINnrFijsdgrF92i+WmJDJk9aanY3UhLobj1MmJcWurdPj7Xgr4HRcYZ53tPGDRfYXu0lpaxPQDNlocDkdccExF4aiL5J/mJo1K0hKx2BR+/sphvH3yTbG9qqsbqzq7xEWpFWZmpjHY3494fEZsH/ziE/jsg/srEh0H+1o4bG1VD0cFxjkvzthXwkKB/eojB7Hv4c9D0zSxXQsM9F/Dfx36Ca4P9IttOwTG3w01NIhR5dXEMTPAuhU5L0lV4PPPUyhUG+cERrFX1pBtjdWEOylWuzOBYwIzrZc3As16JUc192p7EUcExikF2d7oDbgWX00r5ojAuF3MLbj5qO/KFVx67726yZWVAlsxzo1VC9sFJoJLFw+Ik5KnThyjWtiPcf7t08jMcQmpVFJU/fNLygcd9OyGj5fjYVqxStzFdoEJk+ziwbS2tYm0RUdnJ15/7QjePX9ODNjlfTh3+hT++6eHZpcLJEBueiqaGhEjt6Lw5HzVwH6BldGgXSld3T3Ys28/eBbB40d/TiKKizlTGxqiCIXDs0uEtjlzvhSKkYE6OYBg/3EE3/8Rgu/9EMFLhxAcOgs1MQGlzOauaiN6olTJTdoqMLYa1bhTkskEbt0cEdn9bdvvITFFONOI7Tt34YtPPT273L1jpxDaQlg46vBFaGefR+jNv4F2/NvQfvkX9PpX0I79JbQ3vgPt5PcQvPADqLHr9A1/WTZxXTg+rcK1sVVg1aixpCmueufsWZw5+Sa23rVdWLJQKGS+WUQmXMnEoV16iUT0bagX/hHoPwJM91nvEkYKGHsHyqUfI3j276G9/ucIDZ6x3vQPLLBq3Pz2WjA2xda6W4j5GkhH3L3l/gceJDfYYL1zexQjjfCVI1BPfQ/K6AUS022atTIxKNffgPrLP0N4+P+sQn8gbnyXb37GXgvGXXZdvku4TXLHvbux96GHSxIXo8yMQHn7+0DiplVSJLF+BM48J2I2v8BPB/C1BRPWqwoHwHBwX3rjdw7hC/9O7vCqtV0ig68ifPFH1oYPoGtTjWtkn8B4x6sksHJQuKXh6svWVpkMvWWt+ANOuvKN5SY1YcHKITQzStXPYWurTCYuIsCVAJ/ArR5uXyJ7LVidodAxq+kSErdVphpexj6B8T8fiUwPN1tr5ZNTVBhaaRWLasLXx+1rZIvAxI77bMyiEWoEwh3WVplEOpANVr9bcvH4VGB+RMlSkB/ttrbKJNrjq1SFiR8FJu4Kf1mw8H98lYL0d6yt8lCGjkI7/X1ryyfwtXLRitlnwXykr1DsBpTxC7TPFXaKzMSgDh1DMFH+OEa3cfsy2RODicU/CgskJqw1GyBXq2T8U5Pky+TmlarLGMzgGqQdDwal38iFW5GNtFoFkoXUpcAyLT3Aui/R0Vu9Lsol1Irc2gNUI41aBZKF1KXAmMyeP4W+648ArUzrE+mk3/gW9PVfsAoki2GLwLjXlfncff+gR1dA3/QU0LTGKimRVfdD3/gEjEjp0yxVGzevlH0WzF/6MgmSa+vebW2UyOoHrRV/UcFsBGVhj8DEXvtPYTmKndJrSShKiV19FBXJTY9ZG36DrpOLKrNl8hP+CZ5gjic7sZuFk5/ctX0nNmzeXHDwRlHQOd6waSuixjTCJ58FrvyEDqSIHp9KELkdf4zkfd/A0OAgRkduWG8UySLX9tbNmzh7+uTsvGCPPl755CdLoYUjCGo8A6I7IrNndh0WWDrlyDD1hQKzk1279+ALT34FkZFzCB37a2DqsvVOATr3IfnId5EKRPFPzz2L4aEh643C8GOS21rCaGoI3PbS7t6zF9u273DE0ARDYfue2MY7qDaSJ2hZ8phsm76JJz3LiPna7U3jOSmw5mXL8LWv/yG6lVGEjn8HGDtvvVOADb+N5Gf/BJf7BvDiC/9gFd6eDXeuwJce6kFnK3crd79vvDMoyEXXItfxOQQiy62y+dgY5FM90h2rayvluqH8ZHHFoJFL2tgbQmcLjxmtFXExOSiJQQQmL1rbn8Y2gZkXyj8KY5e1acs2YcXKoWf1GnR0dhUVC4ZIYJHwIkldiln16Wlk80/qyGZhxOPQZ6ZF2MHkdN38DE/kV6yzMbLiO04tubkT2+ToptGXbnqzVWBOBKW2QvvHYya377wXz/ze17H/848iyrMApqaATJFTpCfHoOhJrGhfiSd/8xk8/dXfxT277iOhlT51eC6jw+BnNuUFRgLK8mzciU/ExCOyxWc4vi1aYIYQJH/PiYV/v1hsi8H4Zyqdj3UxpmMx/OJ/DuP0WyesktLhEd9Nzc3Y88BDWL95i1hvbGyCOjUE7c2/BUbPkakfJQtSRCUlSEFtdCWw5feR3vIkDFVDggQxMnwD7144J5aF8/k3RiN4bO8q3L91QZMSj2Pgi8UPX+CpLukc5qyhfwo/CJ4hlyo+o9Bnig3Oxe8454rNsahzjEnzBjLpX7Y25mObwBhOVeh2T91Eu/fhpQ/wysv/iYnxMauweFa0d+Dhg4/hM+s3itqTSnFDeOg8lHMvAMPHTFGVExcFyGKpEeS698PY+y1kGttJLznyTlmcO3MKrx5+WYx0Z6INYRy4vx27N0fEds3hlsB4XjCuSdr4kxXB+yGeqEvuxcikoA29A/XU3wFT13EzuRxjmQbcoOV6OooxI4xb+uLdn5epGawKJtCk6lgRTNGSRJuWwMrIOJ1BFhEJtGMncvd+E0oHCTnSZFqk/F2eM6DGLkCdedfcrjGUpnUIdB20tuZjq8B4/oN0MuGoeS4EHwpPhDI1OYlUIiHmrei/+hGuvH8RIzdHkdKd3a81oRlsbDbQu/+3EOi4U0wl3tK6XMzqkwhGEVcq7L3hUaJkzDuWGJpgq8DYnbHA3J5Rj+cDGx0ZpmUEgwP9FAedr+hpGXbBo805Ydqz9g60r9uKxlWrrXdqC/cERpgJV3cGo7L7uz7wMS5/8J6YRnOgv891cRcDN8/8ysEncM+DB6yS2qKQwOxLtFpwIO1GuoKt1hEKpA+/dAhHXzuCa+QKvSiuescRgQXs6I5cgNGbI/i3f34ep04cx+DH5tMxJN7EESWo+QngHILnYb3y4WVhxSTexhGBOe0mR0rtIiOpGo4IjMUVKKPppFiyev3FWplsFrGMjhS9FlMrS1I8GicLv9jC7+kFpnowqN43yblDG+p/ttci84icWCLuSNL1heeeRX/fnHlUPU6ltUiemfDMrXG8emMEO5a34OHODkQKNBslSECHrg2QSBYPIdrDYXRFI+iJNoj1Jm2+Mfhoahov9vXjmbW92NRy+84ArtYi83D7XzkNwMXAz6WuJ9hy9c3EMUPCeXt8EpPpwm2mg/TZ96dnMK5n0N4Qmbc0hzRMkRV7fWQU/3rlGo4O3/zU7w3E49w2gWvTcbOgAhyt7qma5kgs1rq8zVqrD26lUnTREwjTTZsmz/AhWZhiHEM7VbaeXtMzb3lqdQ++3NuFA2QFO8h6nR2fwNmxccdGezsqMG51V/O9AmykIVI/A1059hpKJJHMGtjd1kouLYS3xsZglCmJaFBFeySM+9rbcKBrlYjp+km88SXcaaU4KzCyXmowaPvjjxubGq212ofd4yWyWGyNtrW2oDMSwQS7zFiR/dcK0NvYgFVkxWbIZY7n+6TZjKMCY0QsJqyYfa6yZfni/b9rEb741ygmWt3YiG4Kyjc0NyJC5/SDyZj1ifLhK8JulysRujN1PecFRmZMWDGVTLNd1EsMljayOEfxUZRqjJ3k1lQ6l5uWNaOBtk9Q+VSFo7g4UzFBAtZIZPybTuBYmmIhPGaSOyTa8edmYjG8+srPrC3vwxa8d9sudG282yopDhbQix9dEzW/p1Z3o9l6FsDPBoZw4tYYvtLbjZ0rPm3NP5yK4cW+j9FLtcZvbFhnlc6H82As3p8ODuGu1mV4srcHIdW0N0dvjOA1qmXuW9GGR3s6RVkhXO1NsST0Z7gzos6Dc136k14hR85oBiHMlNgf7MzoGF66fgO7SUSP93RZpWYa4vmP+kQt8Jsb1wnLNpe8wDhue3yBQPjM8zJCFYfDQ8PCMj5Kwf4Gsox57BSY8y4yD50EfiKHanPAX8ucGZsgqxXExuYmq8SkpzFKwXlIZNtH4ks/X2mYPMa/XLk2b+Hc1w9oeWVoBFtblmF/x8p54rIb9yyYRZZ8PvcXq6fHH5djwSZTaXz3/ctooviVXdjCGIlzYUPJJPatXIFHyALNJW/Bmum79y3iQtne8fjyHW0ts253Lv50kXPgjoKZVNKRZiQvUo7AjgzewNHRW0IMheilmuVvrOlF25xxl8XEYIXwp4ucA9cqeY4EyeLEdQOnxyfQSFbrd+5Ygz9Yf+eiy6amJtHMwzGZV6laQGQ+Ic3ZfmN+5dLkFOKGgfUUa22k+GgtvS627GxrRYy8waWZ4qcxcJuqRtzcMZGH8Evmc3XaFMwDFIAvqCDO447mRiynG/VWMoXhuDdnuq6qwLgpKUhVbSfaK/3KdXJ3l8kihai23d1Y+DlI/BmuAExldAyTyLwY0VY9Z6AoAWhkyYTICt2udQJbr5SRxc7WFqtkaYIksM80N4n+X33xONL0yuTzYuWezSBPU0CvdlyNqguM4V4XLDJ2l052tfYDbZGwsEp7V7ZbJUvDZ2pVJIIHVq5AF73mJdFGXmE7CXRzEZ0FF2M1Wc4tFPv1UpxXKVVJUywFjwgXTUqiA1ztpDBKTVNwny92f8XCjdV8tuZm9LkdM9/0Uw6xTGbRHNlieC5NsRSi/xjVLDW6A+vZkpUiLiZA52phc1El4mKKFdft8JTAGBH408GFIg229yOTuI9nryAPfWORcbdriX/xtIlglxkKhREKR0RtU+I/vH/VOL5gl9kQEU1M9V7L9CKFrohvzEIgYLpMTme4NcGKXShUxwsgK15rjQBdhlABFXkqTVEsvMsGVaN5ikpe/PAwVIMklkQQOrl6Tlvwv4Co6fnXIrO4gnQIzUFOkViFC/ClwPKIvJmhfyI0HxxKjgQWCGqihsyWmEMAv8ICu50L9LXA8rDQ8mLjvmZePKT86Cq2Wjx/a73EkjUhsDx8KGJhsWXSnpiQLkiiUjWunLCwWFT1Iaw8NSWwebDQ6IW7ZguxkWVzA7ZMAe5QqYXEummo6ktUc6ldgS0CHyqPCWCxGfzAg7kUfRpILHP0wqs8VRW3PoiYSjKPuhLYUuT4aRpk6djaiXiOz8ic02JaIpISuThOl3ACuF5iqEqRApM4im8SrRJ/IgUmcRQpMImjSIFJHAT4f22bX6h5dTh8AAAAAElFTkSuQmCC;" vertex="1" parent="1">
          <mxGeometry x="20" y="110" width="107.05" height="100" as="geometry" />
        </mxCell>
        <mxCell id="TX5If2MqFz6uqhYADykB-13" style="edgeStyle=orthogonalEdgeStyle;rounded=0;orthogonalLoop=1;jettySize=auto;html=1;" edge="1" parent="1" source="TX5If2MqFz6uqhYADykB-4">
          <mxGeometry relative="1" as="geometry">
            <mxPoint x="570" y="160.00499999999988" as="targetPoint" />
          </mxGeometry>
        </mxCell>
        <mxCell id="TX5If2MqFz6uqhYADykB-4" value="" style="shape=image;verticalLabelPosition=bottom;labelBackgroundColor=default;verticalAlign=top;aspect=fixed;imageAspect=0;image=data:image/png,iVBORw0KGgoAAAANSUhEUgAAASwAAABcCAYAAADUKIgAAAAAAXNSR0IArs4c6QAAAARnQU1BAACxjwv8YQUAAAAJcEhZcwAAEnQAABJ0Ad5mH3gAAABfaVRYdFNuaXBNZXRhZGF0YQAAAAAAeyJjbGlwUG9pbnRzIjpbeyJ4IjowLCJ5IjowfSx7IngiOjMwMCwieSI6MH0seyJ4IjozMDAsInkiOjkyfSx7IngiOjAsInkiOjkyfV19gWVvzQAAIqpJREFUeF7tnQu8FUUdxxellETEfOADM5VKREhQKJBASVNTRMrCjIcIhSAqAZqmgkD5ChAUsyBFIVAwRfIBVloIKmmZJfhAA66YD8JXmsAV3eb7Z8e7Z3Z2z55zL3Dv5f/9fOZz79mzu2cfM7/5z8x//tMgNATKVmfZsmXBtGnTggEDBgRt2rSJtiqKksUO0V9lK9OwYcNgxx13DNavXx9tURSlGCpY2wjECtHauHFjtEVRlGKoYG0jdt5556BZs2bBpz71qWiLoijF0D6sbcSGDRuC1157LWjatGmw++67R1sVRclCBUtRlDqDNgkVRakzVMvC+vjjjwMOt6do0KBBsMMOO8hfRVGUmqZkwfroo4+CN954I3j11VeDVatWBf/617+kPwboSD7yyCODfffdN9hvv/2kfwYBUxRFqQlyCxa7vf7668GiRYuCW2+9NXjwwQejb5LsuuuuQa9evSQhYNqprChKTZBLsNjlscceC2bMmBFMnTo12lqcAw88MOjdu7d4c3/+85/XpqKiKNWiqGDx9UMPPRSMHTtWRIsmYSk0atQo6N69e3DNNdeIaCmKopRL0Q6mv//978G1114bLF26tGSxAqae3HXXXcEVY64I/vvf/0ZbFUVRSidTsN56661g+vTpweLFi4MPP/ww2lo6CN3cOXODOXPmRFsURVFKJ1OwlixZEjzwwAOfjALGoT/qsMMOE+vrr3/9azBv3rygb9++qVNNsLSGDx8uIqgoilIOqYK1bt264I9//GOwcuXKaEsVuC8MHDgw+Mtf/hJceOGFMhJ42mmnBbfddluwdu3a4MQTT/S6M7z//vsywqgoilIOqYKFC8M///nP6FMVCNFxxx0XTJ48OWjcuHG0tQp8rxhJPOaYY6Ithfz6178uqy9MURTFK1iMDK5ZsyZ46qmnoi1V4GN12WWXyehfGjiNnnvuucEuu+wSbanilVdeCd5+W5uFiqKUTqpgvfvuu8F7770XbamiZcuWwVe+8pXokx9iPR188MHB4YcfHm2pYrOn/Nrok6IoSn5SBSut2faFL3wh+i8bLDGm6Lhw7v/973/RJ0VRlPx4BYt+Kpp8Ps/0l19+OfovGyw0mpU+EC1FUZRS8QoWQkXn+d577x1tqYKOeDzes9i0aVPwwgsvBMuXL4+2VIEYHnDAAdEnRVGU/HgFC/bff/+gXbt20acq3nnnneCiiy7KbNZhhU2cONHrv7XPPvsEe+21V/RJURQlP6mChXXVqlWrhD8VzTksrFNOOUWsqA8++EDiYpEQKPy2mPCMM6mPwYMHlxTHnL40mpeEE0YIV61aKWFtKioqZBsDA+omoSjbB5mTn//whz8EP/rRj7xNO8CBtH///sE3v/lNETZCzlx//fXRt0lwd3j66adzWVh4xiNKrN939dVXB3/729+ibwrp1q1bcM455wQdOnQImjdvLiOUiqLUUxCsNN56663w4osvDps0aYKoVSvtsssu4cyZM6MzZ7N27drwpptuCtu2bes9ly+ddNJJ4Zw5c8L1G9ZHZ1EUpb6RKViwYsWKsE+fPmGjRo28QpEnGasnHDRoUPj+++9HZ01n3bp14XnnnRc2btzYe66shLBeeeWVuX5HUZS6R1HBAtMsC88444ywYcOGXqHISjvttFPY/+z+4apVq8KPP/44OqOfDRs2hGeffbYInO9ceRK/N3r06LCysjI6q6Io9YVcggUvvfSSWC95xaRBgwbhwQcfHF599dXhmjVriooV3//yl78sSxTd1KxZs/C2226LzqwoSn2hpEUocGV48cUXg0mTJgWzZ8/2xsjChwuXiGHDhkkEB9wYfHMKXehgpwPdFx0COC/n+fSnPy0jlYxIknyXzwBAx44dAyOA3ulBiqLUURCsUtm4cWNoxCscP358gWVDuuGGG8IPPvgg3LRpU7R3cbCuhg4dGhoxSpyPdNhhh4VPPfWUnNcm+qlmzZoV7rvvvt5j9tprr3DKlCnRLyiKUh9I9cPKAivnM5/5jNef6ktf+pJM6ynFvQA/q8ceezSorKyMtmwGq4owNVhzbdu2lfPahLV15plnBrfccotYUewb5z//+Y9EStWAgYpSfyhLsLLAgbRUiBf/5ptJYdlzzz3FCbV169bRliQEC/ze974XNGnSJNpSBWsn5p37qGzGVGIytYpgizjmEpDRrUgUZVtRKwTr3//+t3caD5FMv/a1ryW87V1OPvlkb2SIt99+WyKnlguFl4Vi77///uCee+6RMNAkwkZzzfUJZguw4Ahx94kcSz8lU7DGjRsXPP/889FemyHSbPx53H333RJO2/cOFaVGkYZhmUyePDnRd/Tggw9G3+aHfi9jTSXOZSwn8csqBn1a7du3Txy///77h6Y5Ge1VOvSTjRkzRvrDdt11V/ENIzVv3jycNm1atFfd55VXXhFH3c6dOydGgT/72c8WPEP6Jr/61a/K87DPBKfgdu3ahRUVFdFeirJlKMvCMsdJ35DPyqAZxugh++SFPjGfFcU58pyHpgtTeVwaNmxY0rxFF+6D+6E/jDmLNJNITABnuf76ACGACHd96aWXipXkzss0lUGB5URzkYgdPA/7TBg9Zn7nxo0bo70UZctQkmDR3KMAjxo1Kjit52nBrFmzom+qYN4fcwvPP/98cYHIMzHZ1OJeYSGcMu4OxXjyySel+efCeasTGQIhpYO/voIg07Qjzn7a4ATzRXfaaafo02aXEZ+bCoMs7sCHotQ0uQQLoSK+u2kKBEcffXRw3XXXBYsfWey1sIjgwGo7FAIWq/jBD34QrFixItNSwleLguGCENFHkrUA65tvvikLtbJohssee+zhjemVFwphKaOddY3nnntOnq9P7AHBZim3ePwyBMtXuahYKVuDooKFmU/Ehq5du4qArF69OleIY5oRjNCxrBdxtebPn++1tjg/tbxPcPiOdQ9Zhcf3mzRHrrzySjnePTcFiKXx84Z03h7BevWtjIRFdd5554nVtWjRoqBz587RN5tRcVK2Gcby8YIzJ52xvXv3rtbcvniaMGGCOJwacQnfeeed8N577/V2lvvSkUceGS56ZFG4cuXK0DQ1QyNSmccaoQofeOCB6G7KY+PGDeHIkSMS56aj+ac//Wm0V92E98v0JffeSF//+tdTHX/ZzmCGewwDE7wXRdmSpFpYdGSPGTNGnDbz9EPlYcSIEcE111wjcbOYutOjRw+x2vJAPKyuXbrKajxYTUz7STuWJgvxsY499thoS93EvB9JNMl5ByT+Z1tNkGYp0YwvtSlcU9dUDPs8ttQzUWo33rmEjILRFENcyAxbE0b2GIkqFwrhUUcdFdxwww1FlyMrRmXlRhk9Gz9+QrRlM8bCCi6++GL5Lg2eG03a+L1wb0DfUJYgcAyjd0888YSMftpCCfQhcWyzZs3ER40OcCs8VDK8Oz7Tf8d1si8CbvfhdXNd9P3dfPPNwRVXXJEo7D/+8Y+Db33rW8FBBx0kqx9xvL1eruXAAw9M9F/uvvvu4p+V1gTnNxhx5L74n+vZbbfdZO0A9xpd2J8BAqLY4hfH8+F5kDiGZ8IzpX+Va7MjztwnzV66E2jmci88F36LpNQ9EoJFhqS/iVo2a1oLhY/MQaEh0icZhz6rBQsWiHd0qZCZ+vTpI53kv//974sudJEGncQ///nPZaSyupQrWPSt4UxJpNa4iweFhILF8v4UVhf2Y9ACq5YOcRxUKeQ+eOZ4+H/jG98IunTpIoV+5MiR4uRJgWUCOiLS/IDmwandT5V3BdbpkxHYRx99VNwRXHi39Dt++ctflvNgzfI/pAkWMw2weL/4xS9GW6pAWIhe+6c//Sl45pln5DPXyLtGeBEa0wyV6V4u9IU+9NBDMhsCB95//OMfn4h3HK6Z6+S6WcSX66F/buzYseKWwrkZNeZ+yCNnnXVWdKRSp0Cw4piaVxwD+Sot4ThJ2BicRN94443oyDB8/fXXw3nz5oVXXXVV6qRkN5mMG3bv3j2cPn269GuZAhEuXrw47Nmzp3znO8aXjGCKo6nJ3NHVVJ9y+rBMYZIwOfvtt1/iOO7HWK3i6OpC3xDOm926dUscl5Y4nxESeeacs0WLFol9cOhcsmRJ9CuhvBt3n6yEc2g8UizX6evDYj8jttFeVfA+jdBIf6MRlcRxbF+4cKFMqHd59dVXQ2Pph4ceemjuvGAqhbBv376hscSkj9QIVWKfY489NvqF2gf5py7D9W/Je0gIFmGGTW2deMk2tWzZMjTWj3Sep0Hh4TwUFt85bKKAXXfddZK5jCUSHb25UBDwjwLcunVrESPf8SS+Q2B/85vfhMbCi85QM5QqWLwohNcnVlznz372M+9zq/ywMhw7bqz3uGKJ8xJ3zFjEobGoEt936NBB3pcFz313n6yEF3s8tlipgkXlY6xwr1gRheN3v/udBG50MRZcOHDgwNA04RLHFUvkX+6bfOETOjz6axPkm2effVYqM6Ltmia5iLyx1KM96g7MWtmSsegSgpVVwzMStHr16lwKSsRPMuPhhx/uPReJ6KJZwkdGJuNiIVxyySVSIBs1aiTpkEMOkcJnmiFi2W2JCKOlCBbPBJFu2rRpYn9Ehdj4WK8uHMdLxiLNEuZiiUirvuMptKYZGP1aKKLp7pOVeOdz586Njk4XLNPETQiWaf6FJ554olessNLvvPNOr2VFQR0wYEC48847J47Lm3gWaVZZbRIsLFCew+mnnx6a5n3Yq1cv+ctnRsKBMkJFSNmr7YwYMULK5ZaiQLDWr1/vfcE2zZ8/P9ozH2Tu4cOHpxZEMrOvVq4t5BUsRIdM57NwuPdzzjmnoOkchyZsmzZtEsfFky18WA6ktOfpSx07diwQLCqAz33ucyIiaefhN5hDuPfee4f9+vUTC9jCO/VZggg18f8tr732mrjEuPuRsMay8tKNN97oPS6e4s+Ev6U8k9okWLjpDBs2LJw4caJ0icRBzGD58uXh+eefHz733HPyeXumwK2BzvY0WKOwVDcBk5mkcxMPeR90zvscRusSjETRSW6EOeExjve+sSIDYx16Pe6Z5kRkBJ/zJs+OY+ig5xnR2W3EQhL/P/HkE8ERRxzhDasTx7zj6L/NsNQaI2eEjJkxY0a0tZB7771XRhGZL4njL64kxWAUzoiG/M9gzVVXXRWYZrp8jsOoIJFgTz311GhLIQzc4LTqg9/AGZi5j1y/fSb85TMjw3T6FxsBNBVM9N+2h+smEW3Ene1hhFjyCBE0WB7vV7/6lbgaPfzwwzL7g3zH4BTllgEYRnwZEeV5MPhirOng+9//vixqzGAOz8rCaCvPke8po/fdd58MFgF5ZubMmcHChQvFBYlBDFyScCImj//5z3+WsE/f/e53g1mzZ8nItIX4dFwvEOeOmRQMuHDNQ4cOldFnRqfjA3pcM7NjcFDnnEQJufzyy2VGDfcdp0Cw8GJPgwskw5QKQ+PEtfJB6JdyRhRrAxROxIqRPLztGa6Pw6gUmeiyyy4LjEUTba2CTMXIFyNnLox4IfLM1cS9xBU7frv9Ue0lQCEZGBGyYuHDFS1g26aP/O4jZLQsfL+FqFHgOJaC4FufkilYfEfgxTQYefUJCsLMcc8++6zMU+UZxeEzBYKCSaZnhDQNhCAO75GRRNxCtnRy742RS54LeQG3DUQj/r6oOJhkbgNXkhBkrplRWQo/FQx54NBDD5XnQCG/4IILREhatmwpc3rJRzw7zs01MIrNSC/BLxk5vemmm0SIrKhxLVQs7Ef+450jgLg63X777UGLFi0k3TPvnmDu3LlyPcBvM8INjPDiP0lFwnm4TwwfPAkoMwg1o+gILhU310oFj4AhxNyrqx0Fbz0rozIU7GaSPOACQGYjk7gvC5XlhdQ1eHkk3AJsRohDwf3Od74jlhUWgQ8yE4LjCh3gy2SanBJtNQueLYvI8mzJAKVEkJCM+5Hf0iDDlAqiTK3PNCpiaLkwHxFrMUusqPUpfC7cH8+TifVk4mJQiBFyLAtbkOK4Ao6LBy4TW6PyxIrAF8zC5HxcU+644w6xKI4//ngREHwI+Y7glThYk1/69u0rogQ2ggiWOOKEEAAVIUKDGwp5CHHDEBk/frz49WGBkj+xmKxwI5LkH9xwaEVR2VJW+X0CHXA9vFssH/I6VhRCwu9jpWMVU5Z9MemAMkAlg8ABc3+x3Gk5cC0IKmswUMHj3oQfJZYf++O+E6egqnFfZE3Bg/HVyhQMbrquQa2AbxA+PtSMcbhPCheWVdY8RmrbRx55JPpUyJAhQ4qKlYUX3q9fP/FB4v+8kCGp4Xykbbf43uVLL70kNTBNQRfEjCZz//79Mys9RMMXJohAjoMGDSoo6FnQEhg4cKBk/DzgfEtLgPDeWzpZkYiDONHswjKk1YG4ILpu4EQXxAhDgvNaMDqwcBBqrBaCEGDR0JRDWKwFxX60DvgdLCZEm2dvNYDrxEcOsQKMDipIBNNaPeQ3/uc4X8VgQbDiYka54HfiTVCsMcSW/9EF8hhi7FLw9DBP06DfgxOWCheCOvuOJaPwEOoa3BNNOdr0LtSC1O62NvGBWNA3QY3mglMmtUsp4IRK30Cx/qw4ZAzX4s2LT7Aw/elTifeTAJYVFgCiWuxd05zzXRNOwBRM3++mQWHr3r179Knwmt3z0FRhXxyXt3RKa6qSXxAsLGYsGZ4nTaWsd4QTMueLVwLWAOAeERES5+jUqZNMV0PkcN6laUcFQV7mHG5lh1i4zs38Tjy0EL+BsJGXSGlwbq7VEr9e+jSxIhFZWitY5xMnThBhtM7KcQoEKx5GxIWHV6zm9bHixRWpTRVqXmq2uogvI+FljWld7J44lhrPVyvh8Z3V/5IGGXJriX9e4cC8p5DSL5Hnnsi0bsWG9UB/ns8LPgv2J9PHpy7lve5tCVYkTcTWbVpLHxOCkoYVjDiIDNsZkKHyjKdu3bqJcFCxYMnRPOX9nHTSSSLwLj4Lp5xnyDFpx3E9dnYEwsY76927jzRZfQZUwd0SGz0Nmi/0MZQCmW/OHXOktvBBzWZNzvoAFpNrYaSRZq3aPopSQax8zQ0oJ5PVBJj2NDWyCl0c+jPdmpoamFTqPbA/TUNfoatNWEs3ft/kjZcrXpYCTMIi4RnST5RlcQGCRX8Wo3LkB6xuEpUH/X88F6ZjUe6w6viOz3RRbCvoTqBC69Wrl4weU/GnGU8FOZybovPLB/023/72t3NbWbwAmkwMl3KsD2pPTP00OAdWCB3T9IHYB07CiqH9TU2BSLgZfUtDQXALEdeKhVSOJWrJ6uMpl7RnU5PPzI5exaFw4dpAB2se0fJdD4XOfc71CUbjsHLo96Q59JOf/ETyEOJNeeP+qdgRoilTpsiInG9k2cKzoklJmaGJSac5CSGglURZbN++vZRN+s1ohvE9orGtnjNWJV1OAwYMkEEHYu9hPDFv1M0TiSr5hz/8YeqFc1OYq6zOnCZCQIHlgdAp7fMxsjAixDA3tXDcMiGjMwpChyG1BU1HRlDimZ6RDzpWGcnApOUl2k68moJn5SvT1AaMwAwePDhRSLFCMbWLjbSl1fxx/5RSYMQl653UJD5hwe2FoWvXYuZdTpgwQfpLilmf1PZu3uOd+5rOxeB3OTbNkq0tYOWQf2n+EJkXoWGkjg5zG23kkEMOkcKMewHPkaYiFRvP2tdswsUEYaMpjfVEYoI5gxccR/48/fTTpW+ZcsSABiPadIZbK51zU7biIJwkC+8K65cOddtHxaie3Yff4n8EKf5eqdzoiMd6REvo/EeQ6eekv9N2ISCm9GsWYDJfAWvXrpX5gnzlS+aHQ9PmlFWXjQKG5qbFI5dkREa8qqdOnRoaC8h7vC8xGdU8YFkhh/MYkUv1ks5KY8eOkTmINYXJ8DLVwP0d8zBlvpSpHWWeHM8k/r15+J+sgO2De2TCrxG7guNIzL/k+1Ix4i/TaNzzmUwfLl26NNqrCiMCqR7lv/jFL6K9khjRCY25njjGWAPizc90rD09KyBxX+QNIyTRmZKYCkA81+PHMXmZ6zRiHO2VD1N5yQR9UwA/8YS376m2zSXcXiGfG6svHDJkSGLGC5/JU/GJ+5CwsFA24iGl+buYY6QmYIgaCwcVxO+DhEVFTYuVhqrnBesIb1usFrx5Cd3i85IuxqhRo8UczrLqagKeAbU3oxjUfK6vCEPGWVaFNfN9bg9cO+sDlgIjQ3gl17SFmQb374JlyTNhtI0aPF6jAmsC0OTJ6ivBkrA1vIXwOvi7MapaCvwOTSCLez1K7YB+RloG5HusrdUVq6W/3FR8Ypm5ZSthYYF52WVZOLUhUZv26NGjYF5buaRZWKbpEk6aNEn2MU04mdiMVRXfh9qcicfxSAlxsEawKOLH2HTKKadIeOo8UEulRYggZVlYU6ZM8R5TzMIyzYXEMaa58kmIZCxl7sHdh0QEhjQr6+mnn5aJ7e4xWGxE7jDN7GjPbHhvo0ePDk0zRd6Da2WphVV7IIQQLbLBQwaHI0eODC+88EIJisDcykWLFiXyilewKAQ090zbOpF5qpuGDh0a3nrrrRK7iszj2ycr2Uzn+84m0zaWyaJZzY88pE1+RrAIi2OpqKiQZ2Xa7AX7mdpDhN9YH9GeVVRWVoowuMeQuH7CxaxZsyba2w/icdddd0kTPe2ZIJpbQ7B4JtasJ/8QVsY3qZv7Jb6W792wjbAw7jEkY42GN998c9GoHFzf5ZdfLs1jm1fiYkVSwapdmBZJaCzw8OGHH5ZgAORXtvnwChbQZ8BJiKjAS/ZlolITlgj9XGRoogbccsstRSMVkPj9448/Xm7m8ccfl0T8qyOOOMK7P6lVq1ahMS2juymPNMEi2gCB8OLQn9WsWTPvvpdeeqk3tMwzy56RUCLuMST6bvjuvvvuE3Fx4TlyDYRpyXo/20KwACuH1bEbN26c2JfQQGmW5+23357Y3yZC8Jx88sly767gkae4zy5dusi1WHEiqWDVH1IFC8gExJrq27evWAu+TJQnkWGwSOigj0NtiUlICJO089Mxfe2118pgQDyTIqhYIIMGDfJaKWy74IILor3LI61JSCGMh5cBntXdd9+d2JeE+BAVlMIeh8+INgXRdxwd0BQ+mlsE6TvhhBNEuPfZZx+xIHzNJzdlCRYDA75jigmWr/mJMLsdpzR7eT/uvojG0UcfLe/UhetCdNxjbCIvce8tWrSQd4O1TuwongmDIXFhSksqWHWXTMGKw5JZWBC2X8CXmeKJwkbTpmvXrmJ9ZDXPqDEJ9eueg98hVhD9RGlgqdEc810T233NsbyUIliWUaNGea8FUXr++eejvapgNItgdT7RLSWlvZM0weLeJk+e7D2mmGD5BNYnWMBvd+rUKXF9VFA0e7kOF/rvfCONeRO/hbBZy0otrPpDYpQwDXxF8PUhPg4rOuOR7fppAKNfjJ4xUkioCUJW4P9hMkq0RxJGgXz+R6a5KKNOjFymQVgNHO/wBXFh+osRw+hTzWGeW6pPEXF88NR1YdQKRz03ZhZTR4hC0LNnz4RPV16YhsJUDN/ILtfqw1iEqQtcpN0bpJ0vDeavsaAJ7ymOsaRkJIhRYXfCM/uyUAbezkZsoq35IJ+RmJNJ6BRLqedRaiclv0WiCLCqDWJkrI+EZzZD13xnaumCWeRZICpkYBeGufOcA2HDgc0Fx7h4cLGaxFiM0X+F8Dxw9UC4XWyEB9we4jDjnYJrw2uUAkO/zBObNm2qdz4Y+EQG5960Z+N7F3F8lQ/Pw/dM2JcpF0zOdgWVOaaEo1mwcEHBb3IMMy6IIoDXs2kWR98ksQJl4V7btm1rnsc0cY/hfbAt7X0pdYuyqx38J/BOdWsuX0EtBl7h1Pgu/EaaP1gcamS8Zl1McyPVisgD3uhYLswm516Zr4dFxD3aCZs+8FAmEB0Fx0aksMfivU+YDxesyOnTp0shyyNcPBvT3JMwNvwWnslcJ8fZ3+N/LE9fgcczmRkEWMl2f5u41zR431iQ8f25L7yw0yxE3iGVGzMD4r+H2CImeFvzruLwO3hnI2hMV2E5Od875ngryDxD/OImTZok01t4R4SYiV8nqdz5msq2x7uQal5wFsWVntrawtzBrEnUPqgNKXhuADWaSUSuTDiPORAug1rcRjq0YJ3hwFnq9cRBTFnLD6c2a0VQ0GgWZzVVaeYQEZKAZ9YC4FFTEJnj5bMILcwjI8gZDqFYYwQ4Y/oSv8c9YUlReJkTRpPLnh+HU7satv0tW2gpqC5MA2EKlSvqzOrPCo/D/DccQcFmH0SO55wltDxLpu/YJiCii6DSdONv3FJy4d4ef/xxOZbnw3OlmY0AEqkSwcRSReytsNl34MaVIrJFvLmo1CEQrHLBmY9OeE5j0/333x99mx+G7k1tX3AeEtN78DMyIhHt6YfRLl8nrSmoCdf+ugbTe4wFIk6VdGqn+adsTzBQgZMqgzkMZPBMiuURpX5QrZ5IOmfdDtq0Sb1ZYCX4JnHSdJo5c6ZYGGkQuubOO+/0dtpT6/o64+sSNKfoQGYgA2spqz9newFrEQuQwRwsTp5JlnWm1B/KFiz6HOi0dTszaZYZIYw+5QNTvnPnzgVRCYF+LebjMWfRJ1qstMF3jDK610GmJkOnxVRXFKXuUVIfFgLCsPyNN94o8bvTwpkgQPRJ0QGKhZDH6qKPBksra3Is1hKWGOJEP0baogHUtnSW08fGORVFqScgWHnA43327NkFfUTFEmFqZsyYkbvfBa/l6jpQkvbYYw/pX1MUpX6RS7Do4DzrrLO88ZuKJaIYMHOeGfx5OOOMM6olWhxLFARFUeofRQWLSAT9+/fPNW8tLSF048aNk6Xwi/Hee+/JVJXGnkmzxRJide655ybmLCqKUj/Y8QrWt06BgHA47hGTuzrrB9LnhK+UHenKgo53HAbx58ETOq2fyoVzEzgOJ0OcBBVFqX9kdrrjVDhs2DCZauMDpz2cO+nYxnl06dKlshJsGiw48ehjjwZNd0t3mrTgZIjI4bTJtBXXKdSCtzfr+LXv0D5o17Zd2fPxFEWp/aQKFi4LLLaIp7hvNLBjp47B9ZOvF7cBvJyxovDKxiN85MiR4mrgA78qwijnBW9lgu4jYPh8cS2MAjJHjMRvM1XGN21DUZT6RapgEbedJhYrWrhgKRF3GRcD12GP0zEVgukny5Yti7ZWwTy0tHUK82AvVx0FFWX7I9VxFEtpyZIl0acqCGVCOBTm0/lEg230U9GX5E6MBpYKe/fd8iMocH4VK0XZPvEKlm3eEZ7FhagAxKjKAkdR1kbzhYahWbd2bc3HqFIUpf7jFSyaXWle7Hk9x/F29wkW5/YJoaIoSjG8gkWTK220LW8ET+YapgmTr6moKIpSDK9yICiMvvliG7HefbGFSmlSrlnzsrgluCCGvsgMiqIoxUg1dZhoTOhhl3Xr1kkYZF+EUAvOnlOnTpN9XQhc54sFryiKUoxMwSLkrgtCRVRRFlTwhR/GX2ro0KHBggULPnFBiNOjR49cYY8VRVFcUv2w2Dx//nzxxSLmtgsjgQSW69evn0yloRmISBHShQUF+OxCcxD/rqzwu4qiKGlkTs0hiieLIrA4QtbST3lA4C655BJpTiqKopRD5nAdneOsKceKJUyDqQ4s2jB8+PDok6IoSukU9S9gZZaLLrpIwg2X446AZYXgsfRS1koxiqIoxchsEsZh8VSW4/rtb38bbSkO03dOOOEEmabTqlWraKuiKEp55BYsYH4hI4Rz5syRNeLSDiVyAitEn3nmmfKXJccVRVGqS0mCBXS+v/DCC0FFRYUsGLF8+XJZmAIINdOmDasPN5ERROYT5lmAQlEUpThB8H9UKedyNkTaugAAAABJRU5ErkJggg==;" vertex="1" parent="1">
          <mxGeometry x="260" y="129.33999999999997" width="200" height="61.33" as="geometry" />
        </mxCell>
        <mxCell id="TX5If2MqFz6uqhYADykB-5" value="&lt;span style=&quot;color: rgb(255, 255, 255); font-family: &amp;quot;Söhne Mono&amp;quot;, Monaco, &amp;quot;Andale Mono&amp;quot;, &amp;quot;Ubuntu Mono&amp;quot;, monospace; font-size: 14px; font-style: normal; font-variant-ligatures: normal; font-variant-caps: normal; font-weight: 400; letter-spacing: normal; orphans: 2; text-align: left; text-indent: 0px; text-transform: none; widows: 2; word-spacing: 0px; -webkit-text-stroke-width: 0px; white-space: pre; background-color: rgb(13, 13, 13); text-decoration-thickness: initial; text-decoration-style: initial; text-decoration-color: initial; display: inline !important; float: none;&quot;&gt; Data Source&lt;/span&gt;" style="text;whiteSpace=wrap;html=1;" vertex="1" parent="1">
          <mxGeometry x="30" y="100" width="130" height="40" as="geometry" />
        </mxCell>
        <mxCell id="TX5If2MqFz6uqhYADykB-38" style="edgeStyle=none;rounded=0;orthogonalLoop=1;jettySize=auto;html=1;" edge="1" parent="1" source="TX5If2MqFz6uqhYADykB-6">
          <mxGeometry relative="1" as="geometry">
            <mxPoint x="396" y="590" as="targetPoint" />
          </mxGeometry>
        </mxCell>
        <mxCell id="TX5If2MqFz6uqhYADykB-6" value="" style="shape=image;verticalLabelPosition=bottom;labelBackgroundColor=default;verticalAlign=top;aspect=fixed;imageAspect=0;image=data:image/png,iVBORw0KGgoAAAANSUhEUgAAAUwAAAEkCAYAAABEyQhoAAAAAXNSR0IArs4c6QAAAARnQU1BAACxjwv8YQUAAAAJcEhZcwAAEnQAABJ0Ad5mH3gAAABhaVRYdFNuaXBNZXRhZGF0YQAAAAAAeyJjbGlwUG9pbnRzIjpbeyJ4IjowLCJ5IjowfSx7IngiOjMzMywieSI6MH0seyJ4IjozMzMsInkiOjI5Mn0seyJ4IjowLCJ5IjoyOTJ9XX1lIkTAAABwTElEQVR4Xu2dB5wVRfa2z5CDgCBRchKQpCRBQYKCCmLEiDmu7q6u+l836H4bdF3XuK5hXfOaIyZAQJGccw4SJeecw3z1nDuFzfXemTs3wJ2Z80L/+k6H6u7qqrfec+pUdUamgxgMBoMhRxTKWhsMBoMhBxhhGgwGQ4wwwjQYDIYYYYRpMBgMMcII02AwGGKEEabBYDDECCNMg8FgiBFGmAaDwRAjjDANBoMhRhhhGgwGQ4wwwjQYDIYYYYRpMBgMMcII02AwGGKEEabBYDDECCNMg8FgiBFGmAaDwRAjjDANBoMhRhhhGgwGQ4wwwjQYDIYYYYRpMBgMMcII02AwGGKEEabBYDDECCNMg8FgiBFGmAaDwRAjjDANBoMhRhhhGgwGQ4wwwjQYDIYYYYRpMBgMMcII02AwGGKEEabBYDDECCNMg8FgiBFGmAaDwRAjjDANBoMhRhhhGgwGQ4wwwjQYDIYYYYRpMBgMMcII02AwGGKEEabBYDDECCNMg8FgiBFGmAaDwRAjjDANBoMhRhhhGgwGQ4wwwjQYDIYYYYRpMBgMMcII02AwGGKEEabBYDDECCNMg8FgiBFGmAaDwRAjMjIdsn4bDIY4QBXavXu3HDp0SIoXLy5FixaVQoVMi+RHGGEa0gK+GGZkZOg63cH9HjhwQFatWiUDBgyQtWvXSsmSJWXnzp1KmnXr1pWmTZvKySefLOXKlZMSJUooieaV5zNEhhGmIW5s27ZNCaJ69epKIJs3b1YSqVq1qu7ftGmTEkSFChX072jYs2ePfPfdd3LGGWdI5cqVs7amJw4fPqzkOHLkSJk6darUqlVLGjduLEWKFNFn9dUJtbl161ZZtmyZHs/+GjVqSKNGjaRhw4ZSpUoVJVFD3oIRpiFuDB8+XIYNGyZ//etflTz/+c9/Sqb798gjj0jhQoXl3nvvlQcffFCJIjts2bJFnnvuObnvvvtUjaUjMLnnz58vX331laxcuVJ69eolderUydqbMwoXLqyNycKFC5VsUaann366dO7c+QiBFitWLOtoQ7rCCNMQNyZOnCjvvfee/Otf/5KZM2cqOXbt2lV+85vfyNy5c6V///7yu9/9TgkGlVWqVCmpV6+eKqvVa1bL7l0hv1+lSpXk0Ucflccff1w2bNggJ554oioySIVza9euLfXr11cFy37OgazKlCmTdSfJBVUCctu1a5eSOUpyyJAh0qRJE2nfvn1SlCFqFLW6evVqbXT27t0r119/vaZvSF8U/otD1m+DIVeAUFCZPXr0kAkTJiiBQX6Q22effSYXX3yxKqoPP/xQzfTx48fLmjVrlDjfevMtWb9+vSorSGnx4sVKhPPmzdNj8QtCJnSgoFzPPfdc3YY6g1BRrck2aQ8ePCjbt29XM3rWrFny/fffy6jRo6RWzVrSvXt39UtC5MkCpImibtWqlTYkY8eOVcK0DqP0hb0ZQ9yoWLGirF23VjZu3KiE16VLFyWUSZMmqd8Sf+STTz0pv/71r+WCCy7QThAIac6cOUqsN954o/otIVt8oZi8l1xyiaxbt05/Q6ykA1myHwLt3bu3ppUs0x01ibqD2PGj0gAMHjxYn6dt27ZyRZ8r1E/Jcck0xiBLTHA6ik444QQpXbq0Ng6QtiF9YYRpiBsovOXLlsuIESPk1FNPVeVHRw/EQ0cIWLJ4iVSrVk327dunnTsQ4I8//qidHxAiJPTDDz/o8fxGXS1ZskTTwmSFGO+44w4lNZZTTjlF000UpA0xDx06VD7//HOZPHmyXhfS6tSpkxI5vd3JJEngiRKS9ESJfxOwRmUb0hdGmIa4AWFCglOmTJGzzz5b1SWkAwnQkQEhoiTHjRunpIo/8rTTTpOt27YqEXI8vkIU6uWXX65kitosX768lC1bVhUp6UOUdCpBXmxPBBD3osWL5H//+5/069dPFS8kXbNmTenQoYOGAaXKJIaMuX8W8s77MQG/ua7/25CesE4fQ0IYNGiQkg3khk9z3vx5Uv7E8topAwHQGQQpoqogCvyTS5cuVdWJisQEhXAxf/Fv7t+/XwmTYyia+EUxiSFMfJ0o03jAdfCPYm5zXYgc0mINWaUS5ANqEvObZ4IUw6sdnVl0ovXt2zfhRsGQOhhhGhICJiSE4EkHMuC3/5vixTH87U3P8GP4mzQ4loXfnMN2zvH7gD8nN+BcfKLvv/+++llRwBB4PGnlBqSPyoYAD2celkMHDx15jnBAmLgFrr766rQNrTKYSW5IEBBakHiC5An4jentyRKEH8PfgG3+N8cHhxiyL3iOHNgvsm2jY9ucfX6QFKa9V5YQGP7J8HuPRmbhyO449pEm6pUIAK6Jaj544GC25/nno5EwpC+MMA15D4cOinz1gshvzxQZ/L8cSROiwi0ASUJI+DEhMbajACE1TGZPoizhpB5EtO2cQxq4FFhwA+B/jQWeMLMjVcPxhxGmIe9h6waRWUPl8J7tkvnpYyJLZ2ftyAI9zfv2iJN1WRtCroPwkTSQpw9OZyQPhAWBYrKz4HOEADkPlZwTUaJc6bjiWE/IuQHpm8JMbxhhGvIeNqwU2b1NCjXq6FjPkeLXzzsSdeY5RDpvosioj0W+eVlk4jewohIXC6QGmUFwKE5I1JOaV547duzQnnNMeMA5mNeQZ5BIvbuAfahT/I4ci6ok3XhgCjP9YYRpyHtY/6PIru0i59wgGe37SOYMR4zv/7/Q8s7Dksny8SMiM0c4ezyk2CBESI4F0vQkCsGhBlkOOVPfExbbUZ2QJyQKmZKGV5MQJ6Y8CwTKPs5JhPD8PRnSF0aYhrwDR0qy2xHlygXujyIiNRuJXHyPZFR264VTRPbsFal3ukjZkySj1mkina90JbywkhCqD98kv1l7Mzvos3QaT4kTdYkChQQ9ibEdAmXEEQvHlCpVUs9LlCg9opn8hvSBEaYh/XFgn8jy+SKf/UvkmRtFRr8rUrGmSKmyIlVqidz9osj9b4lc9Gs10TMKF3O/fyPS0JFnFglBahBkOCA8tnvyRIFCpvyGMD1JQqCePEkLxal/u3+GggMjTEN6Y9smkcevF/n7hZI55GWR/QdFut8lctuTIuUqhwixdmORyo44508QmTXSmeo3i7Q+14nQUCcPxOYVZk6AQL3ihETpBGLhb1QmZOmhojLJfJkMpWpIHYwwDUkBFd2bsEnFnHEiC76XwwcPSUZXR4T3ONLsfaczx08hWDN0DJdcNlvkq2dFTmkt0r63SPFSoX1Z4N7CCTOWe8VM9iQaUqipIzQzydMfRpiGhEFYzvTp02XIkG9l7NhxOmoFgkoK2jil2OEaKeTM78zBL0rmo5fIrgFvye7NG38iPIimcm3JbN5NMlcvEln9A2wY2peFSITJNj+pB8oRFcqSEuKPAcfjmobcwebDNCQExni/8t9X5Z2335Upk6bIyJGjZPu27TqrUOnSR6u8uFDYqbrWPUTqtZHMEuVkdela0n/tIcksW0GqVq0SCv/ZtV0KO87MKFpcMqYOESlawh3fUqRYaL5MyJAZkVCIBJT7bUH/JSSJye07eyDOoPkNQoTG0M0Q8foJjDk2UfAcTLJMvhGmZEhPmMI0JITBg4YoSbZp00Yu73OZtGzZUooULSKHssgGkoEMduzcqUoukoqCcHznCqQVjoPulP0NTpedl9wvg0s0lP4Tph9Jt1+/L2XtlDEinz8l8sNEySxaTDKnfCPy47xQr3oWGMsNQUaD91f6ET+QJffre80JL+Ieg7fPPUR6nnhBWmaWpzeMMA0JgZmGMjIKSb16dZQw77jzNrnuumularWqqj77fz1AXn3lNXn1v6/J2/97RyZNnOyIaF/W2c56XrNGPv7wk9Axbvnwg49k0aJFR1TbkiVLVb2++857OpvPuvXrpUQJhjAWkq+/7i9ffvGl7CnmlOzi6SJjPhVZv0Rk4zK3rHQs+ZPyQzXGSkYQK8TpYyxDvkuvMFODVKZtSB7MJDckhPXr1sn0aTNk85YtOgN7s2ZNNah78+Yt8vprr8ugbwbrpyi2bN4sc+bMdabxIql2cjWd5m3ZsuXy0ov/0U8zbNmyVU3SWTNny6rVq/UzF5jHzz33bxkzZqx+gbF8hfKycuVqJRfU3qiRo6XHeT2kfdduUqxRO5EmZ0pGlfqS0aCtyGndRMqdpP5N1CIzqkN+fuo0P9LH+ysh00iEyjYIkxE9RYoQxxmaGAR4k5w0EgXPw/MzfR35Z0hPGGEaEkKd2rV1BvW5c+frfJb4FatUrqLf9KETqGfPC+SW226WLl07y0kVT5JJk6dIIUdCtWrVlFf++4rMnj1b7rjjdrnyqj7SsdNZagKPGzteqlc/WXY5E71fvy+kZ6/z5ZZbb1HVh8pcuWKVLF++XLp16yJXXX2llClbTqRCVZGTG4QC1xs5wixfxUnFELFBmAsWLFAi8iTHNsjQm+nEVWJ6e/KMZL5nZo0awofJcdwPayPMggMzyQ0JoWy5cnLX3XdJ8+ZNZdEPi+WrL/vLFEeKkydNkXr168nV116lkwkzCXDr1q2lfr16smrVahkzeqxTm4vl/AvOk+49ztX9fAisQ4f2UrlyJVm/YYOsWLlKyYjJiWvXrqVEu2P7jiN+xeJO9R1FLhmuOJc6IRTQnkWWHhBbOAl6Vcl2FCRkSuA6aTMLPF+phMiS0akTCzxZG9IXRpiGuAGZodSqVKkstzoFiLrki4tTpk2T7Y7Y/Cd1PTLd8ZyDaYyZfnD/AWl9eqsjPkLIokTJElK8eDEpXqy4U1xrdHvFShXdyaiwPbLHLeed30OaNG4sX3z+lTO1f9BjcgLXjaQaPTx5Ym6jHHEvMPMQJLZq9SpZuWql7Nix06VztK+R/cmAT8cIM71hhGmIC1u3bpPvvx8mH3/0qaqwkqVKSp26dZQMMaX37t2jH0Djo2goQjqAZsycqd/1aXpqE2dyV3elL0MmT5miPdB+pqD16zc4hbdXypUrK+vXrZdixYpqKBC93EzFtv/AfqnrrnPRxRdJKXetJx5/QuM+swNkFFRv/u/gEg0oWD6zW/3k6tqLHiS07M6LB6RnhJneMMI0xIWZM2bKf19+TT744EPt2f7k489k3tx50rxFM1WV9ITTyfOfF1+WgQO+kXfeeU8+/eQzjTNs266ttG7TSmrUrKH7/ve/d2RA/wHyxRdf6jeACOdBaW7auEnHdZcrW1ZnLKfjBzVaxilA/J2dzu4kq9eslffefV/JFmLet2+/qslwsC2cjDC1fecPa84PdgQFCZFzUZ+p5jMjzPSGdfoY4kKZsmXUn7hmzWqZP3+BbHMq8cwzO0iPHt1lqTPLly5dJq1bt5KFixbJ9OkzZJtTpG3btpHeF/WW+vXracgOJu8ep06nTZ0mc+bOVaKtVLGSU5i7pWWLFrJ69Rqp5Mxx0tzvzPfFixbLXqdE27VrpwqVjqMfly9XJVqxUiWdPQiz2U/j5oHbYK5Ln+uhEv02THRIkDVEyTbAbxQvawjMk5gnUG/aY7qDZChN1DOdZvhrUemG9IR9BM0QNwgFYkjkQafOCNdBPRZ1JvR/XnpZfYu/+/2D2vOL6it/Yjlp0LDBkbAeQNFb6xTigoUL3R+isZulHaFtdeZ7Nfd7nSNCFGWjRqcomUGgBLfXqFH9SDp81hcyxoSvUrWqU4oHlThRph504nz66afSoEGDI35JtkUC+7gWajNElqJkjer04UWQMcfxzR7WkRRtboFPl5jWq666ShsTQ3rCCNOQVNC7/MILL8k+Z5L/7ve/TYvKDzl+/PHHSugQJgQXHHWUnRnszfXQsZmONEPqlb+TSZjr1q3Tr0Zee+219tXINIb5MA1JBaE5ffteK7fdHoqbTAUgKTqT6JEfP378EVM6O3BOODGyDSUJeUKM/B0OTHZUJWZy0aJ8mjdrh0Ok4xNFduRtOP4wwjQkFYzDbtCgvoYU+XChZANF98wzz8gZZ5whQ4YMyfE6EFskwsQXiekOIZIm5j4dS7t374pIwqnmMlWqxpdpDSNMQ9IR8v2lpuZjHmO+0vHDhB/33ntv1p7sEYkwgd+GmY06xoVQvHgJDYNavXq1EigdQKHe9J+b3slSmaQDYRYi+N6QtrC3Y8gTwGQmXpNOHn737t1bO3Ji9fd5YoMgfe94NFJn30knnSQnn3yydi5BlsR6Mu9nkvjxZ/D353vgDekJezuGtAeB8atWrdIOpWrVqknNmjWVWHITfuMJCbLFDMe/SogR5jh/RyNQrsOxkGfFiie5Y7J2ODhDP+tXcsBY9WgkbkgPGGEa0haQm4YNOfMYc7Vu3bpHhSXlBiHCzNQOHv/ZXLbh/4R4IU/WLBBoJOJKlbr0IH0jzPSGEaYhLcHEF/SCQyAMjWQCj0TIJESYofMhYogT5UrAOGt6ywG+TEgTfybKkt+Q6k/XDtyDS9Ir10RBOurDNJM8rWFvx5BWwF/I5yRQgZ4oMZsTRSRiW7FyhapXCBMCJV7TEygKFJLk2hAnytaPEgoicRIPgd+HDh8ywkxz2NsxpAUgDFQl81Z6nyFB5okQUnZASc6aOUu++eYb+eqrr2T48OE6x6ZXmxAm5ElHU/DTGeH3E4mIY8XPns0llarnNSQHRpiG4w5M5KVLl8qKFSukYcOGOhs7hJYsQGrhxEYnDz3trVq1UlWLr/S7776T999/Xz7//HMdpshwRYiSmEzUJ785LxXw92eEmd4wwjQcN+Czw/SeOnWqBrzzATXWx4I0/OgeJjW+7bbbdJw5U7nR4QM5zps3T77++mt58803s8KJ4leSscAIM3uQP6h+IiVoWJmjdMPGDUemBuRdckyq35ONJTccc0CUmL4+OBzSSqXvDtP6nXfe0etEGhUEUaJoUZocC1CVVMofl/+o54X7L6k2TDKcLPCZDz6/cf/992dtMZDHNGx+9nuskJEjR+q7gSRR/DVq1JDTTjtNfd28QxbelQ8b8yFjyYIRpuGYgoLO6BkWgsOTSTrRAAm+/fbbOjIo2jBKtlPZUHgQuq8W/IZIw8F+7j9ZihDCZPKN3/zmN1lbCibIV/IbkuTrofiPUZT8jQWCb5s894u3Umh4OQ7rgPeCW4eGkP2M3uITKKzpxItWBmKBEabhmICCC0lu37Fd1STzXhKycyyQk8KMB8kkTNKiw4nJk3/1q19lbS1YoHxQNubMmSOrVq7Sxgu/cqVKlaRFixZHGrCc4C0ViJawNFQpIWLMVIUyxbJp3ry5fmwuHuVphGlIOTCdUACQi47XLn/iMR0znSrCpBc/Ga4E0qJio6jwpxYk+A63SZMm6edHShQvocSGIiSUKxkNEqAMMjcrC2Xw7LPPVnM+t7BOH0PKABFs2bpFlRPkgpmkJHOcJphIhTbwabL2S/jffls4gsdC6qipggDUJB1p3377rTz00EPqu9XyUaWqdr6hAJkjIFlkCfBlknbHjh21kcMnGg+MMA0pAcqB3u/9+/bLqaeeqmqBHvDjASpeMiufB0Tn0/XXCF4nfFs4cbKdbYyTHzt2rKqe/AzKBCr6iSeekKeeekr92d27d1ciwzfJPAGY4skGaVaqXEk7giBOCBsVGw+MMA1JBQSA2cOnKyBKZiWPNELmeANFR2cBFSecyGJFducFidMjfBvnY44SuvTb3/5WRzblR9DTzcCA++67Tzvf2rdvL5dffrl+l4lOPzpi4n0H2QFyrFylsl7j8KHQxCaoSwiTMKR4YIRpSAoohDjUGamDciAg/Fh16sSCcLKiB5VKA7nz6V9MNCo2BMqz5KYCc2xuF/IIVwWfznj++efz1Xd8eD4aJDpd+vfvL9dcc43Mnz9f7rjjDrnsssuSbm4HQbooSkx8T5T4L4Pg/njH8cA6fQwJg8qPT4ogYgophTWdAJEzgqdFi+auMv30cTSKPmYi8aCsvepAmaCKqXj0pLKEd+5wLiTHPl/52RYkgkh/A5St9gY7UxwSwVTML+AZ6fHHP7lw4UI555xz1HfN9vD8SCZIlw49GmkfThTJ7GbbmDFjtNecGftzC1OYhrhBody4cYOsW79OFUX9+vXTjiw9qFBZfHUEECRECWFBfvhZqWyQ4O49u7UB4Lk4xpNddggng/C/SYN4wmnTpmne3XrrrUkly1juMRKIXYxXcYWDvBoxYoT6q/v27fuzuMlUgIaNfMSlQUPHPeTko4w3r4wwDXEB1UYozK5du6VsmbJKlvHEtR0rUFnDKwn3C1F4YmQ/lQ/SLH9ieUf+5bUiJmO4JtdBUdIRRvzm+eefn9DXIcl7THo/JJC/v//++6y9IrNnz9Zg+JyIkHPfffdddUckA5AVPklCd8gzlLlfk48oQPI4GeRJOlyHfOSd8Sw5NW5clzzJ7pjskHTCZMKCQYMG6ZT+Htwc/gxkenB7Toi1ZTccO1BB8flt3LRRK4YfQZHOoJJ4cgyC7b7C8SyoEgKeMZlZ79mz92emeBCUzVgqPteFvCZMmKCmIL3hiXbwYO7Ss+7V1AcffKAL7wfFOGzYMHU1cH/cZ6R6xDbOpb5CPuGIdk524PpcE/OY5+b+2MZvv5CnnlRpkPidm8aWYzm3bLmySsBcj+uQdiyIlh+xIOmESUzVRx99pL2k/gEY4TFgwAAd+sVLBDndMOfSc0hm54R4H94QO8hjVBhhIbwTRup4cysvIBJhekAaPB+VF5cCDQCKhYqc3fNxTvji4f8mrxALqL/zzjtPe4iTYYYXLlJYVT7XoOMK5cq1eBZmWuIalStXVpImGP7xxx9XsUJdZNvrr7+uPdZr1qxRvzPnjho1SkaPHq2Km0D/22+/XYYOHar5hmJlFqf//ve/Mnfu3Ky7+Dk4lrxm8WQNWENqKFk6YVj4zcJx3C/K2zdeXpkGwbbSJzj175S/HpNRSO872nuNBv9u4kHhvzhk/U4KcKjC+jjOmzRpotvIbMIKcP4yzIlOgkceeUTGjRunLRskykPzMuhVIwKf4zEVeJlUTDKYFvSNN97QUBUW5jIkw5599lkdgJ+O4Sv5ARQuRuosXbZU6tcL+Sl5v3mFLCkjTEpM+aCihcOrIW+aczzmY07PyDGcyzF+8eA3BAG5QDq//vWvj0wQkQygIul55uuZb731lnTq1El27d6l9WDkqJE6TR4qlAlEbr7pZn2Hn3zyicY8vvbaa/q5jx49eiiZQ0S4C+is6dChgwwePFhjIi+88EL505/+JJdcconOGco34G+++WYNB4r2HJA4apq8IQ3yE7VOfngSBdwPec5CflO/4QWf9yhIyJHfgDUNWfFixSXz8M8bqFjBOTwz5Ix1lFskVWHyEgnP4GXxMnl4CiEvqmvXrpopvJxHH31UrrzySrnqqqvkuuuu01aG70vzLeuHH37Ivcw6eu4VV1yhL42HZKot/GS/+MUvtLXmU6soWWLYHnjggYT8QYboQLFgGVD527Ruc6RTJC9BlYm7b9xFQVLzYD9kSiNM40xlgixzQnYVlrJOOaWD57HHHlOxwHWSBe6RDiSiE5h0AuVarmw5mTtnrlSpXEUaNGwgg4cMlgt7XagfjYPkUJgce/rpp8sFF1ygz8vsP5jv1FcUJWSHP5QG5uWXX1aypJGBTJlJCZLJLlwMAiSPeVYWzqVukp8QIu4OSJT84VhAPvKbssZ2OIN73bxps26jM853JnprIBFwrXjTSCphIu+R1vhpeGgqGS1Tt27dtJLRKs2YMUPJk8HvtLgUUFo7MhTf2JYtW92xRbRwN2/RXF8O6WLqk3G8YAKiSYuWAqVK4UnWGGFDCDRiVMih3w/VMdi8q7wKyhZxoZABgeJUytwi1gpGZaSy08Cjiv7whz+kpGzSAGBeYzpfffXVSk48F40bdQMVdujgIf3NPVGfmK2JOgmBUZd4JogSEbJ48WJ95wie2rVrq5J88skn5c4771SSYl8sigyhA8IbB0gU8lTl6O6dPEGNQqDcN+d54vR5zXXhEe6J4+MluWQi6YRJRtEa0IrQwkJ0tH5kOK0epAipUoh5uZgIHI+SJCMxL1CP+EBbnd5KM5C/yWjI9YYbbtDWkcIP8XrJbkgOqFBURALQyfvzepz3s8KfF0HZIYCayoeLCAKhQsaKcGXK3+EVmPQwbXEn0ahDZNFM10QB+eDKYtKKtm3bKqHw3niupk2bah2DFKlH1DOemZhIzuFY3immMgqV+onq5L45B5JC2MyaNUvJDB8pzxsL8XvCI/3sCI793CP12qt5LFR44tChg0cINFWIN+2k+TC5AcwPHp7Mh9D40P4//vEPVZe0ZBQiXhJ+HV4CzmnMd8wFXiqZhKKERPH78DdmOBlJoC9mEy+YFhKlyXkUDkPi4P0xvdamTZu0sUNN5LehepABfnUIgcadxtuXOSpwOCnmBMq6JxHMTdTr3Hlz1a941llnHSGCVIA6BUFeeuml+q64d7ZhueHH5Jnw/9OnwLNiWvsAcqwF3i0KD+uMOkSDgp+ae0egUEdRyo0bN1aS5RyUZ04gb2k0uD4+RwgXEs0pb8l/8kvVseMyGh//TlhT50krURLlfN7TSRVPiul5wpG0kT4kAyny0jDJmeKfG+vVq5fKbnpXeZlkKE5lSJCWjUJMhhAiQWsDgbKgTokzu+WWWzRN/uYF86J5qaRNQcEPY0gMqEoqBwWyZKmS2gPOO8nPgGx8gDWNN+4HiIMZgyhvsYAGHGJAFaHkaGhwXzDbTm7JN7+ARgjxg9WI75S6D/lBmjRO5ItvZKLlEcdyjlfCrH1aidIV94AYg4voKMstjsvQSH/JYIZF25bd34bEQSHEGoAoMJEKWqQBjQSNO6RJw0FDDPGhuFhQNqieSGWVvKJyEzKHAqMhp2IX5DJKWcLShDCJdqF8QVLkGWvAb/KaNXkbnr/hhEkDhjgqsIRpOP6g4KD6UViodtR9fleV2YFKSoXEJUFlxsTGh0fMIiYppisESsPi/W7kF6Ft+CpRlVhLBR30pkOYuANwmXnCDALKCW7jGCYPLl0qFEZEvrI/SJg0RLjzkkGYWKtYwUaYhpiAW4SwkQYN6kvp0iccMZEMPwECxW3Ewm8UEGsqHOoHUuVvOipxC8Vqxuc5bN8i8tE/RXrfJVI1Z58fIUl0GNGw0MBAhuQX+QfVhCt1/vbkyd+QIg0UjRLqnnyFNFGY6UCYeVdSkHGHj265DNmDgkvvN50AoVmtTzSyjAIqKWSIUmLEDATg4zSpvHRG4mvn73xLlpmHRf77gBwa9orIy/eK7N6etSM6PKEFidEj0jZA/rFQFukoIn8hzGjHJwPxpp03CZMXOfoLkd93F1k0PUSehqigVSWchta/XLmy6r9JZQ+uIZ9g+2aRlbMko3QFyVw5U2Tw267VPRCqb6jCXY5A1/8osmV91gnRCRNf8f79oZE8fommFsO3J6oqg0g0rbxJmNvcixz4ghxeOUMyX/mNe2HrsnYE4MwllztZfxRMUDgwv+kBXr1mtdSpW0eqVq2WtddgyAGbHRHu3SqFut0pGZXqikz4VGTaMJF549zvryTzw39I5qN9RN58OOuEnwgJwgz+poEuVizkn8Sd4Uf7eH8xv3FxBJEqhZlIunmTMNcsdebBZilUt7Vr4X4QGfKma8L2hpaNq0Wmu5c6zLWG88ZnnVDwQAFkGBydGBTSZk2bSdEiqQmiNuRHOLJbv8Ipyv0ip7QSufg+yURJvvv/nJl+n8gHj0jmqHclc5Oriyf8NCw5SJKRwHaC7ukgo4MHpUlYFuWVNT5PyBT3UVANBn8nA/GSZt4kzLVLRPbtFun1a8mo115kxDsinz0l8vFjIu/9WTLf+r0cfutBkXFfZ51QcEDBIgAZVXnAmU+Eu+B/MxhiAv0CmOJThrr64xQlFFG1jkjTsySjx+0i7c4XOe9WkRbnSaESZaRQq14ilzorLwtBYoOUsiM6T5507hDShg/Td6wlmyCThbxHmIcOiqxa6H44tdS4jcjl/+fekmsthr8vMn8y0sqR6Q7JKF9LpP2FoXMKCAjsx0+JiYPTvF7denG3pIYCBpTk/IlOOT7qFOSv3PrPIouniZzWU+SkaiEV2dMR5qUPiDRw9W7DYpGTm7j691uRStWzEjlaYfLblz8UIyryoGvEw01vD8x2yBP1+fMhpckjUO4p3nqRNwiTVm/bJpEJ34g8f4dkjnlXpGJtkVJlRBq5l3ffWyK//1Dk+r+JlObj70Uko8/v3b62WQnkb1AwGc5GXCUxlQQMp7qX0ZCPAMktmSmZr98nh4e6urR9u0jve0Tuf1Ok759ESpR0LOOoouQJIju2iHz7Wmh92f0itRpnJXI0wknJ94IXKlRYG3RChwjZgkijEWgqym+iyjX9CXPnVpEX3ct7qItkvuZavvkTJKNpD5Gb/u6apFIi+OVOcaRZvZHI0hkis0aIXPhrZzq4lrEA+OwwXwgUpnOHcb+EZfy8dTbkF0AudJSE+/gSArxU2JWZbY4E92yTzPWLRFa6pcxJIuUZehwgrl3bJXPDCpEKJ4dMdUeAQQQVZhD8jS+dxc9axJqJNmjscSNhIUUjz2Q9qke8ZJw0wiSj/JJUjB8omeM/lMOuVcrocbfIP4eL3P2cMwtOc3fvb99dc95Yka/+5UyIbiIdLnatYv4e4kfB0unXhg7VSU2ICcSkSUWrbDj+4H0zIfCf//xXufSSPnL7bXfoKCQazMThykzdZpLxuw+kUGtXdw7slcMj35NdQz6URfPCZlevXl8yGrV39c3Vw0VTQ+FFAQQ5IBofePJkXbx4CZ1omHhW/ma2pRUrV+hkyMF0gutE4a8dDxImTB4CdTN//gKZMnmqzJs7T/9O1sPJ6d0ko3EXvdPMLx8XefpG2TN1hOxzGXoEmAva4jUQofXbsTlrR/4DFYcRD0x0wsxNzJpNS23Iv6AuLVm8RJ584mlZ4OpZpUoVZdOmLfLaq29qGUgKUIr1Wzoz/HWRPw2QGZf8Q349eLas3+IUp7s+19m6arnI2qUitVtKZiWnLr97W2Tn0df39d4TEn9TZv3a/44EJjJhRqWaNWrqMMlwUouX5MLB9eNNK+Hp3cjId95+V1555VWndr6X778f5vRe5hHFkzBKnSDStqdkVK7nUi0sa4pVksErdknRkyrrKIx9e/eK7N0lhYqVdDnh5Pzkb0LkWetU93T5ZxQLLxmfD/nNRBH4KWmVDfkfqMhvv/1OJk6crNO03XbbLVKkaFHp0OEMdcOgmLZv36ETaq/4cYXs2LFTQ3aCk1qQxqaNm2Tp0mWyetVq9SMyeYgfpYSJv37detngrJZDZSrIl9+NlDlO/Fx22SWy/8AB+fCDjyTzh6lSZ9DTIkumOdN8q2Ssmi3SuKNItbqaBmDWK0LZcA3RkNPR44ErAROcWzrMBMfunjx5BQmMbSxBJeind0sUXJNwOyJHGOueWyRMmF991V++/rq/zsHXomVzOXzosJxQurQ0a9ZMWwwenIwi03n08MwBtDqhHrTQmFMyKojDhYvK4RqNZPepneWTuetk0JgJ0qVrZ/WDDPjqa6m4bbWcMO1Lke0bJXPtIslY71rCxh1Eyp7EBbNSybvgJW/estkV5g1S2CkBho4VtFmFCjKoH9OnTZe5jsCqVK0sLVu2cGTZXifkLlS4kFp3X335lX6k7Ltvh8qMGTOVNJmwolSpklqvJk2aLJ9/8aUeN2zYCD2HukZZyiiUIePGjpNPPvlMxo0br0RHByJT4J19dif56MOP3bXny9lduki1ypUkc9tat6yXjCLFRZqfI1KjYdadhr4au2nTxqMI05MinT5FtF8h9L0jX9/5TQwmz+nrPr8hc88V9JxzXKI47oT5xutvaOt2/vnd5bLLL5MGpzSQM888UyqcVEEV0aBBg2XE8BEyaeIkWbBgoZRwLR9TP/mMwQ/X/+sBMmrUGJkyZapOD1XenUtcFpn1o3s4CJnCsnPnLpk5a7YGt5577jlaOD7v94V0OLWeVBz+msiC8ZK5e6szyTdKRvNuzkR3LV9WhudVUOB0VqFixTVP8vVED4aoOHz4kEydMk2WLF3qKv1hqVe3rpQqXUqWL1suL734H3WFtTvjDGnWoqls3LBRxo0fL+UcyTR0pDrR1b0333hLtm7ZKh07dtRvZ/3wwyKZOnWanNIoZAk+9eQzri5uktNbnSaVq1SWOXPmKmGiFmc6Ar7p5hukfddzpFCjdpJRv41k1GnhyLKzSMsuIsV+cgmFCPNohQlhBuHJk+v62EtPnqyp3yDok0dhJoMwSZ85O48bYSLx58yeo2RWq1ZNae6UJeqHl/PKK6/JwIGD1FRYs3qNzHJkt3z5jxpMzXRZTAX14vMvyciRo3SW5mXLl7lj5jjTYaM0cqbGnr175Nmnn5VRI0fLls1bpEzZMo5QV+iL2LFzpwxyafc4v4eccc55Urxxe5FTzhApX0MyGrZzL9IR5gkn5lnCpBDReFBoKXy8YFOVBROQBuFimNl85AyyQzmiDt98638yc/pMue2OW+XC3r1UfVapWkV9nevWrpM2bdvI8/9+QUn27rt/4SyzLtKseXPsXpk+Y4Y2vuVOLKeipXOXs6Vv32scyR2Q8eMnyFp3Pmrsoot7yyWXXKzkpr7Ocs5yq9lYpPapR5El+ElhllcLE9LzURve1A4H6XoXghdSITUa+iInSCZhwjVMqBKPSythwjy5+smyYOFClfj4SGo60ixf/kR57733Zcigb6VHj+7yi7vulK7durkWsbRMnDDREV5JJc0n/vm0qid8Mldfc5Wc1fEsJcYJ7ph6DerJ5o2b5QtnRlx88UXawpGBmBYrV62WxYsWS/fu58g111wtZctXEKlcy5kGjSWDEKMmzhw/sTLdYVl3mbdAeAUzeNMCUlEgTF9wDAUTkEmNmjX042YzZ87SxrR+g/pqYkOct91+qzao1BFcVdOnz5AtW7dIjRo1nYU2QLp16yI9e/U8QmAQ16RJfL+8tBIbc3927ny2fgZ76ZKlMt6Z5pDyvr37tBMXFxhCJScQIuQVJuSECewJkfNZIEUEQTgo4+zjeBBukpNeoiANQpggTHrnc4uEGYWL/vKXd0mdurVl2rTp8sXnX8gM97LGjZ0gjU9t7IjuRv0qZL16daV9+zPUr7LcKcnhw4brnIwXuJfY47weOjFEkyaNpVOnjpo5a1avdeb4jy7DCknT5k31PDJZB+3v3St7HKmguigcR4B/pEz50KiEPEiWFGK+3ofJgA+YVpXCbCjYgHRoRHHJdO9xrrR1qnHduvVO/a109WG3lHamOYTkwT4CwyGFXbt2ar0p6cjUqzdwwBEH5Q1xgyqERDkebHVEu3v3HvWT9jivu1qFb735lt5HLPBKkuMxyf0clyz8DWkiBLAyI43q4dxIAsGnm+hC2vEKkIRYhRfBgk/k5ptv0g8LLVz4gwZS7969Sxo3bnR0q5R1wyUcCaxwpMDfrVudJoWLhHxyPAQvv2jRYurrXLVylb5kfJ6ct9uR5V7X4l186cXa2r737vv6MvM6eDb8NrTyFB4mN0UtxPtSDfkHa9asld/ce7889MeHdR5T1BuKjw94HXQmKvVv2rQZMnbsOCUmGtvPPusnP7p60a1bV2nQsKEUcuVozOixOmx2185dap2hIjFxa7l6hOlOZ0ylihW1LPKp67179qjJesutN0ud2rVk1KixMowIGLc/O/j9wbLLNq7liZ+pBnkO7pf6DWkS8QKJepUcqeyzLdKS3b7gArgXfgYbj9wgbsLkoYd9P9yZBF9riAItVc0aNfSByXBaEnwtZAwyGF8cTmYc0upnqVxJDrubn+bUKBlHhu7YvkMl/YH9++REl95KR5glShSXE53SomDQ80dYAkTcp8/lev6T/3xS7yWvgt5BnplvyRAignllMHgUcw0odYhOz5tvvFUeuO+36se/8MKejiVCogUyeORvf5drr7lefnHnL2XqlKmuflwmbdu1lTp1ast5F/RQsv3l3ffItddeJ4/943GZO2+eElglpypRmCjU8hXKa73FijuceVgVJ/X5jrvu0Hv50tX1hQsWKulRn2M1kbkO32nn20mUdULjSMOnw/OhPkkPlwEEyjqI7Ijak2FO4LhQOj+PxIkVcfswhw8fIc8997y+SG5iwviJ7vdcDUPY5TJiiWvBVjvCIy4LUhg6dJguLU9rIec5E7xylSoya+YsmTJpihLuBvfSUFgo1NXu5XZ0pvnQ74aqQr3s8ks1M/ka3bJly9XX0vHsjuq8xQ3Ay23Y8BRXeDLdcQdcZjCtfWyZeLzA8xAhQGEh/5jU13q/DeGAsCo4IqO8YMLSO07nTpcunTXyZJETJRf0Ol/3nXRSBWft1XH7L1Q3l480admypWMcCX0RtFIladmihdSoUV3KnFBGv9yKwKlbt7a0adNGfaT0IxQrXkzO6nim+iKrOOLE4jvoxEqpkqW0933VqtURic37MFGLnsiow/gNiR+mjtNv4c1zSJM1dYBnhAsQT74h8OBa7E8UXIsGAlcieZFbxP1Nn02bNstbb/1PX9rBAwe1dcJHSbjPBx98qEG2bdu21vCEgwcP6Utv06a1nHNut1Dsl8uMcWPHy8CBA10GLnZmQyFp066NlChWXBYtXqy9dW+//a4+1B8f+r2aIahZPrFww43Xq9nKC3j26X+p0rz0skukljMdDrlrVXbqlZdEBvPycBHwIrguYTl+HCvSP96WJl6Q3RQWCgrPxDfYvZPbYIgGQvRwSdFx6uObH/nbozJ9+kx57Y1XpKwr0wgT39scDo6HLKgfWG2FUtQ48z0f+ibot/B1i/LNgppEZUKYuKC4J0QCpIxJTt3kvEj1AfcAdThRUOcQdjQiiJTcIqGPoJEBBMl6wiTmi+SefOIpjen629/+ouNfIS7iMvkOCi1mEIw6gCBpS8gUMnCnKxjV3W/8MRxPbyAvm1Zqz569jvhq6vdWwOLFSzQTMOHxwdA6cb1Ro0apGXJKo1Nk2dJlRwiTjhQKFvtQv7wsMo+RSbTIXD9VJMozQPKYKLSYtMLHmrAN+QOUpb/99VF1Rz33/L+kaJo0upEIEyCQIHP4gbrnCRNQHzDT+ZsBMJEIP1mECWfBSVwHsZJbJESYkbDWZcZTTz2jcv8PThmGS/ZUgEegBZ49e7aMGzdOiY+FF0H4UrCnGULFR4PyxHfKPo5lGzFnkC2dWHwkDMc6SjRoGsQD7o8XhSkAUULS1vttSASUbcxxTNcmpzbJ2nr8EY0wAfXIq00W6gX1zddfhAz1IlJ9gzDZn2hdpIGhv6BVq1bKDblF0gkTQkK5kSGY04k+YHagsOAHxKxn5hZGMSDruTZmd07qzd8bL42XwUtjGy0h/tHhw4fry7z55pu1RYI8cwvu0Qeg40YgDVOVhvwKCBMFh+iIVs6pY77uBeknOyrC54iqThRwE/Wxbdu2Oh9DbpF0wkw1uF0++j5l8hR57LHHNNC2V69eakoj5ZNFRhCdb/3IZMyI22+/PVcNACOV+n/dX+8PErZOHUN+R3YKMxFAmJjkOdU/6mt2x+ASW7V6lXRo30FnRsot8oTUwfzAfMZZ/PLLL8sv7/6ltmKPPvqoXHHFFernhJD8CyLTfDsQvgY57QekhRrEfCZoPnhONECwKGxaQhzLmEz+/owsDekOCIn+AMpxOkHrnvsHEeZUB/0x0Y6jbhYpXCQuaxGkrcLktnAM41fkJX7//ffqGO7Zs6eGUKAAUwEyHJMe3+sJZU7QDi2ui8l/6623RiU+fKCDBg3S+0LqE1NJp47BcCxAfQknlPCqTdmEMIINO+WZvynz3377rbz55pty3333SZcuXY50rOYGsZjkuQXPUe1kZ5Lv2/8z9eifO4jwbf5v3G4zZ87UPotzzjknYudSTkg7wqSVgySJ58JBO3jwYGndurWa3smU+OEgQyk0KFUUIdniSZkOImJA8WVyTDg4buLEifLwww9rT/yf/vQnNUkMhlhAWfOL/9uvPcH5xYMyR5ll7UnPN+aUURb+hhQ4zqdFnUIAIELohIQU8a/j+58zZ47069dPLrjgArnxxhvjMlkhJAjTm+RcF3Jm7e8pt+BcTHLSyQ4cF4koWUOWPrzw/PPP1+eNB2lBmNwCcYm8MGYw4uHwGzZt2lRfmieuVMATJb1z3qzHBRDMFgoZhEkhitQqUVh9Dz3q8owzzjgyLteQ/+DLButgOeE3ZYfyysJvX56o7LiVKNuUdV/5KX90UNJIQ16sfaPMeXREUsn94hEkSsok6bHmHijLpKNWklNTQRKJBs6DQKl3WEf+HnILT5j0QHty5Hl9hyrpsnBv7I/13mIhzGgg30aOHKl5grJMpG6mBWESX9m/f38tOLSCxEdReFJ9a7wwzO6iRYrqb1/QwwFhTp06Va6//vqIhGlIb0QqR34b6+DigQKjokMgVDhUGQ0qx0BChIdBTOp2yarzGfzLIgBvDXnChNhw2/hoDF/52U+5Jy1PnPGSVTogNFpvoYbkecIE5CHPTZ6Sh9Qj9vOs+BMh0GjkyfEIp3gIk+t9/PHHGmvdtWtXjcNOBMedMCGoKVOmyDfffKP+SQplNOJKFiikFHrv+CULsrueEua0qXLddddJsaKpjys1RAbviQUC8u+M2cIZzkeFRMH5Sknl4hjetTdXveKjYvLbqzA69ih3lAkP0iMNSM4rPSq3uwOdzJnjqfQlSpZQogSk69P364IGLC1G40UiTLLDvRLNVxoOxBF5S7568uSdhHfI8B4hTN5jrKBsUG+/+OILnTay89mxTU+XE447YZJho0eP1oxmpnZAYaPFpUCS0Szcpr9V1vEURs4h02jJ+R0rMePDZH7Kvn37agUzxAb/zoKLB5WGvN+7b69up3ON904lQs35hbynovC+sDowzRhGx1pHShV2Ss4l698lC2UqeK1o4HosVFa/NiQG6jEKE19+MD95h7xP1tRB6jf7w+uxfydB8C5zQ5iUAcIAv/zyS7nqqqt0EEqyVPtxJ0wygd45AsV18H/W7QQz0vtiyGDvA4o18zy8kiANziVTY0VBIkzyP1KRYJsnIvLOHRXa7tQdM+rTcUBAMH4wr8go5FQOOgBopNR3lPVacYNQiFnI02Dl8vfgFw/KRPhiSC8QTscXTQnFCycpygWRL8FhkSh1zGTW0d4nx1J2OD8ncAwjeSZNmqQfjMMfm8xyctwJE6WBOY7PiElzuR0W/5DB34CXQOvk5bVXoJCgP5cFcB4V0b8Qjokl08ORG8IMv9944Z/BI9LfLEpeWevwRsDfR/B+yANMV/KbNROBANLgOJ8W6h61h6qjgSKUi0aLRsfnp8EQDsgS0qTzM9zf78sWoN5TvvgbRUl5om5Fqjuc5wkz2n62kx7XZt5P3HvMD5FspAVhMlceFRnHLA9NBYUYfeZGku4+kyBO/B5kOtuCL4LKzn5+k3688IR57bXXRiUKrsEwTRQWrSudAuFZywvn3li4H4ie5+S3V1n8zTpolnjz9dDhQ/pVTkDaqG2uCflh7tBycxznQ3AMTcV8RemRRwZDqoE5TrQLLpPwukLZZAZ4JgH3BElZDSfWcFDWIUzOjwZ8zXTMIgAgy3jGiceC406YkAeOWTKtSZPQJAKYc2QOhMKajIVA+A1JRiJQ4NUnabFmnkyCXRMFpOQVZiTC5L6IHX3hhRe0l/DBBx/U2FHumXkFPfbsDn1XHGc05EasKcS6Y+cOLRB8vB4FxzaInlfDc3oS9etIz24wpANwyxBeR2MdbeAGwoE6jhCgPPs+hWigHpBeJKpiG3Vp/PjxKjzwWaZywEhaEObHH3+sZp6X0GRmENwimQExMTEwEwTzN9shRzI9CIiK2U28oksUnjBRmN4VEAT3xfhZlDLHEvhLoD1Ej8o1GAoKsA7pxCWeGv9hMPIgXlDPsZTCQf3GohszZoz2yqMsEUqpROqGzsQIMoOWBvUUDbQ+ECPqju/9QIhs82vIE/MU4gKkyXKswH0wGen9998vDzzwgKpLWjkjS0NBA64fBm5AlhAnvdXJsIjC6zN1Hn8pA0oQJ5dffnnKyRIcd8IEXprHCl4A6s2b6p44PWEeL3AfmA7JaFUNhrwKrEVIs3fv3mouv/POO2p5JYM4AVYjqhI3GMHojN45VkgLwoTovML06nD//lDvN/tyUou8CMgqHMlSmclKx2AoKEDMEPWCmcxkHoSePf/88+rjTETYYEkyvwSkCSEnO2woJ6SFSU4GBhVmSEGGRlPwG58mLRQ9YUZeBkPeAR06hBgx09e///1vrdP/+Mc/5I033tDok1hBvScMjsnC6UegA5ae+EhCKZU47p0+tBivvvqqzmjue8LYFgnsw6kMcUKw+EvwbbKdhcxDqUKyJ59cTfj4Gr6ORMF4YqatitbpYzAYcgciRfBxohap00y0wze/iBChbntaoi6zULcJG2IQBMqSbccDaUGYTArMlPH0hKE2oxFmEGQYx5HxnEMHC75DI0yDIe8BE5sYTkKSCD5n5BgkiSiizqFM+/Tpo8LqeCItCPOll16SDh06SIUKFZT8MMH9bcUiuTnWdxyxpIowo8VhGgyGgoG06PQB4cToCdMHudICZcftkSR6stoC0jleJoDBYEgfpEWnT2ZmaASPB79Rip5EWbMN8iRMAbmeU0B6krjSYDAYjqBQMkzWRHH4cHQFB3GGAtZDI3rwZ+DXgGgZZshX4FhjkhsMBkMqUYjufr7GmEhsVKKA/GLxVUKqECcxXqzpUaOjiNCFQ4cYKpnaZ4hG6gaDoWCgEGTJ97b/+te/6qcijgcwtT1hQp6+p5zA9WjgeBQnveIsJUqUdIT2E+mGTH2zyw0GQ/JQCPMWf+B3330nd999t85STIDo8SIbVBxk6EMJMLXxW7JAoJAry/FUxJHAfTJulkk66FU3sjYY8h8K33TTTX9BZQICSBmjyZxyjAclkDzVZig+VGKvTjnlFDWzIUII0cP7MFkgUsicwHV+Q0p++CRgGwv3TEwm25NBXFxv3fp10qJlC72fcHANZnlmWrf33ntPTj/9dP2MJ8/Gs0CmpAHpk7eMcPBrlDT5Thos/rnC79vcAQbD8QWjDQs3btz4L8zLGAQBpHwus0ePHikP1IZUmMuOqd38qB22RSIItvlOH8xwlDEk5I/nfAgHeMJMBiC0dWvX6QTHkQiTa0Po+FaZz5LZikJ+1ZAa3n8g9D1oFlQo42lRoUyBxTPQCPh0SQOQDzQGLJDr9u3btHMr9Hu7RgpwHttY++3cK2n6RidIwEESNgI2GHKH119/XTIeeOCBTBReEExme+655+pnZelYSSWIsXzmmWfkwgsvVDKkoqO6IDsWiMSTYDRwHCQBYXri8R9NCpJEvGDOPQLXb7jhBr1GNHAtCAsyh0ATBXmDOoUQDzjS3bdvvxIdC/nEddjPmjzwjQbX9i4Nfx/cGyoXYvVKl/TJW/IMgqchYsQUa9IhTdImXdYcG/4uPPH6tcGQCvjyywTd8+bNUwuOoZRwFeUVoUEZTGU5ZL7bjOuuuy4TcxJQGRhxwwwj7du3T7m6BFTap59+WseHesL0ZjYL98TaV27mvAuvtGQm5Mj240mY6QzygYaIQgepsyafyTMKGYUuSLRBEj546KBLINQw+bTY7kkXtcwahUt6nA8BU6h5X+GTJPhCHa1wR9tuKHigzC1evEg++eRTLU9ExVAfmW/Wzz3BNG+LFy/WY1ue1lLatW2n9T8WsZVbZJx55pnKKHwW84orrlDChLU98aQaVLSnnnpKLrrooqMIMwhPiID93udHZWShgqG0PGHyt/chclyi4AXRmXPTTTcpkUSCJ5H8Bp7LLxTIYH6S5+QxRMx74W/AO6Bh4d3w278jwLtFMUOue/bslk2bNut7x0LwJM01eJf89uUQSwdSh4hRwaTPcaTr0w7+NuRd8F6pc4MGDVI1yddkKQe8f75V5csEx1GesJgoT7x7yhrlERFI1A+NNZzGVHOUoUQJNOPss8/OZOKLe+65RxM/1goK8kNhXnzxxapMIhFmEGQSFYnM4VgcsZAuFYmx6D4zIUz2c3yiyIkwqex8ZoNpqzp16iT33nvvMZ+nL6/Avz9PjLwj8onf4fkV3EZB5zdr/5v9vnLQgYbS4F2RJsegRvApIwAoG5QRzmPhPWLGUV682wL464WvDakH9Z6+E3yFvK/u3bvre4QEY+UlygSNuPfjcy7W1JAhQ9RK7NWrlwrDeDu0M5w5lRnpexnHChAmCpNvCKM0eEAyju08eCwPRSahbij8qSTMm2+++Uj64eCbPkyUSgv497//XecANKQnKBP79u+TQwd/+oqnlhNX1Hbu2KkuBr6Tj8uBCBJIFxXDlwgx9fheFBYZkSRBYiWN4N9BZFeOs9uXn0F+0XBSd5nikZBGZgRjRqJU5AlpIrCYzNgJRY3MyS2O+2xFnjAxyQGtvveh8YCQHgTqC7VfguDvSITpzfhEAWFOmzZNJ0GlxYsE7pPPi6J2eQZUDQ1RUL0Y8icofz9FK2xVomW4L+UWMxKFgxjwZZTjKdtEcrAfQvadbj49yi5lirVX5JzDQhrUj2B5B35/+O9Y4a/lIzVSAdKnzhPlgUXwySefaL4gmKgv7Ae+jvMMPr9ATr+j7WftrcPZs2frF2qJeskt0oIwn3zySc2w8MzixVHQvAnGQuaycAzH85L5zZrC4wkNwqLAJQMQJpOX3nbbbVEJMxwLFixQsuQZUCWxnmcwUJZRuYShEfJH+aOeYJZSH+jwQN2yxi8HEVAXfPln4bcnCwB5U2+8+ABch/Q4H7JevnyZs6Rm6Pd46IFOpnuOaxFOx7PgWxwxYoR+vIwQvFRSEPnAc1AXi5corp+6njhxon60kGvnFmlBmE888YRceumlRxGmb5V9q0AhgHz42xcIjqMAeBXK356YkkmYFFoIkyGkPv1YQCGZMmWK1KlbR4oWKap+GYMhVTh0OEuRHgoJiWB98nG7qN+QAg59958yiRuM+jJy5EgdIn3nnXfKXXfdpaScCLgunTG4s6jnuDmIQ27Xrp1eL5WAH5Qk3QKP+EaCNXHfECZ9N7lF2hImD8Wa1gGpjonNi6XVhLQgTt+K8hvnP4snNJy6Pr1E4QnzjjvuOKrVjgU8A34TfGDcW/Xq1ZPachsMyQDllNCcUaNGKZFAKPGWU+oddYaOFuosRI144TMUKNlUUg51DIJk4f65lyAPoLLHjh2r/kuUdG6RlnYimcy3O8hoeraQ0LzI4cOH629aKk+QEC5qlBY1t2QWKxJ5wdwT5E1HAQoZh3NuPv5kMBwLUE4bNGigHZuE4MRLltTFL774QuemgKioy5i+hAbxO1Vkyf1Dkrgp/KdqIOlw0cRx3EO895GWhIlshmDOP//8I75N/B+0gHzvA9OBHjXitGgxfMYECdNlSdavxEHmknYw/dyCl+l7WPFPEQqTLJeBwZAuQAzs3rNbRUKrVq00moBynghJ5QTIkegUOs9QmHCBv2Y05CvC5IF9y8AYc3qnafkYPskopDPan6GtCD2TqXoJHsl80bxMgq5pyTHNIXz8SAZDfgFWX8kSJbUzytdjzHB8pdRZ3GjJgK+TpIsQAd5vm119zRcKM9rN8/CQImtarFNPPVV775o1bSaXXXaZjnWPGgKRHI7TDOb6iajLcNAi4owmiJYJOHCKm9o05Ad4Zef7EgChdtRjzHW2YzbTJ4EiDJr+sdYxjoOQfX8A6eeGBHMi1eyQlgozHLRahFgg9+k8wbfJGnM81SBjKQTJahnDgfOZRoDe9Fi+VWQwpDOoLxAa9QVyDCcm6izkSacQdRjhQKcuC7GouK58h26QdH2aqFXEE5Ya1hmq8lgiTxAmIMNibYFAvC1IJEBivMRUgYLCHJqEexDMS4NAK2gw5DVQ7yA6LD9McK84WUOWwXLNNso6USR+iDMESjgTC/WCjiLiJ1ljfqMsSY+04q3jnBfvuXmGMONBvJkSBGnQEiYak5YTMC1q166thQSluXLlymOioA2GZMKbu17geJcZSpDyDEmyIELCCZS/EQ1Ykqw5h/PLlimrZEl64efEgzxPmLlRjslETpnGflwBjNphfOuxAAG9+HfIE0iTltdgyCuAzMIJjbKMcsScRhiEExamNeGBQfMaUsXnCXHikuO8RInSI16yBGmpMMm8ffv2Zv0VH2LJlOyImvOJ92SsKzPPo/6OFSgcNWvWPBImgX+TAmQwpDsgNeoOdStaHfSdnpRzyjcL2zgH0qT+B60rn2ayQFrxppc2hBl8AGT4zp279JvjxCz6kQJBxPrAPnNiXQAviM90EOt5yy23HDN1GQ56EyFNyJq4TWJRDYZ0RrAegeDvaIA4qfN06rD4/gJ/bixp5AYQc3ZiKTukpUlOhvmIfRzBmMUM2F+5aqX692iFcnrgYCb7YyOtw7dBzEyDz9DMBx54QONA/b7jAVpfehAZ+cRzz5w5w7W+1pNuSE9Q71iC9Qp/JWZ1LCY1x1PmU414SThtfZg8EKEDzCuJX8/7MOiAYQC/nywW0z3Sw/uXFnxxkdbA/+bF8n0j0v7FL36R8gkCcgMakXr16kmDBg0dmU/QsIxYCqDBcCzh62KwfqEeCRdimw8RxD/JsX7JDjntjwfB+8sN0pYwAYQIMeAURnFWq1pNo/rpFIHM2FasWPGo58ea0RyHc5kpp/Cf9OnTR2O90hE4zjt27KixbAwVPRajnQzpBxr3YIOJzy/YaRK+PxqwqJLp6qEsRrsu9RTipMebcoz1SKcmZRjhwz2zpLO//rgTJpnIEl7p8WVAimQsmbhp8yYlUKaL4m/gHcXRkN0+D67LC2NyD14m09enk7KMBJ6LT2Dg22RyElpsCN9QMECZHTNmjPr3AUQ5cOBAjeYAWGGMHsP3nxOoU48++mjWX4kj1sabMuyD0BkHXqhQYS3DlGWINF2tp7RQmPgsImU0mQqJ4cs8sVw5XXMsrSlLdi8nlhfHS6FjiemeUK5XXnllyuMtkwlMnS5duqiZgxLnWYIqw5B/MXToUHUdUc7nz58vzz33nEZT8PekSZO005LyjYKbPHmyigIAGUGozJpFfwANLhP5ouq8qUwZopMRAuY3aRIbSRqo0ezKGMeyeLHCb+6DdTSwD5cb5Ek9JEg9KHayOze3SDSttCDMIkUKR5XhPCDk6J3GZCzR/p48oyGnjOGlUyBGjx4tzZs314+wQUB5EYypZcF1QSUytZm/4dUZ5Ea9eeedd+Tcc8/V98+75ztEdBLSccl0iFhkn/X7TON6IUKOh1whT/ZDmH4KRciU2cAgVNL55ptv9BqE133++edKmtmpP+pdpLrHNtLhmt5CjAasyyBheuRUp48F0sIkL168hHvRW7O2HA0UJp0/JUuW0iFSEGakzMwNIODvv/9eC8V5552nX3rkJeVlkEeQJmFIKE06xrIr2Ia8Dfz4EBCKjzrSrVs3LdeQHL79cuXKKgkyMxZzUR48cFCVJl9lpGwwRyW+RIiTKRPZjnBYunSppslkv0SmhDpW9ylZQqzMfUAdzA5BYqOuImxY+I0bjd8IFsgd5cp9s++nep1aYjz6WrnDcSdMAlh52ZMmTVYTIRIgM2R6KUjTHZ+dsgwiUouEUu3Xr5+mx1ybTJaaX+DDsfBtUqipMEaa+ROQHYrxjTfekKuvvlrrBeY1CpLhtYgBygIDIKgv3iKjTpze6nQtIyg9ygdKlJnAmKsV4pwwYYL6SCFVZgXD3dPwlIY6v2W4uRyOYJ3jd/Bvrk+5pJxSp2nkcYFxDMTJQBEU7AFH7kGEp5Mo4iVLkBYKk9aMuS5RffhekoVgxpDhOME/+ugjqd+gvhYEWun8CBQHjnSUBYWfymPIX8AkJ16YqA7/OQmUIn7I9u3b68AP3ymKQsTnCUkiSmrWqKnbibJAVfIdfYgXAoXAmHawd+/eOmAD0qVetjq9VUJCJRxcn/tjwRXGdapVq6ZkTz3FdPdINlmSXpAbcoPjTpiAF8GL+/3vf6/mJAqQF8uLTgZoRTEt8McwK9DFF12sLWV+hi+QHTp0kLLOPKNjyysKQ94HipHPQNxwww1HKTdIB7cMHxqjHj3zzDMahnbPPffoOfj/UZ0ANde5c2ete3zHZ968ear6OI+PodF7jp8UEo71g2GQUbCM8TflDrPb/x1c/DZAmUV5cv9eybIvXnKLhETTO+4fQYsEpPmbb76pLQ9+E/wdmCC5ITlaKs7n3B9++EE7eCBLCk8yX0BeAS02HUKYbihr1gUxH/ILgiTjEU4G+DhxQVFvvDoMHhP+G/A3BMe53v0FAcaqLjHl8aNCsJC4D1AH1EXSBr6DlX2QZDD9gwdD5FqkSMhXyrE0BLGESeUEiJt4a8LyzjzzzKytsSMtCdMDhYkJDeHxAshwWkWGCvrwA15mpEeAMNnOC8S5zAQafLy9oIPhpYdcPpYoUVLzMa93dhnSC0SdQJgoXIgOkotUPyFkeuSpvyecUNptCRE1KrlQIf9l2NQQJlEAECbWV26R1oTpQeZiUuOc5pMOZB4+D8x2HNJkAn47SBLfDi0jrRu+O5TVjTfeqMcbQqAhQsWTR5hpljeGbAFFrFggsnaJSNOzREpHj1UmNAnC5BO22RFmEOynnrJAmKhc6jALCBFmVZfWLv07EXjCRDzh680t8gRhBsHtYmZAoPQS0rvmzQcqP6qTDKblYiRE165dlRgMPwd5SEtOPhEuYmrTEBH794o8fZNkrl0kGRfdK9L1WpFCkcsKhIlFCBl5woSkqLeeDLNDiDx3u7IYmgIOUH9PPhmFmRzC5B5RmAWCMLND+KPk9HIMoQ4xVDqtOw7//Bo5YEgAy+eJPHS2ZB4+JHLKWZJx/d9F6rfI2nk0UG8QJuauJ0wEDaA+QlgIHvZhFUZCuA8TwsSqxB+aKDD7cRugMFHBuUVa9JInC7yQ4GLIGShM/MEUSEiTzjEKtcFwBEtmi5QqJxlnXS8Za5xZPnmAyO4dIhtXiQz9QOSJG0UePlfk6/+oaAkXLpQxFuok5EfDjNokJArrBivRdwZxDKenUsYlwg/5ijAN8YHCgyuDOD0mHiF4mc41g0GxcoFIyRNEOl8l0qyjyIBnRX7VVA7/XzvJfPMeOTS9vxxe/YMzV3IOMKes4fqBMOlvoOORmGHOI4qDwHs6abF8gsgp3Vjh0zHCNCQMChEdQIRf4bhftnxZ0mJhDXkMhw6K7Nkpsn2DyI9zRE6oKtLgNEeafUVqtRQ5sZoU6nmfZNz4L0eARaVQy14iPW/VUz0peVL06jISSflt+CuJD2UMPH0RwWNJL9K58YC0vOKNB0aYhp+BwkQY14nlTtTxx0GTyZDPgam9zJngoz8TeeFXIg90kMPr5ok0OUukaHGnMN36LwNFnhzjtrUT+fwfIo06idzyd90PIbHg1sHFg5okWJ5gdKJYIEaIlO3RSJB94YTmSfh4wwjTEBUUcoJ7GX1FxxD+pnQpuIYUYL+zJiYOlMynr5PMd/4gctCR55l9pNANT4lc/TuYzDGGWwoXcaQ6V+SDv4lUqSty+zMiZX4KTXOUqSY1nTvMX0v4Hx02bPPRLD4EkI4fT6LhSEVZI02I2hSmISWgcDExAwUcpclMNzjrDccXu3ftlk0bQzP9JA2HnRm+Y6PIrq2OFIs5MqwvUreVW5o5+zps6sMfpkrmph+dyuzsjgsNtQQQUubho4mOASe4dugxh0AJWPeuHnrLIU46gljjS6djKNwkTxYSJczCf3HI+m0wRAQFzA8MoPAz7ReggAcLtiH1QKkNHzZCvvzyaxkzZqzMmjlTqlarqtZAwiCMp3w1yahUW2TbBsmYPsSxXYZMK1xJDjlzG9NawTsneH32KMnAv9mmZ6hTyIFOG8ae8y0uQPmgkWUGeOJ++RtFidqE7FkIO+JvSAwC5RjKmS9bbEeVsi1R4FrCYvKfusktjDANMQOzCSVAoaaQM1kDU4IZjg1QZcO+Hy7vvvOehn/9+OMKWbRosY7aOrtzMuZ0zSLCWqdKxintZH+TTvL6zDUyYMIs6dSpozaQG1evlMPLF0jxChUlo0hJyZz8hVuXETk1FATOfJpYIp4wITsa29mzZ+s+3DrMt8mIPdQm5QkChTghRE+gQVXJcyWLMMlDiJswuni+25WvAtcNxw4oAkxzKgLhSBRAQ2oBQf7nxZdlhzNtr7v+WiWRfp/1c7+vk7p166gi471ARJALEQ+RSJR9+BVpAJnOzSu5cGxwxPLAAw+qCf3+B+9qQPrwQYOkd8aPUnftJFcI3PU2LpNCpRxh/sWp0Wp1dRo5pmgMjqKBNP19ETQOwbON60OW3COT6zBNnSfaINhP+aK8Be/Vm9e5AffANHgtW7bU6+UW5sM0xAVvJjFagkJPRUmGAjBEB+pr157dGq9ID3STJo3loYf/KPXq1VXyIH72l3f/Wvpec73ccN1Ncu3V1zmTfVbW2SF19fXX/eX6vjcc2X/zTbfpd38A5v47Tr1edmkf+dUv75HZc+bqtqpVquoxzz7znKxYt0kyazYVKepIcsMSyTy4T2TPNmfCb9Y0IsGb23wRgMmO+RwMjSyEDlFiJqM4Idrs9Fs4OeaWLAH3wnnxqnFTmIakgNafQg+JogYi9XoaEgMB3R99+LH6L8uWKSO//+PvpHnz0BcDJkyYKM88/az7lSFVqlRWciWyAfP2mWefdsqtujvvK/nwg4+daV1STqpYUba79Nav3yAVK54kL770gkyfNl2eeeZZKVa0mM7K3rJlc3nl1df1GrsdcR48eEjuuutOaeyIWjIPu5e+M9RbXq6iSI36eu1ICtMDoqJxpWPHkx30A5lyv5ShSI0u5IbPkV73RIG7AD8rs8cT85lbmA/TkBTQs8mIDUw9Rgn5yuErhiFx4Aus4ohjm8tjfJcznXo89dQmms/PPvucNlYP/N99ctNNN0ivC3tKIUc006fPkFKlSzqSKiWvvvK6tG7dSh783W/lyiv7SM+eF8gPixbJksVLHYFW0M6Q9evWy6/uuVuuuupKWbx4iUyaOFmWL1su+5wKvNGl26ZN69DN8F6LFRep7EzoshXYoJvDO33CASFCfChkv0CUqN9o2s1bM7m1YEgvvPyhmGl4CJKP5wuxZpIbkgYKdp06dbT3ERMOXxUVwpA8oBQv73O5nHZ6SyW3t//3rixcsFBW/rhCTj/9NGnWrKmSBO+iRYvmUqxYUSUw/HYlShSXLl0668w/2qC5v9uf0U6JBRLe4NQmxFSubDk93ytUTP8D+/bLooWLlHCyQ24bSI73S3aIxxCOlCbPw3Ya+HhghGlIOqh09evX18KJk53e0XgKvOEnoK5WrFwp69aukwYN6kv37udqmA9zvi5x+etYwAm+n2IlyW+Gt2JG13WN2M4dO5UE+aR1EAdcuhBIyVKltPe4NDGR7v2BtY4wMw8fdmqzj5rhw0eMkPHjxut7zavA9PedTfHACNOQEni1SaXmN6RJb6sh94CgRo4cLS8+/5J8/vkX2lu9bGlonP9pLZ3SdMoQM5cvr7Kg7gcPGiL9vx4glStXko6dOsrJ1U+WLVu2ytChw2SBU6TE0g4fNtwR7nJ9P8RxbtywURs7/KN0xKBg8R/WcObr1ddcpfcycOAgvf6xRjIaXBodYkLJN8KZ4oERpiGlwMGPvwj/JjF4fKnQ1GbuoCakU0VzZs+RwYO/lSefeFq+dmRYzZnWfa7s41TnWu39XfTDYnnxhZfkr395RN5663+az7/69d3qIuELkC1aNpexY8fJ0089I48+8g+ZiH9y+XK9BkS53TVoJziy5Dd+PnyLmK7lK5SXxo0bSe+LesuSJUv1HvBvom7xb4YjaApD9hBVJPM4ViSjvHAf8+fP14bCz9UZD6zTx5ByUFnosKAiUnmoaPTUxmsWFTSQfyjFWrVqOVLbLkWc6jvnnG4ai8mnG/p99rlUOKmC3HbbLbLfmZzka/dzu8u1fa9x5nsDVZClS5dS/ybp7Nq9S6dVO+ecrrpme/MWzdQaoHe8ulOjKEzeWbPmTaVF8+ZKnFWrVpHKVSrr9kqVKur7hKiDnSe822DgOvfOkEi2YQ5zL6jW3BAox5Y+obQcOhifKwDCZaTRtGnT5JZbbtEGJDfXD8LCigzHHFQyPk5HZbaA99yDKusr/J69e+SmG26Rpqc2kT8+/MeYwrmC5ycbfMMck52PoAWBWsVV4OkGUodoId+c7gWShagP7M/9uHkaaL4FNmnSJHnyyScTDnczk9xwzEEF4HPH9NIOHjxY/W8U7LwKyIAOE8JyIAU6uvCT0TCkAkGC2b17j5QqWUpq1KwRczB2qsgSkHak9CFGhtESqI45zPsmr/guF2Yy4WjRyoCSLP/d2hMu8L/99uB+1rgV+HY7YW5PP/10UmKDTWEajisgFYZX0umA4sAsTGWFThYgecZE05GlHSjDh6vpiWKuV6+ems+MZMG0pYHA9GWBOOIdZRIJVF+Ixpu6xxvkAwqzTZs2WVtCgLzwI0KWnri8f5MywDtnO/kTTmzsw4zGpI8G8sGXG9Kjc2fq1Kka8H7ZZZclrUwZYRqOOyiC+LhQaEyI4OdKTDdQwRmWCCFQqfGJ0ZHVvXt3VU6+0nIcsY8cR0cDZEanC1/mpDKjpng+/kZ1sT+/YMSIERrOxEiaIMgbGhTiciE+yL1ESUeOhfkOeWiWomgKMBbC9CDvyXc/Xvyss86Ku4MnEowwDWkDKhNmGmuIE9WZLGWQCFCR+MAI5KZyoyjp+UdFxhIATRWjIhP0jQlKQD9KCiVKejwzn32FVPN6R5j/LjnPEg7UJKSnyvLQwVAD4/6RB34ezEigDPCtqZwIk/2QJUMzmfiae4g3QD0ajDANaQUUGD4nyIWFGWWOhwKjUhM7+sEHH6i6wZzGV8kEEtnN8BMLOJfn5PnwfaI4UdUorEsvvTQtGol4MXbsWCXM5s2bZ235CeQpjSH+XVWYJYo79RcaPpvdM7OPBpTzowEXCaqSxgjFT2MUTbEmAiNMQ1oC3x8mHJWvYcOG6g88FuCaX331lfpVW7durZUUvyoVNlrFVqWUTYXPDpyLqoQ0IZv77rsvJRX9WGHChAn6zpilPxLIT5SgzzMUYE6+15wIEwJm2jjS7dWrl7o54n0fOcEI05DWQDmgwjBbMbFSoTZRewTUoyZRQITE4JPEz5gq8qLaYZajLLk+z0ilv+uuu3R7XgWB8AMHDlQljtsiGjztxEJs2REm7+uNN97QstG7d2+NDU0lLKzIkNaAPPAVMjadXs9kfYgNkoKMiQc955xz5L333pOePXvKlVdeeWRIZ6rIElWFmY9pz7NACCxcj/vKy2Cey/PPP1+VJuQZ7Xn8M8eK8HfO36jyxx57TOfXZJ7NVJMlMIVpyDOg04DpwyAWFAehIxBprOE0KBRiJFm+/PILmTZtuoacoIZQrqmsCkqIRYtImRNCn5r1ZqkHDQEB1jfccIOqzrwO/L2vvPKK5jk95vRUxxv5QN7hQ/bkS96tWbNax9Xfcccdcc2cHi+MMA15ChRXzPOvv/5ag5Hffvtt9TXmBHyTzEjOwvnECdLzmhuVEw9IH7JAKZcsVVK/qBgpQJt7QpX17dtX1W1+AO+KoZJvvfXWEdUOaUJ+uVHv5CFzEUCYdJThIyVdLAIazFS/wyDMJDfkKVA58C9i1rZt21bN9JzafPbT492vXz/tjLjooos0oDnVFQ0liVokPIqwGYb2RSJLD1RuXjfJgyB/mdX8z3/+s5x77rnaKOCrJZZ13LhxGgKEWozFQuAdEttKeBdhXpjhDK09lmQJTGEa8hwosvgf6R2lwqE+susMgoQIMieomooLSIOKitLhN+lE64XNLSBzCBLCJP1w8zsSIJPJkyfLFVdcccwiAo41vELki5cE9KM2Ud/EphJKRuOCb5cGMfR10qLuvRbWd4uJj8sCRUkwOsccDxhhGvI9IELIiIXKRpFHmVARIU3+5jeVlzUEByHnVu2Rlv9sLOmTbqxpMNJpypQp6lM9XmRwLEHekMf4bhkIACH6hoaGkAZEP5mRFadKjzvTsrVo0UKPOV4wwjTke2AGY8rNmTMnqr8TomTJKMTYk5Df0RMfFZjwFYg0kgnINnpofUXODVF6eMK85JJL1MdX0ECe+XwjBpf8ZoFU+Rv/J5MgF8o4vl5E82EaCgSoiL7zBWL0CtITIL916N7+A1pBMR0xE1lQqIQA4feEzCBH32mBosSMLFW6lKbBsazjRUHVL7wH3gv5iqmOm4U5NfFT4nfm9/EmS2CEaSgQgMSojFRMT5yQE7PoYPJBkl7l+MUTIOYiCpCx5IQkoTwhTkaU0KGD8jx4IDQ2OlEkIw1D6mCEacj3gIRQj/jIIEyvKvE5YupBepApx6AsIUjI0i9BEoNYPXmSzmG+z20oMDDCNBQIQIaYfNEUHPsgVMxtzGyO874034NOGv780Dq5atATuSF9YYRpyPeA3CC8WOL9PDgWsx3yhEhJI0ScYXGUyeXMI4RsSE8YYRriBoHEDFUEVHTCQJiF3IO/CRvJCXTAjBw5Uv2JqQKmdThhhlRjzvGXKD9MdnyfQRi3FTwYYRriBjP8MDMNoDPk/fffly+//FIJCAJ988031YzNCRAmnzaA1FIB7oW0faePB7/9wj0wgsR3/hgMkWCEaYgbkBBDDiEYxvYOGDBAiQfTlZhC/H/0JjOS4/HHH5fPP/9cYxo5hvkmmSmIseD8TYAy4SSMyGEUCGkOGzZMfvOb32jakDDpMGck6RDsnBtwr0GyBPgtCwc+kUAcJb/1fjas184dCD/8vFThWF3HED+MMA1xgx5mQnIgQcYHd+rUSXucUWnffPONTpVGsDifN2UmcczzDz/8UMnxueeeU2LkUwJsZzjg0KFDlUQh2Zdeekmvce+998qDDz6oIz8GDRokn3766ZFwntzg0OFDUqhw9OIOUaJAWfBdVjyposZeQp4QNQsqOig+IfVkq1EjzfSGEaYhbjDFGmE4zATE5wGYBxGVyFhh5rBk2rSHH35Y/vCHP+gHv/gbsxf1yRC3Pn36aGAyY7wh3NGjR8ltt92mpj4dLcxwg48UcoSUUXzMe3jGGWfodXIFx2uRAp8jER6k5QmUXnPum4UOII9kEyVIRZqG5MII0xA3UGLetOYbKihOlOBHH32kf2OaQ37+A1ZOjynJQnyM3oD0IAnUG9+AKVIk1BuN8uR41CvHvfjii0qYEBmfq8gtSBOTHBL0YBtKmO38xuT3vyOBaxd2CjUoAKMdGw+SmZYhdTDCNMQNCBNi42P55513nqpCfJr0RkOY+AQxryFUVOTaNWtVafqvJqLg8BGiLjHZGQ7HBBmY5z5uki8Acg165DGJ451cN9yHyW/8llyDa0HIEKj/zcI5OcGIrmCh8F8csn4bDLkCZIP/sWvXrtKsWTPdtnXbVmnXtp0qQwgT1YlixHRHRXIchIopzj6v6vBlYv7iM8RcnzdvnhIYPlD+5hzUKfMr5haQIG4CyJZr+G0gpBwLK9lD4NwLZIniZB/3wMgftmc4kx7OZcox4Mk7FmLNCeQPM8jzud2g6W9IL9hsRYaE4JWgN3c90fi/KV4oRLZBSH4bf7MAzoG02M7CuWwjbbb7fcCnmxtAwl988YV2FjFRBmnRg58dOAYihDz9/RcqhCrl07DFdD+TcQBPvomAhofJkFHaqHJDesJMckNCgASDJAa5Bf+GaCAYFJwnSfZ7sgScA/w+wDY/Aa/fHkxXGHGzazvMlrUhOjz5+fP93xAhxMzf4fDXxM9Kb7kf8RO4bUWkcxNBMF8M6YdACTQY8ggwgQe8KvLY5SJD3s7amD0gNk9Gngw9GUOa9PSz8NsjSF4QOJ1SqSa0VKdvSAxGmIa8h60bRKYNkMNLp4h88jeRlYuydkRHdioS4kRBoiYxr+lgwkTGr+iP+wlHE1qyFCbpJMMXakgtjDANeQ8bVjlzfJsUqtVWDu/b6UjzKZF9e0T27hbZsdkR6EKRoR+ILJgME+kpQYUZCZ48cQPwiQg6mPgNcRILunHjBmfC7886OoRkkWUQ3m1gSE/Y2zHkPaxfLrJnu8il90ih0y4SmfG1yNt/FXn+bpGHzpPMh86VzNd+KTLQme1Zswuh3jxheqLzqi4a8aE8IU4C6MuVO9Ede/TInmQSpr+X7EjdcPxhhGnIO8Bk3b5JZNlMR4Tu75Pri/R9SOSkWpK5cIzbsFekci2R4qUk4+RTRM69TqTw0T3zHvyNv5Lp2iAqTHFCiII+TA/Oo8Mn9I2frI0pAIH9RpjpDSNMQ/qD3vCpQ0WGvOnM739K5pSvRKrUEyl9olvXFrnmEcm46QldS40mknFSDZFLfivSuB1sp+QYTpj8RkEWLVpMO3QgTXrNPXHSAYQP82gCTb4J7qH36BSsEWZ6wwjTkN5Yt0LknYcl890/hQhz51bJ6HyNI8R7RE5whAnBtDlXpE5TkcnfiMxzSvOsPiKtuosULZ6VyM8VZjgIfaLjhzXHsXAOcZgM0aQjaM8ep2DDwDHJAqRtPsz0hr0dQ3pj/UqR0e9L5rofnKld0pFjL5Hz7hRp0cWxXInQMZDW+h9FRn4oUrG6SOvznPosG9qXBU9sECGmtSfGcLAN8xvy9ATKME6WVJJZ6P5MYaY7jDANCWOvU16ffvKZ/P3Rx+SNN96UVStXZe1JAhq0ELn8T5JRrJQcXj1bMj95VGTEh7J36yZVZApIplwlkfqnhzqENnL9o5WfJyQ/RpwhksyCxAIxQobhahHywmyHLAk5gjyDwOeYTHB5I8z0ho0lNySE/fv2y0MPPSyDBg2RZcuWy9y583T2oUaNG+lY8YRR1JHUKW0ko9M1klG1iayp2ET+O2u9FCpZRqrXqK4Ek+kIMKNkaZEizgSfNNApT7eu58gzS4Him5w5c6YOZeR4fJQMl2TN354QWVCXEGokUztE0KHwIwDRRjouEjguOzJk2jsmIWnXrp2StCE9YQrTkBDefucdR5Lz5Zxzu8lDD/9BmjY7VWrVqqnkAyAZOk8gBMZvH1GFAUBodLJwDAownIT2Hzose0qXl82n95Av1ouMmTxdipcorue98OJ/ZPlnb4j8rrPIlKEilWqKjO0n8uOckGTLQnia3AcdPNwb/kmmnOMeIEOInpmTiMfkOegUgux+RnixcaUiO7L0yIlUDccfpjANCeH99z6QLVu2SqdOZ0m3bl2lc+ezpVWbVjqTDyQ0a9Ysee3V16V//wE6VRvbGZvtlRyfmhgxcpS8+cZb8u2Q72TN2jWOrCrocZDHihUrZfCgwTLSHbN7125Zvny5bN+2Xc5of4ZOGzdo4DfSoUsXqbJ0pGQumyGZ6xaJHNwrGaecIVKjkZMEhZVYZ8yYIdWqVTtq3DqKzveKQ1YsEDbqk3MgT8xwfJ6oUOC3AxQmCCfjILhOpP1+uydIpq7j2Tp06HAkfUP6wQjTkBC2bd8hU6dMlTWr10jlSpWkdu3aUqJ4Cf1i5Ntvv6uEStA35LJwwQ8yZfJUZxpX0ZmDflj4g/zr2X/L+LHjNUAc8pg6dZosWbJU6jeoryE9jz7yd5kwYaIjrJJSwam+ZUuXyf4DhP3skHHuvHO6d5Nzel0khVtfKBnVm0hG2YqSUdeZ420uCPk1XZqRCBMi5PtBzBAEUfHFSqZxY/GkyPX9bEWQm1el4YTJfUdbou332z28SW6Emd4wwjQkhDp1asuG9Rtk1sxZstKpwYqVKur0ZJ9++pmMHDFKevY6X/pe19cpz046P+as2bOVfKpUqewI9R35cfkKubbvNXLVVVdKmzatZc/ePUrAVapWVdU1oP9A6dKls1x9zdV6/sSJk2Td2nVKnF26dpYbb7rBmedO/ZUuI1LLKcqWXUNLFlkCFCQ+zCBhsoakUbv4DJkvE8LiM8HMGs+1t2zZokRKBxFkCYEGycwTZjLA9bg+84IGidSQXrCmzJAQII2+118rnc7uKMt/XCHfDBykqm3mjFlSv15dufbaa6RmzRrqE2zTto0qUD6CNnnyFFWc+D4v7N1LibaGO659+/ZSvnwF2bJ5s6xcuUrJ9Yz27aRhgwZKciixIsWKKhmyzxNgCI5omNw3a4LfcASJCBLFzG7atKkj885HJkFG+ULMECUTH0+cOPHIJByphDfPTV2mN+ztGOIGqgtztZpTg32uuFwaN26kPeQzHFmimKqdXO2I7w9wLP7BsmXLydYtW+XAwQPSqNEpR5Fe0SLMfF5YihUv7pTkWinkSKSiU4KHM0OdR7ucydzxrLOkefNmMmLESBk1clTWmbkHJMX9sGY2+LPPPlt69Ogh3bt313Xv3r3lggsuiKokOS+ZMGWZ/jDCNMSF5c50feLxJ+Vf//q3VnTMVj5jC7ns3r3LmdZ7Zfr0GU4R7tTjd7r1mNFjtJOnWbOmUrNWTclwauqbbwYrkQI6dVavWS379u/T+Mg1jjDpHOI3oUO7mK/ywEGp55TrFVf1UXJ99dXXNZwpJ0QjN7ajNvFd4p+EvFkw03kW3AvcQ6rBfVg4UfrDCNMQF5Yv+1EmObP6u2+Hyi033ya//b/fy4L5C6V161ZyYrkTZZ8jTEzqW2++Vf7v/t/Kr355j3z80Se6v8OZ7Z2a6yTVq1XVTh7Ov/++B+SRR/4us2bOlr2790rx4sVkw4aNSlb4GQ84MqM3ns4aetBbtmghl112iWzduk2e//cLsndfSCnGq/q8jxLSZO0XtkdDvNcKB+lwnaPdC4Z0hBGmIS6cdVYHOe/87lKhQnmnzvaoOrr4kt5yyaUXO/Lap0TXrl1b7ZBZuWq1+uYw2+/8xR2q2iC9P/2/P6kpDEmtWbNOYx7Lli0jJ5YPdcTwed5TGjWUki6NA05ZQmA1a9eUcieW0/QuvOhCNc0JM/r6qwGyaNFi7RRav2FD1l3+hHQ3d3k2H7tqSF/YR9AMcQNVtG3rVjW/T3Dm6wmOBPEzvvTif9RM/tvf/qIB5pi8kAGdKeHEBVkSME5aHFPEqaxDWWrrsCMRd4KqSoopx3IcZOw7RzDnIRv+hmQpzPg9g9fB3H777belVatWSTOvuR8C27kOS7Aahf8NgtvCf/MMdJThesB/akhfmMI0xA1IqrwjDXqWyzqzmb/9SB16xgn4ZtQMihIyhBzCAclBFJAPHURFHKFxHtvp+PHjtzkXsmOfJ0vANs7jOLYXdkuk64Rvg2TDSS234HyfLmu/hP8dvi34m0ZgwoQJOiMSwyIN6Q0jTENSgYrs2q2rXNDzAilZqmTW1vQDSpUQJXrzUaBMJHysQQ/9wIED9R74vC6+WkN6w0xyQ74HhPjuu+/KaaeddsQkp9gzth0XAi4DtqNqvYpl7dVgJHA+yphzcgvOxQ3x3XffqfomfCkpE5UYUg5TmIYCgZAZ/5M2gAxxE5QvX14X/oY8CVhnpA/B9YyF93Ga0eD3RTqGbX4J/o35jbJs0qSJKksjy7wDI0xDgQCEmMVbR0BnC6SIwsQcZuik78FHYUJu+GTZ70kvGrwaDR7HNr8A9hGHOmTIEO2AYoSR9YznLRhhGgoEUJjhpAcp0tmEyb5mzRpZt26dmul0ILEd8oRIMdE96YUjfHu04/CZLlu2TIYNG6bjxRmKSbqGvAUjTEO+ByQGYUJaHp48Ic0qVaroRBz8hjwxyVGCzJNJb7pHOOGG/x0N9IQzucfkyZOlV69eSpjBnn5D3oG9NUOBAJ0zQcIMKkFUJeSHmkRVEjAPieLbDI6+CVePnBO+ePi/MemZKYnliiuukBYtWkRVoYb0hxGmId8DgsLMZh7NSPCTa9DpA3miCDknO2Lz+/xxkY4nXGj48OE6IcnNN9+sMzWFH2PIWzDCNOR7oC5RjQvmL1AyDAckBmmiKOmxDg+Ozy1QspAkM8KT1i233KLK1ZD3YYRpyPeAMJnrkrjJSZMmqfKLBIgTooyVLIMmuAc+T/yVmOCNGjWSq666ynrC8xEscN1QIEAxhyghsuEjhkvDBg2lYcOGCSlJprQL9nRDlnz2gt72jh07KmH6oZ2G/AEjTEOBAiY5veDjxo2Tfv36yaWXXSoN6jc4MrY8Nz5GzHg/QTKxmvSCr1q1Sj+nUa1qNesJz4cwwjQUWNDJw/BEiLNBgwY64zpB6yAW4sTUZuw8HUWjR4/WIPi77rrrSBqG/AcjTEOBB6qTD5D1799fTfZTTz1VfZ7EZRIWRGgRpjfmNf5Qrxz9t3/o3CGO89prr7VJgPM5jDANhixQFSBIvhbJqBxMbL6ljq+yVq1aGpvJbz9skgVl2bNnT2ndurWZ4AUARpgGQzbAt8kEHIwAotOIhZmGMMPZxwxIjEE3FAwYYRoMBkOMMBvCYDAYYoQRpsFgMMQII0yDwWCIEUaYBoPBECOMMA0GgyFGGGEaDAZDjDDCNBgMhpgg8v8B9Y7AO3g3fo4AAAAASUVORK5CYII=;" vertex="1" parent="1">
          <mxGeometry x="302" y="320" width="188" height="165.35" as="geometry" />
        </mxCell>
        <mxCell id="TX5If2MqFz6uqhYADykB-7" value="&lt;span style=&quot;color: rgb(255, 255, 255); font-family: &amp;quot;Söhne Mono&amp;quot;, Monaco, &amp;quot;Andale Mono&amp;quot;, &amp;quot;Ubuntu Mono&amp;quot;, monospace; font-size: 14px; font-style: normal; font-variant-ligatures: normal; font-variant-caps: normal; font-weight: 400; letter-spacing: normal; orphans: 2; text-align: left; text-indent: 0px; text-transform: none; widows: 2; word-spacing: 0px; -webkit-text-stroke-width: 0px; white-space: pre; background-color: rgb(13, 13, 13); text-decoration-thickness: initial; text-decoration-style: initial; text-decoration-color: initial; display: inline !important; float: none;&quot;&gt;Spark Streaming&lt;/span&gt;" style="text;whiteSpace=wrap;html=1;" vertex="1" parent="1">
          <mxGeometry x="324" y="290" width="150" height="40" as="geometry" />
        </mxCell>
        <mxCell id="TX5If2MqFz6uqhYADykB-17" style="edgeStyle=none;rounded=0;orthogonalLoop=1;jettySize=auto;html=1;" edge="1" parent="1" source="TX5If2MqFz6uqhYADykB-8">
          <mxGeometry relative="1" as="geometry">
            <mxPoint x="490" y="370" as="targetPoint" />
          </mxGeometry>
        </mxCell>
        <mxCell id="TX5If2MqFz6uqhYADykB-8" value="" style="shape=image;verticalLabelPosition=bottom;labelBackgroundColor=default;verticalAlign=top;aspect=fixed;imageAspect=0;image=data:image/png,iVBORw0KGgoAAAANSUhEUgAAALUAAABhCAYAAACQ/OCQAAAAAXNSR0IArs4c6QAAAARnQU1BAACxjwv8YQUAAAAJcEhZcwAAEnQAABJ0Ad5mH3gAAABfaVRYdFNuaXBNZXRhZGF0YQAAAAAAeyJjbGlwUG9pbnRzIjpbeyJ4IjowLCJ5IjowfSx7IngiOjE4MSwieSI6MH0seyJ4IjoxODEsInkiOjk3fSx7IngiOjAsInkiOjk3fV19DqDRUwAAHipJREFUeF7tnQd8VFXaxp9JmUklpBcIBBKKtBAIIMUFRak2EFxFRFfWsoqCuGJHWRvoZ3d3ddUtLvqtuusKn6hI7x0CAkkoISEF0kghbRKSfO9zZgbCkDaTCZDh/vX+JnPvnTtz73nOe573nHMvuloBGq3K66+/DldXV8ybN8+8RqM1cTG/amg4DZqoNZwOTdQaTocmag2nQxO1htOhiVrD6dBEreF0aKLWcDo0UWs4HZqoNZwOTdQaTocmag2nQxO1htOhiVrD6dBEreF0aKLWcDo0UWs4HZqoNZwOTdQaTod9ouZtjdqtjc3G29tbLRoXB9tuvK00Avt2A2lHAXc94OEFeHoCXlJgOp1pH77yvX8g4NvO9N7FVfZ3k7/bRsNQKZdkRbkRIzz08HNp+W8+cOCAXAYdevXqZV6j0ZrYJuqyUmDxJ8B3i1FbUwW4ibD1slDgFlETvYHhSUTvYRIyt7m6QufjBwy9HogbJNt9TJ+T9ed99hJzRi7HHwuK8adTxfixUxi66t3NWzTaCraJuqYGyEoHPnoLtauXAMZy84Zm4irROiAYaNdeKoT8LeLXDRoF9I4D4oeaKsIlFDgF/WlRCZ7Pzkd+ZRWSu0ehu0ETdVvD9ud+cPdT+cCiZ1G7bpkoQSK23YiA3UU0brLwtVccdPc+Jq+x51uai8AZOa3FxSV4+EQuyqvOqHWaqNsm9j/MpqICWDAXtSv/KxG82rzSMeiCIoB7ZgHjbwX8AsSTt64Xr5Yr8GNpGW5KPynqPncumqjbJvaLmhglcXz5SdSuWSoiLzOvdBy64I7A3BeB/kOA4NBWidw8+e9Ol2FyZg5QdX6ro4m6bdIyUZPKSuDtBaj96RvgdKF5pWPRjZwIzJwNdO9tsikOolpO/buyCkw5zghtshxnkQqU3K2zJuo2SMvbdfZ+PDIPukn3AD6SALYCtRt/AhY+A2xeLUp0jNWhoP96uhS3Z2ZfKGhCy3P5dMpo2IBjzKqvHzD9AehuE2H7B5tXOhARcm3SHuDTt4Ft61uYnEoKIMufxHI8mZ2PGmMDx3K7vLoaNZqP4zKwQBHz9Aehu3maRGwRuaOpqUHtof3A398F9m0XodcTXZsBBf2hROiXc0+hqCFBE3Y5appukzi2WyEgCJjxO5MV8W5nXulAJELXHtwH/OsT4GiSqd/cBpg8fFJSjgU5BcgtlyS3sXRCRWlN1W0Rx4qatA8weeybp4vf9jCvdCDlpcDxo8DnErFTD5lXNg3l+7UkhU+I5ThVVt64oG2EuXalJMw1Nlay5sLjG41GcWGO7Tp1VhwvasLh7ydehO4mETb/djRlZUBpiYTdhUCeJHq1jYuJW9eXV2LuyTyUUtDNYJCbC7ybGahXr16FuY/Pwfr168xrHEt5eTneXLQQ69auNa/RaIzWETVh8/3sa9DdNUs8toOtCEXNHgtG2/efB5LEkjQSxTZUVOKh7FxklTZ/WH+ou5uIumlVMzrv3LFTTleHvQkJSoCW9SdOZKGiogJpaWnISE9HhXkbKS0pwfHjx5GaekxO51wfPyPyiRMnkHrsGAoLC1WUJnzhsTIzM5GRkX72e8gZuRb8ruPyPfxMa7UYbQXXlwTz363D4OHQMSGjZSiT6OoAdBxWDw4BDAaTmA9LAhkaIdYn0DRBqg5bjJWYnJWL4yW2DQ5NaOeD4V6e0Dch7IzMDHy/dCluvPEmZGVlwb+9P8LCwpTo3nn7LVSJLVmx4mcl/OqaaoSGhqKoqAhr16yRZTV27NiB4uLT6NixI6qqqrBt61Ys/+knbN26RQk4MDAQ3t4+WL9uLQqLCpGUmISNGzbAWGlEp06d4O7uji2bN+OHZcuwJ2GP+g2BgQFo185PVbQrkdaL1BZ4YZk8Tn8EiOhsXulgWFm+/wLYuxWorFCrGN+WiId+KCsPuaW2jnbq4OfqAtdmaOLn5cvRpUtXXD10qBJgSspRJU5Gy3KJwMck4t49YwZ+NWoUdu3cqbYXFhYoMU6ZOhV3TZ+ONWJf9u3bp/bdKqIeMHAg7r1vporS69aZLA39tKenJ2686SaMHHUtNm/ahCwRfbpE+6+/+heGjRiBO+6cpr6XFaO0VHKPK5TWFzXh5KRb7xQr8hDQIcq8sgWwolhHoVN5wKolIuxtat73ynIjnpGkcF+JHYUrx44S+2FoItLl5+Vhtwg1Pj5eiTQyshMyMzJx6tQp8x5y2rdOUuv79u2LgIAA5ObkIjw8QhoZPTZv3CRRdouyD9knT+JUfp5a36NHD3Tt2hW3Tpqsjk0MHh6yvie6deuGwYMHw9fXFzm5OTiYeFAJOOXoERHzFuTl5arfUFxcrD53JXJxRE14w8DEKdD9Zg72XzMV3wy7CwndRuCMm1gIWzF4XGAzFAUi7NVLsWfzGiw6nonDNnjo83DRwcvFpcmLs3//fuWH14sd+Oijj7Bp00YkJyeJwMRqqbbCdNcLcZHj6fV6ieKV2LBhPQ4ePIjobjGIi4uDm5ub7F2roqzy0ObKZBB7RRtBXGQd9yP8l75cdC7K2rBCeEgE792nL/r264dx48araB7g76/2vRK5eKIWan398MGISbj5jj/g0anzMen+P6L/CytR5BeB2iai4nlINGtw5p4Iu8O2VSjPzlLzo+2hj6cBQWYBNQTFR597/Q1jcP8DD2DatGmYcc+96CMR+fCRwzh9+rTa7yfxx+zuYwTNyMiAl7RaGekZ4qEjERvbH3oRLpNDCjYoOBhGSQZPSqLIz3z5xWLx4yvUcRpi8OAhOCN2x1XsUteu0eo7du/erTz3lcpFFfXnUs5P5HkiVR+IHB9/pPmH42BED/R54Wf83+BfS6xqprB5R00jotNLIbu0oAcgVATi1cSVSU5OVjZjzNgxiIiIUEt0dDR69eotFiMHhQUFaj9ahIcfehBvLlqkksT4QYMQ2z8W27ZtxexHZ+GPH34gQvcSUbohJqYbuvfsiY8/+jN+9+ADSJRoPnbsWHUcRnouFnTSmri4uCoff+ukSfjgvffx2KxHsHHjBvSQY1gi/JVIy2fpNQN2tq0QazszE8hqoAMkrDgP879/F/dt/FxEaUr26kUKVte7r3wgwrziQlZ27I5HBo7BITsnWP1PeDAeDfRrsuejMUpKSvDS/Bfw2sJFynZoXDxaPVKzxqwrA6Y3Imhysl0Q3r3hAXw7aDLK9V7mtfXAW8G8fMxvLiTPwxt/7tQLh7zs7BuX6OchntW1BYImLhJJfSWPuFK71S4lrS7qzSLoh0XQ+c3ooj4U3AlvjH0EW7sPR41LA/aCd683EPnK3fT4e5e+WBPeVUV0ewg1uCNc74560lCb0OsNmHDjjSqp07i4tKqo14qgZ4mgk005U7NIiIjB2yPvxZGQmAuTRxGIjr0J9Yja6OqOVR264cvoWBTw0Q12MlwE3V/feJLYHJj4DRL/XNcHa1wcWu2KbxVBP5clIrVB0CZ0WNZnFD7+1d0oMVjZDA+J0py7bSWUKkmyVomPfrHPCOzxa8F8bqlEnSVSR3AudRuHqRK7CNnlx8EgvnIdFw7kWN47I62SKFLQL4ig1xYDZ2rk8PwG3t1KLYrXVFheGyCgtBDf/O1xXLt3mXmNEBoOXa8+5/d8iBCf7jcS30X1QXIL77zpatDjjYhg3OZjf6S3FQqPvRw1UgwhwcEICQ1tsQ/nwAtHHA8c2I+qyirVB05/P3bcONWCrFyxAvn5ebjl1kno2bOn0/l+h4s6sQKYd6wGy1OMqCoxTzoifLG+dl4SEf0N4pPllRfWantESgLS3rgJrtVGsRwG6GK6Ax06mreK5fDyRezQW5AeFIEyPlinhUz088FnESEItSNSM/rt2L4d//32PyLUWsR0i8Gd0+5Cu3aNJ6xHjxzBO++8ra5Tr969Mf3uGU1+pjE4Geq/336LhIQ9agKVpXjbt2+PGTPugZtYty/++U9kZ5/EI48+pkYnnc0iOfRsDpXV4pk9FVi26zSq8kWIxmqgssa0VJlf6y6FVUCqZJCJEtKPyWuRvK9TxbK6xmJl/GTTG05e4lxtIhXgP11i0XncTCSHRTlE0N7ubujbztsuQRP2S2/evElNKDp58oSKlBxdbCpm0BoUFRaqSU6ni0+rymEvPNaePbuxe9dONe+Ec0Vm3v8A/vDKK3j62ecQGxenKg//M9H4b2urOETUvDTHSmvwSkIFlhyuQC0tR3Phriz4Monq6aVAUpGouRwol8KV/8ff9gzyxFuXBQSjzK89EkI6Ydw1UzFlyARkezbctWcLbCAGifWY7+drWmEjFG5efr4aHrcMktBWJOxJUK+N4StRuUNkpFoiO3dSQrQXzgzMPpmtRiiDgoKw4OWXMWrUKDXhqkOHDldMf7kLC8SysADqLpwow+He7OxstViGfq3JrajFa/uN+OcRBwzN0nufkuMcle/KEHNeUYlHI+LwbkAMXus5BHGjp2N5pNgQB3aV+UqU/m2QPzzt9JZMupKTElW0DQ0NEwF1VN51+/ZtKgo3BsW2cOEitUwTu+LB0VI74YBPfl6u+pujihySb+vwmlJ7BdIS8vw4p9xap3U1THTLli2Tv01v6m4gPBibQ84n0EskGz5sOK677jrzVhPU4EuJRryyS6LruY86BhcRdcZiTNqzAyeiYrD1tjvFh0sSV+c3thgR8qzQQLwX7G93s1VQcApvLFqkpoKOuOYaREVFqfnNeXl5uG3KVDWM3Rh1r7l10lbfNut1lve0Pl8uXox9+/Zi+IgR4umnXTBcvmf3bnwh++TkZIunflTNHWnIU7PsGfUpHH4PKyqjvfVvtGD5HQ1tJ7bus3TpUuwUO+Un5+Hj46OmFDA/sMB9LljmzJlTywECziFglOAHrXci3BYbG3vB42h3FVQjfoX4YYnWDsNFIrVvsgg4TX71dvTYmoeCmKHIGTFNvLj47qpKGkievfkDdiLnNksi9HthgS3yYdu3bcMH77+nehgmTZ6M/nH98ZePP5bonYTwiA54acGCBm0FLcOKn39WBdk1uiv69u1n3sLKUoD169bxZ6rJT+38/LD/l1+QfyofNdU1SmTXjR6tbjjgBCi2pL/s26eSQN5A0EeOxZl+daHf37d3r2qFGxI1Zx4ePHAAx9OPo0SOycSXv4GCDgwMQu8+fdRcF4s2+NsZAJlH+Pv7q9mCtD/WcB/OefGQ3xQXNwDBISHmLefIysrE3oS96nyGXH21CqicDcnvsCyEr7x2PA9WOh6bkZzrdCkpKUrUzLj5o1kTmguPP3JtKTaki8AcghzQM10Swr2AX5JcRUkgT1cAOVJp/HpIm3qfrJPIw2RKmnwlbKMIXCVXNgpczvlJEfTzQX5o14Lsnxf0w/ffx44d29Uc6Bn3/kY8bBf8+5tv8PPyn5Q1eXLeU0oI9cHCeObpp5SvHz36ekybPt20QUhMTFT3JlI84ydMVC0CC7z4dLHkLTVwkXN47fWFeP65Z9VMPVupT9QFp05hjVSSTRs3qJaG4rGIl+fKyhkdE4Obb74F3Xv0UCOm3OfIkcN4VTw8g+K06Xdj2LBh6jMWKFLeDPG/X36pdHbfzN9i8JDzv5vH532YnJ1oMHhgztzHER0dc/b7reExKWJ+jgGAlZEtiwsLgLWaId0WQZPlOdXYkOkgQTM6++8AOn4HBO4S8UrCyBtqi8SC8LUsS7z2fhVdVT81vSdHFyV6wV+aIx9J8vhw96bg58VrPh0egnmBLRM0Ya/H/v2/qKjZqXNnRErCx4IaIgXGAmYTvnr1avPeF8ICUdFBkDikXi2wQpAqeeU0161btkhkKoHeXa8KPVQiHW8WuH3q7bj+hhswVITEFpeEhYXjVyNHqvV1l9j+/RtsNRjpV61apSpjTk6OmlX48KxHVaWc/fhcjBk7DmfkfA5I5Pz8H/9QFZJQdH6SxHM6LfvI04+nKbHVhYJLPJiorge3JSUnqShbF+6TKZGavjmyUyTayzEbEjRh5fCT8mfrwIDSRwLHwIED7W91efnnMTFsPLlvHm5ycuFLgIifJVLniDhNhQmjvHIhVRK1c7cDpZmm94SC5L9QICcHLymogABIuyeVQha5IOrB7kyWKH7epMACl+2zQgIw288bga4tEzShCFhItAZqfjR/ixAhCSBFzkJhEslm1V4Yldm0Dho8GK9KZF74xhtqeea555WoR4tYb//1HRg3fgLCw8PVZ6K6ROHmW25V6+suI0ZcI5Xtwl4eRtvjIsbNmzYqsfUTq6ki+aBBqpXpL5WBt5/deec0VVkzMzPwo+QNjJaEN0MwcvM4tAzWCTJ/P280tvCLWKDiYglcdWC0TTmaov7uLNfO08Yga8HuUs031iAvyyy4lqCTSN/lExHcPrEEVlNOS+WCWYIXo1nxUSAvQSpSPd/LGk2RSnOoHhnmIV7Sh2IWYUshKNFLNP2NtwfmexsQ5iL5gvmj9sIC5V0s8uUqqkTHRJs2CLy9Kz7eNPeDot+zZ495i32EhIRiqkRkeln6VS6MUKw0rEiMvsx7LBOo+Mp11gs9NudiW8NzYZdkbm6ufNYNo6+/QYQVpSwOv4Pnwc8PjI9Xg0QU7969CSJWU48Yj8voyv14V3vdW9q4L61Mbm6OEj8rRX5+PtLT000tlXkfijpdfDyPQdth77+TY7eo/3L8DIr5pHK7kc/q88QnvyPRWV6tkURI+em61IjIGa0LxW838awPa9ylYKZ4uGO+lx7BTQzRN5d9CQkoLioSAbuhZ6+rRGTmwSEzcQMGqFutOCjCBK+sXKyUHbCQGfUD60m+HAWb/PTjks8Ivfv0RnhYmPrbGt5nGSHJLystRZidLS2rQPvF9dyuxJmRfjaK03JslwSR+8RLazNQKjvFnHos9ZzFkmuUKRGeo6Dsjgwztzj2YJeoqeVlWVUobYmo9VKTO38prw3cIMooXd8gDr11htiUspPypnnf7y4aHm9ww2sSoaMcYDkIC2rHzh2qcNhMckaeNbQGw6W5ZxTijbWmexdth1E3PML+Qm4OFJfFDtCeWPea1MXb2+uszSqvU1GDg4OVIHm+SqBSUQiPu2njRnU9enTrru4Q4qBT4sED8r2mnIx+mnNV2CrwRmW2QvZiVwlnldegvFQEZa+mXcVDB0mzbTjXRJ0Hj1tO69HAFxQly49YK21mAxXCiol6d7wqgu7mIEETFlpSkmkYnAMojFIsGOslPn6gimocREgQC8KIdDnCSlpmfnqVQQTrymS8ATioYxF13WSPPWgcveS2w4cOqQf2EHYzsvIHSE4T3a0bOkoyTdGmpKQgLc3ks9nrcvjwEWWhQkJDlNWxF7tKeXNhDXIrWpAh+iZKIifCtCSE1tBnca5IQ5WG1uPkOiBtmezb+FyJcQZ3vOFjQB8HCppC3rVrF8rMBUrxfv3VV/UufPAMow+b4tTUVNWrcDlCQ8bfSThjkOfYEKwA3IfQGlmgvWCPib9YECaLPF/uezAxUVVsenRuZ17AqM7vW7NqpRI8k0hGfYqdDwOy5Ab2YFdJbyipQY691sNFooGvZLjs8WiIKhEqhd0YFHb2BuCIWJhKU0Sw5nbx0G+JoB0ZoQm7rY4cPnTWM6ZJ4a1auaLehYMnlv0oaEanxgRzqWBk9vUzzQ4sKys9+5vr47Qkh7zrnbRjr1IdeEc8BUs4pZa9Hgckn2Dk5TRXipUJYI+eV6nXQxLRuc9RsWbs5WEUj4rqoj5vLzaXNoujsKhaDezZhU4ulotcEF0jBatE3YyCZy9I9iYg6S/yo47IinOfmSiCfkksRy8HC5rwSUrZIlBGmJCQEPTu3bvRhT6TUYwWhA+dYWS/3KDYfMy9DRRZZQOPWKB9Yn82+84ZafmIh7owElu6FY9LssjRVp438w5201ng6DTtCp/9x6i+c8d2NU5C+9KSqbfEdlFTNxwS56QPe6hhHylrYiOeqULEyt6P5lArFYC9IUkfAwc+EpFvB9JXYHJ5KqJd7PyNjcCEKmHPbvUYBMK+3FmPzW50+d3DD6P/gAHilKpVZGK31eUGo2a37t2VUOmHDyUn1+v/Ob8lNeUYquU6sFuRVqIutBk9r7pKRetUaZWWLPlOHTNULEXdHg1+lu/Zav3tr5+pisJEkvkJ928JNos6+XQNMiRRtAf+1mldPZE26EY8FjYGni4NzEhjzbFJj7JzZSGQv1t+4CcSSr/GzC2v44cTe2WLY4VN78eFUZqFR5/IftfGlvbt/U0jXeI/+aAaft7SlXW5wJaEo3Kdo6LUb1u6ZIkkbofV3zxXLux7XiGWKjHxoBLetdeNrjehY+8Fu/bopzkIw1Zg8KDzb0ag+PnwHW7jNSHsEXFEL4/Nok4sFVEbbReKwVUngjZgYZwHOnnp8E7Y9XgwdAy8Xa0uimoKHCDEM0ZM2vIWvs3ciYpqx/Q4MKrwgYzsniONzXCrCwuOPpH9zPSqKUeOqP7tyw1WUE6QYsSkgF9/9RXMnTMbv//9E3ji8Tl4at6TWLdmjRIkH8rDmYCsDNYw2eO58rwJrQf3teaqXr3UsQj3ZYLI4f2WYrOoC8R2lDbe4XABehH0LZ3csSDWgEgRNHGRfPvt0BswN3QiQt3r3lso22tb1vycpfYMpmx7D/9IW4+iqvPnItgDBcknLtET00vzSUvNbSpZ0MOGDVf9vyc5o4wPjRf4nt1YblK41lGPHpOFzgJvztxo7uvpyac9uYow250VVV3ogT0MHqrbjfNH6sIKymF03obGB1rSktAP54nVyheRM/LSHoy69lo15M5oXB88HyaCrBxMQBsSf3exO5Zoze6+YcMvFL492Px86m9PVuPHDIl8zRQ2y3xqlB6vSISO8Tm/DnGg+lrvKLi7eiChPBMlNSI8aqRMkknLnI+WUluDdbkH4ePuhR6+EfBytf/uD0tU9pHCulYKltG3PuHUB0XUXoTNEcYeUpjRUph8kimFzKadUTK2f9x5QqF1qa4+g85dumDIENOTThuD38F570y0hg4ddrbbrC7sg9Z7SHCJjFTTP60nsfF8mNANkByAomfSx/Ok+K66qifGjhuvhtD52xqDXpuPRWMlGD9hQr02hXSNjpbf6IK+/WLVJLDmtHxNYfONt88fNOLVvRWSBjfvY7d10ePNAR7o4t3wjy2tqcInp7bjg9zVSDFmA7kSxYpF4A5wIRaCDH6YHTMBD3YdjWBD4+LQaNvYVC3Yy6Z62poptrtjDFjUhKCJt4s7ZgbEY27I9YjUB0s4kabKwV1xecYifHDkR3x4dDlOVlx+flbDcdikHKP46TLeBd6M4H6jROj5/QyIbkLQFnxdDLjbfwDmSfIY6SfJQiv0L+cYC5WwPz22BgVVl19fsYZjsEk5ZeKjS9gn30SP3vjOeiyK9UC0lYduinYi7PsDBuGFjjcj3EcitoPyxboUVJbg9aRv8d7hn1ByxmoWoIZTYJPqaKOr6D8aCNTMSeLD3fCCROhe7di/YTsGnRvuDxyEp3pOgb+hZSNLDVFWbcSCg1/h09R1ck42duVoXPY4rI2nW4gLc8MrcZ4Y6m//ZBQLs8NH4J3Y+ySpa9mjxBrj8YS/4s3kZSh2QHefxuWD7aKuJ0rr5Chdg93wfD9PjA1quaAt3BM5FO/GzcQA/2jTl7QCz+3/Am8eWoZco81PstS4TLFJKcwP65tnFC2Cfko89KRQxwnawrSOg/HZwIdwe6drEOjROv84z9uHluKtw8uQWpZvXqPRlrFp8CW/shY/ZJ1BYuE5H+oa4IrPBnniztCGJ5W3lDAPP4wM6onOPqFwd9Ujo7wAldUNT420FfrqX4qOo6LmjOQCHdHe3b4bPjUuD2wafEk6XYMndpbjB/NzPjxD3LA43gOTg1pP0HXhxPTU8lM4WJyO/SLCRclLUFjJednNPoVG8df74I7Ia/BE94mI9m7Bc641Lik2iXpvUQ3miqhX81kfgW5YPtQTYyRSXwpKq404WpKNConY32f/gqXZ+7A3L0m22DeD0IKPmycmdxyGP/S6DZ29TM/Q0Ghb2CTqnWI75uwoxybR9LKrPTHOn/9IpXnjJcQotqGipgpnaqrVTLofROTzU1YgrTwXKC8UnVvmkTTvVN1d3DApcgQ+jL0bwRK9NdoWNok6vawWL6RVYoIkhrc7sJejteGc6uKqCkkEc1EgdoU2JquiCGsLUvDvwqOoPZ0pwrfy6G7e2DXyRcRoNqTNYfOEJg2Ny53W6fzV0LiEaKLWcDo0UWs4HZqoNZwOTdQaTocmag2nQxO1htOhiVrD6dBEreF0aKLWcDo0UWs4HZqoNZwOTdQaTocmag2nQxO1hpMB/D9QmbSD/srbkQAAAABJRU5ErkJggg==;" vertex="1" parent="1">
          <mxGeometry x="580" y="110" width="181" height="97" as="geometry" />
        </mxCell>
        <mxCell id="TX5If2MqFz6uqhYADykB-39" style="edgeStyle=none;rounded=0;orthogonalLoop=1;jettySize=auto;html=1;" edge="1" parent="1" source="TX5If2MqFz6uqhYADykB-10">
          <mxGeometry relative="1" as="geometry">
            <mxPoint x="442.21000000000004" y="790" as="targetPoint" />
          </mxGeometry>
        </mxCell>
        <mxCell id="TX5If2MqFz6uqhYADykB-10" value="" style="shape=image;verticalLabelPosition=bottom;labelBackgroundColor=default;verticalAlign=top;aspect=fixed;imageAspect=0;image=data:image/png,iVBORw0KGgoAAAANSUhEUgAAASwAAADZCAYAAACaVQ1rAAAAAXNSR0IArs4c6QAAAARnQU1BAACxjwv8YQUAAAAJcEhZcwAAEnQAABJ0Ad5mH3gAAABhaVRYdFNuaXBNZXRhZGF0YQAAAAAAeyJjbGlwUG9pbnRzIjpbeyJ4IjowLCJ5IjowfSx7IngiOjMwMCwieSI6MH0seyJ4IjozMDAsInkiOjIxOH0seyJ4IjowLCJ5IjoyMTh9XX2ubRxVAABqa0lEQVR4Xu29B3xcx3n1fXYXC2wBFr0X9iIW9WJVq1uyLHfLLS6JE8eOncRx3uRN8kux04ud9n5xYsddrnKR3GVZstV7IyWxV4DoHYuywLZv/rO45BICSZCiSK44R7rcxd1bZubOnDnPM8/M9U1NTWXl4ODgUADwz346ODg4nPJwhOXg4FAwcITl4OBQMHCE5eDgUDBwhOXg4FAwcITl4OBQMHCE5eDgUDBwhOXg4FAwcITl4OBQMHCE5eDgUDBwhOXg4FAwcITl4OBQMHCE5eDgUDBwhOXg4FAwcITl4OBQMHCE5eDgUDBwhOVwksC6kW7tSIejgyMsh5MAj6wOT1jZbHb/5uAAHGE5nLLIZDJKJpNKp9OzexxOd7g13R1OGaCkUqmUTJ3U5OSkJianzD4pVhZVdXW1AgGvf/XNfjqcbnCE5XCC4VW3A6SDioKg2BKJhCGmgEpKSuT3B8xvKU1PT6m1tVVFRQFztCOr0xnOJHQ44UBJQVITExPqHxhWb/+gRkbGLFnxW3FxsUpLS1VVVWk+o2b/jFVezpfl4BSWwwkDPqkZQ1TTiWmjmhJGUSU0MjZufvHlzL6qckWjUaOkinInGIyOxdXe0aXW5gZDXpHZ35zKOl3hCMvhhAB1hKLq7OpVT3eXZmZmVFffoIb6WlVUlKvYmIDz0dC4IbWu/iGVBn1WcYVCodlfHE5HOMJyeFmBX2pwcFA9vb0aGptSJBRWbXWFamsqFQ5HFAwWWdXk882vmqanZzQ0PKyhoWG1tjQrFiub/cXhdIQjLIfjDky/8fFx9Q2OGLIZUWIqoYDfmH2GbCrKy1VuPqPRsHWuHwn4rlBmO3fttoRVWVl5kMnocHrBEZbDcUNiOmlMuEnF4xMaHjaqqn9EqWTS+qca6+vUUFetSCR8WEU1F5iSOOO3bNlmyMoos9oa6+dyOD3hCMvhJQNFBan0D41pX0+/+vv6NWX+NqJK1RXlaqitUkVFmSWqomCxgkVB8z1gSctvVFbA75ffHGz/Nt/ngtCGHTt3G/JKq662VtXVVQsmPIdXFhxhObwkeApo27Zt2tvRrdGJGUs+sVhMZaVRRUqCSs0kNDjYlzshaPZFShUNl6ikOKBwWYXKoyUKm+NKis1nOGxqZe5QD0S64wfrHxhSuTEpcdQfMAu96usI7HSAIyyHowO1ZZYbJhPT6uwdNObaDg0ZEzAYDKqpoUErlrTY0bznN283JFSkRS0NhqQimp6etuckpqYMyfE9rcmZpFFLsiQXNFuk2KdQuFTFQUNm4ZA1/wgixZfV1dWrgFFmtTVVlrhyIEFeohxpvdLhCMvh6DDLDabeaF9XjzZu3qnRsQmzM6PFrY1atWKp6qorrUO9fV+XevsGrNm3eHGbUVIRYz6mbUhDKmU+DQnh90qaz6TZl04Z8jJmH/GhNkbUZ0zFQJElwqKATxMTk6RAlcbMbGpqmHXa51dfR1ivdDjCclggZpmKD0M6Hdt2aNOmbeocnVAmWKLWplqtWr5YLc0N+801FNWe9k51dfcqHAlr+bIlKi8rVdBOsQFZY+5lrMkHifHpfU+lMkqZ3zIZjjL/pVOanJwy+1KKGrXWbO6D+jrgynJkdTrAEZbDAuBVkVlSMGbcc7+8T8899LgUK1emuloXXXq+2ha1qMQL7JzlN8IbOjo6tH3HDjW2LdOStmZVxEqNYjpySAP+MRz60zMpc50xjYzEbYiEP+A3Kium+vq6PF+Ww+kAN5fQ4ehRHFRtVaVqpifVe8f3VN/foap0UsWGobJWEsFWbBk7F7ClpUWLFy3Wrp27tXPvPo3EMSE9mOPtsd52AKit+Pik2rv71dXVp9JoWJWVZebyaQ0OjRgllrSE5nD6IPDnf/7nn5j97uBwCKCsZtUVnGK+llSWK1ZdoaKhPu27/XYNPP24Rja9oERnj3wTCQUySbvags8ooGBJiTXfIKDe4VFNGZOPEcFoGDWWT1K5++Bg7x8eU1dPvwYGBq052NbSqPKKcuu3YuJ00pBVKFRiJ0ovJADV4ZUBZxI6HCVmGct8zoyOaHjjs9r0lVs1+MQTikRLVb54qWaKI9J0WpG2WkVam1Xa2Khobb2mi4q1b3DYnOlTbUOdmpcuVdgoJt9s7BXxVpiQg8NxOzEa7USgaW1lTGVlUUtMkNnYWFx9fX0qKSlWXV2dHYHcH791qNo8y7cOhQ1HWA5HiQOEZew/pacm1f/Ek9p+660a375doVi5Is2LNDkyKX9g2jodfP5ihQIlClVVK2FMxylzeqCiQnVLlym2qEWh8pgxM4s1bUzJ8YlJTaayCpXFFDaKqixmSNCQVT4YoYSwIDcIixAHlJaFI6xXNBxhORwjvGpjmMB87br3HnXcdaeSfQNaeu7FCq1aruTwgIZ379Xwlp2a3LxDid5elUUNMUWKlSgJKRqLWdOytK5GRkIpXRxSwJiP4fp61SxbrpDZHzAKy2eUlD8QlD8YlC/gVyqTMcQ2pX5DWpHSUlXYdbNKZ9OTh/ya7QjrFQFHWA7HiNlqkzVMABmYP3sfflBbv/w1dfz8Qb36U3+t2isvV4lRSdmJCSXa92jXZ7+goFFlOMqnRkY10detkeefl296xlwiq4AhrFB1nQIN1Qo1tSrS1Gi2WhW1Nhq1ZbbaGhUbxRWIRpUJRRUfHNFoalpl1VWqqqoy6ZhlpRdN28G4ZN/c/XPhOfAXcqzDyYAjLIdjBNWG7UDjTk2Ma2jjRm3/2tc18NDDWvlrv67W179OpcsWKTUeV89Pf6CRHXtUsXa9qs8+U5nhYaW6upQxxJMYGlC8u0dj7Z2aHuxTZiSuosS0AqkZY3mmVFRWqUw0opLqcpXUVCtbVSefMSWTpRFVt7SotnWR/BVl8hMBjwlpFJx8wcPwTl76PdJ1hHXKwxGWw0uAV3Vo3DkCSI7FNbzpeW374pc0ta9HTa++Sovf9hZF2po0tXu7nv/c51S5eo1W3PIOKVisrCGl7PS0UlNTmhkb08zQsNKG+FL9A8oODCo5MKAxo8Syu3Yr3jeoYEAKl0WULS7RzExGxSG/wtEShSIR+Upj8jc2KGlUna+y1pBbnUKVFYbAqoxyq1TQqDO/MTlVVGzuXTTLSfnElEdijrBOSTjCcjhO8Bq7lDYE1P/4Y9rx1a8pOTKmhksu1dJ3vM2ac0/949+pJFqqpW98i6KGuHKYrYIZ85nilV5ZZaYmlTUKbLKjQ31GtSWefFKBkrA0NCj/1LghwMWanpiRpkaVmRhQcnzMkF5KfuYsJjPyh0oUrowpZBVXrUINxtSsrJQvxt8VChoCC1dVG+VWJl84ZDZzbUOCB3jKEdapCEdYDscRB0gLdN97r3YY83CyvUMr3/kutbzh9er4yQ8V371b5avP0OK33sKsZ3Okd56nbLLKjk9qsnOvxrZt1fiudmZaq+HSizW9fasmt29T9auvVrCmXonhfmNCdivR36PJ7n4F4uOa6ehVdrRPgWRcvlRGmaRRfgGjqoyyyoZCykTKFW5pVNXiJSqprZVYrsYos0BNnfyGuIoM6RUZwvMZBSj3pp5TCo6wHF4m5Bzd3b+6T1u/8AX1P/SgrvvKlxWRX9t+/lPFZxK6+JN/Z+w7o2wOIgSjrpIpJTc8p623fU3dG57V4kuv1bJff7eKGhs18uijGnn6cRUvXaT6a29SIByx5yhtlJkxLzURV2ZkWPHuTk32dss/HNfUrp0a2r1Xvr5e+Y2JOd7Za9RaVJEgL2n1aSoSk5a2qXT1KoXb2lS1YoXKlyyTv96QWblRZUVFuVgxnPkvcug7nEg4wnJ4WZGamNDAE09p25e+rECgSCvfdLP67rtX8a1bdeG//qv8S5ZKZn/u4KRS/X3quOMOdX3/dmOyVanxDTer+vobFcQvZYhj9Lln1ffQ/RobHNL63/24ivOXmcGkZKpOJq20IT0i5Pk7OzOt9OiwMmbL9g8qtbtTqaee0PDTjykVn1DaH9JYYkrRyIwCwSKlgzGlY3XKGlIMGiVYteoMVS5fpkhLkxSrOJhfDwJNab7mxAmO6I4H3NQch5cRWfmLg4ZUKhSpqtTwww8qY/72TSdU5PcpVVaq6NLl9piMUUbxjRu0+8tf0b4f363yNWfkyOryK1RcXy8f02+MuvEZEkr39FifVu1Fr1IgWmpq8azZhvpBCRkC9Btzzm/MP38obMMgigyxBcz39NSUxvfu1aBRXcEli1Xa2qpiQ4zp1hbF1q5VKhi1Qa+TXd2G2HYruX27Zl7YosFHn1T/k89qurfHkPCwsRT9ChCsWhTMZXU/Uc1HTvPtczgWOMJyeNkRKAkpVFMt39CghnZtV9HkuMrCIY2Ojar6oovln57W2KOPqPtHP9bQhg2KrVytlre+SVWXXqriOmOW5bX1ACKqu1tTjz6sygsuVKCyykbJH4R87jBqC+f92LbtGnzgQQ0bkzJt7h8wRFXx6ivli4Q1k04qfMmlqrjyKpWsWKXi1jaV1NWrKBxVxiiv6c4uqwgnzJZq36PEjm0a3deu8QGj1iamFPBBXgS1QqqzU4QOgiOs4wVHWA4vI2YbqlE+RKnHjEk18OzTyuzZq+LxCSWnxhQ781yNb3lBnbf/QCPPPKvK88/Tyo/8tmJnrVfAKLAcDjR2XzarZFenxh9/ROVnnqNAQ4N8LGkDSXHY7GfWmJeZ8bgSHe2K3/+ABu+/X0MPPqRkf78qzztXDTe/XqVGUY0YAh0z12u44XUqPfdclZ6xSrH1a81v61W8Yo0CTY3yRyMKh4IK+TKa6evT6AvPq9uYpqNbtynV2WPMzVFNJ5PGBE3n1qdnyRtvbqPFbDk4vGQ4wnJ4mTErd3wB+SoqFTHkNbxho3qM0qkoiyqbTOmF276p0b17VGdUzsqPfkTFi5fIZ1WTJ5Xy2MgQ1nRnt0YeMYS14gwVtbTKZ0y+/WRl/oE4UgP9mnjqSXV95zZt+dd/V3B6Ss3XXKu2D3xQ5a+9UYGqGolA13vuU2Jvp5pufq0CxnQVDnZjOgZrahRdvkRVr7pQ9VdcqtpXXazoyjM0VRpTf3Jc/qFRBTu6NL3hWe275x7tePopZUeGFSoKqBiiLQkbnoa02GbJynHWS4YjLIcTBNNazf/FFWUa6mzX8I6tiiZSGnnyOUVSM2q74QY1v/PdObJCoexv3Hyh0c9GoWeMyjEm4cTTTytgSKV4+TJDNLOO96w5Jh5X/NGH1P35L6nzs59XYtMLannn29X8W7+t8muusYrJNxuqMLm3XUOPPGbNvoY3vs4QFcTH/WC+vC1YIn9VlYJLl6jywgvUYkzRstWrla6s1jghE0OTqppKaPK559T++JPqfH6T0uOjKq+usj40SNBIw9y19kfVOxwLHGE5nBjMEoGvOChNTkl9A5rZtlsBY2YFoyXKRso0k/EpNTWh4kzatGlzrN8Qy36ntoeMkt2dhpQekyrKFTljjYKGTLKjY0pu3KC+b9+qvu/drmlDaqXrVqvxlreo6qabFVm1yioonzFNc/BZU3Fi+w4FW5pVc+Xl5l5G1c3ng/KbtBvSIUq+qDSi4qpqhVsXqfyMM1R95pmqWbtKabN/hCWcTTp8PT0af36j+rdt0uTggH2tWSgWM8Rn7n0QWTnmOlo4wnI4QZhtnIaEgiiOkTENPvK4achhu5ZVamREM3t3K7lzuxKbtym+d68m+3qVHourOGUIbJY0IL2ZLkNYjzwqnyGq0hUrlR4eVPy+exT/0fdtnFaRIb/yiy9W1etvUuXV16i4ZZFRT0SxkwazZbLKjI2p/9u3adrct/T8c1V+9lk2bQdIZO7nLMw1fMUlChoCYlWJskWtKjOmY6C1JTcaCtH2D2hkR7um+3qMudmuqf5+u+hg0Ci4otLSXF7sdedc2+GIcITl8DIjv2HmvgcMeWQmJzTy1JMKZtMqKovJb0y9jCGoGUNYo888p7EtmzS1Y5vSHR0qGmQ0btTON8R8S5p9408+qRLT+Hkh6/gTj2ropz80ammzStqWqeGWd6jq5tcptGatfIa87H0hK8wxAxzyRMz3fONb8kfCqrr2aoXbFvOL/f1AekEuzQc2A0N4zH9kLbDpiSklzGcmGFCJ+T0wk1ByclIziayiRk3OdPcY83enRg1xFU2n5DNKjBFFv1FddlRxP+a7t8NcuMBRh5OArCa3Pq+eL3xGE/c9psrLr1K6slajxoxL7Nmh6NiQfEY1ZQ0R2Ah2o8B8Tc0KLl6i0uXLDbmlNPLAg6quqFJ8YkwJQ2gqLVfRjTer9aabVLJ0qSGq2UX/9vPA7BdDWunxuAa/8y11ffbzqnj1FWr9+McVaGg0P2bs7wf7sXIfWUgqncmNPk4llOrtsbFaI7vb1b91k7q3vKCMSWtpfa0qyspV3DesxPiovVS8c0DjezuM+ZtQ2Y3Xa9XbblHNBRcpWNcw60+b9c9ZcG9HWoeCIyyHk4LEnl3q/9Y3tO3/+2+d8Wd/puobX8t6yMoaUy3b2aGJLZs19Nyzhtg2K9g/rLDPKBKjSmzIAJhOqLyEhp1RaulK+a+7QWVveqMxB6Py2ZUY5mv0Zh/Tfva1a9df/YUhn5Rq3/gmVb/ujbkpQofiCcIjevs0unOXBgw5jb6wXYPPPKl0akrh5mZVrTpTVWesUdXKJSqpq9Pojt3a/uWvqvnyV6vmzNUa3rlTO+74oXruuVvRsjppUb3abrxRy9/0ZpWftc7cwBHWQuFMQoeTAh/KKR5X58/uVO2Fr1LszDMVbGxQUcwopdoaBRctVmjtOpWuP0tlK1dqpr7emIRx61z3TU3Ln80q5OdlrNKEUUXJIp+KQwFDWGFLWL4ADu4Xx0IlBwc0dt+96r3tuwqds16xyy5XqG1RzrFuYfpvzE5DUGMvbNPgvfep966fq+v276vvl79Uqr9fweJiNZxxhlqvukrN179GdZddpsp16xRta9PUwIA6H37YqK7tWv3OW1S25gyFFy9WbOkSlTU2aWp4QuOdexXfuU0T+/bJV1yk0pY2G6fmpdHh0HCE5XBS4M8a82pqSj13/sKokLMUXbVK/qpKUyN98pWEFDDEVVxXr1BLi0qMOegrjSq1Z6ey/QPyJQ8okslEws4VLJ4cU6C3SxPG9JoZHTKmZFZFxELZ9yTOEgG+K0MUg9//rmY69qrqta9V2QUXqMiYcNmZGU0bkho3yi7+5BMavfdeDdx5l0aefEpTPd0KmPPLWltVee45qjLnNFx6qarNZ8wQFyorGCtT0hBwx513qufhB43iWqnWG2+wI5jB8nJF6htUumiRVWAmcZow9x/ZukXTg0MqCpcqVFFpV4mYXxk6eHCE5XCSwJpXU+r/5b1GQS1XeMVyFdXUzP6Wa7Q+03izvNremGSpTZuU3LJFvvh47rVeRX4FDJmlUVW+rMITEwp0dmn0eXNc9z5peFCZyWll/UXWjCS2Kz08pKnHHtbwj3+oyNI2Vd9wgyHFBk1392rSXH/k/gfUf9ddGjUKib+T3T0KVleodN16NVx3nZpvuklVl15i/l5n1GCjIdHS3Mgl72FMzqjv/vvV/sMfKz0+qXUffL+5x4pcGIX5mbmNrJRatXa1Xasex/1Ub68GN29RoqfXkGapSiorVEwQ7EFR8g75cITlcJLgsysq9D/0gLJGWYWMyRQ2JpM3kgdn4WOa6tijnh9+T+1/8w9KGlUWbqhXuDSsbLREde9/p4KGAKaLg5qOTyiUNr8ro9DQkCafekrDjz+mmf5BlbBAXzSiqRc2aeynP1Nq22ZVXH2FiptalMAv9cMfqfsrX9TgD36gmc2b5Y/GFL301ap/13u1+P3vUu0N1yuybq381dWzi/x5KmjW/UtkfVenNn7mPzS6e5+aLrtGS972NvvyjBz5enkyn0UBlRoTsXrNWoVqajWwa5eGn31ag+YzaNJZtWSJXYTQKa354ZzuDicFvCE6MdCvbX/6cZUsW6X6G24y5tZ5s78amFo58dxGDdz2LfV8/RuKLluqxve9VyUTk5p69FGNGfJa9FefNCRSo9RgvxLGvJp6+imNPfArZTraFTWqp7S0TBljXg4a07BozRq7iml6x04VDY8rvWKJJrv6rRmYmjFmZUW1aq68VHUXXaSwIZOAITN/WZkNQVDAKB4IxI4gHkhf7nvWBovu+s//0ubbvqkak4e1v/MRVVx4vnfAAeT9CRmnRkcV3/S87vuXf9XEhg2KtrVq6dvfrrN+87ckyM6R1ovgFJbDSYHP/JeZntHwfQ/ZpYujy4xZaBWWYYJkUqOPPKTeb31D4w8/qtI169T8oQ8psnqVprZt1dj2bQoYUoldeaWNXvcbYgrW1yu4ZKmNaC+qion38EzFWdAvofDMlKaNAkr39KtoyvySYZBxSsmgz1xzuRpec50abnm7Kq+/XtEzz1Jxc7MCsZhd9saaZ/CGVX5ms99zX8GkMRs7jInZceut5r7Var75daq/4gr57UswzIGzp3nHe19YEJBXmrG0TeXylYbA/Rrdu1fxPbsVNCouRvgG93c4CM5Ydjg5MI2ZCHefP2iExGw1NGSVmZjQ6H33q/cb39TU5i3WX9TwG7+hssuvEEvFTHfsUjoxrtiqNaZBo0LM/+aTZWZCy1aq7LIrVf6md6js5jepaN3ZSqbNAWbzj00qEJ+SP5mx9yurqDCq7jVqfO97VfuOd6j6+utUunadinCKE+JgRw1hJjYDyzOz32fBCzNGHntcnd/4hsb6u9Rw2cVGoV2oIl4Ma+Gdn3edfAQCCpTF1GjOWfH2W9R2zTWmWNLa/K1vqeuRxzQ9Mjp7IJjn/NMQjrAcTgJmG7AXzGmRVXpsROPGrOv96lc1s3WrytetV/173qvya6815llU6b17lOnpUrA0aghrtY3LsgGdZrOXhFRYuK+2UcHmxSqpqbG7p1JGzxWFFWCuIIcZMopEylRqCC6y/iwFl66UjErbr4I4KT9pFmaHx2HmMzud0OjTG9T9/R8p/sRTKjv3bDVde5XKjel6AN4FAd/z/wZc02zBItVfcI5Wv+Ntar3qSo2bPG799rc1snmzXXDQ4QAcYTmcPLC6gozioeEmJjTxwgZ1feGzGnnwATXcdLOaf+cjil5yca5Rp1PK7t5rzEUjTJYZs29xm40SzxAewbLI5vcMrwfr2KP43T9T37e/rsH7fzmrlMyt8EOVFNs5hawZH9+6Xd13/EjDDzyo9GC/SQZpMffBJJ0XeYTDihH7OtT9wx+rw2ysiLr+Ax9RbP25s2vUm2vYQ/POOQjcI+8+fDWkVXHmmVrxrndr1ZvfoM6771TPPffYFSVyafOuM+fc0wzOh+VwcmCIJjM+qr5f/FTl1RV2FdH+u+7WyKadWvkHf6jy192kopZmQziGaOwoXJf6v/ZlJRLTirz6KpWed4H5LZAzK43aSbXv0ri5VvcX/lfxn3xP2rVbIV9Q/mixssm0xusrVHzhOXY0Mr5np4oyPqW79iq+a6sSk+OqWL1aYikYz2dlHd5skEMe6UBo8THt+t//VfdPDVlVlWvpRz6s+tfeqKAxBQnFOOj4g+CRzewx3jSgvMODvHp/1UoFDcF2PP6YURRZ1Z2xKpe2/UnhC8g78TSBIyyHkwDT0IwZlx4bV/ePfqL07t2a6OhUtjSmRW97m2LXXqNAQ/3+pWAyiYTG739AfT/9mUraFqnmptcpyNy/pJFbOzZp5Oc/U++3v6nxX96p6d4Bo76Wq2zNGkVi5Zru7tO00qp60+tVdfPrFTnrXJWYc8fGJ+xSNmKi8uCQRju6FG1pseu/5+b3zQefUuOT2vet29R1+x1GTRWr7k1vUNstt6iEV4Wh4iyJ5BOJ993bn/e791MemBDNm4BK29qUGh5Vwqi/dDqp8uXG1PSZdO0/J+86pxEcYTmcFGQN2SSNqur6/h3yDQ4otHiRqq67XjXXXqtAfZ0N9LQNMpVSur9P+774FSUTcVVcfpnKL7hQ2ZFRJQlvuPPHGrn/fo23dyhbXq6qy69Q2cWX2BE25isSlKlzz1H1G9+s6JnnKFhbr2BTk3zV+LeySg4M2RVHJ/d1GoI0VmNtrYK8bPWglRRy5EAYwvgTT2jn5z+vpElXzTVXq+WNb1DZ8pWzS8aA+Ygk/+/Z7yypzCoP8bhmeMO1yc+kyedQe7t6t+/U+OiYEt396jNm8Ki5b61RgMEoS9N4Xpz57vPKhyMsh5OCLMpmx0713f5DFSmlyvPPV9UVV6rIkIl9eelsW6RBTz37rPZ+5VZVnLVasfPOVno6qcS992ryJ4asntuojCG3yNnnKXLda1X7uhuVNW06/tQT9i08/vpqxd71XpWec4GKeEWXOdZviC26bJmNVM+Ya6UHR5UZ6NP43t0qZkqQIbWiCl7ndYAcUFbxjRvV9c2va3TbdlVdf52aDVlVrV9nfp5Dblhs+J2SM8omppSKj2pmeMhsw5rs7NaoIaXRbVs1/MJzGnzmGQ1t2qzRXXs0bMhpwJiyfWZLmuOL/UVKB4xZa9JSs3SZwpUVeSoOnH6E5QJHHU4K0n39Gr/nXu345CcU9KUVO/tslV99jcpefZkCrW25OYCmZia2btPgV76i7u/9QEve+XqpplpDT29Q8qH75TemU/FFF6ny2teo/JLL5G9pVnZ8TDs//Y+a/NmPVRIqVtnb3qH6933Yhg/sJ5O8dp5u36fxe3+prm9/VcNPbFDx6jVqfP/71fCWN+eWXrbkk9bo8y+ow5iCHd+4VW3vfIda3vd+Oynbj7Iy5i1Ly2SN6ZZhCZokAwATyo4NKz00rImeLo0Z9TQTT2hsX7cGujs1xRpfQ4OaNiQWaW62U4RKG9tUavJe3FqvxYsXK1pbpeIKk4ZIVGmTV9b+OryP7JUPR1gOJwVTO3ao99Yva+K2b6hYQQXDRu0wwXlJixb9zkdVvGadfZlE/Jf3qOtT/6yQIYZgNKzpkQFNzyQUXHG26l//FoUuOltFjU2WvLIzSU3c/VP1fubflBgaVeyaG9X0+7+rQI1Rbd7LWvNBzTf34CWrExuf1eZP/5uSG59TdN1a1b73fWp5+zssN6T7erTVpLX9nntUf+5FWvXBX1eooUV+lJVRUAwexPf1aKKzQ3HmMxrzcnjPbs30tmt6X69RZxNKZ/xKF8UUOmORapctUc2S5Yo1NitYacy8+iZFa6pUEiuzq5kyT7LIpBc1ZQnK5D1rEuLbHwZy+pKWIyyHE49UWmPPPqW9//XvCk2mNDM5pmRXn/yj4wpXVShpTLJao3IC0aDGf3WX4rf/wKqLTFWNilatUPT8C1R+wWUKLVpszKWYDRxNxcc18dzzGv63v9fU7l0qvfxKVb3zPYqed54hq6Cp6Ydo4B5pGWU2vmGDOr/xLQ0bM61kySIt+8PfU/kZZ6nn9ts09Hhu6eX6a65TJhxQvNeQXGevEns6lNixx5CWUUxTE0olEprJpjUdCZm0VaqmdZEhpiaFjYIKNTVLtdWKGNVUUhpTMBKRv9gQqSEpuwoppLrfFzYf8gnr9IQjLIcTjuzoqAbvvssomn/Ryvd/wJg8JRp/YZMmHn9GGaNO/Makil72KskQQ3LvLmU6exResUqhc85Vyfnn2XWyIk2tOdVk2i7Oa95Y0//1r2nyzh+p7IorVfHWWxS95HI7H3BBIFxhOqGRx55Q749+pKltm43SWq3IipXq/8U98sXj5p5N8sUqNdbVromBYavipgzJTqeyKm+oMiqpUiWGpIprDbG2NaqooU3lxkyNVNeY/RUqLo8pY8gJx3nOtHM4WjjCcjjhSGzbqp477tBeo5wu+Nz/KNzaqgljQg3e/UsN/fhnKuntlR8LzphEEE7ojDMUu/pao6zOVbC5ZTY404A4pmzGkMs2Df/odg3f+iVFWxer9sMfVeSyy+17EBcE3g49PW0UUkLTg7zQ4j7F7/mFEvv2asYou+meYcONxkQrKdbU0JjSAZ8CZVEFWFXBkJFvyVJVr1qlsuZGRevqFKqtVbimWsJvtn9Uj2bG5hHVoQgrvzk6UpsLR1gOJw62zWbU85OfqO/nP1dJVa2W/uHHbMAlZmJiyxYNfu3r6vru7So17TwULFLJ2rWq/OjvKnTRBbPLteRXV7/SI6Pq+/73NPDtryk01quWP/0HlVx6mfzVHll5jd47z/xtI+ONGZhMKkN4AQ7y/h7F93Sqf8sLSm7ZJP+ePUob8poYSRhTzSg9meODQYUbjWI69xxFV6+wC/JFW1oNSRpT7yBymgub8dzX/SBdcwlp7nHzHXN6wxGWw4nF6LC2ffrTGnroUZ31Z3+h0KUX2RVG04Ygxn5xl/Z995vSwKD8YyPyJWcUNIQV+8hHVXP1DQoQ7W1hquysA7r/B3do5Btflm+gR7Xv+Q2VvfEW+QlfsOThEUAekaQNWU1OGjOzQwPbt2tkyzbN7NwpdezW1K5OJYcHlDGmIe8Q5MUYydY21a9epjqj8kpXrlJwUYsy1bUmLaGc6jJkZkMN5nufocNxhyMsh5cfXg0zYmHEmFod3/uenUa47hN/Lb9RVyOPPaKhn/xMicefVHBiTMmQX1UtLZro6tPI+LgiN16j5R/7EwVZQG9WxWRmEhp59gl1/dv/UyAxpZrrr1Plm96qImOO5UYEZ5UJN5oYV2Z0VImuLo3v3KX4lh2a3rDBkGeXUVejSk1MKzEdUMqkJdTUoIqlyxQzZp6am+RvXaTi8jKVGAXFpGtfOKQsr+jy1BR5cyLohMERlsOJgTHDMmOj2voPf6+pni5VX3aZGq9/rToffEQTzxii6mhXUW+/pvoHVX3T9aq4+FUafX6zeu76hdKBjNb+1/+oZPkKo8ZKJEbi9u7Wzk/9syGiMVVedoWqXvc6hQzRWAaZnraBqckBXq+1R4nOvUrtaFe6q12pgW5z/xHFewYVrilVpKlWoYYmBeoXSa2NKm42Jl5zi/mtRr5YmfwvMvUcQ51MOMJyOCHIGBKJP/aodv5//08l9bWqfvUVmhwZ08BjT8toFpUH/SoyampkbFJL/+BjCp19liY2bVLvl76kgZ/9TOu+9EWFL7hQ/mhE0+3tGr7r5+r+zvdU98abVf2a16i4pc3GO6VGhjVjlJSvt1ep9j0afP4ZxTu7le4dVlApo5TCCsYqNV1Rr9DKlcbMW67SpYsVaW2VfzZI04ZBzAuaikdYjrROBhxhObzs4AWkM4MD2vGpT9m325QtWqLJTFbbf3WXVlx5jSqbWjXOm54H+lRz42tV8ZrX2nXNswP9Grrjdu36h3/Uyk/+rUqvu8aoHZ+GH7hfe799m6qvuVq1V1yqYqOEZnr6NLF1pyG55zT8/Asq6upReCquZHJMiUC1ihc1qWjJMpUsXqbytkaVrlqtIBH1MaOg7LxFYMzHQ5KRR1Ye8o9x5HWi4AjL4fjCEyAWuaqVHB7R8IMPaePHfl/L16/TWLhEE+XlWv/6t6qopUG7br3VKqO6Ky5T3ZvfLH+4zBIT4Qbxxx/Xvk9/WqErr1L9a27Q+OYtGn30EdUub1N4zXpNdXZqcOPTmnj2aQW3bjfkmFImHNV0JGau3aam889XePlqFS9rUwD/lvkNEy9hLl8SCatodkWIXFqd4/xUhyMsh5cXrMz5zDPa8Z//z4YyNF11paquu1ZlhriKi4q15zvfVXI8ruqLXqW6a69RcXOTqZVMJs5Vy8SWrRr42tc0XhSw7/jLGIIq6utVVU2NRvp6lOzt1mT/sJJGxZU21Cq6bIUCZgsuXqSSlpacf4olY3hzDiN/5rLTJk0zKWMehkIqKSkx/AXDOsIqBDjCcji+oDZZhZX7Mv78JnV+/w7tue27qj5zuepvvEmVZ51to9N77/mlpvZ1qPKii1V1ySWKLF2qA8u6mPOTSU0TenDHDzS44Rn5p5PS2IgNS/AFQ5pIzyhUXalQTb1CbUsUPtOQYFOT/DW1htwq7bv+xLrveUgZopqcnLKfoVnCCtgVEBxhFQIcYTkcX3hLDBvSmu4fUud371DvnT9XsKxMbe9/mypWr9H4rt3qvfdezezerTqjtqouf7VKWFaG0bhU2sZBYSJO7dunxPPPafrBBzW+4WkVGeWVNQQ0wzLHsWoVr1qh2JozVLpoiUJNLfK1GLIiPorYKDv1hbQcXL1T5voeYUFWbEXWh8VxlmkdTmE4wnI4jpglCD6SKXX97G51fOcOBZTROX/1R8rWNWhq8yZt++pXNbhli9a/7z2qe8vbFYiErZpKTyWUHBpWqqtDk89vUP/jTxiF9oKiY4PyQyxtrfKtWC3/8lWKLFukmrXrVVTboHSgyJh50+YSSUs+JUwmNibkAVPvAPIJK2hMRFQWnw6FAUdYDscJs2SFSjFkld65Q/f/0R8rXN+oMz70IZWesVoD9z6sZz/9TyqpLteK975HjddfL39xSBqPK93eobFnN6rjvgeUMIoqlOhTyliAyfIGhc85S5Fzz1TDxa9SeNkKTRtCGjPnhMIRRY1yg3AyvBhiZsYSF2BfztzLX1zPMwknHWEVKBxhORwfWK4y/0AanR166h//VqGyWjVdc70iS9vUdd+vtOvWb6rxVRep6TWvUcXaVQrMTGli83b1PfGEpp7ZoNTOXZo2RFRSVaHIimWKrVuv6Jr1CixdqkBVbjE71ouaNPdg2eBIJKLS0tL9hANpecSVTqetWchvxcaM9FZHyCcsyCwcDtvfHQoDjrAcjh/SGcV37dSeH/9IQ9u3a9nV19nXavXztuYd21VeUaHmiy9RkSGZiY52TW54VtM7dmqys8e+DYcXOTSefaZCa1ereOkyhVrbVFLfYJcytssmG/UGEU3wslVDWJBVPmF54Bg2j8AgK0xFCCqbzVoVlkgk7N+e492hMOAIy+ElIL/q+DTZsU89Dzyojrt/oZoLLlaoNKSxndsVb9+nWH29mi68UOrp1ujmTRp+fpOm9u5TSbREobomyRBU9JyzteTyS1XUav6OQlJeQCfIBXWmDSlCWGNjY5asotHoIU06yAq/FhuvA/Oc8agrR1iFCUdYDscIqs2BqpOMj6vrzrs0cN99CpdGFW5dru13/1RBYya2rj9TlQ1N6jZmX/yBe5UeGpQ/Vq5A62JVXHmZMf3OVtGixSpqqFNZXc3sqB0w17eWHP+8mLBisZg1Cw8cPz8gKEgLAkNh8emZhI6wCguOsByOEV61yZHJnjtu19jP75TfKKiimlpt//mjalhcr5AhocnhUQ0/8bgimbT8y5aq+OyzFDvvPNUboipbt1bZSFh9QyMaYSJzZUz1Ro0F/LPO8pzraT8gHnxQ8XhcFcbExAcF8SwEkBWmYr4PyxFWYcERlsNLQmYqYVTTr7Tpc1/V5OYtCvkz8gWLNTk4opJIiTKppKaNGcabcJovOUfVF16kRFWNxnxFdo30RSsMgRnSgKwGBgaVMoTS1tpilFPYmnFzYeqrJStIp47VPc258x03FxAVJMWGwuJvzoOsHGEVDhxhORwzeM/eyBNPqOPzn9PIhq3KTk6pKOi3SmZqKqnYimUqXbpIYaOqomedpbIVi+UzqmhoMqGRiSmFouVa0tao4mDQOsKHhoYNaQ2ourrKbNWWjOZifHzcmoMQT0NDg/VfeSOAhwLkhDIjXYBP/uY8R1iFBUdYDgtEvgloyGpoSEOGrNq/eZuG7vq5goEiZY1q4n2C0dYm+StqVHXxRao85yxFDXGFDLlkAn719Par35ASV6tvbFJdVYUxzfxW9UBGPT09RmVl1GiOLysrfZF/CrJig2wa6hsOmINzOMtTUWx853iO5ZN9EKQjrMKDIyyHBYAq4lUTv2bGRjX08MPq+Pb31P3DuxQuL7GR6NlASKE2Y/q99io1X3G5gkuWyTf71hqruhLT2rW7Q+NGXZXHSrVkUZMlC4gDoHogo66uXpWZ36sqK+xIoGfycQ3CGdiIncIktL6uPLLiGAiKaxGP5ZEVo4mQH2TFCCEKzRFW4cERlsMCkEdYWb/23PE9tX/xixp/5HGVlFdqNJxVoGWJVtxwo1becL0Ci1vlK2YZlwPOcHxT7d0DGhoYtMRRU1ujlvqq2V9nYW6RSqfU3m5IbXzSkFaZamuqLGkBSGZwcNAqsaqqKpWXlx/kv4KsOAb/FmTFb2WzkfAeKTrCKmw4wnI4NKgZs+olm81oOh5Xxx0/VNc3v66xZzcpXRxWyblrFD3vfBUvX6bWdevUbD4NA5jzDJHMno/KmZic0o5dHUpMzxjlFFNTQ63KSg2pzQGkA+H09vZqcmrahi3U1VZbhUQ4w/DwsCWbmpoaS2Q+818ylbQkBElxPoSIAoOo+O6RFfAIyyM0N0pYWHCE5XBoeIRlGvlEZ5c67rlHW7/+dWXjY6pbukJlZ56l4fpqjZVVqbqpQUuWLVFDQ33eiTmYOmYIqE+7O/tUYgiktalejY11L/JPeYDgGAnECT9pzo2EI6qvr7VEw34IqLa21pITph+bZ/pBVBAQZDVfuINHWPiwXFhD4eHI48EOpylm+zHTsEe2bNHuO+9Ux913K2hUTcONN2rJB96n1re9SSXrz9Z4KKyU/2Al4wGCmJiYVHf/oCYT04YggjZk4VBkBTxTrqqq0pBV2KizSQ0a8uI6EBOAcPBl4fOCsLgeMVkoMQhoPrKaC9I7X5odTl04wnKYB4asjHrJJmc0vnuH9tx1l3YZdeWvKNOFf/Bxnf+xP1DjNdfZ9/NNTacVyBgzzNSk3HIuIF9dJTQwPKqBkQn5jZlYWVFuSMV7v+Ch4ZFWTU21Ia0Sq7bGjUmIOTgzk7RxWxAZhIPZiD8LE3GuCTgfUGbAEVbhwRGWwxzMKqt0RumuTj312c+pf/sOrXnHu3XVP/2Lqi+7VEW8XcYgmUorPjllVU8ylVGK9YeB/UAJZTU8Gldv37AChoBqyqOqqojNG181HyC4sFFvVVXVCpUEc8u8cy+TtpSPUcJ6G4tVzjSfBSgqAFl5Ko1z8p32Dqc+3NNymAOfpg3J7Hvyad39tW+p/sJX6YIPfVAtV15u32Rj33I8D1KGsJjnZ2FFi1/9w2PqGxzRRIKJxn41N9Vbs20/ZvktHxAK5t7IyIja9+3T9p271dnFag5Jc4+0/Z0k+NIJZTPp2bMM5rnWfPAIy1NZDoUFR1gOBwGn9r7ObrX3DqrpggvUeMklKl+5UqFKo6ry1YghpSLDHOGS3FpTU8ZMm06m7E+QAX6lnr5BDRnTDVOxotSYbbHYwb6rWWsMAsExPzg4pI59XTYOq6unX8PGlJw21834ipSBYMx98FFVGPMvaO6ND4vI+LH4mA2HWAg8wnIoTDjCctiPsbG4unsHNDQ+odKmZq244lLF2tps9Pp8gHxiZbnATkbe2PAxZTJZDQ2PGJU0avZNG3OuWA211dYZzrEeoRGmMDQ0or7+QWM2Dtoo+L7ePg0bdUXYQbE5vjxWZlRZiSGs3P0gLPxVrNTAtVBjxGVBtJAeTv5DqSf2e5tDYcIRloNtwDjH24266RsYVjhWrjMvONOab4dzShcFDWERvGmOSSZnbAjCpLkOZNOxr1usnR4sCihWGlVdXbW5T8aSWjw+bk0+puHs3rNXu/d2GrIatOcHinzWx1VtFB2xWjXVlQoorbRhrJKSXAgCG6RFaAOfpNEjLa4PGc5HXCgr9nvgvMPlz+HUg4vDcrANfMvWHdpjSGZRS5PWrF5+sOl2CCSNuTY4PKxHnthgTLcZNTY2alFbs8KGdNhn2EfNDdVa1NxgiQWSGhgcMUrOmHqJAyEKxaEyRSKGhMqiB0ewm5o5Ojamnbv22OMWtbWqoiJm/WH2x9n+FhJCaRFwisrCmQ7ZMnqYH2PlHccxgFFItzxyYcER1mmL3GNnCsyu3e3auGW7zly7SkvbWozZFTmy8jCnW2U2ndCzG7eqt7/f8FNQEaOmGM0jZgonVWnUEEeoxPq3mJ6D4zydTlkfFH6tstKwUWkVilpyKbZk45ElagmTsbev344StrQ056LbWTt+P3ImJhuEBPnmzNLc8sjs53qeOco1ISyIimsRYOpQOHCEdRqChk3jnZiaNmZgtzZv3ara6iqtXb3CTjg+GjMpachh++59hvT22vgoyCFlSCOIsjHXKTIExPW4Z2kkpGi4eDbA05CVIani4gPTaKyqsqBK+mywaE9Pn6YSM2qorzLmobfkTH6VPTitHlFxv3zS4tqQGeYqv0FgjrAKD86Hddoh19hRIT1Guezp6DSKKKDVy5dYB/rBZMWx+VsOEAANf8xOnxmx8wOzeMXnAFKqKC9VbVXMTsfBNMTkXNTSqJbGelVXV1qzzFM/+eD6qL+JyWnzm88oMSYxe2YqafS2g8F1PEXlmYWQUr76cihcOIV1WsEjHr9VL09v3KS+gSGdtWa1Vq1YkkcIHnLHW3PLEBLBoTOGnGj4RJ2PjcY1Gh/XmCGVqckJQ3b+/YrFZ5TVotZm1VWXqzRcYpXRQvxiHoaGUVcDdikazMbly0ifFxz6YqKai3ylBUmxkW42kFN5h36BhcOpCUdYpw08sgJ+3f/wk8aU26vqypiuveJi23gPiKsDhABZ0cjjhjh6BkfV3rFPozZcgZURpOKg34YYTPN6+Vn1gkqLRKI6a+1KNdbXHBMp7Ny5R4PDrHsVVFNDjV2BNOdsB0cmLPxUhE3w6ZFTTrWN2zwd7XrwDqcGHGGdZkBxdA+M6LEnnrZLvixbskgXn7d+v0mGKmEkjZisvoFRsw1qdGxUk2ZfOp21MVU1FeV2raqoMdNi0RL19varo7NXqWxGRfa18Ql7Pd5DuGJJqzUBF0oM3J/RxH1dfYYUp41JWaali9vsq+dfTKhU3dx3j1ghJEgKoOo8k5Df+Y2NtDEaOZ8p6nBqwxHWaQb8TY88uVG797ar0hDKmtUrtKipzph1CXX39WsY9TQ5qaRRIygxCCi3wkJIYdPAI0aplEbCKgmZxm5MwOnpKT35zGYlzPENxE1VltsI9L37ug2d+FRXVW4Iq0FNTU2WOI7k0E8mU9qxa4/i45NGvQVUV1Nlzm2c/dWrqrPXMCQ0Y0gKgmKDjCEgz4nPJxv7vABTQh/4DcWGiXo0AwwOJx+OsE4j0KBHDJnc+cuHLCHU1lSrsaHOEIPPNPysxiYmlUpOq8g0YjuKxkheaakqYqXmey5os6gI0rFcYZd22bZzr7bubFdLU4NWLmuzAZ8Qw5btu20Qqj+bUg1O99ZWu6SxRyDzgfTZc7fuVCojc16FSV+NNTlz8N4pmLbmHf404r9yfqmsJSIUFcqK++STEeYhG+fxOwrLqavCgyOs0whTiYQxtXp070OPy7R5Q0YROxcwk00rZsy7+ppKVRnCYToMPp+DneRUkwNVBR/Wno4uPfXsCyoNh3XOWWdY8oM0IBWWMobMhsynDGlFo6Vatny5ITR8R6EXmYiYbETGd/f0qLOzS8FQVK3NTdZ/xbE5pzlLy+ReM09k/uTkhKnBAUOmTNeZL80HgOqDsLgPx3lTexwKC46wTiOMG7NvV3u3Hnn8CaNOprV06RKdtfYMNdSUm4YOgXiKxCOn/AZ9gLAw9Tr29ej5zdvV1duray67wL7lJhcjdQAsZ7x1xx5rHiLLWDl02eImG9JAOEO+AkJdDQ6NaNuOvRo1xNVkyK+tuV5VhoggQAinp3dAE+NxQzoZc6+IMesq9jvPD0s+Jtn9A/126g6EWllZaUnLmYOFB9fFnEZIJWc0NjKirCEADz5/7vVXHhnlQEOen6z4rX9oTDv27rOrJKxftdyaeiXFL15mGBWzesVSrTHHhEJho4ymtN0Q0nObtttVGfJjohiF7DXXHTfKqdQosIrSsF2pYcfeLm18YZs2btlljyk1RNfW1qoVK5bZ+x6JrFBUXkgDxAdJYS46FCYcYZ1m8NmF9XKYMCbV8PDIrNI4strIZn3GJEsaFbRLY6Njamlq0kpDSGGjrCC+uYAIebfgotZGrVu9zK7YwEoOff1D2r67Q5u27bbKCb/SsLkeKzyEDJkU+QPm+uPq6u5Rb9+A0qmkNVfbWhrV1NRgFRIrOBA3llvlNJ9sDwaENWWIEtIinygs52wvXDjCOo2AEimBXExj9QeKNB6fNOQxYEfQcKIfHkyvyWhfd5/6DYmUGZNqxdJFdsnjwykcS1qlpWo1RLNscasWtzUa5VVq31G4r4dI+27t7uhSr0kH8w+zs2puxqhBrloRi1rfGJHydbVVdk0t5hzmSMrbDg0IC58XhEVaDuf0dzj14Z7caYQioy5KTYMPGIUR8BfZOCec4wNDw9ZcOjR8psFnNDoW1wtbd9p1qha3NaneKKaFgFdxEQDa2FivZUvaLPnEDInht2rv7te2XR3qHxxV2qRhanrGEFLQElVrU52N42o2ZMe8v/2rNBilt1CQLwgZwkJZobAcCheOsE4bZFVCXFNlmaLhiCGHlCGMpEbHJ/XCtj1G0Rx+jt34xLi2btupnt5eLV/SYs2zw1qRecIH1QRxYPpBUlhjgcD8J0NKjfXVam1tse8ezKkpyDSPUO2pVF1vm/9a3BPfFfdFVRKWMXdgwKGw4EYJTysY88gomOdf2KpN23fZUUMCQ4PFAV184QVqa6q1S8EcACThs6barj3tevaFbTr/rDVqbWmyy8Ec2Q+UM8dGRsas36rLmJLTCWPqFQXsUjQoKg9Bf1YBX1bTmYBdSqbamI3EYbH+FY71I49ivhiQFT6ybmPG4vPiDTzl5TGTbtdPFyocYZ02yD1mVMfY2LgeevwZ649iUjOmUkVFqc5Zu8r6mg6oEJRRVjt2tVtfU7QsqjNXLRWrMBzKD5ROpTU5NalhQ1Kjo8OKj08ZYpw2RDUto60UDhXbN+egnEZGxxU3pMl67U11laqtKtdkguk1cSWNGUeMVbE5LlJC+ipsUCihEUFjXubyc3jChCz7BwY0NDhiia+6mtfe87bpIxGtw6kKR1inDXjMs48669cLW7Zr07Yd6h0YMmZYbq7douY6rVy2WK3NjftJq6+vT1t3digxk9a5Z61WpVE++WTFeZhcBH0SPc/qDfHxcSWmCPCcNCKoSCGjkCKGeKKlpXZNLDaU3s49++zxlYZMlixqsaOIXIsAT6bQTBg1NjOD6ZpSccAoL3OdkCE85jNi3nkjfmxzCZR0cR2WYeaV9/V1tYa0yu15DoULR1inDTzCQl1g5k1o8/adhrh2GoKZMA05qlRqRi1NtVq3arlaDGnR6Dc+97ziE9NqaGzUGSsWc6GcP8qYW6imxEzSTtEZHjbb6Jg5dlIzqZSqjOlFcGZllVFO1ZWKRXL+I8xITMx93b3asn0PF9OaVUusYx0FlQ9MOtaIHxlPaNzcI5NOK5tOGnLK2mNx/hP/hUMf09Yf8FviYjSQNLJ2fHdPt/2tsbHBBqu6EcLChiOs0xjM22Oi8SNPPWdUCmQCScyorqZcl114rpKppJ7fvEtNjfVav2aFJTBMRFZj4E03RLt39fVrJB5XJBS2q5ZaJWNIqs6YmIeagtNuztu+c49dr32RIcYVyxdb39KRgMMeM49t3JDsqDEpM9mM/L6sddZDiN5SMoBRTRYYrKgoM+nKBZk6FDYcYZ3GQIVYtdPVrQcff9YQESs0MIm4WBWxmNVjq5e1GROxwSqjfZ0Q1IBGxkatWKuoqFRzc5PKwkV2RVD8UiyJ7Dcb7yzcr2a40KzbqHdw1L4ctbun1yqeC89eo5j5zDnVDw/IzttIu3Xam2tnMqwTf2BJZBTfxCRvz8mNfDY11tkXW7gI98KHI6zTHDRwUwfsUsmssNA/OGxjlvz+3CRiYqbKY6X2dV0lwSKrmALBoELGHIvMruZQbH7LRZ175pbHUPlViykyGW3ctE3tHd32+FXGxGxraTLXJvJ89rCjdIiTfvxe5AEzl7Tj25qY4JVjU8ZkzL28IhLxFus7uus7nFpwhOVgFQv+oj3tXdq7r0s9qKhRo6IMbOyS2aoryu3yMbU1VdZ/BOEcHNbgfac6vZiwWPxvYGBIT23cYl9cQRzXKnM9zMaDySr/mi8GaUVNQVIEhGIe8jcgPV5wKKOUmI1VlTHV19fnpffw13c4teE8kA62IWMuMUJ49trVWrFkkSGmSrvPjgBOJey6U2wzRiUlUznz62B4ROWR1AGywu9FVP2uvfvstViLqrW1yaqegzhvHkBQqCa7AJ9RUKOjY7no/IEBO52H19szooh6IvSBCdGBQJFShiAZ/WQCNiR2MLk6FCqcwnJ4ESApXlLx5LOb1GcIIcFcQ0NQPmPyNTU0aDlLxDTlRt0CZl+ODPLJKh8+6xvjNfQPPLZBpaURrVu93EbLH3z8AfVzwE+VIyviuuJjcY3FWYRv3C4yGApHFKuqV21VmV0BNX/Kzb7eQQ2b9IeLA1q8qHWOf8wRVyHDEZbDi+CZXcRKdfUNGVNxn11UD4XDPMRiY15VV1aqtaVBS4xpx+oJLwoX8GqVL2tXXOBN0LwB5/xz1mlxK3FexEMdTB7cF9MUf9TAwLAGjZoi6JTAUhRdbXW1KsujikVza7UzgZvRQV6V7ykoCG737j32OiyDXFdXa37bn5jZzaFQ4QjLIQ9zq4JPk4lcICdvsOnuM6aYMcdYBgZyiRplE4tG7Mso6qqMOVZbZV8akT9fb2RkVNt27tGmbbt07vrVVvGUleYWz/MIimj3eHxSE/ExTU6MWtLxBUoUKC5RSQmBpnyWKBJmmeZi6+THzJubXhQZI4QdHR02hKHBqEEmTZtfcgc4wip4OMJyyANVIb86HFBNTI4eHpuwb7QZMuYWL6sgop2pN6l0RuWxqJ1yw2vDWCW0vLLajix27OvWHrMFDdG86py11oRkTS2iz1mZAQe89YmZT2WS5vZp64+KRGMKR6OWpCKh3EslXuyHyvejsaJE2pBVp53awzQc/FkvJjZHWIUMR1gFCtTJy+NIPnLjxgHOhObe/kH1G/JiRBHzkU3ZjF0ttL65TZGSgHp6hwwxpXTGqmWqjEWsucd67ETIJ2ZYo8qniFFS0UjIKK/cm5pRUwtzlB9IK+XBOvNbt26zcx0xBYm9cnhloWAJiwrKBo403cI7lgbgNQLMDvwi8/fcpy68ETMc45g9NO6TmX7KEDOsz5iLXb396jEkxvxA/E6UOetuEYTaYMzFvoEBFRlyqq2rUaMhlJryiMKGoAL+3DsHvXwcS34oF1Zm2LZtmxYvXnzQW3G4Ht/5XGidcTg1UbCERfwNLxWgwXjvmDsUaFD07PhWGNmicr/wwgt2ePyCCy4omDlmkNTWrVv1/e9/X88995ze//7367LLLrPD+ScTPAOc9Pb1W3b+35T6RyY0ZsxGRuvGebuNUWusWAoXERMVDhk1VRpVeTSsMqOEYqURuyoDBIxJeLShCIQ2dHd32+fMK8WoG3v37rVlxqBAc3Ozff42TMMcy3sSc4GkDoWEgiWsLVu26Ec/+pGdjf+e97xHa9asmXfqBW9u+e53v6tnn31WN9xwg6699lrbuG6//Xbt2LFDv/Ebv2Er8+EI71TBM888owceeMDmmfxCtqSd/BCX1NLSYssgv6Hzm6cuTgRQMHaE0Zh7zEvk3YGYijbI05DJdDqb22c6nMnppLLplHxGYRF6EJydzsOzqIiVGQWZW5GhxKiwSLH53eznN4hmLtkQn7V7b4ddBbWqqtL62jo78WeN20EDSAsyxMlPh3XeeefZvx0KC4E///M//8Ts94LCrl27LGE99NBDNjjwrLPOmrcCbtiwQXfccYf9xFQ488wzbSOgwXDeihUrrN/kRDXol4LHH3/cKqtzzz1XV199tY3gpgGSNwgYAvNG6FARXV1d6u/Pvd6K/M0ls+MD+rsD1+T6kA6hD+FQ7mWssbKo2UqNkjWKqiJmTcTy2b9jRmVFDTGVFLNscy5EISO/yRem74wmDMmNjE9oIj6hkbFxu42Z/DCiCBFZ4jN5ZcUJiJD136kHKCnUFuTEJ8TlvZsQ0kOFFUIn5XAwCpaw6D03b968X/Zfcskls+t+53peenr2/+QnP7HHYfYtWbLEEhu+H5bfXbRokSUt7xyUAZV7aGjIKha+0wCp2Hb43TQUQKXHzPR+4zx+4zzMTNSEpwTyCYJj+B3VR0OCXLzf+ZvfWX+K37kf53MdTC5+e/TRR7Vv3z6bV9LPb5DSPffco+985zu6/vrrbWPl/lxj+/bttpw4l2vZJVnmUaEvHfOQoKfbzU/kkfuTthyJhe2LT1l2pr62xkbVV1dVqKa6wr5rsLyiUsUmbygqzkuZ8k0aJcZIJUGsiamEktNGrZnvlBPPiTWzeLkFSopzePaQGfemnD0fJt9z8VlExDuTsNBQ0ISF7Ac06MbGRlsJaZTePkynH/7wh7ayYkLRwFEnKADMQciutrbWKi6O8Rr5E088oaeeesqSARUcsuNeTz75pL32zp07rS+JZUzYUDGbNm2yv2N6QnY0TtLCtQGN6vnnn9djjz1mPyERenl+p9FxjY0bN+rhhx+214L8SC8jXaSNfQ8++KB27969X0Gwn7SQVo6nDLiWpzogVtICQXMt8n38R87mISvA7kP8dBDMMRAHREpZR0xaY4bQqqvK7bzF+rpqtTTW2cX9eNVXnSG5OrMfpzrPhTLmPDqrfF8mefWeHZ0SpjMmM7FZkBq/5XcmDoWBgiYsNirehRdeaM2lZcuWWTMJQBB33nmnrbiQEhWZhgFhga997WvWpLzyyittpUf5fOYzn7Eb1+QclBnnoGYYffqLv/gLSzbcF1XlmWSf+MQndP/999vGgQMcYvnFL35h77Nq1SpLIN/85jf14x//2JII1+faZ599tr03hPPFL35Rt956qzVRSetdd91l0w8J0ci4JmQHCaPGICyIC8KCJCFbyI9GCIlyD+5FWiFGGjRlQUMvRJAvyoU85jYc9EGTz9zCgGzkzyMhvnskCGHzSXl5n/zuUHgoaMLas2ePrXyMlH3uc5+z5EAvSsXGtPrbv/1b69ehwaNAPMKist53331WYd100022MTPyxt/nn3++3vzmN2vt2rU644wztHLlSksqRE9/61vf0uWXX26d91wXtfL1r3/d3u+qq66yDv3Vq1dbNUfa8JvQu9Ng/vqv/9qao5xLGrg2I1W9vb323hDi7/zO71hzj2uQD1QSJu2rX/1q+zdmKMrxDW94gy6++GJL0BAk5EV5fOQjH9E555xjlSakhmrznPLkAfIjLac25o4B5QgIHjqw5cJTeJkEm9+GRfB3/vHeMQdCGvI3h8JEQXczNF56Wxr+0qVLrQnHBlGgPGioNFgaNUooH1RaCIxP1NgjjzxiiefGG2/U+vXr9zvo8XN5ygVyhIwYYYIswK9+9St7DKQJYfKd3yElfCwoMhoM6gvSxPGLyuEekEd7e7vdx3nXXXedVVjk5dJLL7UKDOJD/XlKC5Lk3pAa+fbMHNLI/fHTQVgoRK5JPjiXv3PTVAoVEJm3AUjH20D+d4dXKgqesPDjYAKhOlBV+KBQLfiTUCY0YIgI8joUMJ04BwKhgc8HCAvSgQz49JzkxP5AiHNjobgOJIIJB1G87W1vs0rol7/8pTX38IFBoqSZ661bt86aK17vT564F/4WlBXHkgc+uTf5BpQB+72N/dwXfw7qkE8IziO1Ux8e8cwloEPtz8eh9ju8UlDQhOU1YJQPigTSwTkNGeC8vuaaa6y6mA8eMdD4uYbn7ziUb8NTWBznHQNZQHIQ4lyQNoCKwxy75ZZb9I53vMOqv3//93/X5z//+f1EBMlw3HzgXtwHkAa2w6XRyxfHkB+I9HD5Khx4ROVI6XRGQddiiAICobFj8uC/wZeDM52Gunz5cqtU5gNqwyMf/EwQB4THqNpCwD1RRpARI4gQUT5QVlwbkxSQVvxef/mXf6kPf/jD1kmP4x0TD9MRZZgP1BimIH41TEgvrWweGc4F9/AIy8HhlYiCJSwaLY0aogEQyEUXXWTVCn4hYpK8kTHAfs+MApBEfpzOa1/7WuvL+tKXvmQVGsSHWcl39nMu5+QrJ8y1t771rdb/9b3vfc9G33Pve++9147wcQwjmJicmIKEUuCv4nqkHRLC74TZxrk48DkGv9XPf/5zO3r4xje+0ZIe6o5zSHM+uAZ5ID6L6UYQHKaqg8MrEQU7Soj6QNmgjnBOA9QOw/s07ptvvtkqEwiL0TKIAjXD6B/7iJTH1MLPhQrjWMgIpz2kg2mJSuIcwhogHYiE4yEQSAJFw29cG2UGWaCaIA/Oe9WrXmWd65Aqo5Keucrx+JUYWcRPhdrj3pAk6YK8uDeqkUEAnOfci5FKyI7BAO4LIZIX9uFLQyGSJ9QlZOrg8EpDwRIWDROiwUfl+alQSphpONq9eCaIhWO9YX1G1mjkbPwNcUBwEBbkwXeIAYLib8xK4q04HiIgHAGSBOxDHXn3hzAIReB4FB7Ego8LdQZp4mBHIbW1tVlFR3wU9+N4SBDi4RooKfKAX45QCIgJcB3uB4GRd+4P2ZFnyI1088nIoSMsh1ci3HpYDg4OBYNCHzpycHA4jfCKUlgEZuI/wgeFTwfzDBMM0wnTC5MR3w8mGSYY5hVO62MBDnjuh8+Le/HdC1MAmGqebwwTDVOU76TjaEHoBc54b1I0Zi5mISYreToRwBzFVMW3hq+NfHvpYT/mN6YyefRM72PNr4PDoVDwhEWDoeEwl/Dpp5+2k4NxgLMPUvEaOATCRqPySAunOFNzILSFggZLCAIR7DjQcf7jRIes8EHljyLSWPEv0XAhR4JD8UnhF1uojwn/G6N+//3f/22XkeH6kNSb3vQmG12Pz+rlBmVJnr1RU3xxEDR+PsiUNFGG+OsoXwYcyO9rXvMaO9XpRKTR4fRAQRMW6omRu7vvvttGj3urFiwEkBZzBj/96U9bcoHUDgVIg8aJyoEYWeaFe82NnToSmNbDHECc6TRkVNKRFB73hhQ/8IEP2HyidCCE//N//o+NnucaLydQUuSZydze/EtIaiH43d/9Xf3ar/2aHXxwcDgeKFgfFg2ZUTFWE/2jP/oj26AgK0wTzxTDZGIEjh6eHp+GjjpBDaC8UGBHAvfxlpb553/+ZzuhmknQkBUkx/W80Afvft49SQMKizQBwhq+8IUv2InQX/3qV23jnxtXNR84H3XojRYC9h2NMjxaQIwoRuLB/uM//sOuJsH8TMjKyzNlSj7JO3lFXeWbqJyPuejgcLxQsAoLM4kpLjQm1I8H/EVElLOqgreqJA2HsALMRZYZxrSCsIjV+t///d/DKizMIZaF+eM//mN7Hc6DxAAmH4GhmJaEUWDmeT4bzER8W6wQijJBqXjKhPvRuFnaBqVEHNmhyId7ca3f/M3ftCqSa0AWf/Inf6K3vOUtNo8vByBSovH/6Z/+ya4PRr49oBIJ0mWuIqEelAudBWoXs5xAWkCa3/e+91k16eBwPFCwhIWi+uxnP2uXX/EAAb3uda+zKyXQ++NTgYjwsdDT44Sn8dOwCM6ksf3Wb/3WIQmLY4k+h9Q43gMOe8//BVFxL1SdF3UOIBYaPcRKbBWL87GMDL4vpvFAUNyfwFDWpCcgdT6cDMLiHqjX3//937fmIPdH4aEcP/rRj9rVKHCqk2f2U74QGuULweOUZ40unO8sl0PwrIPD8UDBBY5iqkAEmChMgcHZDVGgUt773vfaJVpYngVTDPOEDeJimg4KiEaECsPpjv8Hc2Y+dQNRML3m29/+tlUYHljWBVJ8+9vfriuuuMKuyoA5ROP17sdGoKrn4IdUuCcNnusyKABpoUz4TlpJy3yOePKL6crKqZhknM/1cbjjE4O8jjcoUwiHMvZ8gqQPfxSTuCkD8kWZUrbk3RtcgMgoE/LMOeSZsnBwOB4oOB8WvTmjVCgWQhgADRilguqhgRwJNC6UEQ1vPrJCYaDCmERNwwWoMBojZPWud73LkhVksRA/EudCWK9//ev3n0sjRo1hNrKmFg51VCAEdbKBSsK0g1BJD2llShNpJx+HGyggT5AYZcusAIjNweF4oSAJizirfL8VDYiRN0yzlwoaKNfG1PRGHWmEqAiG6d/5znce1ud0ONCQ8VuhVAht8JzxOPR5sw9+NhTUyQaDDBC157fCsQ75MI3JS/PLDZ6Dt51uONl5P5XLveAIiwaNyYIK8oCCgayOR5AijRTVw2geTnqAnwZ19aEPfciamy8FqEHisXgfIiToAdOQdw4uZOTy5QYmN/FmdA7AM6VPJDy/mJeGVxqox/PlDaKgbpP3k5V/lH5++zqVUHBOdxoTvqu/+Zu/sWYLQAHgayLeJ58EjgWYm5hnjAqirqhAmDc459/97ndbv9R8DvqjAaREWARruLMkDM5qCBf19Z//+Z/WF+SBin2ine687OJP//RPbfmSVtQV5iAjmi8XiDWjTLwlcryJ4hA84SJMBsfZj3+MZ3A4MGBAB8D5PCuuwfmUG/vokBj8gJRRk6hGXASMLLNaBvs4jw0ljFl7NJ0hz4jBFgZqeH7UIdLMPUgL181XMBAEAbleMDLpp05wDHWBtPMMGG2lnhzKJOd4zHjCZ/gkHZjz+BJpI3TsDACxogjHUL+5jxcfSDlT/pQR+eVvypvzThUUnNOdCkBlwO/j+bA8BcSDZeTtpQBz8wc/+IE1iahImHFUFNSV99BfKrgGlY700zghJK9XxeykYXn3oRKeaKc7FZnGQ6Cs18vj92OBxPw1xl4qyBuDD4RBYBJT7qhMTHHCQXgxB2kg33ynMUFElB2+ykN1HAyWUF68r5EBE0gI4uF+hGqgnqk/BAAT5sIz5zkzusxILufyG4RNg8ZvdzTlTPnxgl9i7fhkpJU6S7gNaffIkGuTL94pib+UNdM4lrxD3qQblc8nRIbflrKnjs/XMfOcIHrCfejU6XjIG6THyDblSv4oa9JFHede1CdIjXaE7xYip6xIK22AZ3+8nvlLRUEuL0OPSEWkwdOYKVwaPQ+FinysKgsyoFdkET8eGn9zTZQPC+kdL/+N19C4Pv4r717s516sv04lAieDsKiklCfLTHNvelw+qcB0CjTul0rcECGN66c//akN/sVnSGMlXg2Fg0LgnnzyN/tRBTRA9mOmonzmSwcNEgKAdGjs5AcyovFDItyP7ygtCJAyZdSY0BJIg43GzTH8jrKDtBbSaHle3JPXyPHMIH7ICqXCW5WoQzxnBjYgSxZ+JHSGvEMW7Ke8PZMQUiMNpIXj+ZvyR2lBJPmg06MuEdzMsZAe1yCshHtihZB32g7HQaw8Z8gKBcfz5fqUN22IuoX7hfp4PDrq44GC82FRcBQgI20ELgIqJA2fB0IPSoFTCY8WNAQeJD0ZDxpQ0TA1j/cDozdjtdF884YK55kDJxM0BggRvxWVGKB0mMaEaoE8KPNjBc+GRojp/X//7/+1jYh8UyaoAciBRsTmTVL3yAKlwTse/+d//scSjvec8sF1vOflKRLIHnXxs5/9zDZ4zB2ujTL3TD7IhMEbGi/w6hUqeKHPhPRQPh7ZAwZpICvPHISEIUTCRnABQFQ8ewiCMiffdAx8UtfziQli90J6SB8E6YFrk2/yz3cPpANShMRJm6e4cCdwfeog53EOzxsVTVopD280+1RBwRGWB8IYkNj5IJj03/7t32wviqlxtKTF6CA9XD6ozDSg4w0aEiqByuWB9KIgTjZh0aDxtzB/kYbjgY7gYx/7mFUPNOJjBfnD9GNKFT28B1QOpjfvmLztttvsBjExJzG/0TKaitkHAUFahwNlyj2YTsXLaFEOKA58dFybmRLcEz8lDZTwDYgiHzRyfGwLAcdh5qGIICFAGTLp3QMzLSjD22+/fXZPrpMg7IX6S74hJj7/4R/+wb7LMh+Y0JwPCXv3OBRQsRAVbYJOgXx+8IMftGX85S9/Wf/4j/9oA6AhbsgSEoTIPLWFKDhelsXxQMGuOEoP4Dkg6a0AlRMJixrA/wDZ0Lt65tWRAFmhruj5PUCKmAr4r4436B2pfJAUZgDkRQXBV+Td72SYhPSoVFIaLsQPQXgNlgaCIoCwSAtkPrdHPxJQwbzlGnOJawAazR/+4R/axkkDJ/88XxQA5EmMHWlAmVEeKBlMHsw1iC5fAeOfwTfD8Vwfk4zzqA+8Do4BFZ4r+eNcwjXwcaE0UBTkDdcAdQlwHqPDqO0jgfqDiuMToM6ZgcEULsoI0oeUIFzKlrJDaTOrgLcqMYKMW4N6S4cGeVAnIBSIjryTJzo8OhbUmzcgwH7qMAqUtFN3ICAc7ZQBeacTIpaQ/HAfrwzII2TOPalTlD8E5hTWcQIPmgZLxDkPgUKmYFFJNGzUFr0nPREPeiGqhcqQH98FIEQqxvEGaaWiUVE89UCFQw3MZ+acaEAAVFhGIlkVIn/FBQgW0xCF8vd///fW/+I17iOBHh9nMOd4ZAX5slwOZj4NFOKgzNl4ruxj/Xte+EGDBh5xQlqHUz80WhorgDSoLzRyiJBrQwzepHXyTGcAQeQrInw+jKwd6bnwO362/JkRDNigaqiv1C86KJzdECiAEBh9ZrAF4oIwyDfH80n9IM+QDa+tg8QBJMSoMeV5uHRBWNRpiJ0yxkcKQVHG1Duuh4kIWXFP728+OeZUIitQsIQFsLWpfEh6KjONikrIaAk9GQ7dr3zlK1b6suoAc9wOF9fCg6dS5QOlwYN8OcC1qSheD0njQmnxeaqAMmUZHnp/Grzn06KhoJSYZ8kgBeVLR0EDORxQLqgPGhyNgWeIeQ9p8ezmA8fRsCEtCIBzPHBP/I5HAqTB+ajXIznPUR/5hIXiQrV7JHMooG44DnOQNHvmJyrGU3qMhGJiAvJBp4viQanmq8R8QFyoQO8NSgB1hj9vIf41zofwmLAOAR4OlI3nzzsVUdCEBajIPPS/+7u/s7FSNCp6CK9nwDRACTByAoF5I4sLBdc5UgU/nvDSfSqB8mWe5h/8wR9YHw/mgmdm03vjH/nUpz5lh+fx3+BUno90abSY6oyiARoF5ACJeA3xcKBR4xDP9ynSYBdCWKg3OjePcA8HlCVqBwXiPQ86O9Tc4UC+OA71R94wITFnqY90hqQTUxCyBtwHvxXm3pHSBYkwkRxl6JEJ94Ec8wlrbrlzLPdnji1KstBR8IQFIBTkK42KtaZY/YAKkN/46dn/6q/+Sv/6r/9qG9VCI4hpZAs99qWC9NIbnkiCXCio9LzpB//I7/3e79kGnQ/8Uf/yL/9iA1rzR1k9eAqD4XZMOQDpXX311ZaAFtKjo0AgAQjUA6rHM/kOB8y8hZAioBPEp4X55BEzHR2K5nBgRNEjNc6DJDC/UOgQO4SW7ySHQMi/d4/DgbyTfpQWzwJQpgw6oMoBZMW+fGBioqw4dyH3OdXxiiAsQGOnYlAxiQrHTCE6mx4J8CDxsyDJGZ7HsT63UfFA880NwDFHMnOOFVReKrKn+MgDRHsqEpZXvqgCyvUTn/iEjdTnbxoT5YuyotH+2Z/9mS3f/BFXGhPlT+wPxwGuSZmjkiAy1NfhNogQguI8D1yL7VCdCmkjjZhCdAYLAdfHp4UJ6ZnrkBWjjORhLinwN3kl7gsTFfAcCZHwBk9QQYzS5acTooEIOY+BgsNthElQBpzvEQ9lSv3xSJB0z6071GdU7EI6hEJAwY4SHgo0Knwh9Nre6Ac9MD2R94AZ9YIkUGX5w/ZUIHpIHPYeMEEIOqQCH0+QFioxBIo6odFRETFp8dN4vgaOI60ncpTwUKBBQACYSqgDypdyhtTxGZIH0kr5Yv5AFBxHemlomEsM10NQwHseOKpptBDCfI3V22i0OOshD4gP4BxmxA+fk9dYOdYbJaShkkZG6njW+WR3OHAcG45t/EXUDcra8wNRDh7o0BjYIUwB9Uj54Lt6//vfbwmLYyFa0s7mdVAQDf4s9uGMX8gGaeM/5BqQKT5Gb/036gbPIX+UkHpLXcHsXog5fKrjFaOw8kEFgYyoXKgBNr57lYwHTuAdPq38FRLogals+ZWRB88xxxvck4ZARabRAhocFc/r1U9lUL40Flae+PVf/3Ub+gFBARo30eKQLKNrNByPePMVBg0dRUYYAMTN8YfbIARGJ3Fse6DRH0pdAUiH8qQjWyhZAeoCo5OYvjjPAWSAypmruMkXAxCeUx5Cw2cGWXFfQBopF8rBA/WKwQrq4UI2yoDOzYtd41pc16u/84G6TF6OJu+nMl6RhJUPKh3DxqyUif/Dk8ZIcXqs/AqI78IbzvV6a5QCjs38inY8QCWDODElvB6Xe6IGSEchgPSiOhihJRiRnjzfpKaRoXbyTcB80Jgw2fGvkO9j2XheR2qQx9JYSRshD5iFnrMaQkIFooy9+gBhQCCYwDxPzoO48X/ldzweuXiAyLg+I4jU0WPZPL9Ufgc7FzwjjzRfCSj413wtBFQWTAh6QYjLMyeoLKygScCiZ1rR4+OfoaHRI9IgiF8h2O94+gFQVSgGYsXoNQENg2kqjMR5pAWx0SBO9JruRwvSiblHBLUXeAtRoL6IjqesMf0oa0w7QD6IOEeReB3E0QJFjNmOM9oD69B/4xvfsIMrmEGMDrKP4NOjAaYugzWMjlIfyA8Ey1xFfKWQBQqcuCvyiWKChAhTYHAHZeblC1VIeA3lg4sCsoHUIHsI/Vg6ROoj5EhaKEvSi2OfkUc6ZJ4JMVwMkhCa4inFQsYrXmEBKhoPlOA5gu88/xASH59AfoWhwlHBvV4JssB3RGOb66Q/VnAvemnMAW9I3hvNQTXQEAoNNExMREwhD+STRkzj4XcaTD7pU8aQDebk9ddff0wbqo7Gfzgci8ICpBUi9EI5yA91BWXudXr4yfjbU8leVD4dTj4Jc618AkNtQbYs6wJxoeSOdqOsKT9P1ZK+w5mHrwScFoQFqDCQAmQEKQHUCqQFEXkPmmNwUHqExTH0jjgyIa/jUSHolYl2xlHLd0AsDj1zvjlaaKBR02BRip6ZQgNHUUAaNOJ884WyxCSGoFGyx7LxLA9H8NyX8jwW0vLSjEPfm5aD+4B5kJh/fMfJjumLGgfkn0GTuWYaSo+0eungudNZcQ2eOfXuaDeuB1l595ovj+zj92PJ/6mI04awAA+NXu1wNj0VgF6LjWMBlZOAP0ayPIfnsYIKCgESZMkIkVdhicSmxywEh/uhQKOk/MiP10AgJdQEf/Mb6tZTBOSdETJUmKdwXw4cK2F5YMQvn7BwG6AaqRc8S0Yk6fQgUMwzwgjmAj8bStAjFxQ215gvZu2lYG5nR77nkmchoyAJiwaA8jkatUOD4DxIgl4f8CCR6RCY96AhDIbrsflRPQC5z1A8E3apYN6o3tGCNFNJWTyOpXCotIAKTsxO/qDAyQRlRVqPFpQTaorRT4+AIDEUEOVLWdMR5Jcro7WY3F5ZnIogiJSQCNQW5UJdYCAG3yN+MvaRX4iNUBOvo8sHhMXzRRV5z5iId0JoUFvHotxfTpI/VVFwhMWD5QGjdDwZvhBwHufkDz/T03vO0/wemIrJJNl8hzYkxwtVvcnUxwLMT5zqvE+RntqrcMReEUV+qgAiwUeTP6q1EKCUiGPD1PHOJSrb8zHRUDGvvNg3lAVhDzwTL+DyVATmF36s/Ah7Vj/lBbmoKw/Eg2ESzgfqGP5J/JRepDqdF64GHPtH2wlSdyjj0420Co6wqOSonI9//OP6y7/8S+tPyO/RDwV6RSZC0yN6vTnmCfOz5gbUoQZw0n/4wx8+aC0iSI+YIRZdu+222xbUM5IuKiPD4YzssTwvpoQHJqUy+deLYToaUGEhPoh7IRtEtBDlRBl98pOftOvmo4A8B/PhQFkwOsgaVfnAr4Vi9YB/J79RUz6UJUTuTdk5EkgPKpVRN1aOOBGArFDBHhgwId2ExXj1hWM89TgfUFmM7HoETt4pN9akwt1APT4S6Dg5FqLD2c/zP51QcJHuEBY9EoGG3jKwVBrUixeRTMPkwbKPCs2QNCEEDLsT8U5DpyHhMyJGC5k+1/bnb3pC1BYE5ykArsvIECYBvSx/c182jsMkwpHMNAwisiFUFo/j3qQD9QFpYHoywsW8R0aK8PvMByo1+SFo0It0Zx9qEZOEhguJ0oCOtFFe3JsGczjTk7zRGDmePHqqyStbngEb+YV8GUFFeTLcT575DTAiywoDqBOvfD0fHSQOMXrfKVOUL0oXNeL5XXhW3BP1xvEQKMsK4+jmHBTb3FkIlHN+pDskQlqONJp4OOA2oD7R8UASpJlnTtpILyN9hBNAznPrkgfyhFqDpMgP+eV5kk7qC3WHzpN7UQ48Z+oXx+ErI3yCukRdpgOG+FGrnk+Wa1H35ka6U78IgD2c77ZQUHBxWDxAop1Zh4kGBWgEhCzw8DynLhWVikXDhuBoVF4IAb0hQ+mQFZXscMDPAOl89atftcTI9TyVQkWlMiD1qYj8TWWlkVGZqYhULIiFxk0FAhxLeonAZ/Lr4ab9UAm5Z34clgcaANc8ksrzgC+G6SIf/OAH5/WzeKAHZ5E7TF/KkDJleJ9Kz3fOpWGRTxoZU24gEm/ZFH7DV8VcQyYAz1WPlAtm4Gc+8xnbCGn0gNFFQgKIHeI7nQX58wiN6/MsIS728ZYbJrRTlvnIj8OibqDqqC+Y3scKyp0BAlRnfhgDoMMjdo/pP4dTWB4oVwZd6HQhIg/kG5ORmDXqCHWYeoOipO7S+VIHKQtGu4lho3xRboCOYm4cFqEmWCOkjfIsdBTka76o7Cwdy2hNfgM+EmjgjORQwXkhKn6jhQTT0VvRYxP0B/mg0iAkT0ksFKgoKjeq4H3ve58lK6+yHQoeYbFIIYQFSRwrIB3u+9u//duHVHSAhskEZso3v2EeCTQwypMGx3sXCdM4lKqhEaKECMjFFES90Bl5oNOhbCAsyp+y9ggfpYBCpvxYqdNb1M8DdQOVgTKEsJhrxz7I4KWAzofBEoJCeSaAPJNfOjRI+kjP0wOkhfnMhtqCgL26TKdHp4DK8sx5D+SdMoZ8P/KRj1grgY4SUEaocAiLToS6w0AAhMW+VwJhFZwPC9KhEeAQP1yjmw88MEwwetujifzlPvi6WKyO5WtYHdJznB4NUA/GBLevYWJJ4IVWbkBlfilkBTifyu81/EPBG4ygMR4NKCcaEGXEUj+HM8EoP3x3NHTWMcuPVAd0CJ7ZhMrLTzNkxbmoxfki/Tnea/ycB+kuVIUeDqQZ0ss3rdjHc0XdH83zpNOCSP7rv/7Lugby67LXSUHi+WQFuB/mLfWYtMz1vwLy7+WX/OeTfaGj4BQWBc9DxFRDIuNvYaNnwQ+AXKanhth4mPR+mDLEObF5ZqPXKx0NuDe9PfdAcmNycF8+kfaYLDS0fHB//Di8NYXGRWOj91yoP8FrcN57GF9KxYOIIIYjzdyn/ChfypMy9vJIOUMimCmQHw2UqSqUKT05G0SHicu9DuXL8UBeaEyoLc8niIJFzXIfnjPpxDzCN8RzxKwlPICyZD9p4FnngyWYSTPPgjRwHA5zb6mhYwV55vnnhyLwLPElYXodrkznA9ejLMkrLgs2fICYdfii6DBwX2Bm8tzIN5/8jaXAvfPzTnpIF0qcZ8j1UfQ8F57R0XZApyIKei4hD8VzcrPRK7GPRkBF5WHywHm4kBSfVKr8EIZjgUea9IA0NgiMDZMBc4ogU9IB8N+gpnhrMhXtWByfVMT5etujBeUBUVPRF0Im9NSUr5dHypgGBoHSGChLlAGNApLy/FtHuvZ8oLzII058yNIjRdKMWcc9UBdeQ/Wc9/PBqweeyqDMSefhzlkouCbl4akWzwxGvb+UekWavXpEOZN+ypE0k19Il436zL757kV6KDPKkU/+pvzoPHjuL7Xenwo4LSY/nwhQkalovMGH4XYc9ZgzVGRUAb4jzBiUQn6vWIggrzQGGsCxkJODw7HiFbeA38kCjRdywlTBDMR8QymgUOg1Gd3CJEFx0eMVcm/nEdUrocd2KCw4wjrOQD0R5oCvCt8Evh/PpMM34QUYHq2/w8HBwRHWywb8OSgpfDEMrwOGrvHR4BvCEYr/w6kUB4eFwxHWywQUFE5iHLLEbaG2cFZ7o4yQFqNLh3KgOjg4vBiOsF5GQFaQFqSEaYjCQnFhHhICweiVF+bgnNcODkeGI6yXGZiFxMBgCqKkGJ5neJrvqC6io3HEvxJiZBwcXm64sIYTAEIAUFbeSy9xzLOPWBvmzBFb9EqYNuHg8HLDEdYJAiOFc6dI8B1lBYE5k9DB4chwhOXg4FAwcN26g4NDwcARloODQ8HAEZaDg0PBwBGWg4NDwcARloODQ8HAEZaDg0PBwBGWg4NDwcARloODQ8HAEZaDg0PBwBGWg4NDwcARloODQ8HAEZaDg0PBwBGWg4NDwcARloODQ8HAEZaDg0PBwBGWg4NDwcARloODQ8HAEZaDg0OBQPr/AX/Zss+V3G9gAAAAAElFTkSuQmCC;" vertex="1" parent="1">
          <mxGeometry x="380" y="615" width="124.42" height="90" as="geometry" />
        </mxCell>
        <mxCell id="TX5If2MqFz6uqhYADykB-28" value="" style="shape=image;verticalLabelPosition=bottom;labelBackgroundColor=default;verticalAlign=top;aspect=fixed;imageAspect=0;image=data:image/png,iVBORw0KGgoAAAANSUhEUgAAAQoAAACRCAYAAAA7Hfb9AAAAAXNSR0IArs4c6QAAAARnQU1BAACxjwv8YQUAAAAJcEhZcwAAEnQAABJ0Ad5mH3gAAABhaVRYdFNuaXBNZXRhZGF0YQAAAAAAeyJjbGlwUG9pbnRzIjpbeyJ4IjowLCJ5IjowfSx7IngiOjI2NiwieSI6MH0seyJ4IjoyNjYsInkiOjE0NX0seyJ4IjowLCJ5IjoxNDV9XX1Ea9+0AACrmElEQVR4Xuy9BZhl13klui5z1S1mru5qZlZLLUYzKI4hTpzYngl5kngm+TKZSQbzXl7m5Q0EZjyZGGKULNlibHEzc3d1FzPfusxvrX3rSqW2oG3ZiRTXbm2dW/ees8+G/1//+jda8gxYCkthKSwFhvlIdOHT64N14boUlsJSWApvGpaA4h85iNBdS1wKS+EfMywBxVJYCkvhbcMSULwLwhsxiKvjUlgK/5hhCSj+kcMSCCyF90JYAoqlsBSWwtuGJaBYCkthKbxtWJpH8TMKP+tqtVgsC5+WwlL46YWleRRLYSkshZ84LAHFUlgKS+FtwxJQvEfDkse4FP4hwxJQvEeCgKEYi2EJLJbCP1RYAor3YLgaLJYAYyn8rMMSUPyYoaiYbxd/1uHqd/xDvXcp/HyGJaB4j4Q3AoIlYFgK/1BhCSjeY2EJHJbCP0b4OZhwpeItjgqLi6yJS8W4gJuLf74qvK62Xp3zpC9zqs3Cn8WQXzwpqvh58T2LP/Pd+TfH7Vw+o/8vvCO/MOFK99sWroVgXfzKpbAUfszwczrhqqBURsGQZUwzJhdigjG1EBeUUPcWdbf4aDHy5zyTyC7EHP9WNLdTeS2WHKEgy5gx0aRpUdR3xd8WfeZviql0lCCQ5GemxfSiEeaR6QsPcvyYUjb5ORGL830p2Kx81poyzyl9ywI4FQFs4bIUlsJPNfwTBwoFqY6igKIYFxTZRP1dBIkFc1zUtuKjxb8ZzB261fzFqz7zf3mmlWdahavSLaRpYXzjoO9zsDussFoLnxXcTkfhHfzTxg8OEgb97XK5YOcXWYJFKh3jc7pJz/GtvKT5yjd701JYCu80/Jys9Sgq4gIgvBqFkwtRtF9fLWDFq8FY7ALA5PN2WnXba+6H7jVsogA4Rev+Wpo23mItJPEGIS8WwmdzBJZclvfmHWQMVmTJJHJ8JT/CRqDI8HM2l4HVxvyToeQZHQ4Hs0t+wnzncoQjXu12ve1Hi7AUlsK1hjdzPf7pA8Xi0l2tQYt+kxthfub/jPtPJS64KgIBXdO83UnF9NJFkJIqCBz0oBRej+rBIkjoysAbXwWK4tW8aOFKNpHOxgww2Cx2OOwuJBNZZNI5sgkHnE66HXQ/0uk0gcIKh9MGO7+zEkCyzHSW/pCFr7IyA4V/BCaT8FJYCj9+WFoUpiBFXRwVFn1+/U/FTwUWUvgrx5hiFHAkqei80robVsFvikpasOuvhUJ6DIWbXg2F78kKctYCSxGiMD2bPQuvzwanx/wMN6+BEoIG/ZAMX1nst7ASIawWsRY9LEArujxLYSn8dMM/bUZRLNnblZDKKEZR/Cw9V6djsQ9DfQ+Fq8LrRxkKoQAPFvNbIQEDHa8b9bg6MDXzs/odlH6ObofmSuTMyIV+ikUSmJ2Z5092+H1BuiFuMgorXC7+yFclCRpWO++3KW8puigZOG1evt10YCyFpfBjh59P10MluwaQUCjWgtFt4ysUoliElFgKrKvV/KbP5saFKOCQXednuhy6w0JrL+gopKNQTFNBzyttPVfoayiOhsjFyWQS6O+7ghPHTuHs6fN0RXSHG3W1LejqWoWVq9agviFovBt6K6afI0+GI75jh4v3LgHFUvjJwlIfxZsF6bK5SYqr64LyEzFUM69G6bZ+saVhsTJSyS2k/UWGsfg+XsgOdDM/mb6OAjAUrsXPepuDbMKxACoKKdjoevT3X8KTTz6M5/fuRc+VboITwYTuiddbgtbWTmzbdh1uvvU2tLS2weV2I5PLGFbisGvEZKmPYin85OHnt4/iap1Z6AcozHFQX0NxLoWUX3MgZNkXHpM+y8jzVs13UkwnbIz8OmVDLk3LnaViUvdfjXzGjHYyFBRWcVFCr8aCu5HN5ozbo7kZqZRciDwuXjqPZ595HCdO7qOrkUDnsnK0tfuRSg/i0OFHcd/3/waPPfYt9PScQSQcQiaVY2RT5ouuz1JYCj/dYPsThoXP/wSDrHcRFAQQCxps/Avxdv1RVCz9Vox6jk5HTh2NjExCTEGjDMnEDLKZCPLSbFIIK7m/seFKnkmpf0HDmoVREAWNiMh1KDgYBfAoMhEno93cm83kkU4l4XJa8NKLT2Pvs48hELDg137t4/jSlz6LrpW1aGjysjTz6L7cjUOHXkIiEUFZsBxVlfXwebxmQph5b+HFS2Ep/NghmZLx/NHwnnU9itl+670jqTlkC7l8iuopik/FpNXNpvNmvkKRT+VJ3S02aVkW6WQM0zMTGBwcxPDwCCbGJzA2OonRkQlMTY2hJOCE00U3wFOKYGm1UdJKxYo6VNfUooaxoipo0s5lNaSaNUOZ6mh0OPh+uisChWyWjofTgbTwhkVQVvIEolRyFn/1l3+KBx/8KppbfPilX7oH/kAOpUE73Qzg8uVBPP74XuzdGzETsjraNuHej/0GPv2pzxlWYtJSB6fKtxBUVzmmravqy6bJGUthKbxB+CffR/HGxZCixqkcZBR5JxWRYJF3MVKbeLtYQo5Xqy2PcHgSIyM9tNance7icSrkeQLFAOZCYhD0/20OuN1KI41cJk2ltPOdLtitPrKAEvi85SgrryBoVKOisgKt7S1wufiMx41ASQB2goTXU2L6GZwOL9MqQUU13QlhmQEVwlo6BYc9gT//f/4ITzzxLaxeU4ZPf+YWjE+cQWdXJcorHcxnGucv9OLAvl48+2QYs9PA7Td/El/6rT/HylV1yDGtbJ5uFAHBblce6cwsxCKo6rOA5K1Bdin8PIafK6B49bMlxZjk30lqopuF9TA65A3wWgAKTWaanRvGsRMv4NTpl3Huwn6MjJ2jZU5RwQGvD3QB3CgrC6C8rIT0PoU0FToeyyMSzmA+lEY4lEE0QjZArZerIt9DzIKaSGV1wecLkE34CBTlKC2pQmlpDQGlCa1tXWhuX04AqCXD4fOJKPMVxh//8W/h5IlnsGNnAz74kU04cuxhbN3ZiupaB9mAD9FYFqPDwDe/th8HX8mhorQVH/3wl/Erv/LPYXGQwTgKjOJq5lAEhkwmY0BkCSiWwtXh5wYoFl81OmGlwiczEYKDFy4bXQL+nCVuiLaniCPDQ9M4cPBJPPLY1zAwdBTp3DQtPbBhcxk2b21HQ1OAQGEnI8hS8XLwkCXYrBayDCfirNO5mRTdkyjdk3mMjk5hbGwa09NpzMwCMzNAPG6yU+i7YLRTgR32IPy+atTUdeCWOz6E1eu2oaG2CnYym9HhC/i3f/TPqcyjuPX2dmzbWYXnXnoGt91ZhoZWFwHHTzCiC5NrwN4nB/H04324cCaDmorr8OUv/zt4S/1oaW9FMBgk68kaQBBoLK6X4vdLQLEUrg4/N8OjryuORSMZAgpaagKF0xYofE8mQXaO3p5RPPvsI/jO9/4Sg8MnsWKVB9ff2IEdu5rQ1hmAzREis5ila5Kmq5AnSNgRiYSo0FJ2P9N2EzBcjLoSOOJkGPNxuithMpU0rxGkU1a4XaUI+GsRDdtw5fIkTp24glMnRzEwCLj9PqxZdwPuvP1mrF+7AseO7MXXv/YXWLumAjff1oLG5iT6hs7i9rvVBwKWBYhEU0yzHZOjpTi8bxoPP3gOB/clsXLlBjS1rcIvf+43sHnzZgIhWVGgUGaBg/op3ohpLIWlUAz/5ICimO23sopaxZnKxEwfhJWuB3IuwyQEFIcOHMcjj34Tzz//Q0zNXMaHPrIW6zdWYtkKHxqaNW06wnfM8NkwmYmGM1MEg4RZwSlGIRcjnc4jSdcln6NLY/Ga7+R+xBNJ+EtKEYsnkUpa4HSUIFjSiFymBLPTOYwMRzA0EEJvXwov7RvGld4kqsoDaG+pw+DAKQLSPK7f3YnOLivszgH4SuLYfWM93L55lkdMyQGXvQlTk34M9Fpw5OAknnmqG/v2kSkRA/7F7/4pPvnJT6KhoeFVUBBQKKq+tKBsKSyFNwpvBhT/JIZH3wosNE/BSsWyWdQRSYucSODEiSO4//6v4oWXvo90dgg33dKGu+5ZiZWr3XQHEvD5J6mMowSacaY9xefmmE4U2XSSIJGgC5Hg73EqYYJKl4DLlYLLneTnCKz2EKyOOfgCCbi9EaaVgj+QgcenUZUY782irNyF2hqCR1klKqs7CShOzM+NITQ7ilhsDnfeuRFbtrShujoHrz+MFrocPm+C+aELRSqkKdtZ9cJqEZnDCY+HAGjPY3AojLFxldmGuro6rF692tRBEVTFJhQVltyOpfBG4c2GR18bQ3sPBynC4iiKbYYDCQw2qwDCbqxpNB5Cd88JPPToV/HKwfuRtQzjuptq8YnPbMbK9XZU1M7C7h5FJjdCRZwm3YrTZcmSjdhhzznhttHf1xCkmadFpaO74YQfTksADnjhIBi57U743E4+SwBxpOH15AgOVPL8LBnIBJU8RDckjbKyPJxO0ZEoPG6tCmWe+bmsHNi0qQvt7TWorQ2iubGWsYHpFWZe2MkQsuk03ZgZMpUkAqVp1DYAXau92L7LgYYm4MKFC3jppZfMEG+xLhSKQFEEjqWwFK41vGeBQhaxGBWKAFGk2IqZjNiEnUBhQzQWRf/AFTyz9yE89ex3kM5PYDdB4uO/uBGbtvjhLxuFxXkFWfSSZYwgl50ncyBLoGK57V74nOXwu6rgspbClnUhn3QiG3cxOpGJ25CO06NJqZPUugAUaX4WA4nBgnnmYZZ5CZEBhAkI05ie6sbJky/ige/fhyOHX6EbMcb8UvEDIFgQfnhVJ2pFuR9er4ugQxByeulyuMwM0HQqxfSicLrCdEnmUF4dwaZtDVi9ps70TRw+fBgvvviiGeFYDAxFMF0Ci6Xw44R3GVBIeCnE0PKmaxVk3afJRFnGDAFCcxy0sEqrKTWPglbYYcHs3Az2738Z3/7O1zEyOo+dO9vx8XtvxPqN1RiZPErK38s7p4z1d7vERJhqhjReUX0RyQzBJg6NfubV0WG3w+Z00uWg8jrdsFttrEwL6AGQXdg0vQvaZ0YTJXKkczbmxOdxECiymJkdwoHDJ/D1b0xiYACYGE9giNehIWB2ls8gjfLyICoqKshA7JgPEVyYXiweRyIRZx5tKC0hOKVDfG8EwZIcGupcWN5ZgtWr9FwM3d0H8eijD7AuMnST7KITZiesTIFmCWkXalj/V1RmNalD/TEFBrIUlkIx/IP1UVyTBSO/1kxGAQX/4HVhsRX/Mo8vipL3dIZAQNdAcq/t5KxWC/r7ezE+NsobsigtLaEbkUWS9x0+fADfv/97OH3yGG68sQP3fvwWWt8glWiAijdDZQ8zrXmCA1kIcUBb0GkxFvkEs0JFY37SeYKPNYG0ldSBN1kIDjlmxMxLoCI6CSBW5j1JQLFbbLDl7bT+ZBfa6IZRU7aTqRzmQiGEwurbALZsquPveb4/jfpavpe3pVND8PudKK90w+MV1oRhoZthsdGFIZ1QLWlauF0ZlYuVlntEV8buNxO/xicmMDwUJ8DM0sWpQ2NTJ593mlmgMg1ahFYMBbgogkQRKPRtoRO0wNeWws9LeLM+indVZ2b+KqCQVJu1EZJlBV6LgivgkNdB/aTVTCEcDmF2ZhpXrnQjHo+hLBhEoMRPC5rB/oP78eAD9+H40aNYu7oZv/SZ92PTplb4/LNIpbuZ5iR9f3UUpgp9AUzXRkXPZdW3QddF7+O/jCZwuQgMVvUn8Jui+0MltfFqpRIbeOPfdrMGhEChCV6Mcn80WqFn8gQ1uytJJfagpXEd2ppWYy1dhhVdtVT0GIYGZ2GzRxAotcMboMLa4wQJ+jZ0Ywp1Uyg7c0d1JrDxK7EXG4Etw3enWR+h2TB6LkfQ2zeCnbtvRVllJfh6vtvCezS/xLpQu0pPsQgSupreEMZCKNb5UvinH95DnZkSy2JcCMWPi75Sf4Q65mTR5+fD6Ovrx/nzFzAyMkZWkIfX4zesY57W+/nnn8Err7xI5pHD3Xffid3X3YBKWlpkvLBky3gto3sQ4JUMIq9do8RkSNVJ27O5JN8hBkHlopI5bHQzLOqDUNVpH0t+70wiaw2TcZCRWKKwutPI2RPIUblzthhjhL9HePc8yxCD12sne6jByq5lqK8vxyqCV+eyOgMM5RUes1HuwOA4enu7EQrNmPe+WidErSK70kVfiSDQQzFsxEUga2+rQkdHhX7F0SOHsX/fcxgfnTWNbXgCK+a1qtS3xfjaexZesRSWggmSjndZkKC+Rbb4s5ZqSIlzcisSSUxOTuHSxcs4d/YCopE4fL4SlAQ0MzFP8DiLo0cP8b4INm5ci507tiNYWkbQcPMtJXBaauC01iCfKWGiAQKAn9HDl2idhFZ+Fja1NZF0w6oNcPm7jX6/lcBjsROB7QQKSxzJfNLEHP/OEEAyBJeslX/bksgTMDL5EK19iGkn4XE5UVFeStCw0g0ZwZmzB3HgwMuYnBpGeyeV3glMT4/TTZleyIcKz3ox19eU2DAYfm0jDbI7CJBeC4JBO2qq/ahdcGXOnjmGsdEBaM2KGIRDozf8VEhKFVoEiXehOCyFd0V4l0mGhLUYFagOxY+LvtbFZqeKUIGSySQZRQQTE1MYHBqhb1+K6uo62O1uhOejeOD7D+JydzdBYj0+97nPYMXKDioM/X27DS6H18yoTMfpEhh24SVVcfG1tLtEI6vVRkXTXpVOAoODwGNFIppGPm2lZbYROLSNHcEgnyWbAFJkMEky92SO3zOTivQ4oEWrLiqwm6DgcKpPRS6D+hiy8HiyiMVHSPkmQPxCTZ0Hv/flL2DL1hYQAzEzM8HyzZEEEBDoDhmX4TW8YB0IMggkBC2bLUvXJU+Xxoo1a5qxe/cqpJjGZ3/p49i+dT3LwXzRLdEum8XnC4jDBF8HFq/+uhSWggnvMqBQkJAWowK1r7gjjAEOxRyBQNvT2+B2u1FSUsoYNKMUVZV1tNQ1SMQz6OsdxOGDx+i727F6ZRdWrmo3S7VhSTCSKTjscNk9cDkDVFof3yigsJt0cmQjAorCCkw74tE8ZqfiCM2QGSSomDm6PdmcWRyW4v1WApfDTabhChLFKgkcASSyLsRJOBKMaQ058J12u7baz9Oq5/m+BF5++THEEkMIlgMeH7BmbRPvC2PlyhY0t7gxNRWFg2WVm2VjftR3UlRluVZyvXIa8YFmXaboemgFapj1kkBZqQU+kqP//ZX/RvfjeWRScb5XMFEIpkoVzFWpFlMu3rEUlkIhvLuAQj7F6wRVEqxIjVBHm9mARlFKoZ5/+eRulJdXoLGhmZS7gp+raKX9ZBMxdF+6gonxKSxrX4bVq1fQJZGHHiMbSTHJCEufg9sfMMzCbqGSo7C6VEZaFlx2V30VqQRBYiaB0SGyhahAwm46DrVcPUsGYeFnm7MEFlsZQSOIcMxLoCgjo6D7Y3HT5eBzzLb6HqTY6jTVpItcNsqHk6itc6JzeTlq63lfegqp9DSqqjyorSHoMExOjpH5pPk+LQ1X5GPmFyZlMrvQEUkAtNnj8BAkAv4sXSwLSktBsHwBF8+fpFs2x+fIYGJRAzKvVq8Jr4GESr4UlsLi8O4CChMkpEWhVZBEK0oZirEwRCjXQ2sZSgIlaGpqNlHsQn1/IdL1U6dOknrHsYYg0bW8iT685rFPm2nWuTy1Pj9G6z+HTG6KSh6B1RZnpFtiTRGz+B4CQS5jJWuwkE3kMDasV9vh5DsNUMAJa16dm/XIJpswM1GDnotBnDnuxuhAA+anOpCKtjCNCiqmUyOZRjEt2nZPrCYfBjGO7oaT7CGAllYf86i1JRF4vDnTsSlFD80lkEkzTwYUCF+vKnchmLow9aIe6yh8BImKCicqKj2orBTQhHHk8D6cO3uSrlqcDygd82gh6LP5+7V6f/WrpbAUGN5lQCEhXRyL4loAh8VRIGEOwCH9t9kcVIgqdLR3wuvxmu/n50M4duyIWenZ3taCuvoyJqmJS1N8fpJWfphK0490YoDUfwTZPK2tLUYQoQ9vp1uiMUeabg2RJuM2zM9ZMDMJgoSb0W5GR0Dlt1vLWIl1mJsO4vxpC557KoQf3j+Kl5+N4+xJF8GlFIlYBZVb97noPoDPaGv+JPMdM0Dg8cZQEsyiqdmHppZS/s33kxmUljrRUO+hu8JayGUJOHQzhF+mP2FRMOxKo0AZ3hdhHWTIrJysEw+qq1l7fOa5557Cs888SVYxT8blJtDxuR9Bg0K9LwHEUrg6vMuAguFHpLQozYuBghk3FFxDmDla26xxQRoa66GTtNLpBMKRGZw5cwSNTWWorNJu15OYnrmIkfGTmA2fQyTWi3C0D5H4kNlqzmKVG0DqbksTKPJUTnVmFhQnl7XQv4fpGFQ/gai+3plNyznx8TcfRoezOHpwFI/8sBff/sY8/u5/n8AP7j+Bg/sHMNAXwXxI+20S2OR+UNu1mU4+H2X+vAQJulDupMmHwxFnaecRj08SMPJob2+Az8tX8p0qq1wi46KJWSh3/J+yqSFSgZtGS7SALZEI8dcUgaIEZUx/bGwOPT1XEI1GEYmEWR+qxauDUixcl8BiKSwO7xgoRIevJf5YwdxeFFr9oSjJfi0dTXjSKEDBZ7eYbeqqa6qobG5E43MYG+9HIjULpzuCVHYQE1OnMThyBNOz5wkQV+hujPE3rZWIEVRGqLwRvjHJa4qKn0VaPZSaq0Frrc5En9dtaLzLpQ1fZNkLSp9N2wzjOHTgPJ5/bhQ9l3VwD3ClGzh+dBb9vSGmEYTHTVZBV0WrvlWKTCZr+kx8Piq8he+mu1FSYmEZvAa05Abl8zrBPI66uhK4nHaClO418GD+Fa5MT3VM8MnmdTp6AvEEn7fmySpK4fd7+TeYdzc6OztRW1vLuvIacHnj8KY/LIWf4/DuYxSvC0WQKMbXglREyqZOORtdASmL2619Le1IpSKYnRujK0GFzE2gb+AguntewUzoAmzOGVgdsyz5DKFnhqmGTAcgLLLksvJpgpDBCAa5CAUQCgYDqCGNJzSQseg+gYYXfl85rXSOgDCH4UHzCJoaAygtAcpKy1FR1srPdXA6AlReDbMqv7L+fKUlReaixV0xfh8naKXMcKk+awm71arRmSS/I0jwmQI0MBYZxavVQqDQB1aGgEH3JpJxxOJ0pZh/B12Xrq4urFi5Ak6ny4CceexHQhEklsBiKbw+vMuB4o2ChFgsgi6G2aNSfRSF+QzapyGRCpE5XELvwBlQjxEIJpBI9/H3cVpYO2pqArDzvnQqTn89jBipuFZomF1ptTYjr9EMKaPeRd/floHbl0GwMoeaer7XmjSLzTRE66Sb4/JYEQoNUykL+2t2LAd272nA2g1+bNpagZWrg3yvwCFOK66VnMw9iyAPJpXOsBwahi30LyjaNANU7o9VAKLZoPq+MFHK5EfZ4v8LXELNp1j4likR5AiaFg+vTgKppo1r52/A4fIwDw4Drnypuf+NQyHlt7pjKfz8BUnZeyhIfIvKoeP+qRxSan4thcvR7+/pPYeXX3kKx0++bIYb122swwoq64rV1bSo9Sjx2elqTGNmehKhuRCBImb6GzTJqgASmsZdWOcgOq8Neu3OBAEnhcoaJxxuqiNpgXmf2ZE7ipmZfrN4a/kKYOd1lbjltjZs3FyGTVvK0bncR/dCDCRMRU4u9FEU8pzWIIVYi2VhEpYBhiJIFIFCUcPBC2BhQIwPvzpBSrEYLJiZjRAUHfD4yuD2lPKz3Uzc6ukZQG/fANIECrfbQwBZeGRxMOBYCFenvBR+vsN7CCiKosssS0ko1F6P27gF+lozE8PhaTzz7CN49PH7MT3XjzvuWod73ncTbrpxO1qa6zE7M4PnX3gBLz4/hiuX80ZpK2nutWDKbDarfxZdnYx2KlmOiqVzQegKOOLw+PNwua10Efg7s5BMxsw2/+lMDMu7gBtuBLbvrERjcxztnVm0deZRWanh1hlkzf4WWgZP50VAQVohvSyUSkwhxyhA0GllGj59LRaGPfmguWeRNr/aqVn4R96CsrJa+PzVSCRsGBqexuDQpKkyi431ZHUQ9Fx0xxZcDz3yuqBvl2ZRLIUfDe8BoCioUiGr5OsL18JEJ4o1ZTurYUNa9+MnD+Hlfc8glpjE9Xs24N5feD8BotGMWJw7fRl7n9qHU8cTcJMwVJYBwUAJ07AgPDtN9kDU0AxQBk2g0hJzvSunDXCyOgA4QSbBezRsqjMDdS+j3ZlFVRWZy3or1m8sRU3dHJLpE6ium0Fl1TSc7nECzQQcziRdlYIKKs82Kq7TqXFPK9+tzkiNaDBN5kP7aqivJJ/X3AldCRiQm6L8GRVnWFQvBjCULtlSWPtm2JlnN1IZF6am4+bU86rqRlTXkGJpZqf8nsIjhSSKoeBvLYWl8CPhPQAUCouVgkJelGdejdvBr9OZBA4dfgn9gxdR3xikdd+E1vZalPj9GB4cxysvHMZzz6Qw3A+UlTgIEuVwOT1mnoVGMjTb07gSMvc5TZcurO8wezdIgfQeG90D4gdhiaxA1l7b3FEJqzRhyofmZgsqq+cQKJ2jUibgDYzyoWEq8BTfI6CRokuhjcNhAMkwAoM5tOT6QWVTVDCf9T89J0YhdHw9WBSYBF0hXXUKWs5FoLRjepZlHZljfaQRjQLLutaS9awmgBQWqpsU9Oji66svL6a/FJZCIbzHgEKxkGV9kjibaz6HublpHDt+mNY7ga4VrVi5qhU6y3N6MoHTx0Zx9GAKA5f5NB+qCDbD7y0ja+DTlgScHiqpNUEli1ORdCVz4HtsVhfvcfMdYjIMvN1mJ8ugdc9quIXPaw2Gz+chIGnNiQMVZQ7U11tNB6bDFiNLoJbqVj5emCzFK6M2x5Vrky/2Nyywgld1tHhV0GclsOgG/VkAicVRQ7ce43aMjc+jt3cUc5pOweSXda2kO7Sct5HB8KtXU9Jjr15fS38pLIXF4V0MFEWBXSzJC58X5LlogLVRzZWeS+YYwPIKPxWiAb6ADXOzc7h0YdgAxRSNe9APNNQEUBqoh9cTNJ2SmWyErss80xGjUAdjmlHrMJR4YZq2LLVwwXgGvE/Tuw3RIEjoXjEL9S3YbWn4/XnU1Xj5DrkXhXxqSFTuRTqlOSWsdG1gw5TTaU280o8LLpUK80ahWAWvu4Ff8k9DdhbAJs900mkrGUQeo6NkEwMT8LHMdQ0NqK3XWpgy5tFpUvnRVxW/LfyyqLaXwlJ49wFFUUAl/LLkhSiF1YhEIbvSCy20Mjfyq/lwFCeOn8EkrWhNZQ3qqoJwO+Koq/agmsBRWVGK9jYbVq70UZFdvH+a6rAwP8GeRzxZUGADFCQTqaSGEd3I0s/PZTXvQJSe7yQjSCS0kU0admdhq3wzl4MP57IZfo4hmYowvYiZISmgUCwco0Eo4vPaRVtnkmrmp2ZbFliBOlALE8cMyVGx+D+Vthj1nX4TVMlNErCpHnL8lQ4Q86QTxMoxMmJFX78FFy+GCJ4ZM8Fq+7adKA+WMm8pPk/A0nBLAQ8WBfNWRo348PMCZphXLoWf+2Atzpz8SeNPM0goi+IqS2nNUXmyVCLFnARYtJmWHylYnSmkEUcqk0FoPo7TJ7uRJstvrmpHc3UV/HYqq2US0chleHwhtHV60LnCD08gQuM7hURmgnEOObEBvtBis9OdsGFiQieIkWWkg8xDKZXPS+bhMaMdKq32qTUzMzNiHuoAleJ7CAx0U+w28ztVmWlR5QgQWqchl0Mdqg6+x0olz6ZiyCS1fFzgpGFdoomWkGs5+QKwMCmjqJqyoU3rtCenAQ/6TpovkrOkzTZ/aaJFOutFMl2BSLQGoblmvPh8BIcPTaGiogwf+tDH8alf/AS6ljXDRmBSLbpYVq31eBUEih/MsDARjl/oq1d/Xwo/90E6acLPEgCuOUgxqHumi0DathBpwKlphd9NZ541xT/DlOsoInFtgzeCM6e64XGUoLmmDXXlJXDl5xCd6ybtH4e/JIqK6iyq64DS8hRcXiKKVccFai9KftSGLnkpiJ+swIXpKVnkaSSTmupMH8JCi021EUuQ4oslyLrLHcnnxAwUlTc6FEpP+mbAh1E1zN+kdFJ+Egmj8MQEuF0EAKGCrbCXpjpJjXujvoyFslu07XeWLk5K/Rn8jkEgpJ+1C7jd7UMi7cHwSB49PRa88MI068IBp7MLu3e/D+9//0ewbesWulzlcPPlBgr4LjNwY1K7KugdC+9ZCkuhGF4FindLIEwVeualCZJk5lAKYvoOjXAXNEi0fVYdmMcO4amnHifNvgg3rX5lVQm8PjutrCYeRcxsST/9dL/PipKAE+VlASqohj8LVF+dkRrZkGV3UPF8fEAdjadPT2J8fI5uiJPAVUIGEDSgIVXT9GsNlVq0xR1ZTTabZKQrQAakva8EAoqqXMOMWA71U8h9wsKJ6ma3KquDGMHy2KJU/ji0MS4xAml+ZVwrAQ1pR4aWPpXRQUZBsphyxCKlTKODeVqO+HwnJkerceEs8PSTl7D32aPmWMOtW7bhrrvuwdo160zfhBbN2QVIrMy0OeuD6S+FpXCNQbL87gmytLTu2pwma2hEIUgxjWWm1gkgkimdbxHF0SOH8NWv/i2+9rW/xdzsNJy00IESt1HidCaMsnIPQcIKrzcHt0f7SdoQLPUV5i9QxdVhKYDQPAwBh5RJ+1l4PF6CBHDmdDfGxyJIk1nkMxV0H7zIpAszQtVPoLUYFkuSf5DuUPPMxjJmdqf9VaCQdRbeicxryXom5WAaDroU/ExE0ChNTmCj/PA+uR7mQV5t6gdxESC0MY49yFjDvNYgHq0jI1hJgKjCuVM2nDiSxpGDUfzg+8MIh6xYu3Y9br/9TuzYvpPsR+/TRC9NslJ5c6w7vvNagEIZXwpLgcHI8rsnSHoZreog1Oa5BIuClr0adbjP3OwMvv/9+/E3f/NXeP75ZxGn+0G3G2vWLic4+ODy0A/3WDA1M0iWkCJIZOB0aIu4DJmFk58Le0/KqmZpunXYsJkvweD2uFBdU4k6uimHD+dx8uRlvo9cwFaPbKp0oaOTnEZazbxqerXNpmXp6kPQNnpkM8IOugxyIYpDomaSk/pZtCdnzk124GE6YiduAwZOshlNwrJY9b2Nbg+jgCnrRyLlY/oNZApVrII2eD3r0N/rwrEjcTxw/wX81V8exffvG0Fn5wr8l//yFfzJH/973HbrHSgt0R4YdjItr2FP6VTaAKOfFEsM501Dsb6XwlJYCBZaGGNbru6XkGD9QwfZ1JxmJfKqnSGt8v2zGgkgZWd2kskIhsau4OiJg/jqN76C7iuXUBaoR4m3FhfPHcY/+8IH8cEPbERn1xQp+0GEQkN8zInL3X1IJBOoqqxEZYWfzENsJUoQScLOmErpAB/tl+khcJQjOu9Gz5UpPPjgKAJ0W7Zur8OmLevJVmLMWQ8t/RjzRAQgwxEQ2Cza0dvNAthMH0smE4HDnTIujHBP/Rp2i4tA42OZSsgaVLc5xFJRzCfmYXPbCEQeAo1ATEAhlpOnMmshlxuRMIHPWc3yWDBJpjM8lMLpU6M4dLAH01NAa+sa3HLzB7B91x40t3fA5QsY5qDhV7vdyWcLc0EKTcx6FUUrhsXNvgQOP/fhzU4zf5cBRdbMsBQ70AE6Gv+TB2KxupCj393dcwbPvfQkHn3yhxifHERdQw06W9chnbDhsYe/jX/5e5/GbbctR01DL3LW/XA4omQAWQz0D9Kvj1PpSwgWQboW6pfQyVvqzExQoVL036mgdAeQqyA4VVABs3js0WMEGaCmFtixYxtWrSmDxz8Ep5sApAlaWuTF/JmeCYuX/5eL4mAZBBQx6KAdBXk62t0qnQiwXOWGXaRo3SdnpxCKRxAoD0InfFnhgcddQiW3ExwSZEppgmMOMzNpjI3G0dMzh4G+FEaG8xgfzaGxYR1Wr74BmzbtpLuxBbUNtbA6CLZWsjFNPTdDtxYDFDqa0Lg/xvVImoVhhY153ihIFhSLvy8hyM9LeDOgeJe5HgWAKrgBioXPuWSayt6P/fv24fHHHsMrL+1DS0szPvD+92HPnt0oK6NLkIqjNBhASYloupXWXHMGtPIyaToydd6FwEErTAvLuqU2BYDUZ4GTOczHTheFbCBQasOGTW0oqwBGRoATJ86ht2eKbMOFTKKSYOIvqA//pxmWSld9FZrtqX08i9vqm05MRu2UrTUjWd6XycUQjU9hbHwO8yEgEa3A/HQVhnuD6D4bQPeZUhw/6MILz8Tw+MOjeOShy3jyyct46qkpPP3sPE6fDaO2cTk++NFP4rO/+gXcdvddqCZopsnG1CGqyVdyY7RfhoOMQhkw60lYVtmF4tyPNw5FkFB4s3uWws9bsP3xH//xGx4p+I/BKPRK2wItNmosDaNFnBibwDNPP4PHn3gYFy+dRUVVAB/56Adxx523w+sO4OTxMzh29CB+5Vc+jOVdVVT0KaRzVzA93UeXQh2V6lTQqIS2yqdtd2o4QYuwtOgqZVwBDXmaGZdiMhadumFDRUUdLXoC4xMRQ/dz2YhZO6JJU9pX0+aMM6c5o0+aW2E1k8K08lRzM5g2OUehTHJHcgQzfra5+J6UmfTV18+nc06CTgOGeoF9L47hlReGceTANPY+3Ye9zwzixRci2Lcvg2CZm8+RiTCdppbl+E//+b9j+85b4PVXqDvE9HNYdWAqP5u9NZktMRebXZPVCsO3Agm5HS6Xy1xfC4sBYTFIMLFX41L4eQjviSMFjTBTQLVngtlgRX9T6E+fOo0fPPggjhw+ZDbK/S9//me49+MfRWN9LXp7L+PC+bPYtnUD2UTBN1dfhtyJev5ut+dJ58UodJiPhF9MQ6MUsqqFnkYtDNNBQnIH0tl5Wv052AkC/lILNm9dgVWrSknXgbO05H09IUyO2hGNuJk5r2EvYiMG05huYeVntpAWSYb6LIzxpq5Z7TnT0er2WeDQYWR8piSobf6dGBicw3N7e/Cdbw/jhw/2YN9Ls7h8CZibpeviADo6rsPGzbcQJFYTBOne8OEUy2pz2c0sUb4NcbIqZcThcDO6CFI2ulN0kMjIlAezlJ7IldHhziZTCroujkthKfxoIFMWJS/OJyh8VvzHCYWRAqvNYahzLBLD8WPH8bWvfY2uRx/WrV2Dj3z4g7yuQmnAa9yN0NwMkokYamqqUVlRucBIpCxOo6w6JEinimnKtOY2FZZup3ifAEJllbUnq1gocp5AYrGFYbGHSeMnESzPY8PmDuy6vtQo+8MPDVGBNbOyDMm4D4m4Ri5sxoJns0QTMgkzxEsmJJaiqOnfmsSZJ7NJZUNU9Hl4AsDy1UBVvQdVdS40t1WhtaPSzPuQmxhNOczycG06Y04Mm8uhvLIZ1XWNdFtiGNIRgcxrluwkA7k9ZC98VzGoOIp2opg56UwZ0XcssLYOVEkFaFpQJ9B4fXztu59GeH3ab57u2/3+Dx2uNa9vFa81/Lj3v11YnIe3iovD1X8vDq9jFO8GoLBYZfV0fF8eI8P0zx95BIcOHkJdbS1uv+0WXL97J0oC6oewIDI/R4s7ZYZMqyrLEaBboIlMSsfKdNR3IAQwboFcEP4ktwC0+mbHKIIFSblojFFoYYxhBtYklXqWCj0JmyOMugYfVq/RyV0OzEwD3Rej6O+NYz5kNxOyMukCKFhtrHwprZljYaOSOhldRjE1ndvpYtZs6gSl5aeu+oMgYKQRrLKgpbMWXas6zWlh2tfSZa1n49TQ1ShBLO5CPOkiyLBe8jYkWd6xyVFe48y69srQSFFhFEYlXNx6aspip6VcDzGutw+6vxivLVwtgIvjG4Xib8qP4pvd99MKxfcU33Ut7yvqwuJ8amKd4uLf3yq+01DMa/H91xreKC9vFBeHq/9eHF4HFO+GoE5AraGYnJzEyVMn8MQTj7EAGezctQV79uxAa2st70kyphEOT2B6etRY8tbWJqOs6hBgFZg+AdPfoJETFXMBBDSRKa/zL/i8US4BBetHIKG+BOmUqkusI5fT9nWz8HgTaGjyYN36NrR1AEPDEzh7boCgYUU07KJ7oZ2ztc5DU7GzdF80Y1MjDDomwMGr3AC3cTFk9jUd3DQ585KzhWBxjaO8Lo72FQ4EKgGHPwmbZwpWN3+zxcxByC63gC9LFyhu3Coj6DmWNE9GY3bk8sCqWZ8m968PUomCXhSVd0HgJBivxmIFLY5K60fTe7NQFGqTtzcJiwX06nuLv139+08jFtN7u7D4/qtD8befRVxc7mLQ94uvCoufeat4reFa75U0vIuCse8Ik3ufOn0KTz/zNC51X8DmLRtww/U7sEwLm9yqUFJ8WtJIZAozMyMsbBJr1640zKJICxI68NPMHSgIvWmIwk+M9AMUF4DCNA9frHYygMGrTWtKEOXXs2QCUVTX2LBqdTO271yDZCaP3t4IJifyZh4DUGKGVsWCrI68AQpNQ9c5IPFYDrFYHvFEni5Elu6ERib4Lr7E5bUSKKIIJS4h7xhCY2cenXRHMsxDOBlF1ppASbmd7kYQFdVBlJaWEIiUVhx1NbVwOwkOmhaeIQDxIUGGIRWMav+iDKh8KpfcSxvRUFE3GRdDoyHMz6vXRc8Wn7/WUBT2t4pXB31XdHsXh6sF/51GpW9Goxbe9UZ5ufqZYijmUc+rn6foxl19/zuNV4diPvXuYlR4o2ffSSyyrLcKhTe/W8JC20UiERw8dNDMumxoqMYvfvKjVNJ20ncqf4ZW1qLRhgSmZwaRTIZQUek353mUlgWQTyeNxVUfRTyeNP0DYhRSTC3WKizYom8OMQqBgV5a6BvRn6oQTb8uruDM5yOsyBA/R1EatGD9xk4sW9GM+Qhw/PgAXK56DA1FCExOPs53JlK0/m6ykABjKdzuIO8pozuhKdjMn8VHhSxlwlUEoyqUeWr5LrcZOvUFgD23dKKyjm5JGVDbCKxe14ptOzZg06b1pjwz07OoKKtEdRWfszvhsDBSgOhNYX6W1JhVJIa6OL5RMAJI1FwshBravTpeaygKdTEqXC2MRepcFEqThwXhLwb9ltHUV4bX5e0dxmKe3iosvqeY7zcKxXz/NKNC8Z1v9l6Fa3237ruWeK3h3QUUrCAd4js42I/u7vO0wBG6HJuxYUOXOUfT4qCJtmuSlGZITvP3aQJBxMyRqG+ooFUnTbfmqZBaj0GhZEXQUFI5WSEs6WtAoe+IouYfK1XLvOmiyBoXLbIqRkChvSqzmTDZwhyfDaO8Jo/2lUHtU4uzZ4GJiQzC807MzzuQiBcaSEOSqVQOqbTcD7oFFp21UcIGLKfyaQ5GAzLxViTCzYgn6+GxdcHtaKTr40d7ext27XZh/SZgxapabNzchVtuvd6wgIvnL6OtuRP/6d//KZZ1dBEktI6DgEe9cjLDATIUk2eVlbEoB6ZIqoeF+i1akNe+X4ivu7fw+VrDYiEvxsWhKJhvd59CUYDf6N53GouAVYz6bnEo5rOY12KfxOL7r37mrULx/reLxVB899VB7zYLD9/g2XcSF5f3rYL04V0TdPrX7Nws2cQB9PR2U/mrcOvtN6Cy2g+LmybfGuNd2o1qHsnUNKKxCdZsDF6fFFRnhrLwZjZkHnangwpDwKCqGzBQp+brgKLQiOaDSDsts+kIlRWm4mlYU5VjKiivLe10mtc83P4YGto8qKjRhjnAhfPj/L0c4ZCdYMGH+BIN72Zz6iexkgXkEZpLYXIygYnxBMbH0hgZtKC3244Lp3O4eDqNsUEXYmHNlPSjoakBd91zI+64ZwtuuGkjtmxdyXqoxOlTp9B7pR9VlbW4btceuOweMhLSYOVQeU4xr5I3RrW5ifzp1fZfQEDzZ/EG87lweTW8JrOFz4v/fovwdoK2OFwtnKYdFgVZxJ9VeLt8Ls7X1eHtnn2j8JM880bhrfL1TsK1pvuza5GfIOSoof39vdi//yXMzk5i/fpV2H3dVlJ3/mglm8jFaKlnkcoIKOZI82cpx3E4nLLeUTKOhY1tmI56+rXVXSGwMszf/LRYeRjUh6Gl4xa4WBnqDLQakBCFl5Lo3kIHZ4bPxmF1hVDdZEFTazncHuBy9wzSKTfiMYfZgk5MQv0juZzmZmTNORsDAxM4f24QZ06P4OTxYRzcP4S9T/bhoft68Mh3Z/DEfSm88lQaF09aMT3iRU3lSrS3rkJdTbNJ5/jRU3jl5UNkCz401LXCkrMho6FfsSeHJnpl6G4VtvIzDGpB71RMlVcFMbt8mwKpPKyP4u/6Z8q3EPW5+Lf+92OENxK6xdarGBWuvvdqC1/8/acVi0GfF9NzhcV5K+ajGIr3Lr7/xw3FPLxVLIY3yos+KxTz8NOMxXe9XbDwpje861oe/mmHeDKO733/u/iL//pf4HFk8fnP/SJ+9Vc/AxAYNKyYSQwjHB+k0U4ilY3h6WefxtNPHIPLUY8//7//DIEA/QHLHJnGy5hPvAJ/IEUljlLBxEbCVKK4dMasvZCBzdMK57Nu+vguKkZBGHKIIJPTVGvyDDEQKlqeipnPuZGhxU/b/cg5KnDo+Vk8+t1uJEhybr+9wwyd+krHyThmUR50mgVg0XkrxidCGBrKYGQUiPL1miMx0kcmchq4SNfFTRAsLQmiotaG6gYHqutLUFlbhmQ6jrk5YHg4gv37elBTVYNPf/Lz+OAH34dly9rhMoxJAsaYIlSkCHdeX6GvhYCofCuoFTVPJCv0461yYcxKVhP4hWFUiiqo+bIQ9JlfG3DVz28TivKiazEWhXxxLHYILla8xfRe4Z0q5huFq9NWKKa/OH/FUFQkxeJvRcVVLE5e+2mFYp6K6S/Ok95TrI+f5jsV1B+ktIsdvW+6KIwZWSwer4Y3+fqqcHWm9UzxOV2Lv+v62r2GBRc7A0xkI/LvSCyCP/2zP8X9D34Pa1a04Te++Mu4ftd6irBWWFKrc0MsyBWCRJSW1I4nntyLJx49SUVvxv/1p/8XKqsCTGsC06FnEU68hLJy8otUDA5bYUq1AQqyDYeYBsuX0/BCVvMdXPT1dRixExabVn1GGbWRDbPFW+SKaFQjZfEg6ypF2lKO7pMOPPvDYTPt+uP3NmLVqiAC5WNw+aZQXe2Cy1aOTNKNcCRD1yPJK8to9SFG5nHlvAv7Xgjx2SFUV2xAW9tWlo+AMn4KAyMXENPk0QVl9/m9WLViMzZtuA57brgDa1avRGmwhBkji4oJBCn4NlIbuk7Gt2J15gsUyLhyqVSSTEedrQkypYUp5ZpwRWEsNFWhXQpOiRiZBLZ4zaG2phxOdYDwd3M7Q/FaDHpSGwfrqAOxuWxWQ8vpAkDxSgzgb+ovUp3aycTc8Lh9BDvmmYnpQGhtkJxgTKX1rIa2lSrfaUafCvJReDNzavqUBHa6h98Z1C+Uo/D3Qs+0yrBwn+TZZrexLA643FoH46ayLyyMW3hUqV8dNDKUYZ5SyYQZmk7SmGlmq1Fa8+Br18Lz+vzaJ6o3s6dyZBk1LE/lVzR36Mxc5c9GQ1BHo+E0QK9lAwlaIJ1xm2FdFoez9U41W+Fhpv5qmRVee69CAU8W/tat5veFPwpfmIum87v43sLVhXBU7v2PhjcFisXh6lte+5tCuvB+UV4JiZncZLNQKPW5YL1UeM1pUHl1+wJ48kOWDRDh/fLpk+juuYwv/8HvY2RsFB+65w782mc/jcY6mtz8CKzOaQrUJczHzlOZNRPSi5deOosHv3cSyWgT/vqv/wblNW4mOoKpyJMIp5+jZc/ARmG1awai5jNkdHAQgcKhCpcQ05Wwpc1+DekkhZzCrLJpqFBDqDrcRxVebJyMNYhYthwWVyuGL3nxxPd78N1vn8OnPhnEuvUVqGsOobRyyrCEgK+MIOVgY9NNyDroJtGtmKGyZv2YHKnE4Vfm8a1vnkM668PNt34S19+wFZU1fkxMDWEmNEHXKsqG86G8rArBYBVWrlxLpW1EwB+gopM5sSZzsgbKoABCyLLQFhlNTednKd3A4CD+8q/+GsNDIyxjBqlEioyKz8tqiWVQoXR2qxolrc1tRCF0nonNSWV24d/+4b9CZ3sT7A4P7C7WIZ9Q6y+WCE1VHxuewrmT53H5yhnMh8b4/iTmwxMYGx9EKEQ/Lu82LE07Btz7i/fiputvoz67TB9Lhsr3+CMP48WXnkMkEjJ5z1N2jHAT4KHFepQVDWeboxQybj7r5d8UJCkfvzeMkPWgiXRyR/MaQs/LnXSzfC4+x/bl+x1OCxpb6vCFL/4m2tvWwOPR2puFMvGqlQPqqpL6Kmj3ssH+Hjz6yA/o/r1AMAvzPXwj616yQlvMd+u9OqdFV+VJ+sCaYn1aMwRHpeYkS7URDMmE7R4yTt6WTgsYtGN7LT7zi5/H2lWbYbPmMDTYi+98++uYmBxELDHHPBCYlCz/p7VEeT5smKMpdYEJKPOF4W4VoNBC6tg3+7hSX7QkImfu4bO68kkBT2mpHx/4wD2MHyAjD/z4jOLqULzt9bezcRY+GaDIa8iRCmbXNvgpUwgdoiMFVCPKsuh+JRGPR+D2KsMJNmSa7sIM9h8+iC/9y3+JQLAMn/vUp/Hpj38cPs8cK+YSDeYAgeIsIslTLLiXadbg8MEx/OC+K5idaMR//E//GfXNHrgDcwhlnsRc6nGUeamYsRDcrJxsshTJmJ9vtyJQSkCx0pWxTCNnmTcdnNItm9XNqwu5tFyYNK1PgvVfOLlcMWsJkk20Yz5ag9OH6Po8dAXHDg3hU59px4qVXgQrh+EJzILZh99LYSBImFEPq5dld9L9oPuTDSAyV49TxxL42/9zHD2DwOr1u7Bjxy5s3LAJO3fuLFhVKrHLZYPPJ/DLory8HHbTE6sooCgIh5HwYqCAaGm7rFeSVu9Kbw/+7mvfwHe/ez8mJ2eoBbw/bYGP1tRFAbJQ6TRMrI13LFpxS8FJsSFjGrFhmwX8Pjz6wPewdcNaAjUVk8/EqfMWp14qNV5oferuV/7Hd/DSs/sISOdY5hl4fTkK+QQmp0cRj2oOQxliAirW5/W37Mba5VuRjpBdWCn46QQO738Jl7rPmnUtKa1FYVlzAgudjWKV4vO9inydLcf0BNh5Gh8zi1Zsk+4hFUjgr2n4yppyZyPT0r4eAinJaNYSh4+u4fvf/3F8/OP/HM1N6w07VfktdrIi5i+zwDy1NDCdjOLRhx/Aow/dj8vdZ8wWBZH5ebJSwgOtpDl+0hzrwCig0HAY20Grha18qZN5cvP3jHMOcUtYc3JB7xUZ3kaCYkbMEhEX7rjpo2iuW8n3JjDHOnv22Yfpik+xAEkyIV4YVXZSWsondUmeJNmI9MomcNdGSQQJTcs3mz+bPjWxKJVN2xpo1zc+z/zpVH3t+BKPx+H3O/Hbv/3r+NKXvkTQKP0ZAgVzbxSJfxV3pdLwpNCtgPL8nDNNRvagocR5czhwgg3QTkvldEmI8piZGcOjTz6GP/yTP8KK1SvwxV/5JcMq7JYRVsoFNmYv0rmLSKQpiNpz0lqHE0cn8cPv92KkvxK//aXf43NNCJQRdLKvIJR6gSAzi0RoGKwLxOcDCE0VKFZNfQnT0/Zz04xzxooIiLX7lRV+JONUcFa406UTwTQUK0TXRKoyJDKtOHM2hX3P9ePc0QjKSm248+51aGik4jgusR1iaG4mpXNIcLXNv1rYRfAM0ELESCvdiM3Xo/t8Dt/69hGcu8RadJXB5y1FW2snfuu3/gVaWzpQUV4Nr9fPuhETW6DixlIUg8RGlV+Ipg0YzQpRCvHE5BQef/IJfOl3fptuD60020PCRk8GzY1+tLdWwuNMs5xa5arl9aRBzOP0bBJX+mYwNBJFfXUT7vvmd7B1/Wb+5kSK74my3YinlEu6FkkxwixcLN8vfuyTOPDCPni88+jo9KG5hczHGWHdzjOXpXQzahCOWTE5l0L/8BymR8JIzufhoRDbkERlEGjrqDQxngxToVk8w3QE6FEKeZxtQIhkGZwWH1li0LSZgAJ0F6Hp7QTBJPOnTZNFmuy08jQLvI/GSp3WVKoYXdHx6VmMkfR85EOfIlBs571kHYx2Jq5FhDpyIZMJMc8ZlJRY8MzT38fsbD/bxE230o+52XGyLR25wDyyzpVV0zL6wHZSU8m9sBG83HkvXGRTSes8IpkpZpMgwnfl6PZEwyXo703i5ed6RYyQiTFB6lBJAHQvgeoaoLzKTvfTx7bT5EGxXkUxZIGUdmcnEOjFbHcxerWzwQ1ZPtaXYfL8kCFgJVVVdm0F6SdwWHDhwgB1Efj857+M3/md3/lZAgXzQtojn5K/mKhpxkI109kjAZbgMufaH3J6egYHDxzEmTNn0FBfj499/MN8Jmf87MnJcfzvr34F//Wv/z/cfs8t+PVf+zT2XLeV9XaF4H6OQtJNpL+MdJ5XSpHNWovTp2bwra9dxqWzwB/8wR/j+j3baUlnEEkfRcZ2lu8dhNsxhRJPDuMjNgxcTpPm+dFEIc5ZZllrs3C6E0YAVWHahFcjH/GY6Jz2qaTgpXVAcRouL7lPqgyHD4fx4gtJ9HfTvXBZsef6zaisSpOlhOENjPEaRRkZhZaia66kDkrXyIXHV8nyx0nDQaCowciACw8/cgpjU9Q6eyPm52OYmZonWHThF+79LHZuv5F11M56dJGi8hbhjRFE+W+yFvxckExWu5gL65rvMgM9bIpTpy7j/3z17/Df//IvWMNUHOKARo+qqkFr2oaPfHgXXRlZ4AQZTIxlZZ3ky3H67BgeefQo9h3ox47NN+Ff/96/w9oVm2CjG5ITYyGokG/QvRvDUP8I63UCbmrlv/2DP6TrcQldK4CP3bsRu29YxvqgtbfOUQ4q6I7VMav1OHJiEn/7d08RaNmmmhbD7NKu4J67qvGRj1+PjVsaWBwdw0DXgUprcWQIGspjhHIl9knAy/nJQqh8Zt0+LS5dRG0cJFcmk0lSUWJ0MchsLSWsEx9ZgZWKwUohuxCrudI7gAceOICTx2B2DFP9SoSNS6yr8kSg0V4kt9xWS7eyFps2N9IAlPH7BGpqShCLzfJdZDtiL2Y5gNiZ+iDYCAzqaCZfotfkhTMfQJqAF8+FYff5EU05KccBzE76cXjfKP7rf/khjR2bjUlV8J0rSSx2X9+Glavr0dgcgD9QomwRLBN8vzofkwYcZIS16I9KvAAeogwyCOqclOsmV0qjePybNCaZ0ArqIME2gKnJCP7+75+iLA/jox/5ffzu7/7uWwKF7U8YFj7/BIENaWiWMkhAkPQWpNmAA1uWv8nCkVnwz6HhATz00IN48onHSM9LsX79BmaunI3qxdxMFIePHMXho4ewY9cW7N65ETVEb+TGmfIIgWaI9HGcDTBlgMjh1K7Sbgz0T+L8uTyi0RGU0N+qKA+iUjM1ifjzoVlWUmGfyMHeOPp7InxvEHUNUooQ3YGIyb+Ui4BtOjlzrFjtCuX2+KlEpIzyox0+5t9HMMvh778WRs8VoK4K2LFN53nWMX9TBJwwldBKISqcHqb0BICig3IHvB4Pv88ShFIUXG2sa8PMbBSRaArrN27GyhVtVIYwXn7pFC5dPIHqylpa/nZ4XAFDM6VMCgX/khJFgVDeDSrQaqjeF24B9R7Hj53GM0/thTYhTsTnmRf11BMoaKU+9enVFH4PauvD8JWEKYjzqK71mU7S0dFJgkw3ASCJO255H3Zt24NgaS0lRe/NESwjiCRm8djjD+Erf/03+N//8yt46IH7CHwTZuJXVxeV/n3tbMNaphlHaVmIvq+NAO0ggFbi8pUJHD3ag4mhGTNJTGedBEuBPTeW4bob6uk+xlBdT2DzTBFc6cIElMcYSoJJtl2KbZwgoGfoFmlzoShKK6NkkRFafll/xmCCMQJ/yTzdnwRdhRgtcgwNTU4+n+bzOTS3lmLTpjXovngO05MkI9Jt4S+vOsA6QEBdtgz029vxsY9tYd6a0NKqvqwpKtoE65EPYYIyMU2ixe+ck3C4pghYWkQ4TqXU95r6T/kiY7U7CBDeEBz+KFkK243vkPzG5rM4c+IKXtw7SrcYaG8hMN3iw0c+sga33bEMHcucZKoZVFTK0KRMOXyBEOMsy6c6ibMOYvD6VdYQr3P8PswyRllnUXNMhd+f5HMpApD2Ts2wru0oLSGHS8zgicdfxsRElnp4K13fHYZt/2z2ozCCKgahntkiWKhfglyftKvQ201vKZPC+PgQXnjxSYLBSxgYvMTrPvrO36bS9SEeyWB2JoGZ6RgF2kU6r52wBTS0IpAyR6mwdBHSISoeLTzROZthpQQy2LCp0cxiPHq8G9/4+l/i6ScfxblTF42g+13LUerbTH98I5WllhbdakYf0lm6R+Z0ce1VSWUm4nocARprWipROhsri66GDvy1WGuQStSh97IHzz45BWIdGmiV16+rRmtbCdOYQwVBo7bOReGlX02tFlYKnMxJ5OpoYz3R++e9OUa5NMxbIE0L5ef9KWRTE2hq9OCWm9dg164yumfDeOXlR3D0yCtIxDJ0YwwOMI0CYzCATMkuWDE1rOwNg25gk6To/IbnZshQpjE/PUcFzpoJWdqvp455b23xwkfBstgGmM9+lnOITTmNRHQGkyOjmKO1KfVUYeuGWxDwkgkIPDVClBfNpdtH129iZApXLvVjdCCCsaGkAafyAN2HZg9amrys1wm2UR/bc4RgN0OcmUIkNMB26UMsTPeAWS5ONw+SZtfW5mnBQ2yXbrLC4xT6fsYhKtQw0xingtEVoMI5rFQ6MUEqYiAgRQjDRRfTbp+i4hKw+b2DLNJqG6VVHYLbO4RgxQSBvIeVd56xm0ZglHVvxe7rlqGVbiKbmuyjEDWSXkng2r6pDB//yFps2eSmYg1Shk+w7JepaCG6pn2sL77TQiYGRsqjgzLjtGlEjWzaqh4Asl62e573aBVyMj1NQxBCNDFHeaNMZO2IziXITFn3VJ1qslC98547N5GltqC9LYuAb5QGt4cy0sP6H4DTPkM2MEcwmicYsa5M5N/2WcYZuo8zrAfFWT4zzrqdYN7m+BzrzRZhOcNMZ57yFkImwbyEgRK/zXRimg7RtwjvDCiMgLKUKqkRXCmEKBEQiSQQjejMC21Ck8TgUI85bTwcnSK6V2JsfAAvvvQi9u59Ab09QywAETYspfDQjyZdI+rmchGmK7BgAVlI/Z3PxQz10ndWawit7X7S3GaiL2ih50mlnsF3v/kAHvjOczhzbAZTY2WIzLcQQWtJP0tJ3xz0geXHkp46KPZ2N6zaFTvjQTZJ31GWhY2e0e5XdENsBIrQXBlOn8jiuadJR6kMq1eUUdlqqexJCmKEiB0nimvoL0M/MMkyaFCMekU2ZRSctZzN07enL22oI6mx3RGhy2IznXfx2IhRhDVrqnDrreuxek05Lncfwd5nH0VP92Wj/CYuBM04VZ9JESjkjxqPUC9lzKTJVMJzCM3MIpagIJOFUHbhpaWsJVDUVGmXqyne2890ho1i2Sl0sfAERgeHEZ7OotzPOm1aTyUv9AUoSlysFtYfWdDU+CxCUwRxfs8iGBeiisLe3BBEVQX9ZMsYHxpk/Q2xLSfgIFBkkhOYHBuggPI5iQ7zrE25KioV6RYGZ8kgBuhiXmEbdFPwe9jG/UxjnEpIcLBR4HUCnI3C75hhPVNxmK7dQktOoLDzb6dLlpwW3T5vLL7VNsw0LjNNuqKOS2yvQbjcBC/PNJYvK0VlBSuMeRFYiE0EfcDG1Q7cdH0r1qxywOvuZVnOMb1+RloJAqvNQneL7efStomURTtdIwfbVkDhtJPtsr0dcj2YqM9ngYcW3enmvZQPuU5up4telRPhmRjdYSoz63BVJ7Bz6wpsXFfHNqJ8WPXeKwtxgH+PsS1CzHeEzCDG9ouy3dSpyugIscwEUte8uToFqvrM3+22EJ8VwEbgcabgYj4zyTnMTg1RPljvZOAV9HeKC93eLLxDoFBbLyiD/qehF1a6mMT42BSmpqZMD36Kfv6V3nMYHu1GfWMQO3evMxZ9YrIPjz/xII6fOEjFzZgOTnVsOpxyV2QpqdD5GC1TlOkvHAbMBrWwZR1sEKstQTqbI6Oowb2fWEXAqCAQhHD40Ageeeg8Hrj/h3hu71Fa5iH092mc3sfnSk3+jCWWlFPJrEw3ndLQZZqfWSmsM+2E7bAHafWCGBvN4vz5WYyO0H/s8qGjvR4lAVJ5CmawnD4xEdxC4VVepbEalzYdXUqLNSw3RCera+hKjEDOqMoU8Dng8/BvukdpNp5o8pq1ldi5qxk5yxzdsIfxyv6HjWIKj4vEQchDe2U+qn87yzKQwCyEHMKxSUxODWN6hu4AGY2GP5UfH5WgssIKn1fba1n4WrZd3kUBKoMLOljISp89TkYiQGmjJa1hGZkk88zbTdRw29j4OF2UcTKfBPPhYBr0lflbWSmFrqycoKfeeCoM/SXjP2c0lKvhaRcmxiN8jvmVcvIZ029CoJDb6FIHIdkov1aVmFGjfLqcbKgRqWgLYzuykZXIxVchE+tCItJBxrUMqXgX/16BbGwlIy1GsgP2XC3Bi9Qg4zSdeOmk2K42Gl44GoGNLNe1sPs5y6b8sJzql9iwsZ4yVUemModYcog1GqEC6ncnYjEPn2lDLt2BZGQ5oqFlVPguRGZWIjK3GpHZNYxrEZleT8Bdg1RsLa33Kl6Z33AHsollSEdbMT9VTlCmUz3IdNl269a2Y926DiqtNmceRzQ+zDaNGHlxkmW7KIvIMnOZVhq0VUjHV9BdWUGZXsG0lf5qsrrVvK5BMrqK9bYeuSQ/R5bRxWllJHXKLmO+WxGaLqcbDoIFmUxVO6qqqigfEtg3DxLbdxDUByFqTR5B4ZVvn6FAJxN5DNIyjY6OsZEoeLRwx08cIKrSH9rYSXehk/4iKyQ7j+Mn9+PIsf0YHu4nC5mlixFnOik2iqKGJjXxRGPXQmtZNHGWHCvOgoBHvlsC5ZVJ3HTLcnzqMzfjIx/bSPpuIaUCXn4xj2987Qj+9m8fwROPHUF/L1HWWQ6vN8CrlcBAcEokeSUIMU2zn6bLzt80Ju6goJfRHbLQl53FyHCG/rcFnZ1dTJsCTYvi9YURKFEPe8gAVJ40VILPh43QSeDV0GoDcy4wgcLsqkWt15b+bjcFl4oo65OITdP9ukx2EkZjswXLVmim6jSe3fsd9A+coYCyYgUWAgRprEld/QYL/xa+0ijNwHA3unvOY3qefrRupxaI1ag3vaZaZ4OIxcRp2RNIJwQ52kLQQ3cFCIcstKJV6Ghby3rSPhu8mZikuQV60Ga1o7dvACMjkxRSIZeOW6Q7wk9+b5DA5yP2ZggK2kWsoPDRcJKsLov5uSyGBmYxM8M6Z1lUR4o1NV7SX58B6lSGjFEZpOtqyavTspJKWIFBun495zzov1iGkZ5Kxgr0nA+g71IQQ1eqMNpXg2F+P9AdwNRwGZWxAU5LE5WsmhZUE7vUoZ5nnpNIJcXCrJia1BwFO4GTr2O9ClA8/FxalqJcRQixZDIE7xzblR40m1WGhq5YronuVgkuX/DjwikvmasHp456cfqYn59LGIOMZThzvBSHXgYOvJLCwVeSOPBSjPdlceiVOex7YYyfp6i0fCez17V8GRoaysiMInRTxvi+EOuGLgzrR668Ne/D9LgFg30OXOkuQfeFAC6e8+HiWR8unQ3g8rlSdJ8PopvXS+cC6GU99Vzkdxd8/N6F82es6O120oW24eL5DP9O0IWiK1q73ADF27kebw0j1xAK9Fruho0Va2VjaHOVDBnFhKn0VLqW1DdBoDiElvYKrF7bYZTU4Uqh9/Q4LVc15sPjeHnfMwiFKXwJrdSMM+Oy+Eo/yTTj8Lj5J62ADvTNU6DCUZ0dqo1lSoj2fGeqj3/7CUTVqK/dTd9yBmOTKbywrxtX+nMYH6JAltEVmZCQSnCcfE/CUGqfh3mnEEmR02myC7KJKL2eOEHw1Mk+vPzKSQyTTXz0IxspVFYKdQ6l5QQSTxrzkQmWwUdhihIgqahUgDRbQPqsYVeBhKL23NS2fF5a84SP+Y2lSUEDoCElGIVpxb1mO79QZAy19TZs3FrKOgzhQvcxgsV9uOfuEroMnaSOVC7Ts1lgFRb1gbCRpVt6pyb6DI+NY2pmGm6XhwCQZHko5fyxps7K+iECkZ35A15+T0XMSrFdmAul+D4NXWsr/wo0NDaQpvMxJiyw0ARCsRe5Oz19VzAxNUGgz1CAhIwUZpaxtq6KrmAjKqq05R9pOutPE5ysWT/by0lGRnconKYSsP412Y71rE72uoZ6Ms0aGpJ5s9dGwO+hX+9DPO7G+KgFp4+P49C+fgwPsr3SVlJqiS2fjZMB8vX0HpkPOz1gDUNHsazLic3bKilrlaiqCZJR0UWjddYCQpc7AI+tEqPjKczOxTE/nyaTNUUgOJBx1TA/zX6UVzOP9hjbdwb+Eg2FWtiuQd7vxVBvHA89eIoKmTALA6NsW9WRprkIOs3gA+tb84nsDhkg6gFlIU5iWF5xkrJlp5K6MTcVowHg+9oogwG2oZ3AhVmjG0JeGReBF/0mxPnMpQthPPvCcfQMkQ8ntarZ3GYkQczNCID+ZpsVgVgehf6WbOqwKU1Cmw+nMNAfZxsS3AM1KCkp+em5HgXWcHWkhWftaMOWBFE6mUix4ASF4yfRffkyv0vQgloxPj5CGqzOlQTBw4q6+iA2bVlFtAauv3ETXYb1rKgcG++KEcxoLIQw2UVhwZeNAu8yVkAH9Vp1YLCGR3mfNpexWgmL1hDp9wStHi2AexJVtWmsXFOKrTvrccf7OrDnNroLy0nh2PbIBSi/5UhEAwYwXAaASEvtrGX5/Xk3rVAdqstXYGYyi7NnrhCESA03W9G23InyqizTUR9DlEqvnnA2Sl5HHDJtJiFGoY5jWSi5MMZS8XlWFyNBTp2lvOpgnkRcBw+pb8RBSy5KPs3nqai+KOqbLOhaxYYke/777/xXfPe+r+DipXMUHCZmBIIWUh2mxgUhs+B3+jqTc2BkLIyR8RDli9wlr+FFlp1KEKy2o6LWTqUPU8kJsmRpZpp3WqM8pejrHzTzKErL3ehYUSOjbg44J4ZSceniIIVoKoSe/suYDannny4EEnxvEg7WQ11jCarqvEhkZpGiYqZpIDLKGFEkQ9Zx6mw3pqblYtIhYt6kWCXleq4G3oCYCbWJUk31Z9olfHk15mb8OHUigmeeTtASAoP9AQwPBQlqlXQJfWQobpw4Rvb4Qgb7Xo7ixee1r2kKTz85gosX5imbpWRvXpbTx3ZW57EHkZSFZXZhYHAG4xNxUOfMjNEkX1/fQvCu8iHNukkJGNlOOasMQSmBiVa8O4lvfvsQnn4mQXktY7nbqdi1zHkZy1kBOxmr298Ef3AlPfEmFr2Zbd3I8pRhdhY4dBg0mhmcORchoBNEqAONrV6U12ThCszA5tKZMAW5KciQy5Sh90oCD3z/PJ58Ko3zF3J0LVn+MdbDRBUZWgN1rI6svIKuXRXZHr8fD2BysoTufZDv8WNkwo3RKRfGZhyYpwvuo4+1an0bVqzcQPe9jHUkMJUEvXH4sYdHXwcUFJGMoIvpa4ZaigIwMTGNE8dP0XqMorFRIwP1GB69jAd/8E00NAXR3t5Auk5/NZfG2bOnSec7aElrMD09jUNHXmLNUCk3tGLlyjpaUM16m6G1n6YlmTWWQb3K6vMQWkvB1c9QmJ0nTVUnZ4JUjQpMhXXRWnuCVpRWeuk/JjAzbkNzcw2WLa+gYlDhzH6TcTYIBYKVlDWzfPzMQgWpeQX2PnuJoDeCAIV56+4aPuskA0jB7YgRkCL0YbXmhO4XgVLoL5oo6yG6rSAro8YWbRW6221egpP22dTkMwpr3I+eS7Rqc06UVebR3E6f2R1FPD1BEE3C4wkyTymCVYr1OcgyVaK6tgqVlZVkA5JusjkmrDkUGb5Ek7NmZ+MU4pdZlydoMako6udhPclSbtrqxPbramkhI3wuxByqc1gLyfzMcxAPPXwQxHe0dbbijns+iLIq+sREO3IWpqFNfGmFpkfZlvfTEFw0LqY67BRJDLFnzwqs3eiF0z9IkJkkIMmMqX6o8NNePPbEOYJFFpGwGF2WIGtHU7MVd9y9Gs1ttL7uOT4zxTbU6FEVYpFyWlErXn5+lhQ6jM2bPoAN6z6A1av2UG52o61Vk6UaqDBZugJpshMfjUwcml/mJ860tJWjvbPBzCExRzGY9tCO6m66eV48/tgFXDjH/KhrieCt3cluua0B6zcFCaoss531Z83Q0nuQsYjd+HDoQIgKGyLDrcG2LZ/Gdbs/hNXrbsSqtbuxYfMerFm/C2vX7aF7fTNWrNiOjRtuxNo1e8hsVhj21Ee3TcspxGLEOLWZ8tbtAey8vhpV9RqJUvlnKTPKL/mas4wuYSWOHAzhe/fNUeZ8WLPhY6yLu9DRsQvLl11Pt2UP2lp2ob1tB1atvAmdHTvRteJ6dC7bwTrYTJa3CctXbsPyFVvRvmwjOldsZJ53YMu267F1225UVlQZRiH3IyVBfoPwjuZRyJ6lmbDdLn/eTeHPEtVGiWijhk3U11ehrq6CFTSNJ558iJS01Gyhr6nBovznz5+DdsqenqKbMDpGn5xoSjeic1kbVnY1oqG2hGlOk2ZNsRDq6JRy0BVZOE1MiiIGUgiaV6CoPhN1ShIIdD+BpSRYivCMlb5shJQ/hM2blyEYpIUhuKVpXSx5+oZoICBVIZOqoGV30xpN46EfXjTUcMVqB9ZtqoPXQ1pMFuFx04I6k2xIdbCyHoRXysdCXiSQAgcF/mTyKNfMbqdlo8VPpQgUCTKClCxFHDOkgGVVVrQTwHIWspNUBF6/C8HSNvr99aSqEbpAEwSvHMG2kVZgNWKkME6Xk6xKfS1sB0qdWEpf3wSefXofTp46g1i8MLoj0tHSToHc4acAl5rxeLtd05RZhpw6yCoxPmLFow93m+MB1q3fjVtu/TDfXcmy0fLzn0BZC5V6e3rwxOOP0pIPs77U0abdzEHhdGDXzg50rqRw+8epXAQhDW1Q2FOJWgwN2mkNe9FLjySeYIXQYvu8OaxZU4Ibb24kgyL4O2fZitN8jqwnX0E3yInTp0LYv08ns1XgV3/tN3H3+z9MsNtO0NtIhd6AWCrJNNVnMk56T6Um+Gtr0rZl2h3Mh5ZOL1lZjkxLdZFmugHKpgeDA0k8+0wv+vuotCJpLJ+m3t95VxPWrOMz/JyzRJgftaef9evGYJ8Vr7w4RLBI447bP4APffCLuOnm27F5K/OzZQc2b9mKNWvXMW7Ehg1bGTdh48YtLCNd1pIy9PYNE2D7yAq16LAgLv4AcMvt1di4uRyB4AzfM0kAibJ9yJqtlbynGuPDfrz84jheeSWKm2+/DR/86C/j1lvvwBa+c9PGbQSjrVi/fjM2bd6C7dt3muuWrduwdv16ul9rmfZmbNuxi/W1GWs3sN42bCGobWU7b0I5mYWD+iugUPyZzKOQCLldXtPZIo3QNFOdrdHc0oQqWqMMJSlKTaura8AGFmRyfNb44xXl9EfJ+X0+Hy3gFF5+5QUcP7kPN998HVatXkVFypKizhHdZCW1i7WLDcxCaK0AXRAt4ipoZqGy9VF+WOGkL1n5ECmcJr3M0KVJ8H0WLOuoQVNDBU4enyR9DWNyjFQ31YqSwA66EDvgDFwHr3MzmUcNzp+JYv/LF3mPpjvTBVhej9ISWcZpuh1RspEkG1JTaQvsQXmQiydQSBGb5HLos9iEribI7SjkllF9C6QejNoyT7M3Z2bDmJqap6BYUFVdx/rxUEBz9PvLcfc9N6Oi0oKevvPo6bmk1CTZJsr1MDt+G78dGBmexujYPKJRNTjvUQszVtWS4jf44PYy7w66CwQJzfWwa/ctkKoOJ03HWsBbg7qaZfD7qlk2ArFZJMGysmDh2Sj6Lw9gZmKGbIhfs6yaHCnZamgKmOnGNmeaRWWBSK+yLF/O4kOMrtXIWBQ0pjBbmWq/UtaRKHb78nKCJGuDTAo2ghrLrBERGw1Phr7PDF2yiekEgpUVWLNpLTrXtKGmuQoV9eWobamF1W1DgqwrqUV+/EdyBS1LKSfDCVa56TZEkcppSnjKAJd2O8uwjodGJukOF0BCz8j10BaE1fUBKjW/o+ORpBzm6dPnyTLzNCbaDX18MmEmTLV1rKWcdxGEKJ/8WzKYydIApK1Ist4yqjNWvNo2ldP8nQz6B6bIuCMEfKavKuI7S4Kgm9zAd/JdlhBlptC/pZWt+Zyfhq2EbNuB4UENrbKeGzrR0tpCnaoznZCVVWUor/CRlTPWBpieA8FyL0HHh4rqKgJwC2MrjXQD67CWrmcDaupbKGPNKCmrIjPW7msFNvFW4R3OzFSgT5mmf8PaLnTWec3sx2RKwpg2i5paWhsNhX7llZdpkfooCOrNdVKY44jHE7zHS0Rch5tuuYVCPsVKjaO2ugSd7XWkXhQAuR5Z9VBrd6soPD5NWU6zgVmlbCBZbDVUMWp1n1YbStF0Roj6NeanLRjp06zKMH39S/TtLpMCp0hv84iFHTh/YpjWPYz9B06RSXTzmiXyAtddvxoNdDnc3ijWdDYx8Tmy6Shfy4olO9AmNVplqUlVWpouSyHBkbBrwY4yJMYhoNO8e52cnoxr818b2UyA/vUQKbwLHV3VWL6qkb7/FMEiTSaTZLkLayQUe67MYHIigfaOLtx86+10cbQfBaki71X6DgKFporve/kYXn7pEAYHe9g2KQJngX1t3WbB9h11pPo5phejkseokwSKfLVZB3P04BBeeGECsWieQBwkY8ng9OmTOHfmGNvsHC5dPIsjhw/i4IEX6VoeYN2xDVnXwicSRFq4GmzYSEGs4fuck1SSBOvCzjyWYG6mDCePhfHkk1OGfptNiAVeJDN33dVOy+dBoJSuCrRylFoEHRZdYYajTxybIPOM0Cpehz033UrFLCPYxAz7jCVj+M5936Hff5hMaNp06NkcWQIPcMONbuzc3YbySim86DyNCK1JPhdEOOTAoYMDLEucSliQHzfLsG59EDffVIfGBgFWgsoeY3oEipyHcmrDpfNz2PvMJMZpQHS2jMsZpLxO4mJ3D670XCEQdKOv/xLZVi+ZdR/ZCr+/coW/9eHU6XM4fOgkhodGWT4Nk+dM/1YtAfzuu5vpmiRpHCYoI2RE/M1p19RzuknxEvReTuG5vUx3WMywlgbQRndrkG7ZGVw4f5py20356EFv7xUTT50+zms3Rkb7MEd50hC521s4NkLzYCihEP5rprCDBkyTDotA8WaM4prXerxxEOVlwkxBnZpSHr1cyiGKOjMzDr/fjeVdrSzkFTz19MM4Q8GbmR0jqiexY8dWorCGJi2k2aLElfjmdx6ikqTwofdvwqc/uQcVwTk27FFW3ABfM0bEHWGFZggSBCfpqsmFekvUb1L8xCzo+7wOvqlkZfsxN1GJCydS9C+PYHScP/JZTR0u0VA7i6BqIlM3QqNNbsspxNt3iuY3wVcqUJpBaZBly0kgI1SSUiqbn8xnmla/jFY0RcuhTtUMLTbTFLMgQCmHZq9DvkEHIcvViYbUZ+JBIlqDHzx4DlcuJ7FybRVuuXM9ktkZ+tR5s9YhT98+n6mmNcnj6//nWYwO5fGxe38Z/+aP/pTKqJLKmvNFzLNGQmJkEf/t//sbfPub38eFC6eppAWG5fEDn/2VIO79hQ6sWBWlS0HfOzlPkCBjSC7D+GAJHrj/FL77vTnMzbPsNUGU1zaZtk0lQnS5aMooYPPzcUzNTGJ4JGsspSaLaWhP22N8+cuduOGGTlpk1o2bfJ5uWTrrJkhVoPdiBb7/3QH81V9dQpg6qLqRkqxcDvybf7MHO6+z0gJeYtvOsR7pImTLqSQrcPhgAvd97wIO7I/hC1/81/jQRz6BmrpmllsjU0nK0Rx+51/8Hl2I5zA/G6PQF9pdHddf/HU/PnrvBgLFLJnAqPneoXUzyUb099rw1f9zAD/8ARnYEH8g2JWwvT/2sRZ87peasGo5BcSeRSafoCvsp6vkJKBk8Sxdp7/+HwmMUmHbWywoL11FuXca5iF30+mWFBUmwKl1tCYpq8l88GI+REbRO0V3KkTgifP3BNlAjuAN/Ns/vgstbXM0gN0Ee80disPlKKOs1NOo1NLVmcN/+4ujdCfJKFrYPmQRMrSJuIyE5oZ4YdfWAMoEhSKW4PNkpG6PlwyjAo3N7XRTrsP6jTvIPFqpEx7DBNWnptm6ZhBtIbzZWo9Ft/z4QRBjNhkhUguQhFxajeikENfVk/bU1xEo1HvtRGP9ctx1+y/gfXd9Eh2tmyj885gYJy2kv6pRjLGxMVqcp4mOI/xtlj6thjJp9exaQamp1AU/WXtXCCTU8lIUfRAg6B2FSOkt/ECFpkDTr7YSjCrLLPTPK/HRj3fSIoMWqjAUJgAlqWG6fA8Fqa7BRcFtwq23L8O6DTWkbDF43YyUQu3wranYBpzIJvKZUsTDWgWohVsBNpRPHoYBG4GlaK7ZV0FRzwjc5CerL4XlsdIPTWXoy2uRD+mf9tjI58rJWDRtuoGW2ImzZ0aw99mDdNEiaG1rQ1tbK9MuuD0KxkoQpLNmSHeevjeVMTzMfEbZuOqDgBmCrQwGUULmJgfIKkbH7zX7wcZGtDKxEq8b61bZsHolqSzrKpEYYn40fXqU+RliOsMEhRAaax3YvsWKPbtpta8Ddu0Cdu7UkYdOlJZqCn6E9U73g9pnhY91VGIs+NgIwZ11rTluqgy+DjV0D2pr3QQc+TFEqFzCTNzSXqB2KtfsZJLun9K0o629jfVFCbPE+TtlgHXWP9SNyZlhug8xVbeJYk9l5XShaAAcdLEsiDH9nFEGOmhmJ7DZqZiZ6GROYGReJLsej2g9qXtA83UIopYoXJQ1G4Hfqol4LFOJL482KurG9QQ6gnkkehah+RM0bOeptN2IzrPuQ9100S4iNHOR7XeBLPACzp4/gFOnjtDtnmYeCsvSrXRpSsliWpuqCdxuvk81RheMAmQhO1d7yvBqglhFlY9sk/JLmZVxyyZmKXfjlO0Z1u80mad2o+8h67lsYi47TFC/jJGRUzhz6jk89fg38L1v/0+88OxjGCTzydGFF6/QWhu57NcS3pHroYYRIbEZoBCGFjYWkQui2W+a7SUU97r9bDStLyhDU2MrqukvTU3O0iefpmAPmc7PgYEBUsw+soUq48NJkJoaytG1op6NPMV0x4nQdCqtISI3ZYoNbPCAlZ7Pa3ojQYJUN2/WI+gXSiQvSaKAplRrZyNt6d+5vAGNbeXYtLUNHSuCqGu2Yt2mBlr0BqxYU4cNW+uwita9sjqHsgotL6fbo+367XHmX923EaOkUoBUrMyAWTJFqshMOSg8oE8sYJcbIFeDmeEz/F5sh1GjRKmEw0RtXHLg0Ii2CEDnsg4CazPrJcbf3BgbTeHc2Qla1cs4e3qIStWBm2++B9ffcBMZTAOflVtFsCEw6R06X3RibAj3f/8bZHOnoCX9lry8ZK3tAK6/bhlBoBQBP8tCJbBk41IbCq7ggvfZM2hsrUDX6hp0rHahpctKwSyhJSrHhvVlWM3v16ypx8ZNjdi2vYn1V08L5cfatTYCqpXt5EcwSCUmmMA6TwBTP4yfVtGL7otJvLC3z3Qgik2oOqqpzJs2+HHbraupnDqCYYz5paJoYkSmisLcioMvT7L8k6TG9bT2nyPLqyUT0WlwLkTomr384kGm+zLBZJrtQWFmupKbjRvpam2tpaxpk58Iy8u6z2mTHDE5Ly6epQvx1Kzpg9IsVDtFp5ouwJ13dGHVsjyCXlIGoprqL28WLGmWLmWIUetLNrLcq1aXMFZh3bpqulx1dJ2rsXJVqTmnds2aMn5fTlemhelWEEwifFeSeWQ6dIW1ytNJdGppseG6Xa10Y8rpvmpxmdZmSLjE0mWOCB4ujQbl4Ankycx9WLXCi1VdfqxZ7cemTaXYvCmItWsCfC+/X+Xju/10mSvQ2ell+m4zyS40l6DrSPCYHTXbGTTUNJn1VFIRA7AUkqJj8WajHu/Y9VDUak6jCAWV4FUwZaGQEDo0Ru+mUpDqCLlFdyQs2r3nxZeewiOP3sfPAxT+INo61lPhGvDSS8cQi5zDjTe04V//4Yfg8l5GMnqQfuklCqLcGS3/1qxQ1aeH14ABCPNyCb0UgVFTsz1UYHW6pdMeKrQb0XgeATqxNlKzNIVB0eUsMelkUlQbncol2pmeYhxjfsNG2SwUGO0ApQ4oyU4q0oDwVC2GhiYQiowTZJpQ3ZRG1jZoBC/NcmvDFLEgsz2cBI91FKcVm592IDKjowKD+PrfX6H1s2Dr5hvQ0rwC58/2Y5zgc+JYN/3PUQKLFTt33Izrdt+K63ffhtb25QQtTZbKG0BW5gRcc/QZTpzYhz/4/X/G5/qNAohNqL5vvtmDX/nczbiefnug5DwtMhlHNkzFUV2RblhIc5OkyHQTLM5yZJx0G+ij++BhldKaikJnAqwPP10r2mW5PeoczNOiga4S3YVcZpbl00iHvk8RwILMex0pdxmefCSM//4Xp9FzucDg1I+zsgu4995O/LN/dh28/ot8jryaabvYXulEEyZGO/C//vo4nnj6Mst8K/6fv/gKaptoNChLkrTxqQn81V/+Fb7+d1/DcP8QqyELJ6W+oiKHz/xKEz7w4XqCF42VQxO/RPV9NDglvNeLJx69gv/x3yZYz4XOTA9Jb9d6G/7kTz6AbetGUeY7ZGRUw7SpDNtRezh4WJ6cE/PhNOuwhsBsYxvTKFnEiCR/hV3dtLxbM3sVYanC3hdG8D//9wt44uFxxNQFA7eRJ5/DhS3bbHQJ1+H2OyvpJpyH23uBz0s/tOKY9UR3z0rZhK2Ecqr5PWWwZ3ywUpYNe9KCKBlnNnZhBbfaRbrnoDGtZAHcZOYE6RfO42tfPYQhVsWO7Tfjlz79Jdx40wfIgngngdXiFCgVQiTGL98gKM/vKBSspTKnz4xEwmRKPeqakcYMuxym0osgoWkXEuwaoto9d38E//E//jn+/M//Er//+3+M3/z138Gv/uoXKdi3ElxKcOlSP7ovDyMS0mY4QfgCNURdHxtLymdeyUDLLeutmNeVeWGjyTrJR4hFtf+gJgVpR604SspSBJlBCgBrzUbLYR9ANHUOMUbYtTlOH+YiBKYMqV1Os+TSpk/ErKpi/pV8lhYtnvRiLuQi7SzBQF+KaK0Nbp2MQq9CxQqoTMeqiXyWScg3jMWydA9yVO6s6UybmMyjt28Ohw714Pvffwnf+daLZFk5Wq6b8Plf/TKV6cv4wPvvRX0D/XOVi/85HDYqHGtf2VK9smL7+/oQjmgT4cJ3eqc6G6sqfPSnyexorG10fbLa14Df6z65PtqQ2KEpy9YhJHIXkcyeRSp/CnP5/Yilj7MezpHqU5lt3UhlWVfxswS8i1QUraKkWWa0kvVZCRRax2JMD41HngCTJDDPzcRJwQmeLDurgupHRfFqnYHbDJFq3othNQJ7zRQlKI2PxDE1rhWZZaT7K2gBq2mNnUZ+YtGk2btD2+9pDYfT4SG4a5qz0pCbFUBFaQAB0gsXC5pJ0VXJaF8GF5XDgdnpPAGMryJoiZBpzk0Z66e2MmAWhklw5AI5WIlKUyNEmXSY1znKAhmltma0EZxsLL+th8bjCgGplwDaT/kcpHHoJ5BconxcpEt9GdOTyicIgowa9qRyay+LVFp7oWjEysPnCodDJTVqotmYfL/dQRAgGCfTWm8yiETyAg3EZeblChnjZaRjlxENXWB9XGL5+gnYQ2xfynDqPN3hY0znDKqr47j99jX42EfXorGBsjbWg4sXTiI2HzXlFjCJKxTjmwXJ8zsI4g5UThNFNQs9+9psRbMPzR0SWH40FJmfxcY1zi3LHKDf3NzSiRUrNpIqbUJVVSMpdjm2bVtldpoeG5/DAw/uZUXR4tE6JZIVrOAqplXKQhEKaYH0Zjt9Vqc1RQEk9aVvbtNSdDaGnQ0tz0+96BQnA15aXGa30cLkaQEzc7Bno3Dk6VdntBJxnsIRZ5qFERv1ECc15yHLzGttiN2BWK4U07EgpsNlmJgpxZmzETzzLHDwQB/GhtQfwnwJLGgSbPS5RfHzGpnIsiGoOLL0eVHrVBMunsnh8iXg+FHNJryM+76njl4/Vq/Zgzvu/AQ+8tHP4n0f+AQp7iaUV9aaoVQbFULtqUYtgoGAKR6P4lJ3Hy2CEwkqE7HYuDSKy7rKSIHlRpEl0X1zuCmoBL4sqybndCFFVhGnxUrSjUuKPQhoCf4ZnbqWjREYo0hrGXpm0Iz+OJwsk1bxsj49Nip2gvVMpRNr1gRXKVmWdWCj4M9OZwl6cTMl3myuQ2BTf4E6i5vbyfLyQ9TIMCyOtJlJmiDYahakhlNDYc2BqUBrRwuVUAxSbSJLkzLL6Af6eqGT7NUhrqnqmuxWSZemvTmAMr+GdLXcWqtIBfSakRpAKOZAz2AC9BYLI8zMq+j5svZqAqn6JFhxdFPkxmqESjtf5SmsCc1VoVQ52QYxunlZAQjzos7HDOVIZ81oEaM2Ztapb2KfKTKOK5dDmJ4oLDwTE81QNs0eoO40wvSxL10ZZrkryOZa6Ah28h1N9KYrkbGQwdGlzrNNjPGjtZWcZzLzNFZ6X5wAESaQOuB1eukp5RALz1LGKMN2rayeYt4IMHm6G744Nm/pREWVBbOhMQyP9vBd9O+lGtJJtnUxvlngbe80KHElIyQw3TG0EEQC/q06lwmxqPb5sxpGQCHhLe5EbKFP6iC9cjpZWayUdDqGrq5GrFm7ioDjw/4D53Hy1ATC0TI2eDMf0EYxpMjavYiNmU2pk0xCm6AuF6KdUqtXilWogxEWAYuLlcaWyicJFElmJ8lnChvvulhtfhdZUGqCkYqkdSb8Xp2osJDmM19xylo048Bcwof+CQdOXYzhlYPjeOa5fvT2CqmprGE7wcYHF8vvYrWoBhaKbjrxUrSucm/ymUpE5ytx/kwGk6P6voV5XUX/dwN27ryXAPHPcM/7Po0du+5Ae+daUnNqFVmMhemq81LtWQAKlU8CSKGbn0P/wChiCS+zXv4qUGhCT0OTC8GgNjGmL485ZiiDJBUly99zFLKUTUcQlMLuKSOIa1zdSVh1wE367HFTObRS10m3wj5JhZ2FyxWHm9ZOVN+SsZMK22Cji6QO0oIUMJDhaQ3J9FSKdZOkdZNjyjbjT5rmXlZhQ0VtDmnLKBUxxKgZtlrL4zf3jU8IKDJkkaVobm0ks2N5rNrdKUOLGaPPP4K+nm4CpCZFFfxqWciGOsYaJ0qoiNYcQUKdmXSVLFJ2tt80iz84mjXTtVVHyrDc9Y7WCpTopDVTodr0lrKlIW0ZPc2zZgYsBA27VW6Ij386yXptjBamryMsE4yUJ7u2EWApWZZUyk66r71BKN+GNShNJs9XaPvSKbKaE2cu49T5cUyHAgSvDtZzB1y+drrG1cxzgM/54HXTCaSRcpIuaXs+ty9Do0FNI+I63B62mZtyJ0bFd6sTm0Bi1xJ76ziBa5SgNU5Dw3Z0a5e2hNl4KE8dKEyIU99ZASR+xkBxrUEisjguDsogBYlIIhSvKK/DmtVbsHLFJszNZvH9+/disD9J2tZM+tlCYKDi5LTikVSffkyarCCtvSos2gaN9FPWg2llSOPUwaoxcS2E4kOFt/H1JhY/8+p2eAtzKhjtVi3pLaOgV7Mem/i+eip2BcIzVRjtD6L7jAsHXhnC008fw5FjQFOrxrdLECijwlCB7DRtDgqGhezCQqugSU25jAeReW2SQ4FIuDA6HEH3pREKqQ/bt++mv/5JfOELv45Pf/qzuOWW27F69VpUVmpVH4HlddWlBqUFV6YXftAeGJoCPzIywvqT0hQaXO5FTQ2VMqh9Evkcm1s+slykXIa+cr4O2UQz5qfrEJltQSK8DOHpDsyOtyA0087vViIcWksrtJ73rEd0bj1Gh5poIRtZlka6T+Wk8DQK1jLWrM+4ZXJnjAJavXTPrBifjJF5sX345ULtw+93IFhWRmGnv60RGz6j3yw25knzB4hg45PzdDHjcHn9qG3QNGy+h4qhuTPhWBhDI4MYmxyh60QLrfkyBD3pc32zjUzVQUDjCwlw2jRXcyHAtMPRHCamwgQL0n7+TOynYhJMy+ieNVjYfnSbNGOVCpdT/4AtSPmpIjDVUS5ayI6amK9G1tM6hKZXMK4m9V9jlpfPTizDzEQH5qY7+X0npsZaCBJ+M73cyoZoamlGZ9dyur5kKNS6ON2LqRng7PkMHnroEI4emaLr6MTkeDVCc22Ym2J6412Ym1yHyMwWRGd3MM211Ic1mAt3EUQ7WQ/tfF8Vo+qsHC5PDdN2kYHrIGyNrKk3RzOAyYa0ZEBqQOPpsGu1n920lXFlryH8FCZc/fSCFMBBKqw+jbJgGbQ1/SsvvYh9L19BS1MZmps1jZrILuIU0yYlWdIqu7lq7YNO6TLHBbD18zl1+PFvY+bk9PGz3mGi/r2mffqUSGRJj+XvBvneRvqvpOOk8emkOvF89Am9mKWr8dILUzh1LEW3YQqDfQQYehq//psrcfNtnahvYlqWcUSjOktEPf4UiryWavuZXxufp+BayjE97sPh/aN47vkw7rrnbvzipz6Pu+66C+vWrTPrXjRjtRg0EabAHgQOr2/Uok85Pz+P06dP4/77H0SIvqf2T7RaEggwmbVrLLj1ltWor9N+iUmmEWd5tNCuES5HCyZGfDhyIIRzp6O4cinFaxjdF0nre2Pm7+OHw7h4Lk+hd2JsxItLF+L8LWUs5TSVTnS6vrGa4BBj2eO0lmQFmtRjpQCHSrBv/zAOHpzD6JhqXFPO02huqsC2HbXYuqOe1lFrbUinzSQ2AiOkKD489dQ59Pen0L5sDe6858N0QcqpDOoRl4LN4NiJ4zh4+CAtJNuW1aK+GO2UdeNNtdiytQ7awzSt7Q7pNuUsBGxbHZXchqNHJ7DvlWkqmtoKoCeBrtXADTfXoKVNQD5CUSHzspYQbCr5zgr09edx9lwCJ4/NMxLgL2Rw7iTr6XwKvd1p9LCeLpyL0fdPoO9KDr1X8vw7jiNHJnHgUD9qG7voSt6BXbuvo2sYxfTMGOKUN9VdmC7Z8PAsxsmQeq6M49JF7RwWYtpRXDgTx5ULefRfdmKgx83fcjh/KYLz3fM0MnFc7ma8PM3ntWmPE8EKIqU1RqBQvxPNgsaKc1VIxEoxOWHHs89c4Ocg1q/bhZ27bqUhUWc7K2GRWP1M1nr89EMhx7Ki2ulKw6vqSe69cgojg8MUbieWdSzj1U5QmDc0T7smW22a9qqhWSkPI2kvtFpQQ3TaoVmuBO+QRTXvIKUU5zRvE6UwTEb+s51+nwPRsAMVZcuo7LVUBit6Ls/i2LF+PP7IZRw5RKU8HmHD0SIx6aYWUJCbUdeUJqKT6jroP6rXMucngpPxkJqnGdUBG0+I65ca4XrlBbkseXz44x+l0txopuQKDDQ5ywwtLoCCmcW68HcRGK7+PDk5icOHD+ORRx8ju2Cm1KlnTZmJULt2VmH3dS0oL0/wO7po1gJQZDMa2rXhhecG8fX/cx5PPjaCQwf6yJQGzZDk4UPTeO7ZGZZ3DkcPT/I6jEP7Bwnco/xtDIcOjVOBSG9tU6hrCMLuTrGuCRSs27y2yHfUYmzcgRdf7sXx4xkCGLPFPDscGazoqsT26+qwdgOfc83T+s3wGW0rR8BJl2OAAPHIw0cRifqxcfMu3HDTnaTNXroLKSp/GhcvXsSDD/7AgKO8STWkVgZXVWmtRjtWrArA7ZlGSgAkYKTbqY19e3qTOHhgiG0ZhapJbkd5JcF0I+vphmqUlcdJWkTb42QiQYIXQX3WjYcfOYMfPNiP5/dO4szJcRw/OokXn++jARvEwf2a4TmAV14eJgARFA/0Exj7sZ/f7z/Yi+GxNJavWonbb78Du6+/gUZNmwKLy0heo5S3nBkJG6d7dvHiPE6dmMLJ42M4e3oMR+ja7le6L/Wzbcbw8is9OHpyCIdOsD2OMB+87/ixSYyMzTHvOTS0lJip8KpLOfZGhHK1SCcqcO7MHNu6n0awg/m4E+vW7yC40I1dUIlieE8AhWiQKJkZ16VSC+wqyrWHZISuxzBprrbz8putu7TRifbp1Nbq6az2DszRAug5NoFZH+0lO5F1E98qzJQzkiG/U3Mt1MNOkNCGNfKqbURXbWIyPEQU79a+iKW4cCGE/a/048D+K2y8CAEL8Lg6SQ81uhHBsmWl+OjHN+K6G7SsmM6vdpy2FqysgCqddiGRzNGKpDE3R0WilYrHnTh7ch7Hj2jT2TJ86COfxrIVhU1iCtsGCvw0iUotyCyytYufF4ciyxCQDA0NUTD3m60FCzsx02cmgEpxbrq5Eus3lJLuT/P9IdJgWnDWj91WbTbj2U/hPnAgAR8pfmvLOtTXrzIT5WpqKsxs2YaGLt5fSgqdJDVOmFEaNgfdEVpjP7BqnQddq2rpIrDhbBEqJd0+ujcOZy16eP+LLw/g3IUC1ZZWq39i3To/tu2qQsdyG/Mzw/aaZVvTbbRUsd79VJJJ7N07SobQjJ3X32JmFGoyXLFf69y583johw8zL7PMm77Jm/kTOibh7ntWoLnFCqdnssBybJrgRtDOVBNY5qjMA7T2mi1bcM0a+czWHT5s21nDOgpTHihLBJccgpSrIIHChR8+dB4nT7B4tNCrVt1Ml7CLddSJxgbGxnY0NXWgvqENNXWKy1Fbtxp19YyNK7B6/Xpcd/1ubN68HW1ty1BT3cBnW1nXy/l3F5Z3tmPD+rXo6upCW2urmWfU1NiB9tYNbINlqK7qRE3tCtTWrKBrVY4rQ+PoHc1gagqmLeS+aCZw14o8AUnuR2GfFiPbMoLZOiRj1XjxuSsE/Gm0NG+jTLyP7vIy9e/yvoW4EN4bQMEca+ntQtuzIa20iqVEeSdGhiapqPRLh0Pwky82NNSy4XK8LcZSzNOaaQt7PsRC68BhjZvLDREd1rUQpHACCdYsHLxH9+s3Cix92HxOW7XlSb3juHR+FnufIUCcmDVDey5HDTrarsPyjtswPkpXJTmHVatb8clP34TGVs0W7aMwShm1+a+2cyul2+JENJ6ma5AwHXMudyUmJtM4cWQG/aSoW7fejjvu/hBq6bMIHKT0ivosICiyhjcDCoGI+icuXbqEF198EadPneQvcr+0XoNK0AhS3hp0dtLV8EywLtShqaX4WshXS4UJ4cC+MZYnj9tv/WXcftunsH3bPdi4cRfBZRcV+kasX38bLX4lhgZjGBgJs32UvqakA60douwd6FxeAZ3hocOUtCmNSd9eg5NU+FcOTKOXLlpa1cyHAqT627Z6sWV7FWoa1GazLEuEbUl3KV+FSNhlgPnQoSja2ldi1/W3orltBS28pijLkMRx7OhxPPzwIyx7YfMWvhglJTkqiwW337EaFdpz0jlKokhXy868WkrJ5qqoKFMEigkyFtUfJYGgtWw5yG6qsW6jj+A2Q7ctxLZjexIoNNo2MenC449dYb7c2LLlffjYx34ba9buwaZNN1DBr6Nl1sFNmh59A1av2Y3V627A2vV7+DcBbtN1BKHtBNMu1NY20BiU0KUOEgDa0dy4jOx4Net4G9NlWut2sq6v4/V6ugbXm+Xpa1bvxrq1/JvprV69C96SepzuHjBHW2hUSXNStJeGWO3mrQEsXxkk85qm/uhYA9YLQzZVh8hcOR754Un09iSZ3l3YQ4YWLC+nzvCGawSKH5XAf8QgqqQTwo1aU+mdHgccLgc2bNzExllPC23DSy+dpDV5EWc1EjLnh9PeCq9rGStEy9kdhk3YyEOtTvVsawcs1uSrFVGsFRZbPUoKAgoKvo6OczitpHBlzIMTJ05G8NxzoIIAdTVrccftv4zPfe53cf0Ne2g1NF2bAkhp83jLKKw+MoEgYwkr2kukLiX2OJDmv0Qmjlg6ikQ6xbxZMT4xT39dDKgE27bvIeA1kzZryDNvXAyBhIL+FsMw60Qk1QxSFAWBSTHotCdNfx8cHOTvGvcX7NHaUwkqypn3OgKtU+6XKKk2ktHJU2QiZG9aQTk8moS/pAK33H4X7rz7/bjl7htw8x134JY77sY9H/wgbrrtRrQvayRjUL4EzMwX36H+wXIylvqmCrh9fCNfbDrGRPNzJcgkfRgdimKOVk/KbLLOqBGG2jo+W8Y/tetUTiNQVjjUj0AAT0TSGOibYHtq9mY1airUoWw1o0bkfZifjmJ0cAJzk2RuGrqRZeELtPdoU0MZ01c+oyxfhO/UJDcyMovmUlgxO53AHC2wsQ1Kj/mpKAuiuqISOjmNKMH/CnN0cixHhoxwcjJhFrLV1XVg13U34rY7bsVtd16Pm2/bhRtv24o9t2zFDbdsw55bd7Ku+P2te3DTLTsY1+LmWzZh9+5tWLG8C6UBrQ1SwqyDgB2tzVXYuL4Lu3duwPYta7Fj22Zcfx3TuJlp3LyHAMk0b9zBdtmJW+/cBm3w1LGsnqxHo3heFqBQp2rr+lq6XZXldJVVBrYRy6Zua/IqGisby60drUJ0+3yoqmlAKUFCpNtgrEnp7cO7CigUpBLadaow+6/Qa13f3IjKKlLDQDnUd3X40BU88tB+HDs8iukJ3pxtZgPXkraK7lPpWIPaNCWdK/hqJtFikDCbYheLXpAazSbUJjQ1NVW0MivMQTmKK1eupt/7aXziF36bFmIPfAEPMWYe0cQsFX4cly8PI53yo7J0NYW/i9a/irLroTXK8Z4wgYKMR2sN3HZjVUdGZ82MQKcziPaOVXyvDbGY9gVNG+Yg0NBVoKEJa7ouBgtdFaUAipFIxIx2GKDgLeqm1eIonQhWTUWuri4hNS30HxigWJhlJGXXUv4ZuhBun58K31wYWeD3mhmoyUCaORBLzmB4vBsT0wN8O7XXkiElZ5FY7eWVblRW+whu/IJ1KNG0kk1Y6KokY14M9s1jjhRZSq/5EwIKnX7V3OQwIKZ1GJoqLaCwkQXmaQhi4SSGyECk+PW19VTiajO7VmXSnLfxoSkM9YwiHcshkyAjoWIIHINkKm2t1SgJyB2bZxnUqav5MKw7akU8ksWMlJ4eosNK95NpaXJVVVklIxkRM5ilibbbNJtTsye9SMTtuHB+iCxTBowgFCwjQ5xHIjWPnKap2yOUUzJWLY+3RPk5Q4teYCqyQ7L4WnCo3jAXGZGWEmjFrfKr3cc1eVNlSmoxIqtQ7fearLL2szECVpRtFUUoOoDunuNUemZGe5UKfPmMm+S4uaEClVR+pS2gUPrWvIZLKYdxK0ZH5o2bUlZeh8qaerj9HmjkP8N/Wgx/LeFdBRTEcmh7ea3A1LBXLKZ1Eyq9Bc303yoqK8349foN63D02Bk89NCzeOrJgzh/TusBWAkVyyi0FYjF6ZCQkju1tJElNNhgwmKAYDAtU7hqsVaawqVZQxVVQaxYtRI6tam3bxS9vdrGjw55jj7q2uXYtHUZgStIkBjF3/3t/Xj6qZPo66NHHNFUaG32Uo5ojN5uJEnAkPUN0J+vZKN7zXCvOvZg8cDp8tNF8NJvdxlwEACILaRSr53o/UZuRxEkFDTrdGZmxux4bgCE/3SUnnz2YIkDpSWaF8HvWS6Bpoxanm7X2DiBbjxuOvUCpRVm+bbOHpWA2yjBOqBG/GF0fBiXr5zD2IS2i84xzxYqCC0x66amtgReX55sSTsyJUx+dNKaJUu3i0AxPZZBZHYBKCjYKoqWltfVOhAs1ZwFzXfJMVKVdOwf6yoeSWCKQDrP5/p7L9A1eh6P/OB+fP3vvorvfvNbuP8738CRAy/BTmB30910ME+aP1HJdFub/UxX6ym0eE9Sw8A20zqPmak4xuk6aQNhWVrVqo51ra4oJVCQmbKONKXdopO1dHJ90oHovBV9V3Q4Nt24huUEouUGyLUzl0BTk560CpStQJWLG8OUZb7Uqa7zY/oHhvDSC3tp1H6IHzx4Hx64/z788IEH8SDjA/f/AD944If87RE88vB38fAPv0emrN+/je/f91U88dh38cQT38Wjj30LDz/6DTz6xDfx1FPfYznoN5GF8eVsRZaBIl7DMpQSWXUsgy1vZ72ydDkibVYd6mRF2u6Pj2jSXok5xo4/C9gF8EKqawg/sz6KojC/Ubw6FK2lgXmzOpQSw690wLHTTn8/l0d/3xUcO/YykbGXPtY6NDR72ShT6OmfQG//gKG05ZReWehM2kJFo3WjZGomptLX7k+awKWt7x0OJ6PgPME0aMn5Uau17TRbpm8h5WYaPipgDn29s8aadHVtQnU9gcoj5kGBYB1PT84TREYwMjRiFt5oD4kMNdFq9SE8r+XGLgMwWhhls9YR3YM4dmTE7C9QHmzD+97/UVTVVlMpHQt5fa2OFv+tsBgwVJ5MRpOPrDh79qzpnzh16hQtKP18/nNQUBobctiytQE7drZRsNV3ME2GLtdGax7q6a9m8cLzY8bSrFt3C27Y8z64PH5TFxId7cep6cWnT5/F3mf2oudyv+krkpXWVPxVa0AqXouVq7Wh7SyBIGwmaGmb/OhsAOPDDjz12DkqGlUozjSZqJYm3Lgb2LG1CrXVpDy5CMFB56CwbSwOhGctuHRuCM8/l8Q8wXRurgfdl8/gyJF9OHz4RZw48SLOnH4F46N9hsbbqdxaJdq1ErjhBj/zU22mLFssE7SuWq5uJ5vwMf12HDs0j5dfGDHDl5oh67DlQBKFPTe0Y9MmP7zeQdbPjGE2Fj6TTTXQbSrFDx88TiZiw/atH8Z1O29ESQl9e/7TClbt7qnP0jzCHhtGGzYTbnLkStE4vvudb9GQPYz9Lz/Hdj+Ak8cP4jhl+MTxF/n5OX5+BkePPsk63ovjx59hfJoy/gyOHX+W9zyPI0efx7GjLxq5P3FiP3qvXCaQiqbk4GIbVJBFbVoH3HRDB7o6SszKV+Q1yYzgmA0yj1WU0TLs3zeOw0ensHnb9di84ybUtlQRJMQmUkZe2GpGriRrP5uTwn7CUBR+hVdBQoFAocNTrLI0dCA1m02NIDsZCodI+ULwluRR2+ShX7gBW3etNHsjXrgIPPb4FQr0cVohbcpSRitTzwaTP6dNWymTxn9WhyG/IkvRbD4t1FKQaycrabWrhzzGSozT/3aTxVCJaXWmZyZpUUn5NEeZ1mPNBin5PXjf++6l/7kTwwM2PK4p2N86iicevYQjh8YJbCkKC2k4alnGGgKHD6dPaXetBF0rDzro3lTX1VLJCiMci4Fh8fCowmKQKN4jxiGwUP/ExMSEqUdRf0XtTVBOy9HU2ERlotDQRzcnblt8rNtSgqCXViaNWfrrLvp5Tc20lO4SAxKqJnUmq69HC+3Ghidphal0orr8QRRZU6Vra32MXqavmYD8nYxCubSTKSHtx8xIBuEpOzJROhYyXBk36E2iuryCbgVfQKtojFmGOSaAIUVGpY1UyJ+XdQAb1heWoedzY1TgIcqClH8UNVVprFvtxa7tHvr1VJIbgbvuKcWNNzWgrU1qqyMKYgX6naORyfiRjDgwOhhGlG6WJk1qVSjfSDbhQXWlg24aQZcK5tD0fk20ypcgm/RiniA6MZyH30W2WtoKv6faPGdGzUxnuEpsSs2oOSIL060J2Ml4BPsIEC89/ywB6jl+fgmHDryMk1T42ZlzdDWv0Dh109JfYDteYuTf6V62Tb8pbzyu6elaM6Il5MN8yww62z3Ytt6HG7aV4pZdXtyxpwLvu20jVnXUoZzuhEMAQdc7lxSrCyKfKqcBIyvqY0EYGppbUFGjhX9Z8gkd0q3RHe1psUgH3yS8u+ZRqIOQGad4sEE8bDA2Cytela8TwI6f3Au3dx433boC7cs9aO1wmXMp58PzOH8e6O5OUrCmEQhUslHrWAEuuJyaL0+WknYbtKe2kD7bkEhGqAzqwORXAie2tRZZJRJ2E7W34tRUGmdp4bzeCmzesgdt7a28N0O/0E3q3Y6WxrVoaVpOxmDB0OAEXZEZDPQnMT01TZAgMY3RwqSrkIpX4NKFCB59+BgbLY22lnW46+6PYdf111M5+fLXMOFNQ7ExFwOIRjwOHDiAQ4cOmX4Ki6WwtLykNI21G0tw/Y0tqNMp67ZpsiB17mkI2M3nSvnMCI4eIQtwV+D6Gz5Id26rAQqTF8m+wCiTJyug1Tt4AhOTk6xbWlG2kfaW3HldCbZuL0dtnTY6mSGAxI0bYc1WIxULEhTH8NJLlwhiZD9SWlZ0aTCNW28tx5o1dgSDAi5NAFN701sms9BZGx6vB6XlMazf1IT1mzuxbnMjr43YsLmOsQobt1Rh05ZqbNpcSRcwiJ031GIjGcryFWyTMqaTnWK+CRRUAZtFZ3DUYWzEQ5YyjPNnYwiFNDQqtAC27yhhOerQ3Cx2MEjQU+cnmQ7raW7OS7Y2S7dyEPX1y7Fr14ewanVnQV5URxoyYHlhjh6gNdFeKIaN2Jl+BpNTo/j7v/8qjcgAkjHKnwwUn9NM2bvuWcc6b8fGTVUsZyndWa/Zy3Q9mc26DWVYt7GC12pGzTVp5LUJ69azPtbXYdOGSrKbCuzcVUMGVYf1G4NoasnDHQgzH5qTEoV2Vbfbawg2fpZhHk89fZ5uZQC33vEhrFi9Ed6ADLAcfa2PJcAZI1IwQG/GKN5lw6NE4oymY6co8Jr6LEpHYxPP4rvf/jrOnH8enV1ufPQXdqKkPASXf4o+chbl5REKHq3rCHD2NHDu9ATp4iwtUqvpBNWajRwbUCdWMWG6GOoL0JGCeTNRhyzRjEXL/dAEGPVxpAks4xNJCvw4gSKIrVtuRHtHJ314mUF1TFVRMKvR0bYS7W1rSHk1xJnB+PhlHDoIAkYCZ87M4OSxPhw9TKV5vhunT6ZRW9OC2279IG697U7mrbIodSr+W4biSEexQcU6NG372WefNUAxO6tdygtgUlkFbNlOoLipBTrANm/VsG2UaWiLOS2nLzez9M6dy6CuvhW33/ELZBU048yGGIUhMEwqHkni29+4D2dPXEIsQaBh+2hFbA3174abyqmwQZSWESTy0wRPAUsGiYgPE6N5PP7YIVJmsooIhYx17A+Wsv6suOeeFqxcRd/aL9ak9RF8H8HHLOpy2emKlaG1sw7tXTVoXV6Otq4AP/vQwXbv7HKZMzuWMy7rcmDZCgdWrQqivEZb/o0jnR1l+7GszLumzTuszZSfNgwO2On3HyPo0w3StBrquDoc735fI8GuwshPOtXP8ok2kYXYPKTsDhw+NIR9+7QZ8y7s2PF+AgoZRYGlM7CS1KFjFicyUr70t6ZIa5vG8YkBfP2rf4vQjPb/oEPj0ggZ6KrZ8enP3IQbbm7BmnV+rFnvZjlsWEmwWLHGQ0UuRdeqUqxYRXd3VSXdqmqsWFnFaw1WrizFWrp6y5dn0NySRl1DEsEKTQ0YpQutSHanKev2UspinVndfIIs9rkXRlFZ08R33om2ztXwkEVKUsRBtR+J6SN6G6CQSLxrgjLqorV2OlzMGBWblFXzh/r7B2mJ+8ToKKSl8JdSwb1UdFeIFWDDpm0d+NBHtuLeX6jHtq20T0ng2aem8df//Wk8+dh5nDg6TSuvDrpyVqKbgJBmhRIw5DTzneqsooxT4JULWZw4FWOGrGOGf/F7CrTx56icuazTgIi23df9oumdncvw4Q/9En7nS/8Bv//lv8CnP3kXGuoaSZCkNF70dGsxWAPuuvOD+NXP/Uvc8/570dTawnRN6nrpjx3EMNSJKddjbm7OAInyohbVWSDBCp2ixu9otdWJGU/oXFQ1dwCplIuCzDLx/sqqOlSL4xMgNGHQzGNhtjTyMTkxiaGBEQKGVubqn6kuqD+spERH8ykfhbkM2rpfowtacavtEKdn4mZ0RCXUuopkeo7sz45AGa0Z6z5Kah4KR3lN8L0kwHxpivWeys5RV+eRs40zDjD2Ugev0Gu8zOcK0eLohtXZzft6MRU7jqnwOXPEgTbfcdOt87gr6X7VsF0rMDPlwYVzc8bNUhubGmc1aHvAqtoAXB7CH4XM5fDC7dGiNa09sSIcS2BolHng/c1tbXRFKw2IqqPS1LOCpqqrVnST9EtX3mMWa9nVGa0+DH6dFXgUZo+2tFaSMeWZ1ynC7gAfHyCQ9vOqQ5S7kbexjDaW19bDfPaamLPqcCvFHsp9LxyeS7C5LtFQ9sFZMgGLe4LSOY0k3b8c2Y3FUU4WF0D/UARnLwwgRn3o7NJInvZflcukcSY3IcJr9OxawrsKKNSC6pG2y+0gCgsodLBO96UL9LVmESx1oamhxTRqNkXixAYzZ5U6cvAFrEThNtx0y07s3t2KhnoHrQLwxKPdeOyRKzh/TscV+kjB/RRG+mgUcJ10lUrpebYv3Zs8fWUz/ZstLoqt5clySRKJsFFK7aZlhZ+KoVmUvI1SoOXy2pi1ssZD+rsGN938AXz2s/8CXyJofPnLf4bf/u1/hy984V/i85//F/jiF3+HLscH0dGpPgH1nUiFry0UEX9xUN+ERjs0l0LAIWFUemUkKtW1lWRbfgqnn8JRzvosp/JUM9aa4wG02tXsVVFVjxLN9abY6iAfXWWSk6kowbmbIDTBeotBOy/Z1EvOLNTUWul61VAhq+nX17K6+MJcFdNuYn0GMTIaLWzLT+XRtqEmejJoIUsoq66A01NGRShlcwdZB2UU7EoqSw2vZbTpLgq5lVSZ5dFITaGDYyHSRSCjM1siKtJndLlLCIi1LGM9266GgFVF46Lh8g6CQxlOnpzFY0+cwMBwBjHmRys3tYlWc7uDblkrrXwFld/HMpaQjSijlaTvpZiezVDR6A5RHKrra1FSwUYWMLLOFAv5oYUpapBAQlGBBkBbNmo3coFShjWrrgvt7r1i9WrKqgBJAMX8sHjq/DQoxJvFhoxLo06hPNM3oyox/qQtE7Wh8Bzimo3MtsrSVVIfQ5LPpCxu5AgQeUcDv6nHhZ4Ynn+5G8dPTyIQtGH79h3UiQZ4tAqWhcombcRr9ce8F4GC2VHvhNZcqK4UckQLHX6j5cTqmHNoBmVWY+VUnAWal0zTN8vqLFArKTR9u/XrsHPH9di8caNRiGOH6Y7Q35ydo2pSagv7WNIIaEdstoXHLDTTqkoNi9EKs/W0nsQfcJEiA/PhWYLVJcxOk8YbgdDchoJcCChUi0rPQUpXVU3fc8NNuOP2T5FlfAG/+InfxGc+85u4997PYff1e9Da1sg0tasUHzDh2qBiMVAIFDI0j5q6LZdDnwvfMyts98pqJ/NRBp37YaVWWK0BKnoFYxUBtoxuURST45qrUEWfuZHKIiqq0R8BIyuELCQWm8P5C6cQjs4QVDWnQpydfj/T18K1YLCKzI8ABCkm082QllsamZegcdkGhwtAYbqFyMwDxJLG9kr60j4CQgkZgZa0VxEwKNxWpkNXzuoI8m8vq9fBK9tWisZojvuW4gkkqElm4Z+5kmZbtehO2who4puGphsI7OqX8OPYUYLEY2exb/8M6ImqhKDoGKBoam9GRXUt3AQKO8vhcNRQcQla1kqyHA9GxuMYouxo6//Sygp4SigjbOs8AULDouoIJE8ydWKCNEnNwzYwfWL8zez2xe+Ze2h7Ba0cbWvvIHNhnlmRVrO3iIbFaSB5g8511eHJNvp+6mAX2BSOoEgwFjrZtWdonmxF3SI5tlc8TxZGuci7aMBYlzNhH7r7Unj86TN47uUezMfohm67Dlu37UBlBZkW60wYxyY21XqNo6OmeO+eQG3LU7K02ErKKqF0uVVZKQpFiqyCVq5nEqNDpFhJCleO1iwbJGB4jLuiXYOisTFa6xj9u2rceru2l+tENEz3pS9mVunJBbPr2HltlstXirVopaf2TtChPIlYllZRe2C66LuWo6baAh28c+LYKYLNBbN9mDo/BQxiJbJ4pudYC89Y66KlAiIJjXxhHyl6XUMJrVepsTCmXYyQExCNZBWU/+3CYpDQBCzNn+jt7TVuR7GjU0Gjvl5XE+W3BrOTLkyNOjE54sLcZClmJkow3GfHxdNRc5J1eWkX6qpX0JcXo2CdUPrkswqIw6EYy3se0ShBWAdFk57LLVFfjttVS/eukukH6VpVY3q0CdMjLby2YXK4BmPDJYiwzjUDs6WthD54GX3wZVQ6Wuo5nYbuwRTzMztbSfemHGOjBJexMn6uwBT/Ds3UYGaykpGuwwSvOjZvnExovA6zYw2YHW3EzAjfOdqAob5SDFxxY7Bfbl45IqEG9F6x46UXh/GDHx7FM3t74A340basFctWrkRNI5kV3Q2Pn/fGnKbTMhyqNid+6+Tv2al69Pf60HPFhplpoKKyE4HSJthdDtN2WbZ1ZmHehK6agGaaUIZ5QZt0TEGG7FS7cBuyIJBjvTl0Ho3Vh1DIjtCsD9G5KsxO1CA02YzQeBtCY528KnZgnn/PTzQhNFHHqHsq2Ia1CE+vQCy0nc9uIWNegdHhVrrVy8kSl1PGa3HgQA4/fGiQ8QoGh8iyV+zEBz/0aXQuW2l0RAdIU0TgYV4NWXtNdN4yvMM9M3/yUHzt619fUDBRaNW93IpcOor9+57D//rr/xf7Dzxv5ku87wMrcOc9a9Gx3E1Q0BmbY6TBTrPseXaaYDHvJrUqgbY6P3J4Ds88fQIVddP44MdrcMNNtQiWz9D6jROQqHQpcglHKS0oEInQtyYYReIZeL2d/K4WL70wgsce6sckFeLzn/99fOKTv0TftsSAWCYfot+vzXaz8NJKOGxUONP7XQjqnDVbP/EqJyOZ0bCvkw3lNFYmGU/Cq41HhCjXGFRfmsWpjsw//MM/xN69ezE6OmpYheYVaEbjrp3LsW1bPQGKwJSdZq1q1y4KdLYG83MeHDwwiGMnJ/CBD34Bn/ylX8b6TevNfg4CPwVt1Hvm5Bn8we//Kxw/eohKrxlibB0BHxn4TTevxPoNLaiuZCXkZglKdP1cQcTns1SwCE6fHqdVG8cf/af/hNVbNsHmT2F0vo/W/WsIsr0CrjBdFrIdGYWkNlsxLc8aEtiSzfmcrFvtCcF608iXfGpetXenlbRZoyt2InKWUp5imZOMVoKbqjrGPJw/M4iLZ1MYJiOoqi3F//3//i9UNXYglMhi7wuP4pvf/goa63xYvbwSNWV5eG0J8skoQdBO9lOG0ek4jh6Zodsyjz03fQxf+t0/QtfqFmPldfZIBvPyQsR9GcnU6NIaFJEoM2pTnPOX9+NDH72HLo/mmJCZ8Ja2Vhvuues61FRpSJZMQWezJkKUG+ZfMm9UgQZMLIP/NGuycGiRdm9npJuQS/vICoJkRUlkLFpKLyPlRph+VX9fEqdOTuLSxTgqysqx+7o78JEPvx9333UrtFVgLJKE0+phOQPyhwr5VROa/pQCY32z7frfVUChChJIaDKmhDJL3zgWmeHfabzy0rO4/76v48UXXiKlBjZtcWLX7k60dHgQrEihrr6clj9GoY5RAV1IxlymI/GB+y8QLIbRuhz4+CfLcfcHOlBarkNRBmgMNNVEQ5gOaF5/PucmUMQxOU1/ELUEn5Xo67Xi+989g1een8b73v8Z/NaXfhdtHW3QSeY5Co3pKWdQShmykkzKQX9Zp1ylSPnZAKSOoqhsBt5PdWV5tXuShS6Q5jvoSMAFQ/SWQfWkhtRVw6IaDv2N3/gNs7w8FAoZluFS5yxdsYqgl5ZQYEfqy/oUa7LzJZoDkSQgztKq2x11+OKv/yF+4ZOfQENzYbaeRn1U70n6DMeOHMNv/davU/HPE5hEswvpqOe+vNyNYKkWviWRItiV+tWv5KWlowoRU5IpD2mwHV//3t9jw86NyLujuDBwHF/8wieQj8cM5RVjN7R3IW/6W52fmjmqd5jNbGSNJR6MxfsVzRYj/E79DTqdkFrO+uezmtjF6qbxR7CErpCjDGVVLfizv/grlFRWI0pK9OAPvo0//De/yxsTqCq1IUh2YSPIautQLaSj3UCEjHZ+XtscNOFzv/Y7+MVf+iwaWjwsr7ISYiSo8P8aBbLkg3yehkP5LNxA5QUuXjmFj977fvQMDBgmpo5MEhtUllvgc2uDxpzpdM+QlOg4BdMlwfv0vKIur3ZdKKr9WG4+xndq67yYcUPUbpJAnZ+qDX+9nmYC0hrccP0t2LXrRqxe2YyyINuKgCIZtRKgzZCuxFKBdfWuBopieD1QSBEoDKoY/p2hgOqcxkCACjw1hldefg6PP/4wTp3ej/nwlBkGLK90oKzCgfqGKjMVOkNrG4/pjIu06bQ7uG+YlBaobgBuuxv47d+5CTV1YdZ3H2soSUWlq8EGc9i0aMeH6Zk8Jiezxuf2eVfgzOkQfvjgUTPEuXPnnfj3/+HP0ULUsTuE8loaLYGRhKi/RCM1bA4qibbdM8t8xe8kUCog/29kQf0rbDT5pIVvrz2ovtR5KaB44IEHzElU0WjUfK8jCfI6g4JaZaM/q/NaNREqL9DSS/I+/u5hPgmu5Y247fYPYtuO7Sgt8xZ684kEWjCWSqZwufsKvvWtv8fExAjrQtOVlW/9TqvOMmnlbi6b4m+0xnLlCHzJuNw2Kp7dTzCuwK9+8dfQsaKD1DuFnqGL+F//87/S4hOkjUazDij96mdSp6ReoN3KtZu0zaFFa7Spqj9Dc3Qf48IzsrfmJymbOp3dWi5mY/tpOrcPjfUt9Mfr2EZ+0v0Abr/jHvjLyhBNJHH4yH6CxX2Ym51gC2jzXrICsRcKgc7Q1cY7KXVkWAKoqGjDrbfeQx9/O+vLxfbUO9W5qN4O1QgrLe8meBV21jaBX2tNz+T0MB565EHK6kmEyMhMZ7AMB5mBTuFXR2WOsqohZdXfq4hggj6LSagOCvJjRsjIKLRbvM5L0b6bGtEyrIP3W2wOsr1q1NV1oqN9BVauXIvGxmaUBJi2UEFtZybKMKqHVskq8E+duyqQUHhPAIVRJJoSnROib2UlcxR8Jy2lZGliYgznz5/FiZNH8eKLezE03E/rOEXhjBIknPD71bFFG8/Kl9XVISoBXymi4VnE0gmsWAX88X+4lS4LG8yutcY6r4MVwwawIkD2It/RTx+ZfuScH/MhH/a90ku/7zzCYRtuuflD+Ff/6j+itqbdtKWpWl2FxuYzhbnwaVF4s+q9+r63DqqLYmPK9VDfhEY9xCa0NkSzN7WITLugq07VoSbF1knt/GMhn+o0k7Bo8ZmbLKwe1dXVtKRuk6aCjgBQ/c3Ozpkh6RQVSGmqGIWSKG3+vfDZpK1P+kh3QH00Ekh/IGDOyAxq2ykK/OzcLHp6tHs0gWshvcV1oE+i228eCve+9kQhqHyaU6KgOvJ5dQ4n2aBHgKj+nDxKg6X824sEZWJmZpqGgPU2TxbGckrSrGq/hbpVHWVMXdtooEppgBpQQdBTx7DJId+nW83tKrPJMttdaRS+MvlQvaXSKfT29piFewU51/OFNLS5kfmukIBpv2IefjQU7lGQMVUeC2ugCv1VCi62YSBQwvouN1e/z2/a8rVQTGPhHVf9WQzvEUZB6kf/WGsxDPjxbyPo/FDo7eZHImuSwvbii8/j7LnTOHfuDLovX8LUlKYxy+LpTAXSf7KLgC+AO267ywyvHjr6A2i59e/9q1tpISpIb6dY2RG+SwcEabFWmq5KHGGCQzjkN7720aOD9PlGzTLjlSs34rO//Ou4+SZaJ3/Vq41qBGRRA795Y7+zUASDolJo3oSUW1d9p6ngxd8UCgJJxZUvx7A4n7qqM1TpFaeQF9tBv+mzwELv1IY6i39XeKPPSq+YD6UhAdbfRQVQPgTeWlRVzMdPIyifxfSVX71TwKf36jfVkUDjjfJ8dT70fTGtogIqvwr6rhiL5dL9xVgsp6L+LqZRrN9iKN5/9efis9cSFt+r9yiNxd9d/fePE94zjEJFY9kXAI8F5v/TpL4ZdQTqcBWX/CyNQaeJ2Em6GVG6IXO0sDO0gjOIJ3SkvwOlpSWoKKtBWWkNHnv0cXzr23+BweEz+PwXbsFHProd9fWitxGi/QQi4QQunh9E75VJXL40hyvd8xgezuFStxQU2H3DBvza538DH/7wLzBHEpyCy6BwdYP8JI3zk4bFdfdG79XvV9+z+L7FvxeFWYKncPW9i8PiNBeHq++Xoioo7WL6b/bsTxquLs/ivxcDxdV50b1FxS8qm0Jxmf/iULxHQSBRfMfiNIrpvlmdLQ6L66D4+VqeU1h8/9XPKB8qr6LAUiD144b3FFDoFCz5y9qOXvRJ94iuFU7cKtDFwuYrpNa8z1A5xgwBRb8rqJ/ASR/VTl/z6aeew9/+7Z/h+ReexJq1fuzZs5KUUrMrY6ShQxgbmaKbkUXfFXViqTPMSktag9b2Ndix82Zs2LwFbe3LUFOr9SPyTl9rpMWNda2N/U7D1U0mASnUkVbJFiz624WiJS4qRTHN4rP6u2gRr7VcSlNR+dFzxWcXp6lwreldSyiWQ6GYvpS5mH/lRezyjd5drDeF4vd6RnWiNBT0++J7rs67flM6xd+u/v0fMhTzqnitoHV1eA/1Uajx9InqSKAQi+BHfcEGKQADPxkQYZXw3gXXhH+rXvRtIfBvuHirDSePX8F3v/sVPPjgVzEXGqdfXjj0xWEnzSQoaW6E2+lBWbAeVZWtZhFQS1sXOpatQHtnFyqrq8w4umkAAtAbCcTPWkAkjApXv7tYf7oqvlU+Fv9WVAhFPSfariDlLiqalLCoMG8XlHZRMRWKynZ1XhV/mmFxmYufi38X86J8KG8Kxd8Vr85LMX/6TfkvhuJ9i9MtpqFw9e/Fv4vXNwrFe4vhre5dHIr50v3FWAzFNBfn7ccN7xGgoIVILwiwAIJKrwbWPSp48cAbVg/v02a1EvRihRQr7bWGNkBB+ZgYz2L/vmfw5FM/wPlzRxGNTEEnfZcESlFZVslrBRrrO7B8+TqzWWpFZT3+//bOpslpIwjDs6wxsFuVhAuVSuUEN/7/j+GU5ESqqBS5wWbBmH569HrbgyR/oA3Wup+t3tG05kMaqduj0Xj8wnoPPz1/5vMLuN1Y6IPZKTiuvotw7IXZF9qBOiTA+cb2Q9+2Z0vMq7LYbh0FyND2QeWoTCCu44l1STcF0aCFyo91R0fh90Z3jEA6zpU00bnF/LEeOQoRt4F8KlP72jQQdaprF+RBVIfyKdS59dW3D7NxFF+sR8Fy/ZznynoP3MA0OBeQxxAaggvK6ldMkFk+XvoApuf1i10fPVgxmXfGNBedkHfv/i1//vGmvH37V3n/z99l9emm/PLz8/Lbr7+XF+YYXr18XZb89j0Z7JC4ry6f2rbFmSjFT8FdXV1XxZpElWMvyKHopov1oUNoQ+1rjWAMtX1fepV5DPGajhnofaE2iajuVi+dHpnkJNFJ0EUHAqQV6OM+5YN2330Q6wPO9Vhm4ygUJ0Ro5HiD8ajB40m9oBebwRs+6XkW1TXhQv53u9qMWvOEUn9PdGVOgsHR28KKTcvHV7Z34SsHPfNfyub1Y51JZ92O8vGGSfG35clTOwYUhW/fHT5I9L1Egxu7+aLjgDYEtS1loo9GgJ4ykCHDjrp2v8oljOMbKvc+nAVlQ6wLYpxt6ufY1JZyAGOGpbIUAukpCyg3ns/QsfQR97XlDKFrtm/6Q5mNo3A4/6CmQbgwd2mJdwM29ofe/7r9TOAhDx/8yMryWo7C4qOEn3iNZvsX/tuii7I2x+BNbvcLs+OYocgaCvwyFd/huFxyg3+2XsW6LB9dWzImsfy/xHaK27pZ0NFGihNK+vA2M2E/oYyHNkViHZGhMlW3yovEOtpP5imQ0crgVb/qie0C7X7i7X7irU75Yvv0pZEu7hPKB3G7rW+IWG/cnoqTdRTbYO6BEOEwOVJvEnMETO6pjUuc/SbqDVocPcI02PojMStzICRa2aPIZ9vmgttNu7ZPB75DsKg9DwYkPPmFffqsWb3abrJurjGm5F+B91ekP4axy9XeOPveQOSTsZFHBgdtfUNltnUDuhinjlj2VLR1t/W28YjyQswPbZ4hvegra4xD07fsOp5jmI+j2DqctgFCfI+j9qEEk+p+qrEjFx5a3NQkYbbbI0Ytmc+6wXowXT4zIxcW/LgwJ8F6iUnyEBlyFNO790nYwwu0PqQPK8b9jj+DmBNwYXwBoQtsp4839rLkSAgRlDQPaXEOjGzSk4jOJEnOgxN1FEO41ddNwJYlQ9BxkO1/4VFjYcKAJL2C4DAclV+dBIOWtQeBg1BPYmZNliQTcKJ3/ZjlQ3AWosdheJSkOAkLGaLY9C7cCSA8ThBXZhVE05h0+fjy3qaMJDkzTsxRyEhBYYtb+4AYKqLLTsDAZVS7rDn1+ljhX8oPPYzoJBwLa54aTZJz48QchcAs+wiWq27ClmyeMapYMQxB+BsO07ixm2zwbKbpehjbjqIjFp8kZ8qJOooxosXaNs8EA8LqU/xgT10x2XTyFtAav29/40ruVI06Sc6JGTqKDh84kLUPiC98ygKoH+xMLfTl1dHb7g7eimy/ICZiToUFxlhdyKXLkw4jOVNm6Cj6LBXj7hMMnleerN5kht/No9jCkn07k0T5u/Ss2upCnDKT5Lw4sQlXY8TDHNpu6XoGHjL2IDH/2GXzwP755Db3QWgkLUrU56ySZP7MZGbm1ESDl3Hva+RDjiJJHi4zm5k5FRg2p4iwfYihK32UJDlPHrijSJJkCtJRJEmyk3QUSZLsJB1FkiQ7KOUr8aMwLiW9BXgAAAAASUVORK5CYII=;" vertex="1" parent="1">
          <mxGeometry x="170.9" y="615" width="165.1" height="90" as="geometry" />
        </mxCell>
        <mxCell id="TX5If2MqFz6uqhYADykB-9" value="" style="shape=image;verticalLabelPosition=bottom;labelBackgroundColor=default;verticalAlign=top;aspect=fixed;imageAspect=0;image=data:image/png,iVBORw0KGgoAAAANSUhEUgAAAGYAAABbCAYAAACBO/ARAAAAAXNSR0IArs4c6QAAAARnQU1BAACxjwv8YQUAAAAJcEhZcwAAEnQAABJ0Ad5mH3gAAABfaVRYdFNuaXBNZXRhZGF0YQAAAAAAeyJjbGlwUG9pbnRzIjpbeyJ4IjowLCJ5IjowfSx7IngiOjEwMywieSI6MH0seyJ4IjoxMDMsInkiOjkxfSx7IngiOjAsInkiOjkxfV19rdGq/wAAImBJREFUeF7tnAd4VuXZx/+BLDIgGwiEPWW7mGplOHBvLYpWpbYO1Lra71JrXVWrVvRrq9W6tyJOcKIoyN4bwkzCyCaDkJDx3b8n74GXkIQEI6bflf91vYT3Pes5z/+5931OQIVBTWh0aOb724RGhiZiGimaiGmkaCKmkaKJmEaKJmIaKZqIaaRoIqaRoomYRoomYhopmohppPh/SUxDpf/Ky8vd55fA/ztiIKW4uNj3rWaUlZVp7969vm9Ggn0vKSnxfZN25eZq+/btvm8Hoj7EH+4i+a8ixv8mmcSioiL3fyY5JyfH/X/nzp1KT093/wdsy8/PV1l5me8XqbCwUOvWrTuAwF27dqlZs8rpYPuKFStUYMd5v3ngmMyMDN+3ShQUFLjrALZ7UpZh+2VlZbn/1xf/VcSsXr3a/S0t3aui3bsVGBjovn/91VduMkpLS/XUE08oLi7O/Q5Zs2fNsomzCQ6ovNUSm7jp33yjrVu2qEWLFu63eXPnumM5H1L0w/ffa9u2berUubPb7oFrLFiwQK2iony/SEuXLFGuSRcEsn2hbQ8ICHALISsrU3l5eb4964f/GmK4aSZwz549JhXpmvnDDwoKCtKC+fP13jvvOOl59l//chN380036eYbb9Tll12m7Tt2KCYm1q1opOLmiRMdkSeedJKbTI5ftmyZAu1cYMoHH+iLzz/XGWeeqeDg4AOk9I3XX1fv3r3d72DTpk1aYsRAJmS88/bbat2mjfv/qpWrtCF5gzp16uT2rS8afaGM4ZUaKTvS0nTV+PEaOmyYIsLDtSMzS8eMOFGfTX5fO1K2qNcJI7V21neqsH1rQ4uwMN1gpB199NH63AiY/P77uv2OO3TMscfq9dde03fTp+u+Bx5QWGioU0s9jQikif2QqAsuvNCNCRX12quvqlPHjjrjrLP0yccfK8Wk8JbbbnO2CXKPHzxYRx11lO/K+wGRLIrmzZv7fjkYjY6Y8vIKFe0tsRvPVr6piAKTkLU7s/Txy/9R5rZU314Nh142ceedf74+/vBDpaam6rzzzlOSTXby+vW65NJLnVR+a2R9P2OGHnzoIQWZtGRnZ+u9d9/VTpPGy22xbNywQW+/9ZYee/xxhRqhbxjBATbxE377W99V9mOHHbN27VqdcMIJB9kvfzQKYlBTuYW7tc5sSL6pmxQj5dsZ3ytlxVLfHvtRYWoCVdHcPhzH8CuwH/bd214SFKIy+xtoej6wrFTNbL+ACpMkbpX9arjlfv37q9gWQr4Z8zv++CeThg768osvNGvmTP32uuvUt18/ZZhj8cHkyc45uOzXv3b7vvXGGzrXCB17xhlOcuabevyDSU7r1q19Z66U/DV2f6jRk0eOdOfywDbuyR+/GDFctsREetHixdqUnKy0rBx9+9WX2p1b6V0xgUx4ua2qrJaxKg6LdL+FhgRrTHSYUrZu1ebiUuVGRKsiMEgVzSrVAsQUhkaozI4LNicheO8eNYccszEJ6SlqExaiHj17arvZqe1pqSovLTOCy9x4PMTFx+vMc85Ruq3udba6sTennX66Nm/erI+mTHETPNZ+wwH5wojr2q2bbjK79vXXX2uKkXbPffepv5HsAfuGavvIpPJMO+4sO7cHzz55joyHI04Ml8vMzNSM777Tho0btXzZcqWlbBWDKLfJ3RMarrT49pKt+grTwXyyY1qrJCpOtw3oofytySowe7OoeSulVjRTQWS03YVPJTSzVWeq8EDYd99PcRlpSirfreu7t5VCw7R1+w6Vmf3YY653SvI6ZZuqLLP/e1MSZGpp6NizNe78c7Vo1g/O4dhm1+7QoYNCQkK0Zs0ap/bGX3mlli1d6iQJ+3Wm2RzAebaY3fnWvEBIGTVmjH73+9879ci2dHPtS420NuYwVLU3R4wYLoPn9ITp4Qwb0GYbcL65ks2MjO1R8cpo3VFlwSHq3TJcP7ZsJ4VF2FEBOiUpTlf0bK/osBbatXSBHtuYpfUVwdrdxvYpsgAxzDykYvu7t0zndm2tDzfs5DD7VEOSjaFfdIhCklfpsthQDTntTBXaqs/YsV1bzL5g00pLipW6cpl2bkzmAMW166D46FbavH6di1ewIUzibjuufVKSho8Y4WKn+fPm6ZoJE3SGqTO8NmIh3PKpn32mLSZpJ5x4oq4zUmJiYtxcEEcheSfa79H2W1X87MRwetzUv1t8sdEkhBXHbwlJHdRn8DDtLK3Q5IIA7YhOlN2x2u5K1faErjapHFyupwb30PV9OiqoeTP9Y8Fq3bhgk+JbRqhnTKRmbsvSKR3itS67QJuDAvX3nm11649rFRUapKSWLbQ8/eAY4sK4QE3Zlq8RFfm684Rj1aZzVyOjRNkl5covLlH6RiMgO0vFuwvt/8nauGC2ivJ2uTFXBVJDLIQ6uvraazXmlFOc2vrs00/1xbRp7r4hE9f8WnME2rVr5zIM84zEObNn66KLL1a79u0Psi/gZyWG6Pzfzz6raVOnuhWGFxLfqYtGXXCxomLilNi5i55YmqwPt2aayqqMIyJTVuu04SP03laLmE01PT/iKI1LinY3/NjqND2wdKsSw0N1frc2mrtzl67s2kZTNu3UyPaxah8eohtnrtGEvma0t2drxY7cSsnhFvkb1Fz3R5Xr3vRyRe3J0w092urC4UPcdXdb4J5tiwR3m09+5k5lbN6oMvMQd25cr5XffqnCnGy3b3VAPXleFu4140WycAiuMFVH0IvGuOn6652N+8011yghIaFaUkCDE8PpIGGuBYMvvvCC0kxCQlqEKb5LNx1/3qVqFR2j/r16uInK3VOih+av0dep+1McUSrT1YG5eq5Za11hkz4+LliTnntOH+aXqviMi/VE90Q9uHSTxiTGqn9MhBLNmKeVlOqazq31oxH1l8079Eyv9ho9daHCWwTruIRWWpOeo09OOUYDYyP11IotunXOOik/R7/pmqCJo0501zWBUcZeI8Z92488IyjXbM/ePUVOvS2Z+pFKigqdlB0KBK29zR2H6PWmukJMDZ5vrvk55sFFR5ttrAUNSgyrZKkZwU/NZcT3D23ZSgmduqrfqNOU0LWnYtp3UGTzALXyOSCrcwv02MK1WpJuK9uDeVKdC7frd78aroEJMfp01Xq9s7NILU1lbMgv0rW9knRBxzh9vSNH57aPU4JNfveWYe7QeRm71MNs1CvJ2zQnM0+jE2P02rptmrF8mVZcdZa6RkVqyZZUDf1hk1OTv+ndQRMH9XTHgrTig4nxkJ+Zrrz07SoqyNfWJQuUtni+8kyCvHxdTUCKoqKi1LZtW42/6iodfcwxTroOhQYhhlOQW1q8aJGeevJJBZj7Gtexs3oMPUldjxuiVq3bqnlQZRqjlRETWRsxdq6O5UWa1Le1khLbaeK8ZHN/w3Riu1htNwkLKavQGPv/ODP0jDwQT8wPxWXlWpSVr05mY/68eKO+SMnUgIgg/aFtCy3L3a13fpijHxP7uOtUEmPS60NtxHjIy9ip4pxMBWZuU+rShS5Y3GGRPlkCjmU0kIGTgLcVExvrDHz/AQPUwTy4mlRXVfxkYpASomI8EJJ/sRYDdB96ojoPO1lxHTopJBzvaj/8iUkr3KOHF6zRj2bE/dEmpLkeGtBBx7WJ0cS56/UdRtz8/D/366ArTJVlmBc2JK6lb++DUWa3tC6vSJ9vy1a4Xe+U2HBN+vxbPZ1VoXLiIUNEYDP9rm8njeu9P1FZF2JAudmQ8PxMtdmTq3XmMuM2e5IDKc3tg6eFdOC5YV/Cwiqluq74ScRkWTzy5Zdf6sMPPnCxyfHHH6/ug0coatBQBbWKrnZ1tLSJaukjpsRW9/3zVuszswv+6N2qhZ4b0t1uPlvL84stVokxyag0rOd2TFBrU1+1AWL22LkLzIUuspX8ypyFenJ9pvJatPLtIfPawnTLoO4amViZiQZ1JQa0CQ5QXFaKPraAk8Czmd0r+bYRJh1BtogIGCMiI53kHA5qTtbUArhkMC88/7zefP11V++4+JJLdINFvx1OGK3gqJgaRbbEbx0EmwscZB6WAg8MriLs9zA7/Lm0Ak35aro6paxR38gQi0Ei1NI8q0OBdE2YeUSRtm98WKhG9equJ0YPVqAfoRHmXseG7v9uDlm9gKZYsmixvrKFuWjhQpfFyLN5ePnFF5VhizTWpORwSQH1JgZSqIv8+e679Y2pL4zajRMn6rJx4xTfrr2KA0N8e1aPqhMwIDpScSEHGsPmZjf2mrZOLm2mqdHd9MfZK/X1O2+qb1S4Qoy0ugBX/bk1W3T0tEX6zfzNemjpFpURiPqAy907ar+aNWGpF9JSUjTzh+/dogTr16937i8BJ0vycAtkHuqtyqh33HX77Y4gBnHV1Ve7mgM++4Y95Vq9u/bTYavjggJkmsChqLRMN85YokV+DsBxUaH664AkPbgpxyRM+kOPRA2Oi1SYrfIQizzD67gSUWkE/5lFxRrx5WJtzCpwv4faQri0Xxfd3L29+w7yzanYVer7cgiUFxdp1dQP9MUrL7h58IB9oR7zgkkNwSff+RwO6nwUxu3NN97Qnbfd5nzwiy+9VBNvuUVdu3bdl+epC8PcR4lfqqSFqbHo1jFq5lNn6OpwJKawQG1DgrV0Z64u/GaZek6eo34fz9emolJ3jkNhaU6hTp++TKNe/UQvffSZ/tPFXOVRvZRotqWPudSX+NkWTle4v/JcKyAibZ3FXm++egApANVFxvt3FuW//uqrrqhHsHk4qJPEkAt6/913NXnyZPXu1csFSBSsIs24+SPZJGbNISQGIC1Ijefpppp3NnHmMm3KzlfnyFBNH3usOkVWln3/uCBZH23JUHcLJm80ycmxYPLspHgjtOY1tdsMf6apre27i3W/uczTU7O0xxbWMfOm6pG771JRaKSSoveXhyFll0nMQfnPapCVukXTn5ukLcsW+X7Zj759+zqV3rJVK1fMww5RvyHpWVc32UPz+wy+/x8EOKNg9PJLL7kYZZC5f2RH8T6qM2zo6e3onkOAPZCMYN/ctgw2N83Uy6zUTHUPKNDtxx6170aKcU1NmiYbObNMei7vnKDQwlxFRERqb3mZm0xskodtRkaeeWOvbtipPfa3gxFcWFqubcWlSk3qpZU7durX/XqaiqmUUOPDqTEL+g+JvPQd+vbFf2rzonm+X/aje48e2l1Y6KL7IYMHK7FdO+eV4SajURqMGEhZtWqVXjR9SYpl7JlnOM+rpqQbaGETtMXYqb24W0kMnxDb35vTvq3ClVWyV4vWrtOxxTlql5joDPiHqzfqmTXblGsT+dKI3kooyNYnm7erS5vWFqAWKt8kqIV5XzgFsy3y/25HjjYYOe1CAnXPwg1aZ/uQAN2229RKZJjuHz5I7SP2xxS7bbB8DsVL7o40zXztP9q6aK6GDB3qpMDLMqO+Ro4erdNPP93VbzD81HSI+Iny60sKqJYYSKFC98H777s0NXVu6tctW9Yc1AEmGanJrYNa9RRosB3kDXtgXCtlKkjvzV6gVFuVzfYW67u9wZqbs1tX9k7SrT3bacJH0xXXtacRUqYFmfnabs7DpsIidTfJuHzGCg1PiNafFiarg7nJMeYOf25qbEt+kUrt+93H9tRo2+4B4UZaDuUqp29K1qy3Xta6H2c4CaBHYPjw4a6LhiolJGwwzdK7Tx+NOfVUpzbpnIGQVqbWDgfVEkP3x1dffOFU1mhbCR3N6/I6Qw4FDHeB6WxWYW1gLuAv0GjBXEAOq75nrJETFqUXU+zGbCUOTIzX6j3S347pps/XbtRr6Xs0rmeS7l28SV0jQpVm0rE4u0AntjZC5q1X/7iWFrBmaKX9lmq2Js/OofAWeuCYHjqnbey+RQAZ+fZPcW3jtNWzdfkizXrzJW1ZvMCl7JEOUv2Uh1FXJClJt0RERLg+Moz9UCMNlUZvAPPmtUnVBwcZf2oLG5KTXWa0Y8eOLoKtjyhyMtLnSwsrzAgfcOpqgZmJNUcgxGdvOGK3ScEHm7br2R/maNLgnhrYpbPaBZSq/6eLVWzq4/xOrfXK2lSL2mPNfpRpWVa+pp06SGOmLVSMBZF9YiM1fWumE+HjbZ8JfTproMVLgb77wC7l2dgw+jWNkIzw8m+mafbbL7t0P6QA5iLcDPupprauv+GGfR4pahcvbMOGDeph9gYyqMXwwYutLzkHEYMIoht/KrKMnBVGDqqiLkggtqniaK3Nydfy9Cxd1a2NpqzdrD8uS1O5xTIyu2IzZEbNAlMz7Hz/bZ8k/WdVqotdzBtwn6v7dtFNJl3+YDQ5Zulrk+iCrAzNeOU5rZ7xte+X/Yg0dX7nXXe5wBJpGDJkiDPy/mBxexlkphcpgtCqdf3aEJCXl1eBGHIgJ8GYcQIuWh9JAVU4tlVpEXFRhTKMpLrwE2WLL6z5fofAQ6h9TzRN2m/KbJXsLVe2OQklqCjAeW17TFS4QovtguYI9OnSRo/2ONhFZQwsGGovVYGE5GVmaMeaFfrsqYedhHhzwmrnQ2cnIcKrFs/xly7LsrJSsyOVRr42cJ76zGfAI488UkGdupfFJxBCwwHiidQgnqE2oEgjjr+cGPYxbgSciC6+OvBaifgLvKiXY9KahSm4tXlZwSbOXuNEDQi1zdRsguxvdXsW2mp8em2KNu0qtJm2a3GvNik3mVQNjItR5WgOhHHh3OGsg3xiI2lPkbJTU5Sfka6pTz2kvXZPgIlv07atcsxOkHYioKaXjIIXscoV48fvmw/umTnz7rchEDBs2LAKssL4AHgQ1BVoYKOLBSeAlcJFIyLCne9PkwFJOvqryC6zf1WUIzl+0pNoru/wk0cqv1VrBZgkxnfqqrgOnd2N2J349toPJCbMNuFOE4waT/UGV4cHEzAVmlHxl5IKi392pe/UNpMO3OAV079U3s4DO/vp+7r6mmu0detW/Thrlmv+o77y/PPPKzUlRffce69zijz4L8iGQMD48eOdxJx99tn7gkakwGskyDaffMnixS76L/NdvDagEjie4hGdIFVTEs1MKtv17qvEHkepmdmLuKTO6tD/aIU6dXogUdwiEhRoP0FWqP0DSdXx5C0D0j14WnzHdXeE+CR5l5Gwfs5M12iRnbpVm8wlpysGNdSlSxelm1flnhqw/V2v2MSJ6tW7t1ZZ6ED4cMlllzkb/O4777iay0UW18Wbq/xzIGDBggUVfcz/rilFzSRjd1Bb/lJQE9gDlUZrzisvveQ6Y1hFdIgcZ7HQyuXLXdUPIPaRcQlK6NxNQT5VGRYVo2POusD+Us8x1eBTD5CEc1DV/lTFXjMkVDFZIBkb12ntrBkq3JXjvhfmZJmUrFSpqUN/oBFuufVWt4g2mpaY9tlnzsaOu+IK123J/eBtka2AMNpc6YIhhjlt7Fg3voZGgE18RUOJnz9QhY//7W+KMvVIXo2y6mAjBhs26amn3M1Q3TvO1CiTRhcjfWaBNiGxSeamB1M+qBQPQtAA87JaJbQ1IuMVHB7h1GpZqbmoebu0y9TQ7l25dh63LNxEskL2FOSZytpxUOMEzg7XRh0jIUjTtRMmuB7mIluAn9uk0/Xf2QJIakz8BUiLFzCiEWbPnu1SMf382l0bCj+pglkTeHDo2X/+09mfk371Kw0cOFBR5sujMl595RXXRjpy1CgXmNHKw82iLh984AHXdloTUIMQghRVwkiwSfXaXKuDZ5A9J4V0/AUXXeQmE+eG52Ror4KQd957z0kKKny6LRQaxS81iTnL1DznYKo86eD/VG3Xm/R3t3toaJVWaxLzcFBoN0VjNQ/30N87cNAgN/FeIPbYo486D2eUEcM2vB8mg9wTN0uylH0hke98UBmQTDsrbixlZltRThLYTk191OjRbhsSwORxDrZhO+jrCrTvdPOjslFPgy3+oI40wBYN+T8ecOrevbtTuYwHw44Ts3rVKlfaIGPskQL4P4Em499oATleLMc1FBqUGHT3SrsRIt9upou5If+gioonz4ug2pgMf/BY3b133+0KTbijtJSS4gizm8cjWutreKBKeNPNN7uJxTGBlF/b/qPHjNFJJ52kvUYWvWzHHnecU1nYODohz7vgAiddtKseZTa1m5HgAbWGZFEE5PEIwLghlUYLSGDhVKfyCSPibUxIH9LoT95PQYMalyzz+alJxMbGKsluxB/ocRKi2BT/xxMAkfJbpjZIAWGETz75ZHce9qNK2skmiEnhxlEr5PCQELaxYntaDEaswQQjjTgq5Kpo9mYh8DASx7s21lNPdSQjTf4434jbbIbf//lNJALSWSA8C1MTkBT2bShSQIMS47V8VpfSwePhMTn2qQrKC7mmgpAE3FOkBqBaiLFIpSMtZLhPsNUPwUwGDx2xqlFTHkiZJBih2BSed7nUXFx63latXOnUGP3CqNmqTySj+iiT04blD66FLUTyvFilOtQn3VIXNCgxkFKTnuXGq0vkkXPKs5jpQpswPBwkAFD562LqEG+O5g8IPefcc5VkUuEBG0GG1x/Ypp5mjCGL8aDSkJLvvv3WTSyqb+TIkU6lVcWxJokE1VWB1EFmddt+LjQoMbXBM/7+YKKQJNelaKrPn1RUA24qqgXPCTuBNPmfB5UJYf6/QQZ1I35H9QXbhwePCJh35VY6BkgkqtbrcPEAqUgI3lZVIO1IbVUV+HPhiBFTHZgkJISJrEocv2NjVlhAimoaPHSoI6sqsEv+BTzIpscLyfDUC5P9K7Nbs2fPcd8hLMHc2+oWC1JIPqwqIA3VSrB9JPCLE8Pk8bcqmDQmGc9ruJGC9FS3Hyqvmd8EI4G8IKGq13fqaadp5vff+76ZwTZyWpjNqSoB2DHST9UBQvkcCfyixBwKeE+UbY8z17imlBHS4L+NWAe15e8OA1Y8sYkXaAIv3eMPJp6nzGpCQxv5mtBoiWECiy02wPjXVjevGlsw2ZR7Q6tZ2YkmRTW9H8YDBP4cKZb6otESQ14qzLy4o8zoHkp9+K96XGMC3KpVRTDU1BRPO9cGiCGG+qXRaIlBPdGYjS2oD0iEkmapDtHmxdXFeHtSiP3xPkcajZYYXGeaGGqKi2oCag+7Ux1wKCja1QVI3ltvvql//eMfWm3Bqb9tOhJotMRgZFEr9QWudU0PCaHyiJfqAlTeu2+/7YpiOy2Wqs4j/DnRaIlhIg5nMmqSFg8kResCgkmaLZAyiK7qZPzcaLTEHC4ONYF1IRu1BTHEUWSOwyMOfFzxSKBexJC1pRmDDwOvTu/678MHY+tf98eQ+u9DutzfuPLd28Z+TE5VkI329vE+/k0h3sR6x3N+vtP0zXiqM+ack+3UkwhQSZwCyheeFDI2jucv8MbBy+n8z3mo8dUFdapgUtHDGP714Ye1acMG9xu1b8quvPcLIPbbbR/Kyf4pDbwrXtXhvZiNd67wUgaaGwCJSbK6GHoKWTwqxxuKANlhGiKocgKGyrnJAFNd9Af9BI88+qj7/5w5c9ybONpb3MIbKULsuvfde6+r05B9fuLJJ/edExIpE/MeGMrJ3kJAsrgeFdjfX3+9a2V6+KGHXGXz9LGn25ivcT0NH3/0kXvzEiUF0kg8WTb9m6/19psHjo9G9PsffLDOzswhJYYompeo8ca8zRs3upQFdRCqj9TzAbVzHtS5bsIEV7vwtuMhsWrdy2xMapj4P9xyi3vxDfV/9vPKACQr77rjDpcFpjnE1WEsUrcZctuZJF5PdYORzAtzcInZxysRbLKxsQ+rmWciWfVMOsf82UhhpTPZlK4hAbD/clsod//P/7h77NK1qzsni83LhFMy9uwSfQwgJyfXvZMMUpqbk0JWnAXIta6/7jp9NOVDV07nXNSJAPdcnfTXhEPmF5goVhKqgK5/VqB/+p6J4KaYLAZHL9bZ55zjSrI0XUAs0hUSEuzesQJBrL5bb7/d9Wl54GU4vGeGquO48eM1bNgw35ZKrFi2TH++5x5nQ3jk4cqrrnL7Pvn4466IRWre2Q/I8akNullQTwMGDHDbn/r73931kRzAQnnjjTdcOp9iG/Uggkt6t++w8UEmXh7JU9QT54ZMPDaeG6JvgYVBdpyuoAfuv9+dl7csXXnlle5tgs9MmuSyDZQi6uNA1Lon6ouuFopYqJXrTWqq1lRYqagOdOjpY8c6UgCSk2Y3DqKio2xQ+xONJAl5ox7n9+DZqz12HtQFPWkemJTXbIWy4iB13OWXO0lj4r0UPRMEMU41+ZKQjKG/rVxU6ck2iUwMbnjnLl3c9iWLFrkiHb9zTiSViaccQAcm7nq478EjCmVs4/w5ubl2vpHuoWBeMBdngSuPQbIgkBC6NHEaWDBeRZScn1s4dUStxKSkpOw7MauuujQ5L1/AtgD6sAA3ttJsCH8hMiS4shbOC2/4S2EMNfDCv//tVieg5MzqpGbPOZ82aWNRAKqPrFAmhl4AL0hklXrFK9L8gJQ/ASEgI00dh4pqsl2H45lsUjaQtmz5cmfsya3xYWwsgqVLl7h9yTx4r6zi8XlPFVEHohSNU8Ax9MnRd+bGZ9fzSufYG34H/NZgEkPKnRQHqJpGB/QwI6ZIC9sZMEBSvvIZcFSEV2qm+viEqRMIwKH4wSZ+2rRpLi+GWnvcDDZGEvUIGbQVoTaQjL0+z857cx6rkVfpQjJAXXoTy7lBH1NL1FAAi4eJY3JwNCAk16QC4CR4RhnVN/n9ShsUExPtpB3wO0DiBtgY4uP3l8i5X099otaAe4fZ/Pn7xkfdqMGIQWy9VeLfjEBHC8aM9DjGHfAwKGDbe++950gFFLGomXgYZIb1b2YX6JRBOnAceA8loKr4JzPE59pq5LrYJ65BrzD7gtAWoW5c3DT2j8kGLAqIwU4Bulfcc5C+GITxsi8TS8aa8/N2PcCEeUrmrjvv3DeZQUHBCgqszD6wAL3je5nK8wcvxfPmgcQrdoxFQxOIB298dUWtxCB+NOoBXmXLROHmXmATh1tLu1KwL22COPPmpUsvvlhzZ89WlE8FcCPc+KeffOLUE+qNicWb4Xf08+o1a/TAX/7iJIdUf7Bt4yaIuEnfc1OcB0z95FP979NPa5IZVbwlL23jbV9u6gkkmq7v5XOJwfy5cx0ZqGMklwezvKw176vEozrNjDaOAfYUMAZvMnn5G+MmqVrVMYk3leeNg1cG/+8zz2iSaQY6dewE7vf9TYp1Q617u/ZPGyQ3wKDOsVgEt7mjrWz6ujC4fDw1cIvFNRSjeEnaIF+G1xFjg2OQeG5nm5252jyqBXaj7lHCU05xXg8l5HPPOksXG+m4s6xqWpR4zrG9Xc/Lf9FKi+256KKLnJ533pIfWDwQTrziX3L2VKEHyMbW4ElC2KOPPOIk7OZbb3XXBthHtqNavSfKULn+5wVdTV16ZQb6nmfZ+Ihtxo0b5zy5w0GtDX8MCh1Nlz/GlbgCIznBPBHaigDEIOJ4SWy/105HSxEBJ5PJ4wxMALYGPY8+Zz+IvcKcBWwD3Y9IH2qHbRzDu728lYmxx3UlLiISp22VPmPsH5PKMSNOOMFdD8OP0caVxaHwgCPDGGlCJL5gMTlJ5J0y9pdzEAB2t/PvsvMiAbjY3C82FJXLvRIuVG2HZXxE94yP+6HT83wLLTztwLm5pqdW64I6Rf4e2LUmPVl1W0371uccVVHd9kMd44+6jqk+5/QHx4GGOFe9iGnCkUP9LFITjhiaiGmkaCKmkaKJmEaKJmIaKZqIaaRoIqaRoomYRoomYhopmohppGgippGiiZhGiiZiGimaiGmUkP4PkYRjpWryyUUAAAAASUVORK5CYII=;shadow=0;" vertex="1" parent="1">
          <mxGeometry x="560" y="615" width="100.88" height="90" as="geometry" />
        </mxCell>
        <mxCell id="TX5If2MqFz6uqhYADykB-31" value="" style="shape=image;verticalLabelPosition=bottom;labelBackgroundColor=default;verticalAlign=top;aspect=fixed;imageAspect=0;image=data:image/png,iVBORw0KGgoAAAANSUhEUgAAAIoAAABmCAYAAAAUAQmdAAAAAXNSR0IArs4c6QAAAARnQU1BAACxjwv8YQUAAAAJcEhZcwAAEnQAABJ0Ad5mH3gAAABhaVRYdFNuaXBNZXRhZGF0YQAAAAAAeyJjbGlwUG9pbnRzIjpbeyJ4IjowLCJ5IjowfSx7IngiOjEzOSwieSI6MH0seyJ4IjoxMzksInkiOjEwM30seyJ4IjowLCJ5IjoxMDN9XX3n23nlAAAYEElEQVR4Xu1dB1RUV/r/DcNQhaEqohFQELHFSlCwN9RoEktkNVGzqzHR5J+qibtxNcXkJNmYTbFsiliiUdEYe8HYO4IEC3YUpSm9DlOY/b47MwgEcdxz/udkHu/Hec7Me/fdN/O+3/va/e5VYSRAhoyHwM78KkNGg6ilUWTlIoOhUCjM7+5DUVRUZDx3LgVJSckoLy/nXaYjMholWFk4OjqgY8eO6NLlcfj6+or9ik8//cLo4+ON4OB28PT0ETtlNF6wNikrK8HVq6lIS7uJTp3CEB09DIqMjAKjWq0mJsmaRMZ9sPXRaEqxefNmuLs7QlFSUtNLkSGjNgoL8/DRR/NgJ5NERkPw9fUm89NVDo9lNIyqKpBj20UmioyGwRanWTM/mSgyHg52YmWiyLAKMlFkWAWZKDKsgkwUGVZBJooMqyATRYZVkIkiwyrIRJFhFWSiyLAKMlFkWAWZKDKsgkwUGVZBJooMq9AoicJFn0r6p55i83phR+14a8xoVERhYRuMBlzLy0TC7Wu4W1pI+x5c4sdkKtaUIjkzDRdybkOn11pNLqlBUVzcOIohmSQ5JflYdeYQdlxMQJlOg0DPZpjRayiGhnYlApmKdCxgAp1Ov4plx3fjYvYt8KGR7XtS+2g0d/eAvsrUTuqwI1Vy61Z64yCK1qBD0p3r+NeBX4R2cFE5iq2gogTOKic81fEJvBw5HH5uXtTaiCLSIuuSjuLH0/EoKC+Fh7MrdAY9yrQaBPv44/V+ozEguBMclQ6CQFKG5InCJoKtxJV7mYhN2Ic9qUkoqayAv9oLfw0fgsf9A7Em6RD2XD4LjU6LUN8WmBo+WJz7U+IBXCJTw3NcegWG4YXwQcgvL8N3J3bh8t0MNHF0wsCQx/FixDCE+Dandna1tJGUIGmiMEF0VVrsvHgWH++LQwFpCHbG2MS8H/0cvF1dYRCmw4hdlxLx78NbcSM3C0q6K3w3DMYqMi9eeKv/0xjfuZcwM3yTCiuK8en+zdiZmkDk0pE2csA7A8chpmtf2JNDY+pTWpAkUZgg7Kz+npGG5af3If5qMhFEgc6kPZ7vPgCD23aGE5mamr/Ynm7EnaI8rErYj+9PxsPVwRHju0QhhrYQX39U1ZgYJxxZOvc36nc1aZ0TNy8TQZToFRCKF3oORARpH6WdUlLaRXJEYRmW6SrwzZEd+CXlOAo1ZYIkL0eOwKTu/eDr6l5L6DXBjm5afhb6ffsPQY61z89Bsybc3tygBpgs7OgWaTTYnHIS3x7dRu/L4e7kjBFhPfFqnyfhQ9eSClksRGGNbPNg8V/ITsdfVv8LsaRJ2OfoTU/3hinv4hUWnIv6gSRhsExZsEbxjkHv6giazy6pLMeO1DOkefZhd2oiJnSNwIqJr2NgcGfoDQasTTqI6eu/wVlynKWWd5EEUbRVOqxPPozzWbfQUu2N94bG4N9PT0Pn5oH0A8nvMLdj2CsBFW2PKkiDUU+h8i68u20FPv1tIz6IX4fPD2xFG28/LKJrfTh8EoK8mgnCrjyzn3wkgyCXVCAJohjJRmgpfGX/gE3NxG5RUDs1qUUQFlqFrhL7Lp/Dr+cScC03m8xIHbXxADCpMooKsfXCKdJMVejg14punAJ7KWLKLi6Ek70DRlOI/dHw58Txcm0lObbW9W0rkARRLGAyiMhFvNbeSrXlWBi/AW9t/QH/2LkKL274BsfSLlFL6wTKkRD3b0ehcEu1j7gOh8+WGf489dLNyVW8lyIkRRR+mj/bvwkDFr+HgUtqbyO+/wCbUo7RD7aDM0U2twtz8cPJPSjX8eJBDYOVQ4CnJ0KbthTJu90UUpdVasjh9YA3Ob0WSHlZCEkRhVFUUYbM4nzcISIwGTIo9M2iz7mlRdCT3xDS1B9jO/cW2sBAgjUSuWpCQX/2pC3Yj6m5OShV+CA6BmFNHxPndn8sGEvHzYCbg7P5TGlDUkRhAQ5t1w2v9RkND+cmcLRX4YXwwZg9YIzwXbwpbD2XmYbV5GxWEWkCPH2JBA7ms00oIz9mz6Uk8mNO/2FLunMTni5NSMMY0b1lMPzVHlYaLtuHJIhiRBV0FJ6yNuBQdVrEQKidXUgLKBHTNQov9hqM1/uOxHtDJsDP3UtkXUeE9aB9o4lMjuZeTMgvK8bcHSsx85dlmEXbK+aN3/N25MZFoXFcHWsn7mrCwA4LH5RQ2GPTROFohPMX65OPIiH9inAw2bxoDSY5sRx1hipo9dSuyo7I0R0/P/82fpr0Jj55crLQMHWFrbK3R4/HQtA7oB2iAsOEZnJWOaKdb0tE0mfWJOO6ROGZThGi37pgrcYh8o+n4lGsKZdMPsUmiUKyIAHrkZyRhpjVn+HjfRuRQz4IZ1U7+wc88Em3Uyjh4+ohNhcV+Rbmh15sZoGyg/rt2JlY89xsrJ/yNvzcPEmDKPFGv6ewbvLbWPv8bHwYPQlNm3j+weywKQtv1RZFmjJ8dXgrXopbgsQ7N4isuur+bRU2SBQjrt3LwAd7N+CljYuRnHlDCJNHcr96ehraePub25nA5qgm+Amv1GtRoq2o3korK0Tug7WBpY0dvVfSGxMpTTlbJX3g/SZq1QYfd3VwwuejpmIm+UMtPX1wOv0ypq//GvN3r0UKfU9bhs2N9eRQBPMC3fxruZmCBGxO2FFt79eCzBALkiIfTQWeiV2IPPI31jz3Jjr6BYoQl49lFxfgUwqh88pL7oub3lTotDhLT38r0gqsNfyaqHHy1mUi41IKhSswIKQzFj39AlzsXf6gSerCQWlEekEBFh/bidjT8XChcNyVzNeKiW+ga4vW4rvYCsiai7Ee5dy5CxaY99kEbhXcI/u/F00cnfF+9ERRcMQ1JoYqk9hv5Odg/p41Ip3PxUZZJYXo2rI1PJxcRfb284ObEff7UWQW5eM2hc63i0xhdA61Yx/H3ckF47v0oX6yMWfbCuQS2ZTkFN/IyxFJtYiAtqRlGlbEBqNCDBJGBbVD39Ydxbk3C+6SuVIjIjCUWlRT9E8PVqBFRUW2aXr4ryn5ElFBYXCiJ9VSB1JlNIjiokPXz4viIheVEw5fv4Bt58/AwZ6zp1Uiz6IkQb/VfwxW/uV1xMa8Tq9v4JORU8RgIoOPX7mbieySAvhThDSBiGMgJ5lJyBlaa8Bag0PvqKBQRLVuL7Sfns61Lf19HzbpzDKEq8Coc+NLKzXsVGBwSFcEejUVUVA5EaD6GTa/6fFYMHoHtkMkkY1fu7UMqkUCkaKnv3JdJTnNN8hs2YmwuK424E8NbfyPeLVx2CxR6gMLlouUWOC7Lp0RZZBuZKJCKRqqWwxt0kuCU+bX+4xjcoW3CibytMbdkiKczUyDG5mSUe3DRQRkAfs83LbhzShebZ0tNufMXsi+hWdXfSqG9GNj/q9WmMqyYPPz2YHNoniJFD2m9BiEWeTHcGjM0c7s7bHYdTERP0+eI7QK/3rWTml5Wei3+O9o69ui2pnNItOzKzVRkCi8VagYNeZr8XXKKEqat2s1rufxKDRfvX4wedn/ySktxEu9h+Pt/s+IvbYCizMrKY3CQrSjJ/5NEsaO6fOxc9oCMb2CSfKoYB+jGYXdk3sOwpTwwejY3EQSBhPj56SD+PX8SdJaGbiem0Nb9gM3rrazdUiKKAzWECoii4+rGr6kFVRK+2oB1wR7IA+D0Dbmv5ohLe8v1ZIvRBjStit+jHkF/3m2/m35X16lkLgNfYf6voXtQHJEeSCIF2wu8spKhEo4n50uoqCHgbWHmH5q/lwXXOEWSSFvJDvG9WxRrUPg5+ZhUnc2jEZDlBJNORYd+hWJd66JjOsXB3/BlvOnSDs8mCxMkvSCe9iZegaZJfn1koX9INY2D9o4dKcXm4fNEoUdTEOVHroqHfSGB288ssy4U5QvfAonpQNaefiK5NviYzvIfygQx+uiyqgXib1nli/E29tiMer7D7Ai4TfoDJUUxejouHXiF46ulW3/zLA5ovAt53vPybA521dhRtwSzNhY/zY9bjHiko9RuGwQguU6Vs7o9g5sL/IiWr2+XvPDPkkGEWtt4iGRg3Gnc0q1FVh2YhdejFsqrslaRvg/DyABf0eeM8T9cPTE4Lb1aSVbgM0RhWfnqZ1cxSDemdvXcOLmperteFrtjcdqvj6yDdfuZcLL2UVU6N8rKxKFS1zSGOzrT/3VX6HGGoeLsd0cnURKn0nFWd2TdB2utb1TmCcScF4ubn8wLUwGbVUFNqacRMzKL3E6/YqYKNZC7WVWMbYHm8uj6Mnc7Lv6O2JP7RM5FYsJCPRqhpFhPeCoUlU7BTzJnDXGt2NfxhOtgok4V4S54RoWH4qI5vQfg5YePkKytfMoc6iNFtM3LMaNvGyonV3FZHXO3YzuEC40CYMH+0a27yEq/i3Q0nk8g3Blwn4kkT/EmV3+buM6R4qJaE0cnG3KZ7HkUWxypiBPs+CVBVYlHMSy4zvFyC9PmeA61i9GTxUFSfzgDlk2nwRchsVMlIBgYXoqiSQ8buNAwlbRU86/ntvWTbg1pT6OpF3EW1t+FIXUKnsVvhs/ExGBbc3fwsTHKvNgJINJuzB+vRh01Oi1Ios7rF13zBkwhrSJJx23PW1i0wk3/o8yXenJfKl3tKhY4zk1SqUdEm5fwcn0q0IgPJr8xydAQc6svZhfzEJs+BFRoG9QB8RNeRcbpryD7dPmoWerUNGv6JuuwRun8U2teWQ7B+uSDwvC9A5qj2XjZoqJaDywaIskqQmbJArDJGQF2jcLwPyhE9CvTUfhV5RrG14ViU9rmCD3wW5uK8+m6OAXQBrh/n/1y5EPO7NrzxzEtosJYh9fk1c40Op16NKiNRaN/ht9p07iWlZe7k8NmyWKBSwEnkrhRKbBWokwjx7l+eZBvfzyAtoKyaEtoDD5AN7Y8gPm7lyJ1zd/hy8ObkYlEcSCJqSxOLqSEmyeKI8CNhPFYqJ5AkUkR01Vcg9hDPsz684ewQvrFpNzuwRT1y3B0mO7SFMYMSS0qyh/XEp+0u3CnOq+pKBB6kLyRGHhcSZWZWcQqxHM3b4Sr5EW+PuO1Zi9dTnSC7Kr/Yz6cLe0iDRIPK7ey8C5rJsUad0UoTlHL0+2DxdVaxyJ8SxFKUPSROHQmIXKFfEzNy3HjLil2HvlrPA7gn2bIzXnNtYnHxdjOQ3bIoUoq3x38Fh8M3Y6hoV1E8t8zdkeK0oco8jp9XJxl6QmsUByROFKeQs6NQ8gomhw/GaqcDp57g+PLHdqHoinOkaI0kQOs60RME8/7UuRzIjQcMwbMh5Teg4ijdITk3sOxNfPTBelmTWLmqQGSRCFucEFz1zZtudykkjEcdp+wbCJeG9IDF6NGoXX+ozC+Mcj4UBO7/5rv5OfsVPkXh5T+5p7eTiYUGxgfF098c7AsfhkxBTMHTRerLB0MSdD9MlTPnh4oEEFZYOQBFFY+F1bBIkxmf1XU/Bi3GIsPrpD+B5/fWIQXukzErMiR2JBdAze7Pc0vJ3dxPKhXEsy9vEnyGGlTh7BbnBTXovF2UElwuGVFAXN3LhErF/L/fYKDIWTSikpUySZNdx4DRQe3/nm6HaxpiyHtFww9CppEk7fO5D24F/K5CnX8ehvFRzt7WGvUAqNlJafjb7fzhWZ2Z+fnyPWfOMbwyshTF67SJQ87pkxn44/Jq7HI8gXsu7gqyPbcOhaChHDAW18mmNGxDBEh3Wn60jDDEmuFJK1Qq/AdmK24OyBYxBADisT5u2tP2LhvjjcoFCYnVauEXEmDcQTspQkTCYDL7vFK0myj1FYUYYDJPgKvUYQqC6YkFnFefjiwBbM2rQMh66fE+NGr5B5+8/4l/Fkh3DJkKQmJKNRasKB5HQ19y4+2rsOx8iRZfPQwsNHmJ2nOvakFiZBcpKfV3T8+Lc4sXgfZ3Y5P8Ip+IEhnTFvaIzQQM+v+VJolN0vzkNOSbFYu5Y/s2Pcs1VbzCdfKNinmcmESQw2PShoDVjAGiLIrtQziD39G1Lv3hbrpUQFtse0iKEkWD9su5CA1YkHcSMvC2onF7EUBt8NdogLSLP4u3uif5tOYr3a3NJisdIkz3XmEeHWXn5iIWJe1cDT2ZW0kvnCEoPkiXIfRpRoKvDl4V+xMeW4qCvhOTqcUc0j4fMob3u/Vpjdfwx6BYWSllEgJfMmPorfgJSsNOG0WiyQpaSB185/rc+TaK72Ee2ljEZEFDYx/I8e+y6fFzUq57JuoVKnhR9pjKdJI0zu0Q/N3Hj+smhOvgqQV16KtUmHsfH3Y2J5LyYET9n4a/hgkbo3VbeZ2ksZjYooFrBzyuvZx185hzsFuegf3IGEHyAGFdnJrQluyzW5PGeH/2MFdn6jw7qJKjVRYmBuJ3U0SqJYwNGP5UfXJUhdMGFYI/Erl9c2tptlIQq9ND6w48kEeRhJGPwYcTupTLv4X9EoiSLj0SETRYZVkIkiwypIgijsaCqVJserPvB+e3tTu/8NRmg0xdBqH74cuqltKcrK6p+BaKuweaKw8PPz83Dw4D6cP/+7SMHXxfXrVxEfvxv37mWb9zwadDodli79Ftu3b6VPDefp9XotVq9egX/+cy4MhnoWorVRSIIoV69ewXvvvYPPP19IT3KJ+YgJFRUlJOSvMWfOazh3Ltm813pw/0y+vLw8FBcXm/c+GNy2oCAfOTn/Gyn/rJCE6bEj2xIU1IZIUoq0tOvmvSYhZ2dnktCy4O3tI1Z3tOxnE8Ht793LQXl5GQm4yrzfdJy1wd272SgsLBDH7OwUKClhohjN5KkiEpaJ/i3nSxmSIArXxoaGtkOnTl3J/KQIf4XBfsmpU6fQoUNnNG3qJ552hkajwdq1KzFsWCRiYkZjxIg++OmnFXTEdFyv1+Pjj+dj3LjhmDDhSfzwwxIiDmuVXCKJkY7rsGrV9+L8yZPHYvDgCGzYsIb6N4jzpQhJEIWh0xlIcCORkHCCBKYXT71Go8PZs2cEgRwdHQVRWNDx8TuwfPlS/O1vL+GzzxZh6tQZ2Lx5HXbs2Eqaowrr1/+EM2dOYtasN7Fw4WekSUro8wkinlKQcO/e3YiL+xnTp7+CRYu+wdy5/8SWLXFISUkW15UiJEMU1gZsfshwIDnZpFUyMjJx61YaevR4XGgJhlKpx+HDB6ltCBFlOh2LxKRJU9CmTVucOHGU/JAyEvom9O7dF2PHjkfPnqx1Jgm/g+tyuZtTp46hf/9BmDZtKrp374Fnnx2DLl16IDb2uwdGXrYOSfwsk/bQwNXVDf7+LUhj7BLE2LhxLcLCOsDDw0v4HFz4rFBUke+Rg4iISNIwphFgpVJFpqkZ0tPTKILKpXO1dI4n7TeVT6rVnggJCSUTZ6AQ2SB8l/Pnz+H99z+k6GYebe/jwoUU3L59y/yNpAeJEEWB3NwcMj8a8heG4siRAxQJXcPJk4fFEw+oiCgWZ1MhHFMXl7pTPnnSuVG0s/gylv9EgWF5z69sgpo390dkZF/06hWFJ56IxJQp0/HGG++KgUMpQjKK0ixbBAe3hZeXF2mTn2mfHfr1G1J9jMH7/Pz8hZlRKEy+jMGgFZFRQEAQfH2bQqVSUbRTSJqlUpiSwsI8XLlyid4riSR2QkM5O7ugb99+RMxhGDJkGJGlN5GmV61rSQmSsqgsJE9PNYYPfwr79+8VfoRarTYfNcFgUJL/0QepqRcocllJJiQJ69atEUk51gzu7q5EgEFCG23ZshlHj+7HihU/Ur/e1L9RRFLh4b2RmHgKa9asJs2VSm0PYcGCd8lxPiuIJ0VIgihMEEsegxe26dNnAHx8fDFq1JjqJ5xDaBY0Fx0NHTqCHNCJWLr0KzIXs/Ddd4vJcZ2AkSOfouN2IpoJCWmHL7/8hCKa2UQeNbp1CycNoxOmJTp6BLWfiCVLvsKrr84QbdgZ7tatm7geX6e+teFsGZIoXNJqtSgvLyWBepB5YO4bUVRUCDc3dfVnjlpcXFwpTHYSTz0LkpNpxcVFwnF1d3cXpoXvBh/nPjm76ujoQKbMVyTVuB/u03J+aWmJ6MPLy1uYIj6f2/B+TvuzFrJ18O1rtBVuMqyHhSiSMD0y/v8hE0WGVZCJIuOhYJ9MJoqMh4KTkDJRZDQIdmZv3rwuE0VGw+CcEI9j2VlqN2TIqAv2TdLT05GRcROKxMQLxqCg1lCpnISakSGDM2s6nRa5uXexadMGREWFQ7Fo0b+Njo4uIuPo6uosWCSjcUOjqURxcQny8u6ib99IREZG4r+8VBuFL94nWQAAAABJRU5ErkJggg==;" vertex="1" parent="1">
          <mxGeometry x="373.21" y="800" width="138" height="102" as="geometry" />
        </mxCell>
        <mxCell id="TX5If2MqFz6uqhYADykB-36" value="&lt;span style=&quot;color: rgb(255, 255, 255); font-family: &amp;quot;Söhne Mono&amp;quot;, Monaco, &amp;quot;Andale Mono&amp;quot;, &amp;quot;Ubuntu Mono&amp;quot;, monospace; font-size: 14px; font-style: normal; font-variant-ligatures: normal; font-variant-caps: normal; font-weight: 400; letter-spacing: normal; orphans: 2; text-align: left; text-indent: 0px; text-transform: none; widows: 2; word-spacing: 0px; -webkit-text-stroke-width: 0px; white-space: pre; background-color: rgb(13, 13, 13); text-decoration-thickness: initial; text-decoration-style: initial; text-decoration-color: initial; display: inline !important; float: none;&quot;&gt;Recommendation Output&lt;/span&gt;" style="text;whiteSpace=wrap;html=1;" vertex="1" parent="1">
          <mxGeometry x="360" y="970" width="200" height="40" as="geometry" />
        </mxCell>
        <mxCell id="TX5If2MqFz6uqhYADykB-40" style="edgeStyle=none;rounded=0;orthogonalLoop=1;jettySize=auto;html=1;entryX=0.43;entryY=-0.08;entryDx=0;entryDy=0;entryPerimeter=0;" edge="1" parent="1" source="TX5If2MqFz6uqhYADykB-31" target="TX5If2MqFz6uqhYADykB-36">
          <mxGeometry relative="1" as="geometry" />
        </mxCell>
      </root>
    </mxGraphModel>
  </diagram>
</mxfile>
